G04 #@! TF.FileFunction,Copper,L1,Top,Signal*
%FSLAX46Y46*%
G04 Gerber Fmt 4.6, Leading zero omitted, Abs format (unit mm)*
G04 Created by KiCad (PCBNEW 4.0.5+dfsg1-4) date Thu Feb 15 14:09:15 2018*
%MOMM*%
%LPD*%
G01*
G04 APERTURE LIST*
%ADD10C,0.100000*%
%ADD11R,1.200000X1.400000*%
%ADD12R,4.000500X2.700020*%
%ADD13R,0.750000X1.200000*%
%ADD14R,1.200000X0.750000*%
%ADD15R,2.000000X1.700000*%
%ADD16R,1.727200X1.727200*%
%ADD17O,1.727200X1.727200*%
%ADD18C,1.524000*%
%ADD19C,3.500000*%
%ADD20R,1.200000X0.900000*%
%ADD21R,3.048000X1.651000*%
%ADD22R,6.096000X6.096000*%
%ADD23R,0.300000X0.850000*%
%ADD24C,6.000000*%
%ADD25C,3.000000*%
%ADD26R,0.508000X1.143000*%
%ADD27R,1.200000X0.280000*%
%ADD28R,0.280000X1.200000*%
%ADD29C,1.000000*%
%ADD30C,0.800000*%
%ADD31C,0.250000*%
%ADD32C,0.500000*%
%ADD33C,0.254000*%
G04 APERTURE END LIST*
D10*
D11*
X168872000Y-90086000D03*
X168872000Y-92286000D03*
X170472000Y-92286000D03*
X170472000Y-90086000D03*
D12*
X149146260Y-111760000D03*
X156923740Y-111760000D03*
X149146260Y-116840000D03*
X156923740Y-116840000D03*
D13*
X157988000Y-98359000D03*
X157988000Y-96459000D03*
X166370000Y-91125000D03*
X166370000Y-93025000D03*
D14*
X171130000Y-94615000D03*
X169230000Y-94615000D03*
X169230000Y-96520000D03*
X171130000Y-96520000D03*
X169230000Y-98425000D03*
X171130000Y-98425000D03*
D15*
X185960000Y-113030000D03*
X189960000Y-113030000D03*
D16*
X132080000Y-96520000D03*
D17*
X134620000Y-96520000D03*
X132080000Y-99060000D03*
X134620000Y-99060000D03*
X132080000Y-101600000D03*
X134620000Y-101600000D03*
X132080000Y-104140000D03*
X134620000Y-104140000D03*
X132080000Y-106680000D03*
X134620000Y-106680000D03*
D18*
X180040000Y-100600000D03*
X180040000Y-102600000D03*
X180040000Y-98100000D03*
X180040000Y-105100000D03*
D19*
X182740000Y-108100000D03*
X182740000Y-95100000D03*
D20*
X142070000Y-106680000D03*
X139870000Y-106680000D03*
X142070000Y-104140000D03*
X139870000Y-104140000D03*
X142070000Y-101600000D03*
X139870000Y-101600000D03*
X155532000Y-94869000D03*
X153332000Y-94869000D03*
X173185000Y-102870000D03*
X170985000Y-102870000D03*
X173185000Y-100330000D03*
X170985000Y-100330000D03*
D21*
X162560000Y-112014000D03*
D22*
X168910000Y-114300000D03*
D21*
X162560000Y-116586000D03*
D23*
X176030000Y-100875000D03*
X176530000Y-100875000D03*
X177030000Y-100875000D03*
X177030000Y-102325000D03*
X176530000Y-102325000D03*
X176030000Y-102325000D03*
D24*
X142240000Y-90170000D03*
X142240000Y-113030000D03*
X176530000Y-113030000D03*
X176530000Y-90170000D03*
D14*
X188910000Y-117475000D03*
X187010000Y-117475000D03*
D25*
X133350000Y-87630000D03*
D14*
X188910000Y-115570000D03*
X187010000Y-115570000D03*
D26*
X155575000Y-103505000D03*
X153035000Y-103505000D03*
X151765000Y-103505000D03*
X150495000Y-103505000D03*
X149225000Y-103505000D03*
X147955000Y-103505000D03*
X146685000Y-103505000D03*
X146685000Y-97155000D03*
X147955000Y-97155000D03*
X149225000Y-97155000D03*
X150495000Y-97155000D03*
X151765000Y-97155000D03*
X153035000Y-97155000D03*
X154305000Y-97155000D03*
X155575000Y-97155000D03*
X154305000Y-103505000D03*
D27*
X159945000Y-99850000D03*
X159945000Y-100350000D03*
X159945000Y-100850000D03*
X159945000Y-101350000D03*
X159945000Y-101850000D03*
X159945000Y-102350000D03*
X159945000Y-102850000D03*
X159945000Y-103350000D03*
D28*
X161445000Y-104850000D03*
X161945000Y-104850000D03*
X162445000Y-104850000D03*
X162945000Y-104850000D03*
X163445000Y-104850000D03*
X163945000Y-104850000D03*
X164445000Y-104850000D03*
X164945000Y-104850000D03*
D27*
X166445000Y-103350000D03*
X166445000Y-102850000D03*
X166445000Y-102350000D03*
X166445000Y-101850000D03*
X166445000Y-101350000D03*
X166445000Y-100850000D03*
X166445000Y-100350000D03*
X166445000Y-99850000D03*
D28*
X164945000Y-98350000D03*
X164445000Y-98350000D03*
X163945000Y-98350000D03*
X163445000Y-98350000D03*
X162945000Y-98350000D03*
X162445000Y-98350000D03*
X161945000Y-98350000D03*
X161445000Y-98350000D03*
D29*
X187960000Y-88900000D03*
X134620000Y-114300000D03*
D30*
X129286000Y-117221000D03*
X190500000Y-101600000D03*
X151511000Y-91440000D03*
X162052000Y-91440000D03*
X140970000Y-99060000D03*
X163195000Y-101600000D03*
X157480000Y-102870000D03*
X162560000Y-114300000D03*
X172720000Y-98425000D03*
X172720000Y-96520000D03*
X172720000Y-94615000D03*
X184785000Y-117475000D03*
X166370000Y-94615000D03*
X176530000Y-99695000D03*
X176530000Y-103505000D03*
X180975000Y-116840000D03*
X135255000Y-116840000D03*
X153035000Y-116840000D03*
X160528000Y-94869000D03*
X174625000Y-102235000D03*
X168910000Y-109220000D03*
X153035000Y-111760000D03*
X163830000Y-99695000D03*
X174625000Y-100965000D03*
X149225000Y-108204000D03*
X146431000Y-105410000D03*
X144653000Y-101600000D03*
X148209000Y-108966000D03*
X147955000Y-105410000D03*
X150114000Y-107442000D03*
X146685000Y-101600000D03*
X153035000Y-101600000D03*
D31*
X162560000Y-112014000D02*
X162560000Y-114300000D01*
X171130000Y-98425000D02*
X172720000Y-98425000D01*
X171130000Y-96520000D02*
X172720000Y-96520000D01*
X171130000Y-94615000D02*
X172720000Y-94615000D01*
X166445000Y-102350000D02*
X163945000Y-102350000D01*
X162445000Y-100850000D02*
X163195000Y-101600000D01*
X162445000Y-100850000D02*
X159945000Y-100850000D01*
X163945000Y-102350000D02*
X163195000Y-101600000D01*
X187010000Y-117475000D02*
X184785000Y-117475000D01*
X166370000Y-93025000D02*
X166370000Y-94615000D01*
X176530000Y-100875000D02*
X176530000Y-99695000D01*
X176530000Y-102325000D02*
X176530000Y-103505000D01*
D32*
X187010000Y-115570000D02*
X184785000Y-115570000D01*
X183515000Y-116840000D02*
X180975000Y-116840000D01*
X184785000Y-115570000D02*
X183515000Y-116840000D01*
X156923740Y-116840000D02*
X153035000Y-116840000D01*
X130175000Y-96520000D02*
X128905000Y-97790000D01*
X128905000Y-97790000D02*
X128905000Y-114935000D01*
X128905000Y-114935000D02*
X130810000Y-116840000D01*
X130810000Y-116840000D02*
X135255000Y-116840000D01*
X130175000Y-96520000D02*
X132080000Y-96520000D01*
X156923740Y-116840000D02*
X157177740Y-116586000D01*
X157177740Y-116586000D02*
X162560000Y-116586000D01*
D31*
X160528000Y-94869000D02*
X155532000Y-94869000D01*
X155575000Y-97155000D02*
X155575000Y-94912000D01*
X155575000Y-94912000D02*
X155532000Y-94869000D01*
X157988000Y-98359000D02*
X155890000Y-98359000D01*
X155575000Y-98044000D02*
X155575000Y-97155000D01*
X155890000Y-98359000D02*
X155575000Y-98044000D01*
X159945000Y-100350000D02*
X158516000Y-100350000D01*
X157988000Y-99822000D02*
X157988000Y-98359000D01*
X158516000Y-100350000D02*
X157988000Y-99822000D01*
X174625000Y-102235000D02*
X175895000Y-102235000D01*
X168910000Y-114300000D02*
X168910000Y-109220000D01*
X153035000Y-111760000D02*
X156923740Y-111760000D01*
X159945000Y-100350000D02*
X163175000Y-100350000D01*
X163175000Y-100350000D02*
X163830000Y-99695000D01*
X164485000Y-100350000D02*
X163830000Y-99695000D01*
X164485000Y-100350000D02*
X166445000Y-100350000D01*
X176030000Y-102325000D02*
X175985000Y-102325000D01*
X175985000Y-102325000D02*
X175895000Y-102235000D01*
X166445000Y-100350000D02*
X167366000Y-100350000D01*
X168148000Y-96520000D02*
X169230000Y-96520000D01*
X167894000Y-96774000D02*
X168148000Y-96520000D01*
X167894000Y-99822000D02*
X167894000Y-96774000D01*
X167366000Y-100350000D02*
X167894000Y-99822000D01*
X168872000Y-90086000D02*
X167978000Y-90086000D01*
X166939000Y-91125000D02*
X166370000Y-91125000D01*
X167978000Y-90086000D02*
X166939000Y-91125000D01*
X164945000Y-98350000D02*
X164945000Y-91341000D01*
X165161000Y-91125000D02*
X166370000Y-91125000D01*
X164945000Y-91341000D02*
X165161000Y-91125000D01*
X166445000Y-100850000D02*
X167755000Y-100850000D01*
X169230000Y-99375000D02*
X169230000Y-98425000D01*
X167755000Y-100850000D02*
X169230000Y-99375000D01*
X175895000Y-100965000D02*
X174625000Y-100965000D01*
D32*
X185960000Y-113030000D02*
X185960000Y-106585000D01*
X185960000Y-106585000D02*
X184475000Y-105100000D01*
X184475000Y-105100000D02*
X180040000Y-105100000D01*
D31*
X176030000Y-100875000D02*
X175985000Y-100875000D01*
X175985000Y-100875000D02*
X175895000Y-100965000D01*
X139870000Y-101600000D02*
X137160000Y-101600000D01*
X137160000Y-101600000D02*
X134620000Y-99060000D01*
X139870000Y-104140000D02*
X134620000Y-104140000D01*
X139870000Y-106680000D02*
X134620000Y-106680000D01*
X177030000Y-100875000D02*
X177509000Y-100875000D01*
X177800000Y-100584000D02*
X177800000Y-98806000D01*
X177509000Y-100875000D02*
X177800000Y-100584000D01*
X173185000Y-100330000D02*
X174244000Y-100330000D01*
X178246000Y-98806000D02*
X180040000Y-100600000D01*
X175768000Y-98806000D02*
X177546000Y-98806000D01*
X177546000Y-98806000D02*
X177800000Y-98806000D01*
X177800000Y-98806000D02*
X178246000Y-98806000D01*
X174244000Y-100330000D02*
X175768000Y-98806000D01*
X177030000Y-102325000D02*
X177509000Y-102325000D01*
X177800000Y-102616000D02*
X177800000Y-104394000D01*
X177509000Y-102325000D02*
X177800000Y-102616000D01*
X173185000Y-102870000D02*
X174244000Y-102870000D01*
X178246000Y-104394000D02*
X180040000Y-102600000D01*
X175768000Y-104394000D02*
X177546000Y-104394000D01*
X177546000Y-104394000D02*
X177800000Y-104394000D01*
X177800000Y-104394000D02*
X178246000Y-104394000D01*
X174244000Y-102870000D02*
X175768000Y-104394000D01*
X164445000Y-104850000D02*
X164445000Y-106573000D01*
X159258000Y-106680000D02*
X142070000Y-106680000D01*
X160401000Y-107823000D02*
X159258000Y-106680000D01*
X163195000Y-107823000D02*
X160401000Y-107823000D01*
X164445000Y-106573000D02*
X163195000Y-107823000D01*
X166445000Y-106097000D02*
X163322000Y-109220000D01*
X163322000Y-109220000D02*
X160020000Y-109220000D01*
X160020000Y-109220000D02*
X159004000Y-108204000D01*
X159004000Y-108204000D02*
X149225000Y-108204000D01*
X166445000Y-103350000D02*
X166445000Y-106097000D01*
X145161000Y-104140000D02*
X142070000Y-104140000D01*
X146431000Y-105410000D02*
X145161000Y-104140000D01*
X166445000Y-102850000D02*
X167747000Y-102850000D01*
X144653000Y-101600000D02*
X142070000Y-101600000D01*
X158877000Y-108966000D02*
X148209000Y-108966000D01*
X159766000Y-109855000D02*
X158877000Y-108966000D01*
X163449000Y-109855000D02*
X159766000Y-109855000D01*
X168402000Y-104902000D02*
X163449000Y-109855000D01*
X168402000Y-103505000D02*
X168402000Y-104902000D01*
X167747000Y-102850000D02*
X168402000Y-103505000D01*
X166445000Y-101850000D02*
X168652000Y-101850000D01*
X168652000Y-101850000D02*
X169672000Y-102870000D01*
X169672000Y-102870000D02*
X170985000Y-102870000D01*
X166445000Y-101350000D02*
X168652000Y-101350000D01*
X169672000Y-100330000D02*
X170985000Y-100330000D01*
X168652000Y-101350000D02*
X169672000Y-100330000D01*
X147955000Y-103505000D02*
X147955000Y-105410000D01*
X150114000Y-107442000D02*
X159131000Y-107442000D01*
X159131000Y-107442000D02*
X160274000Y-108585000D01*
X160274000Y-108585000D02*
X163195000Y-108585000D01*
X163195000Y-108585000D02*
X164945000Y-106835000D01*
X164945000Y-106835000D02*
X164945000Y-104850000D01*
X170472000Y-92286000D02*
X170472000Y-93307000D01*
X169230000Y-93787000D02*
X169230000Y-94615000D01*
X169418000Y-93599000D02*
X169230000Y-93787000D01*
X170180000Y-93599000D02*
X169418000Y-93599000D01*
X170472000Y-93307000D02*
X170180000Y-93599000D01*
X169230000Y-94615000D02*
X167894000Y-94615000D01*
X167894000Y-94615000D02*
X166445000Y-96064000D01*
X166445000Y-96064000D02*
X166445000Y-99850000D01*
X188910000Y-115570000D02*
X188910000Y-117475000D01*
D32*
X188910000Y-115570000D02*
X189230000Y-115570000D01*
X189230000Y-115570000D02*
X189960000Y-114840000D01*
X189960000Y-114840000D02*
X189960000Y-113030000D01*
D31*
X153035000Y-97155000D02*
X153035000Y-98425000D01*
X133350000Y-97790000D02*
X132080000Y-99060000D01*
X140970000Y-97790000D02*
X133350000Y-97790000D01*
X142240000Y-99060000D02*
X140970000Y-97790000D01*
X152400000Y-99060000D02*
X142240000Y-99060000D01*
X153035000Y-98425000D02*
X152400000Y-99060000D01*
X146685000Y-103505000D02*
X146685000Y-101600000D01*
X132080000Y-104140000D02*
X133350000Y-102870000D01*
X149225000Y-100965000D02*
X149225000Y-103505000D01*
X148590000Y-100330000D02*
X149225000Y-100965000D01*
X146050000Y-100330000D02*
X148590000Y-100330000D01*
X145415000Y-100965000D02*
X146050000Y-100330000D01*
X145415000Y-102235000D02*
X145415000Y-100965000D01*
X144780000Y-102870000D02*
X145415000Y-102235000D01*
X133350000Y-102870000D02*
X144780000Y-102870000D01*
X153035000Y-103505000D02*
X153035000Y-101600000D01*
X154940000Y-99060000D02*
X154813000Y-99060000D01*
X162945000Y-105787000D02*
X162687000Y-106045000D01*
X162687000Y-106045000D02*
X161036000Y-106045000D01*
X161036000Y-106045000D02*
X158496000Y-103505000D01*
X158496000Y-103505000D02*
X158496000Y-101727000D01*
X158496000Y-101727000D02*
X155829000Y-99060000D01*
X155829000Y-99060000D02*
X154940000Y-99060000D01*
X162945000Y-104850000D02*
X162945000Y-105787000D01*
X154305000Y-98552000D02*
X154305000Y-97155000D01*
X154813000Y-99060000D02*
X154305000Y-98552000D01*
X163945000Y-104850000D02*
X163945000Y-106311000D01*
X150622000Y-105029000D02*
X150622000Y-103505000D01*
X151130000Y-105537000D02*
X150622000Y-105029000D01*
X158877000Y-105537000D02*
X151130000Y-105537000D01*
X160528000Y-107188000D02*
X158877000Y-105537000D01*
X163068000Y-107188000D02*
X160528000Y-107188000D01*
X163945000Y-106311000D02*
X163068000Y-107188000D01*
X163445000Y-104850000D02*
X163445000Y-106049000D01*
X154432000Y-104648000D02*
X154432000Y-103505000D01*
X154686000Y-104902000D02*
X154432000Y-104648000D01*
X159004000Y-104902000D02*
X154686000Y-104902000D01*
X160655000Y-106553000D02*
X159004000Y-104902000D01*
X162941000Y-106553000D02*
X160655000Y-106553000D01*
X163445000Y-106049000D02*
X162941000Y-106553000D01*
D33*
G36*
X192405000Y-118745000D02*
X127635000Y-118745000D01*
X127635000Y-97790000D01*
X128274000Y-97790000D01*
X128274000Y-114935000D01*
X128311558Y-115123816D01*
X128322032Y-115176473D01*
X128458816Y-115381184D01*
X130363816Y-117286184D01*
X130568527Y-117422968D01*
X130810000Y-117471000D01*
X134781361Y-117471000D01*
X134812021Y-117501714D01*
X135098968Y-117620864D01*
X135409669Y-117621136D01*
X135696823Y-117502486D01*
X135916714Y-117282979D01*
X136035864Y-116996032D01*
X136035878Y-116979700D01*
X146638010Y-116979700D01*
X146638010Y-118291058D01*
X146715349Y-118477769D01*
X146858252Y-118620672D01*
X147044963Y-118698010D01*
X149006560Y-118698010D01*
X149133560Y-118571010D01*
X149133560Y-116852700D01*
X149158960Y-116852700D01*
X149158960Y-118571010D01*
X149285960Y-118698010D01*
X151247557Y-118698010D01*
X151434268Y-118620672D01*
X151577171Y-118477769D01*
X151654510Y-118291058D01*
X151654510Y-116994669D01*
X152253864Y-116994669D01*
X152372514Y-117281823D01*
X152592021Y-117501714D01*
X152878968Y-117620864D01*
X153189669Y-117621136D01*
X153476823Y-117502486D01*
X153508364Y-117471000D01*
X154535026Y-117471000D01*
X154535026Y-118190010D01*
X154561593Y-118331200D01*
X154645036Y-118460875D01*
X154772356Y-118547869D01*
X154923490Y-118578474D01*
X158923990Y-118578474D01*
X159065180Y-118551907D01*
X159194855Y-118468464D01*
X159281849Y-118341144D01*
X159312454Y-118190010D01*
X159312454Y-117217000D01*
X160647536Y-117217000D01*
X160647536Y-117411500D01*
X160674103Y-117552690D01*
X160757546Y-117682365D01*
X160884866Y-117769359D01*
X161036000Y-117799964D01*
X164084000Y-117799964D01*
X164225190Y-117773397D01*
X164354865Y-117689954D01*
X164441859Y-117562634D01*
X164472464Y-117411500D01*
X164472464Y-115760500D01*
X164445897Y-115619310D01*
X164362454Y-115489635D01*
X164235134Y-115402641D01*
X164084000Y-115372036D01*
X161036000Y-115372036D01*
X160894810Y-115398603D01*
X160765135Y-115482046D01*
X160678141Y-115609366D01*
X160647536Y-115760500D01*
X160647536Y-115955000D01*
X159312454Y-115955000D01*
X159312454Y-115489990D01*
X159285887Y-115348800D01*
X159202444Y-115219125D01*
X159075124Y-115132131D01*
X158923990Y-115101526D01*
X154923490Y-115101526D01*
X154782300Y-115128093D01*
X154652625Y-115211536D01*
X154565631Y-115338856D01*
X154535026Y-115489990D01*
X154535026Y-116209000D01*
X153508639Y-116209000D01*
X153477979Y-116178286D01*
X153191032Y-116059136D01*
X152880331Y-116058864D01*
X152593177Y-116177514D01*
X152373286Y-116397021D01*
X152254136Y-116683968D01*
X152253864Y-116994669D01*
X151654510Y-116994669D01*
X151654510Y-116979700D01*
X151527510Y-116852700D01*
X149158960Y-116852700D01*
X149133560Y-116852700D01*
X146765010Y-116852700D01*
X146638010Y-116979700D01*
X136035878Y-116979700D01*
X136036136Y-116685331D01*
X135917486Y-116398177D01*
X135697979Y-116178286D01*
X135411032Y-116059136D01*
X135100331Y-116058864D01*
X134813177Y-116177514D01*
X134781636Y-116209000D01*
X131071368Y-116209000D01*
X129536000Y-114673632D01*
X129536000Y-114576661D01*
X133222758Y-114576661D01*
X133434990Y-115090303D01*
X133827630Y-115483629D01*
X134340900Y-115696757D01*
X134896661Y-115697242D01*
X135410303Y-115485010D01*
X135417035Y-115478289D01*
X139809672Y-115478289D01*
X140147941Y-115931078D01*
X141417384Y-116510843D01*
X142812063Y-116560681D01*
X144119650Y-116073005D01*
X144332059Y-115931078D01*
X144670328Y-115478289D01*
X142240000Y-113047961D01*
X139809672Y-115478289D01*
X135417035Y-115478289D01*
X135803629Y-115092370D01*
X136016757Y-114579100D01*
X136017242Y-114023339D01*
X135843175Y-113602063D01*
X138709319Y-113602063D01*
X139196995Y-114909650D01*
X139338922Y-115122059D01*
X139791711Y-115460328D01*
X142222039Y-113030000D01*
X142257961Y-113030000D01*
X144688289Y-115460328D01*
X144783842Y-115388942D01*
X146638010Y-115388942D01*
X146638010Y-116700300D01*
X146765010Y-116827300D01*
X149133560Y-116827300D01*
X149133560Y-115108990D01*
X149158960Y-115108990D01*
X149158960Y-116827300D01*
X151527510Y-116827300D01*
X151654510Y-116700300D01*
X151654510Y-115388942D01*
X151577171Y-115202231D01*
X151434268Y-115059328D01*
X151247557Y-114981990D01*
X149285960Y-114981990D01*
X149158960Y-115108990D01*
X149133560Y-115108990D01*
X149006560Y-114981990D01*
X147044963Y-114981990D01*
X146858252Y-115059328D01*
X146715349Y-115202231D01*
X146638010Y-115388942D01*
X144783842Y-115388942D01*
X145141078Y-115122059D01*
X145720843Y-113852616D01*
X145770681Y-112457937D01*
X145562482Y-111899700D01*
X146638010Y-111899700D01*
X146638010Y-113211058D01*
X146715349Y-113397769D01*
X146858252Y-113540672D01*
X147044963Y-113618010D01*
X149006560Y-113618010D01*
X149133560Y-113491010D01*
X149133560Y-111772700D01*
X149158960Y-111772700D01*
X149158960Y-113491010D01*
X149285960Y-113618010D01*
X151247557Y-113618010D01*
X151434268Y-113540672D01*
X151577171Y-113397769D01*
X151654510Y-113211058D01*
X151654510Y-111914669D01*
X152253864Y-111914669D01*
X152372514Y-112201823D01*
X152592021Y-112421714D01*
X152878968Y-112540864D01*
X153189669Y-112541136D01*
X153476823Y-112422486D01*
X153633583Y-112266000D01*
X154535026Y-112266000D01*
X154535026Y-113110010D01*
X154561593Y-113251200D01*
X154645036Y-113380875D01*
X154772356Y-113467869D01*
X154923490Y-113498474D01*
X158923990Y-113498474D01*
X159065180Y-113471907D01*
X159194855Y-113388464D01*
X159281849Y-113261144D01*
X159312454Y-113110010D01*
X159312454Y-112153700D01*
X160528000Y-112153700D01*
X160528000Y-112940547D01*
X160605338Y-113127258D01*
X160748241Y-113270161D01*
X160934952Y-113347500D01*
X162420300Y-113347500D01*
X162547300Y-113220500D01*
X162547300Y-112026700D01*
X162572700Y-112026700D01*
X162572700Y-113220500D01*
X162699700Y-113347500D01*
X164185048Y-113347500D01*
X164371759Y-113270161D01*
X164514662Y-113127258D01*
X164592000Y-112940547D01*
X164592000Y-112153700D01*
X164465000Y-112026700D01*
X162572700Y-112026700D01*
X162547300Y-112026700D01*
X160655000Y-112026700D01*
X160528000Y-112153700D01*
X159312454Y-112153700D01*
X159312454Y-111087453D01*
X160528000Y-111087453D01*
X160528000Y-111874300D01*
X160655000Y-112001300D01*
X162547300Y-112001300D01*
X162547300Y-110807500D01*
X162572700Y-110807500D01*
X162572700Y-112001300D01*
X164465000Y-112001300D01*
X164592000Y-111874300D01*
X164592000Y-111252000D01*
X165473536Y-111252000D01*
X165473536Y-117348000D01*
X165500103Y-117489190D01*
X165583546Y-117618865D01*
X165710866Y-117705859D01*
X165862000Y-117736464D01*
X171958000Y-117736464D01*
X172099190Y-117709897D01*
X172228865Y-117626454D01*
X172315859Y-117499134D01*
X172346464Y-117348000D01*
X172346464Y-116994669D01*
X180193864Y-116994669D01*
X180312514Y-117281823D01*
X180532021Y-117501714D01*
X180818968Y-117620864D01*
X181129669Y-117621136D01*
X181145245Y-117614700D01*
X185902000Y-117614700D01*
X185902000Y-117951048D01*
X185979339Y-118137759D01*
X186122242Y-118280662D01*
X186308953Y-118358000D01*
X186870300Y-118358000D01*
X186997300Y-118231000D01*
X186997300Y-117487700D01*
X186029000Y-117487700D01*
X185902000Y-117614700D01*
X181145245Y-117614700D01*
X181416823Y-117502486D01*
X181448364Y-117471000D01*
X183515000Y-117471000D01*
X183756473Y-117422968D01*
X183961184Y-117286184D01*
X184248416Y-116998952D01*
X185902000Y-116998952D01*
X185902000Y-117335300D01*
X186029000Y-117462300D01*
X186997300Y-117462300D01*
X186997300Y-116719000D01*
X186870300Y-116592000D01*
X186308953Y-116592000D01*
X186122242Y-116669338D01*
X185979339Y-116812241D01*
X185902000Y-116998952D01*
X184248416Y-116998952D01*
X185046369Y-116201000D01*
X186121981Y-116201000D01*
X186131546Y-116215865D01*
X186258866Y-116302859D01*
X186410000Y-116333464D01*
X187610000Y-116333464D01*
X187751190Y-116306897D01*
X187880865Y-116223454D01*
X187960980Y-116106202D01*
X188031546Y-116215865D01*
X188158866Y-116302859D01*
X188310000Y-116333464D01*
X188404000Y-116333464D01*
X188404000Y-116711536D01*
X188310000Y-116711536D01*
X188168810Y-116738103D01*
X188043383Y-116818812D01*
X188040661Y-116812241D01*
X187897758Y-116669338D01*
X187711047Y-116592000D01*
X187149700Y-116592000D01*
X187022700Y-116719000D01*
X187022700Y-117462300D01*
X187042700Y-117462300D01*
X187042700Y-117487700D01*
X187022700Y-117487700D01*
X187022700Y-118231000D01*
X187149700Y-118358000D01*
X187711047Y-118358000D01*
X187897758Y-118280662D01*
X188040661Y-118137759D01*
X188044104Y-118129446D01*
X188158866Y-118207859D01*
X188310000Y-118238464D01*
X189510000Y-118238464D01*
X189651190Y-118211897D01*
X189780865Y-118128454D01*
X189867859Y-118001134D01*
X189898464Y-117850000D01*
X189898464Y-117100000D01*
X189871897Y-116958810D01*
X189788454Y-116829135D01*
X189661134Y-116742141D01*
X189510000Y-116711536D01*
X189416000Y-116711536D01*
X189416000Y-116333464D01*
X189510000Y-116333464D01*
X189651190Y-116306897D01*
X189780865Y-116223454D01*
X189867859Y-116096134D01*
X189898464Y-115945000D01*
X189898464Y-115793904D01*
X190406184Y-115286184D01*
X190542968Y-115081473D01*
X190591000Y-114840000D01*
X190591000Y-114268464D01*
X190960000Y-114268464D01*
X191101190Y-114241897D01*
X191230865Y-114158454D01*
X191317859Y-114031134D01*
X191348464Y-113880000D01*
X191348464Y-112180000D01*
X191321897Y-112038810D01*
X191238454Y-111909135D01*
X191111134Y-111822141D01*
X190960000Y-111791536D01*
X188960000Y-111791536D01*
X188818810Y-111818103D01*
X188689135Y-111901546D01*
X188602141Y-112028866D01*
X188571536Y-112180000D01*
X188571536Y-113880000D01*
X188598103Y-114021190D01*
X188681546Y-114150865D01*
X188808866Y-114237859D01*
X188960000Y-114268464D01*
X189329000Y-114268464D01*
X189329000Y-114578632D01*
X189101096Y-114806536D01*
X188310000Y-114806536D01*
X188168810Y-114833103D01*
X188039135Y-114916546D01*
X187959020Y-115033798D01*
X187888454Y-114924135D01*
X187761134Y-114837141D01*
X187610000Y-114806536D01*
X186410000Y-114806536D01*
X186268810Y-114833103D01*
X186139135Y-114916546D01*
X186123793Y-114939000D01*
X184785000Y-114939000D01*
X184583589Y-114979063D01*
X184543526Y-114987032D01*
X184338815Y-115123816D01*
X183253632Y-116209000D01*
X181448639Y-116209000D01*
X181417979Y-116178286D01*
X181131032Y-116059136D01*
X180820331Y-116058864D01*
X180533177Y-116177514D01*
X180313286Y-116397021D01*
X180194136Y-116683968D01*
X180193864Y-116994669D01*
X172346464Y-116994669D01*
X172346464Y-115478289D01*
X174099672Y-115478289D01*
X174437941Y-115931078D01*
X175707384Y-116510843D01*
X177102063Y-116560681D01*
X178409650Y-116073005D01*
X178622059Y-115931078D01*
X178960328Y-115478289D01*
X176530000Y-113047961D01*
X174099672Y-115478289D01*
X172346464Y-115478289D01*
X172346464Y-113602063D01*
X172999319Y-113602063D01*
X173486995Y-114909650D01*
X173628922Y-115122059D01*
X174081711Y-115460328D01*
X176512039Y-113030000D01*
X176547961Y-113030000D01*
X178978289Y-115460328D01*
X179431078Y-115122059D01*
X180010843Y-113852616D01*
X180060681Y-112457937D01*
X179573005Y-111150350D01*
X179431078Y-110937941D01*
X178978289Y-110599672D01*
X176547961Y-113030000D01*
X176512039Y-113030000D01*
X174081711Y-110599672D01*
X173628922Y-110937941D01*
X173049157Y-112207384D01*
X172999319Y-113602063D01*
X172346464Y-113602063D01*
X172346464Y-111252000D01*
X172319897Y-111110810D01*
X172236454Y-110981135D01*
X172109134Y-110894141D01*
X171958000Y-110863536D01*
X169416000Y-110863536D01*
X169416000Y-110581711D01*
X174099672Y-110581711D01*
X176530000Y-113012039D01*
X178960328Y-110581711D01*
X178622059Y-110128922D01*
X177567025Y-109647079D01*
X181210882Y-109647079D01*
X181397074Y-109969985D01*
X182214910Y-110341556D01*
X183112687Y-110371871D01*
X183953725Y-110056314D01*
X184082926Y-109969985D01*
X184269118Y-109647079D01*
X182740000Y-108117961D01*
X181210882Y-109647079D01*
X177567025Y-109647079D01*
X177352616Y-109549157D01*
X175957937Y-109499319D01*
X174650350Y-109986995D01*
X174437941Y-110128922D01*
X174099672Y-110581711D01*
X169416000Y-110581711D01*
X169416000Y-109818421D01*
X169571714Y-109662979D01*
X169690864Y-109376032D01*
X169691136Y-109065331D01*
X169572486Y-108778177D01*
X169352979Y-108558286D01*
X169146833Y-108472687D01*
X180468129Y-108472687D01*
X180783686Y-109313725D01*
X180870015Y-109442926D01*
X181192921Y-109629118D01*
X182722039Y-108100000D01*
X182757961Y-108100000D01*
X184287079Y-109629118D01*
X184609985Y-109442926D01*
X184981556Y-108625090D01*
X185011871Y-107727313D01*
X184696314Y-106886275D01*
X184609985Y-106757074D01*
X184287079Y-106570882D01*
X182757961Y-108100000D01*
X182722039Y-108100000D01*
X181192921Y-106570882D01*
X180870015Y-106757074D01*
X180498444Y-107574910D01*
X180468129Y-108472687D01*
X169146833Y-108472687D01*
X169066032Y-108439136D01*
X168755331Y-108438864D01*
X168468177Y-108557514D01*
X168248286Y-108777021D01*
X168129136Y-109063968D01*
X168128864Y-109374669D01*
X168247514Y-109661823D01*
X168404000Y-109818583D01*
X168404000Y-110863536D01*
X165862000Y-110863536D01*
X165720810Y-110890103D01*
X165591135Y-110973546D01*
X165504141Y-111100866D01*
X165473536Y-111252000D01*
X164592000Y-111252000D01*
X164592000Y-111087453D01*
X164514662Y-110900742D01*
X164371759Y-110757839D01*
X164185048Y-110680500D01*
X162699700Y-110680500D01*
X162572700Y-110807500D01*
X162547300Y-110807500D01*
X162420300Y-110680500D01*
X160934952Y-110680500D01*
X160748241Y-110757839D01*
X160605338Y-110900742D01*
X160528000Y-111087453D01*
X159312454Y-111087453D01*
X159312454Y-110409990D01*
X159285887Y-110268800D01*
X159202444Y-110139125D01*
X159075124Y-110052131D01*
X158923990Y-110021526D01*
X154923490Y-110021526D01*
X154782300Y-110048093D01*
X154652625Y-110131536D01*
X154565631Y-110258856D01*
X154535026Y-110409990D01*
X154535026Y-111254000D01*
X153633421Y-111254000D01*
X153477979Y-111098286D01*
X153191032Y-110979136D01*
X152880331Y-110978864D01*
X152593177Y-111097514D01*
X152373286Y-111317021D01*
X152254136Y-111603968D01*
X152253864Y-111914669D01*
X151654510Y-111914669D01*
X151654510Y-111899700D01*
X151527510Y-111772700D01*
X149158960Y-111772700D01*
X149133560Y-111772700D01*
X146765010Y-111772700D01*
X146638010Y-111899700D01*
X145562482Y-111899700D01*
X145283005Y-111150350D01*
X145141078Y-110937941D01*
X144688289Y-110599672D01*
X142257961Y-113030000D01*
X142222039Y-113030000D01*
X139791711Y-110599672D01*
X139338922Y-110937941D01*
X138759157Y-112207384D01*
X138709319Y-113602063D01*
X135843175Y-113602063D01*
X135805010Y-113509697D01*
X135412370Y-113116371D01*
X134899100Y-112903243D01*
X134343339Y-112902758D01*
X133829697Y-113114990D01*
X133436371Y-113507630D01*
X133223243Y-114020900D01*
X133222758Y-114576661D01*
X129536000Y-114576661D01*
X129536000Y-110581711D01*
X139809672Y-110581711D01*
X142240000Y-113012039D01*
X144670328Y-110581711D01*
X144466549Y-110308942D01*
X146638010Y-110308942D01*
X146638010Y-111620300D01*
X146765010Y-111747300D01*
X149133560Y-111747300D01*
X149133560Y-110028990D01*
X149158960Y-110028990D01*
X149158960Y-111747300D01*
X151527510Y-111747300D01*
X151654510Y-111620300D01*
X151654510Y-110308942D01*
X151577171Y-110122231D01*
X151434268Y-109979328D01*
X151247557Y-109901990D01*
X149285960Y-109901990D01*
X149158960Y-110028990D01*
X149133560Y-110028990D01*
X149006560Y-109901990D01*
X147044963Y-109901990D01*
X146858252Y-109979328D01*
X146715349Y-110122231D01*
X146638010Y-110308942D01*
X144466549Y-110308942D01*
X144332059Y-110128922D01*
X143062616Y-109549157D01*
X141667937Y-109499319D01*
X140360350Y-109986995D01*
X140147941Y-110128922D01*
X139809672Y-110581711D01*
X129536000Y-110581711D01*
X129536000Y-106655617D01*
X130835400Y-106655617D01*
X130835400Y-106704383D01*
X130930140Y-107180671D01*
X131199935Y-107584448D01*
X131603712Y-107854243D01*
X132080000Y-107948983D01*
X132556288Y-107854243D01*
X132960065Y-107584448D01*
X133229860Y-107180671D01*
X133324600Y-106704383D01*
X133324600Y-106655617D01*
X133375400Y-106655617D01*
X133375400Y-106704383D01*
X133470140Y-107180671D01*
X133739935Y-107584448D01*
X134143712Y-107854243D01*
X134620000Y-107948983D01*
X135096288Y-107854243D01*
X135500065Y-107584448D01*
X135766299Y-107186000D01*
X138892073Y-107186000D01*
X138908103Y-107271190D01*
X138991546Y-107400865D01*
X139118866Y-107487859D01*
X139270000Y-107518464D01*
X140470000Y-107518464D01*
X140611190Y-107491897D01*
X140740865Y-107408454D01*
X140827859Y-107281134D01*
X140858464Y-107130000D01*
X140858464Y-106230000D01*
X140831897Y-106088810D01*
X140748454Y-105959135D01*
X140621134Y-105872141D01*
X140470000Y-105841536D01*
X139270000Y-105841536D01*
X139128810Y-105868103D01*
X138999135Y-105951546D01*
X138912141Y-106078866D01*
X138892876Y-106174000D01*
X135766299Y-106174000D01*
X135500065Y-105775552D01*
X135096288Y-105505757D01*
X134620000Y-105411017D01*
X134143712Y-105505757D01*
X133739935Y-105775552D01*
X133470140Y-106179329D01*
X133375400Y-106655617D01*
X133324600Y-106655617D01*
X133229860Y-106179329D01*
X132960065Y-105775552D01*
X132556288Y-105505757D01*
X132080000Y-105411017D01*
X131603712Y-105505757D01*
X131199935Y-105775552D01*
X130930140Y-106179329D01*
X130835400Y-106655617D01*
X129536000Y-106655617D01*
X129536000Y-101575617D01*
X130835400Y-101575617D01*
X130835400Y-101624383D01*
X130930140Y-102100671D01*
X131199935Y-102504448D01*
X131603712Y-102774243D01*
X132080000Y-102868983D01*
X132556288Y-102774243D01*
X132960065Y-102504448D01*
X133229860Y-102100671D01*
X133324600Y-101624383D01*
X133324600Y-101575617D01*
X133229860Y-101099329D01*
X132960065Y-100695552D01*
X132556288Y-100425757D01*
X132080000Y-100331017D01*
X131603712Y-100425757D01*
X131199935Y-100695552D01*
X130930140Y-101099329D01*
X130835400Y-101575617D01*
X129536000Y-101575617D01*
X129536000Y-98051368D01*
X130436369Y-97151000D01*
X130827936Y-97151000D01*
X130827936Y-97383600D01*
X130854503Y-97524790D01*
X130937946Y-97654465D01*
X131065266Y-97741459D01*
X131216400Y-97772064D01*
X132652344Y-97772064D01*
X132541577Y-97882831D01*
X132080000Y-97791017D01*
X131603712Y-97885757D01*
X131199935Y-98155552D01*
X130930140Y-98559329D01*
X130835400Y-99035617D01*
X130835400Y-99084383D01*
X130930140Y-99560671D01*
X131199935Y-99964448D01*
X131603712Y-100234243D01*
X132080000Y-100328983D01*
X132556288Y-100234243D01*
X132960065Y-99964448D01*
X133229860Y-99560671D01*
X133324600Y-99084383D01*
X133324600Y-99035617D01*
X133240877Y-98614715D01*
X133559592Y-98296000D01*
X133646091Y-98296000D01*
X133470140Y-98559329D01*
X133375400Y-99035617D01*
X133375400Y-99084383D01*
X133470140Y-99560671D01*
X133739935Y-99964448D01*
X134143712Y-100234243D01*
X134620000Y-100328983D01*
X135081577Y-100237169D01*
X136802204Y-101957796D01*
X136966362Y-102067483D01*
X137160000Y-102106000D01*
X138892073Y-102106000D01*
X138908103Y-102191190D01*
X138991546Y-102320865D01*
X139054676Y-102364000D01*
X135593909Y-102364000D01*
X135769860Y-102100671D01*
X135864600Y-101624383D01*
X135864600Y-101575617D01*
X135769860Y-101099329D01*
X135500065Y-100695552D01*
X135096288Y-100425757D01*
X134620000Y-100331017D01*
X134143712Y-100425757D01*
X133739935Y-100695552D01*
X133470140Y-101099329D01*
X133375400Y-101575617D01*
X133375400Y-101624383D01*
X133470140Y-102100671D01*
X133646091Y-102364000D01*
X133350000Y-102364000D01*
X133156362Y-102402517D01*
X132992204Y-102512204D01*
X132541577Y-102962831D01*
X132080000Y-102871017D01*
X131603712Y-102965757D01*
X131199935Y-103235552D01*
X130930140Y-103639329D01*
X130835400Y-104115617D01*
X130835400Y-104164383D01*
X130930140Y-104640671D01*
X131199935Y-105044448D01*
X131603712Y-105314243D01*
X132080000Y-105408983D01*
X132556288Y-105314243D01*
X132960065Y-105044448D01*
X133229860Y-104640671D01*
X133324600Y-104164383D01*
X133324600Y-104115617D01*
X133240877Y-103694715D01*
X133559592Y-103376000D01*
X133646091Y-103376000D01*
X133470140Y-103639329D01*
X133375400Y-104115617D01*
X133375400Y-104164383D01*
X133470140Y-104640671D01*
X133739935Y-105044448D01*
X134143712Y-105314243D01*
X134620000Y-105408983D01*
X135096288Y-105314243D01*
X135500065Y-105044448D01*
X135766299Y-104646000D01*
X138892073Y-104646000D01*
X138908103Y-104731190D01*
X138991546Y-104860865D01*
X139118866Y-104947859D01*
X139270000Y-104978464D01*
X140470000Y-104978464D01*
X140611190Y-104951897D01*
X140740865Y-104868454D01*
X140827859Y-104741134D01*
X140858464Y-104590000D01*
X140858464Y-103690000D01*
X140831897Y-103548810D01*
X140748454Y-103419135D01*
X140685324Y-103376000D01*
X141254375Y-103376000D01*
X141199135Y-103411546D01*
X141112141Y-103538866D01*
X141081536Y-103690000D01*
X141081536Y-104590000D01*
X141108103Y-104731190D01*
X141191546Y-104860865D01*
X141318866Y-104947859D01*
X141470000Y-104978464D01*
X142670000Y-104978464D01*
X142811190Y-104951897D01*
X142940865Y-104868454D01*
X143027859Y-104741134D01*
X143047124Y-104646000D01*
X144951408Y-104646000D01*
X145650057Y-105344649D01*
X145649864Y-105564669D01*
X145768514Y-105851823D01*
X145988021Y-106071714D01*
X146234355Y-106174000D01*
X143047927Y-106174000D01*
X143031897Y-106088810D01*
X142948454Y-105959135D01*
X142821134Y-105872141D01*
X142670000Y-105841536D01*
X141470000Y-105841536D01*
X141328810Y-105868103D01*
X141199135Y-105951546D01*
X141112141Y-106078866D01*
X141081536Y-106230000D01*
X141081536Y-107130000D01*
X141108103Y-107271190D01*
X141191546Y-107400865D01*
X141318866Y-107487859D01*
X141470000Y-107518464D01*
X142670000Y-107518464D01*
X142811190Y-107491897D01*
X142940865Y-107408454D01*
X143027859Y-107281134D01*
X143047124Y-107186000D01*
X149374646Y-107186000D01*
X149333136Y-107285968D01*
X149333016Y-107423094D01*
X149070331Y-107422864D01*
X148783177Y-107541514D01*
X148563286Y-107761021D01*
X148444136Y-108047968D01*
X148443987Y-108217921D01*
X148365032Y-108185136D01*
X148054331Y-108184864D01*
X147767177Y-108303514D01*
X147547286Y-108523021D01*
X147428136Y-108809968D01*
X147427864Y-109120669D01*
X147546514Y-109407823D01*
X147766021Y-109627714D01*
X148052968Y-109746864D01*
X148363669Y-109747136D01*
X148650823Y-109628486D01*
X148807583Y-109472000D01*
X158667408Y-109472000D01*
X159408204Y-110212796D01*
X159572362Y-110322483D01*
X159766000Y-110361000D01*
X163449000Y-110361000D01*
X163642638Y-110322483D01*
X163806796Y-110212796D01*
X167466671Y-106552921D01*
X181210882Y-106552921D01*
X182740000Y-108082039D01*
X184269118Y-106552921D01*
X184082926Y-106230015D01*
X183265090Y-105858444D01*
X182367313Y-105828129D01*
X181526275Y-106143686D01*
X181397074Y-106230015D01*
X181210882Y-106552921D01*
X167466671Y-106552921D01*
X168693233Y-105326359D01*
X178896802Y-105326359D01*
X179070446Y-105746612D01*
X179391697Y-106068423D01*
X179811646Y-106242801D01*
X180266359Y-106243198D01*
X180686612Y-106069554D01*
X181008423Y-105748303D01*
X181015608Y-105731000D01*
X184213632Y-105731000D01*
X185329000Y-106846368D01*
X185329000Y-111791536D01*
X184960000Y-111791536D01*
X184818810Y-111818103D01*
X184689135Y-111901546D01*
X184602141Y-112028866D01*
X184571536Y-112180000D01*
X184571536Y-113880000D01*
X184598103Y-114021190D01*
X184681546Y-114150865D01*
X184808866Y-114237859D01*
X184960000Y-114268464D01*
X186960000Y-114268464D01*
X187101190Y-114241897D01*
X187230865Y-114158454D01*
X187317859Y-114031134D01*
X187348464Y-113880000D01*
X187348464Y-112180000D01*
X187321897Y-112038810D01*
X187238454Y-111909135D01*
X187111134Y-111822141D01*
X186960000Y-111791536D01*
X186591000Y-111791536D01*
X186591000Y-106585000D01*
X186542968Y-106343527D01*
X186542968Y-106343526D01*
X186406184Y-106138816D01*
X184921184Y-104653816D01*
X184716473Y-104517032D01*
X184475000Y-104469000D01*
X181016005Y-104469000D01*
X181009554Y-104453388D01*
X180688303Y-104131577D01*
X180268354Y-103957199D01*
X179813641Y-103956802D01*
X179393388Y-104130446D01*
X179071577Y-104451697D01*
X178897199Y-104871646D01*
X178896802Y-105326359D01*
X168693233Y-105326359D01*
X168759796Y-105259796D01*
X168813646Y-105179204D01*
X168869483Y-105095638D01*
X168908000Y-104902000D01*
X168908000Y-103505000D01*
X168869483Y-103311362D01*
X168759796Y-103147204D01*
X168104796Y-102492204D01*
X167940638Y-102382517D01*
X167807328Y-102356000D01*
X168442408Y-102356000D01*
X169314204Y-103227796D01*
X169478362Y-103337483D01*
X169672000Y-103376000D01*
X170007073Y-103376000D01*
X170023103Y-103461190D01*
X170106546Y-103590865D01*
X170233866Y-103677859D01*
X170385000Y-103708464D01*
X171585000Y-103708464D01*
X171726190Y-103681897D01*
X171855865Y-103598454D01*
X171942859Y-103471134D01*
X171973464Y-103320000D01*
X171973464Y-102420000D01*
X171946897Y-102278810D01*
X171863454Y-102149135D01*
X171736134Y-102062141D01*
X171585000Y-102031536D01*
X170385000Y-102031536D01*
X170243810Y-102058103D01*
X170114135Y-102141546D01*
X170027141Y-102268866D01*
X170007876Y-102364000D01*
X169881592Y-102364000D01*
X169117592Y-101600000D01*
X169881592Y-100836000D01*
X170007073Y-100836000D01*
X170023103Y-100921190D01*
X170106546Y-101050865D01*
X170233866Y-101137859D01*
X170385000Y-101168464D01*
X171585000Y-101168464D01*
X171726190Y-101141897D01*
X171855865Y-101058454D01*
X171942859Y-100931134D01*
X171973464Y-100780000D01*
X171973464Y-99880000D01*
X172196536Y-99880000D01*
X172196536Y-100780000D01*
X172223103Y-100921190D01*
X172306546Y-101050865D01*
X172433866Y-101137859D01*
X172585000Y-101168464D01*
X173785000Y-101168464D01*
X173858325Y-101154667D01*
X173962514Y-101406823D01*
X174155498Y-101600145D01*
X173963286Y-101792021D01*
X173857717Y-102046261D01*
X173785000Y-102031536D01*
X172585000Y-102031536D01*
X172443810Y-102058103D01*
X172314135Y-102141546D01*
X172227141Y-102268866D01*
X172196536Y-102420000D01*
X172196536Y-103320000D01*
X172223103Y-103461190D01*
X172306546Y-103590865D01*
X172433866Y-103677859D01*
X172585000Y-103708464D01*
X173785000Y-103708464D01*
X173926190Y-103681897D01*
X174055865Y-103598454D01*
X174137453Y-103479045D01*
X175410204Y-104751796D01*
X175574362Y-104861483D01*
X175768000Y-104900000D01*
X178246000Y-104900000D01*
X178439638Y-104861483D01*
X178603796Y-104751796D01*
X179671136Y-103684456D01*
X179811646Y-103742801D01*
X180266359Y-103743198D01*
X180686612Y-103569554D01*
X181008423Y-103248303D01*
X181182801Y-102828354D01*
X181183198Y-102373641D01*
X181009554Y-101953388D01*
X180688303Y-101631577D01*
X180612591Y-101600139D01*
X180686612Y-101569554D01*
X181008423Y-101248303D01*
X181182801Y-100828354D01*
X181183198Y-100373641D01*
X181009554Y-99953388D01*
X180688303Y-99631577D01*
X180268354Y-99457199D01*
X179813641Y-99456802D01*
X179671235Y-99515643D01*
X179328029Y-99172437D01*
X179750080Y-99362008D01*
X180255098Y-99376891D01*
X180727370Y-99197379D01*
X180790801Y-99154996D01*
X180856788Y-98934748D01*
X180040000Y-98117961D01*
X180025858Y-98132103D01*
X180007897Y-98114142D01*
X180022039Y-98100000D01*
X180057961Y-98100000D01*
X180874748Y-98916788D01*
X181094996Y-98850801D01*
X181302008Y-98389920D01*
X181316891Y-97884902D01*
X181137379Y-97412630D01*
X181094996Y-97349199D01*
X180874748Y-97283212D01*
X180057961Y-98100000D01*
X180022039Y-98100000D01*
X179205252Y-97283212D01*
X178985004Y-97349199D01*
X178777992Y-97810080D01*
X178763109Y-98315098D01*
X178942412Y-98786820D01*
X178603796Y-98448204D01*
X178439638Y-98338517D01*
X178246000Y-98300000D01*
X175768000Y-98300000D01*
X175574362Y-98338517D01*
X175410204Y-98448204D01*
X174136209Y-99722199D01*
X174063454Y-99609135D01*
X173936134Y-99522141D01*
X173785000Y-99491536D01*
X172585000Y-99491536D01*
X172443810Y-99518103D01*
X172314135Y-99601546D01*
X172227141Y-99728866D01*
X172196536Y-99880000D01*
X171973464Y-99880000D01*
X171946897Y-99738810D01*
X171863454Y-99609135D01*
X171736134Y-99522141D01*
X171585000Y-99491536D01*
X170385000Y-99491536D01*
X170243810Y-99518103D01*
X170114135Y-99601546D01*
X170027141Y-99728866D01*
X170007876Y-99824000D01*
X169672000Y-99824000D01*
X169478362Y-99862517D01*
X169417224Y-99903368D01*
X169587796Y-99732796D01*
X169697483Y-99568638D01*
X169736000Y-99375000D01*
X169736000Y-99188464D01*
X169830000Y-99188464D01*
X169971190Y-99161897D01*
X170096617Y-99081188D01*
X170099339Y-99087759D01*
X170242242Y-99230662D01*
X170428953Y-99308000D01*
X170990300Y-99308000D01*
X171117300Y-99181000D01*
X171117300Y-98437700D01*
X171142700Y-98437700D01*
X171142700Y-99181000D01*
X171269700Y-99308000D01*
X171831047Y-99308000D01*
X172017758Y-99230662D01*
X172160661Y-99087759D01*
X172238000Y-98901048D01*
X172238000Y-98564700D01*
X172111000Y-98437700D01*
X171142700Y-98437700D01*
X171117300Y-98437700D01*
X171097300Y-98437700D01*
X171097300Y-98412300D01*
X171117300Y-98412300D01*
X171117300Y-97669000D01*
X171142700Y-97669000D01*
X171142700Y-98412300D01*
X172111000Y-98412300D01*
X172238000Y-98285300D01*
X172238000Y-97948952D01*
X172160661Y-97762241D01*
X172017758Y-97619338D01*
X171831047Y-97542000D01*
X171269700Y-97542000D01*
X171142700Y-97669000D01*
X171117300Y-97669000D01*
X170990300Y-97542000D01*
X170428953Y-97542000D01*
X170242242Y-97619338D01*
X170099339Y-97762241D01*
X170095896Y-97770554D01*
X169981134Y-97692141D01*
X169830000Y-97661536D01*
X168630000Y-97661536D01*
X168488810Y-97688103D01*
X168400000Y-97745250D01*
X168400000Y-97198972D01*
X168478866Y-97252859D01*
X168630000Y-97283464D01*
X169830000Y-97283464D01*
X169971190Y-97256897D01*
X170096617Y-97176188D01*
X170099339Y-97182759D01*
X170242242Y-97325662D01*
X170428953Y-97403000D01*
X170990300Y-97403000D01*
X171117300Y-97276000D01*
X171117300Y-96532700D01*
X171142700Y-96532700D01*
X171142700Y-97276000D01*
X171269700Y-97403000D01*
X171831047Y-97403000D01*
X172017758Y-97325662D01*
X172078168Y-97265252D01*
X179223212Y-97265252D01*
X180040000Y-98082039D01*
X180856788Y-97265252D01*
X180790801Y-97045004D01*
X180329920Y-96837992D01*
X179824902Y-96823109D01*
X179352630Y-97002621D01*
X179289199Y-97045004D01*
X179223212Y-97265252D01*
X172078168Y-97265252D01*
X172160661Y-97182759D01*
X172238000Y-96996048D01*
X172238000Y-96659700D01*
X172225379Y-96647079D01*
X181210882Y-96647079D01*
X181397074Y-96969985D01*
X182214910Y-97341556D01*
X183112687Y-97371871D01*
X183953725Y-97056314D01*
X184082926Y-96969985D01*
X184269118Y-96647079D01*
X182740000Y-95117961D01*
X181210882Y-96647079D01*
X172225379Y-96647079D01*
X172111000Y-96532700D01*
X171142700Y-96532700D01*
X171117300Y-96532700D01*
X171097300Y-96532700D01*
X171097300Y-96507300D01*
X171117300Y-96507300D01*
X171117300Y-95764000D01*
X171142700Y-95764000D01*
X171142700Y-96507300D01*
X172111000Y-96507300D01*
X172238000Y-96380300D01*
X172238000Y-96043952D01*
X172160661Y-95857241D01*
X172017758Y-95714338D01*
X171831047Y-95637000D01*
X171269700Y-95637000D01*
X171142700Y-95764000D01*
X171117300Y-95764000D01*
X170990300Y-95637000D01*
X170428953Y-95637000D01*
X170242242Y-95714338D01*
X170099339Y-95857241D01*
X170095896Y-95865554D01*
X169981134Y-95787141D01*
X169830000Y-95756536D01*
X168630000Y-95756536D01*
X168488810Y-95783103D01*
X168359135Y-95866546D01*
X168272141Y-95993866D01*
X168268064Y-96014000D01*
X168148000Y-96014000D01*
X167954362Y-96052517D01*
X167790204Y-96162204D01*
X167536204Y-96416204D01*
X167426517Y-96580362D01*
X167388000Y-96774000D01*
X167388000Y-99539443D01*
X167323454Y-99439135D01*
X167196134Y-99352141D01*
X167045000Y-99321536D01*
X166951000Y-99321536D01*
X166951000Y-96273592D01*
X168103592Y-95121000D01*
X168266186Y-95121000D01*
X168268103Y-95131190D01*
X168351546Y-95260865D01*
X168478866Y-95347859D01*
X168630000Y-95378464D01*
X169830000Y-95378464D01*
X169971190Y-95351897D01*
X170096617Y-95271188D01*
X170099339Y-95277759D01*
X170242242Y-95420662D01*
X170428953Y-95498000D01*
X170990300Y-95498000D01*
X171117300Y-95371000D01*
X171117300Y-94627700D01*
X171142700Y-94627700D01*
X171142700Y-95371000D01*
X171269700Y-95498000D01*
X171831047Y-95498000D01*
X171892158Y-95472687D01*
X180468129Y-95472687D01*
X180783686Y-96313725D01*
X180870015Y-96442926D01*
X181192921Y-96629118D01*
X182722039Y-95100000D01*
X182757961Y-95100000D01*
X184287079Y-96629118D01*
X184609985Y-96442926D01*
X184981556Y-95625090D01*
X185011871Y-94727313D01*
X184696314Y-93886275D01*
X184609985Y-93757074D01*
X184287079Y-93570882D01*
X182757961Y-95100000D01*
X182722039Y-95100000D01*
X181192921Y-93570882D01*
X180870015Y-93757074D01*
X180498444Y-94574910D01*
X180468129Y-95472687D01*
X171892158Y-95472687D01*
X172017758Y-95420662D01*
X172160661Y-95277759D01*
X172238000Y-95091048D01*
X172238000Y-94754700D01*
X172111000Y-94627700D01*
X171142700Y-94627700D01*
X171117300Y-94627700D01*
X171097300Y-94627700D01*
X171097300Y-94602300D01*
X171117300Y-94602300D01*
X171117300Y-93859000D01*
X171142700Y-93859000D01*
X171142700Y-94602300D01*
X172111000Y-94602300D01*
X172238000Y-94475300D01*
X172238000Y-94138952D01*
X172160661Y-93952241D01*
X172017758Y-93809338D01*
X171831047Y-93732000D01*
X171269700Y-93732000D01*
X171142700Y-93859000D01*
X171117300Y-93859000D01*
X170990300Y-93732000D01*
X170762592Y-93732000D01*
X170829796Y-93664796D01*
X170939483Y-93500638D01*
X170964581Y-93374464D01*
X171072000Y-93374464D01*
X171213190Y-93347897D01*
X171342865Y-93264454D01*
X171429859Y-93137134D01*
X171460464Y-92986000D01*
X171460464Y-92618289D01*
X174099672Y-92618289D01*
X174437941Y-93071078D01*
X175707384Y-93650843D01*
X177102063Y-93700681D01*
X177498246Y-93552921D01*
X181210882Y-93552921D01*
X182740000Y-95082039D01*
X184269118Y-93552921D01*
X184082926Y-93230015D01*
X183265090Y-92858444D01*
X182367313Y-92828129D01*
X181526275Y-93143686D01*
X181397074Y-93230015D01*
X181210882Y-93552921D01*
X177498246Y-93552921D01*
X178409650Y-93213005D01*
X178622059Y-93071078D01*
X178960328Y-92618289D01*
X176530000Y-90187961D01*
X174099672Y-92618289D01*
X171460464Y-92618289D01*
X171460464Y-91586000D01*
X171433897Y-91444810D01*
X171350454Y-91315135D01*
X171264239Y-91256227D01*
X171359759Y-91216661D01*
X171502662Y-91073758D01*
X171580000Y-90887047D01*
X171580000Y-90742063D01*
X172999319Y-90742063D01*
X173486995Y-92049650D01*
X173628922Y-92262059D01*
X174081711Y-92600328D01*
X176512039Y-90170000D01*
X176547961Y-90170000D01*
X178978289Y-92600328D01*
X179431078Y-92262059D01*
X180010843Y-90992616D01*
X180060681Y-89597937D01*
X179903563Y-89176661D01*
X186562758Y-89176661D01*
X186774990Y-89690303D01*
X187167630Y-90083629D01*
X187680900Y-90296757D01*
X188236661Y-90297242D01*
X188750303Y-90085010D01*
X189143629Y-89692370D01*
X189356757Y-89179100D01*
X189357242Y-88623339D01*
X189145010Y-88109697D01*
X188752370Y-87716371D01*
X188239100Y-87503243D01*
X187683339Y-87502758D01*
X187169697Y-87714990D01*
X186776371Y-88107630D01*
X186563243Y-88620900D01*
X186562758Y-89176661D01*
X179903563Y-89176661D01*
X179573005Y-88290350D01*
X179431078Y-88077941D01*
X178978289Y-87739672D01*
X176547961Y-90170000D01*
X176512039Y-90170000D01*
X174081711Y-87739672D01*
X173628922Y-88077941D01*
X173049157Y-89347384D01*
X172999319Y-90742063D01*
X171580000Y-90742063D01*
X171580000Y-90225700D01*
X171453000Y-90098700D01*
X170484700Y-90098700D01*
X170484700Y-90118700D01*
X170459300Y-90118700D01*
X170459300Y-90098700D01*
X170439300Y-90098700D01*
X170439300Y-90073300D01*
X170459300Y-90073300D01*
X170459300Y-89005000D01*
X170484700Y-89005000D01*
X170484700Y-90073300D01*
X171453000Y-90073300D01*
X171580000Y-89946300D01*
X171580000Y-89284953D01*
X171502662Y-89098242D01*
X171359759Y-88955339D01*
X171173048Y-88878000D01*
X170611700Y-88878000D01*
X170484700Y-89005000D01*
X170459300Y-89005000D01*
X170332300Y-88878000D01*
X169770952Y-88878000D01*
X169584241Y-88955339D01*
X169530249Y-89009331D01*
X169472000Y-88997536D01*
X168272000Y-88997536D01*
X168130810Y-89024103D01*
X168001135Y-89107546D01*
X167914141Y-89234866D01*
X167883536Y-89386000D01*
X167883536Y-89598790D01*
X167784362Y-89618517D01*
X167620204Y-89728204D01*
X167051182Y-90297226D01*
X167023454Y-90254135D01*
X166896134Y-90167141D01*
X166745000Y-90136536D01*
X165995000Y-90136536D01*
X165853810Y-90163103D01*
X165724135Y-90246546D01*
X165637141Y-90373866D01*
X165606536Y-90525000D01*
X165606536Y-90619000D01*
X165161000Y-90619000D01*
X164967362Y-90657517D01*
X164803204Y-90767204D01*
X164587204Y-90983204D01*
X164477517Y-91147362D01*
X164439000Y-91341000D01*
X164439000Y-97361536D01*
X164305000Y-97361536D01*
X164190963Y-97382994D01*
X164085000Y-97361536D01*
X163805000Y-97361536D01*
X163690963Y-97382994D01*
X163585000Y-97361536D01*
X163305000Y-97361536D01*
X163190963Y-97382994D01*
X163085000Y-97361536D01*
X162805000Y-97361536D01*
X162690963Y-97382994D01*
X162585000Y-97361536D01*
X162305000Y-97361536D01*
X162190963Y-97382994D01*
X162085000Y-97361536D01*
X161805000Y-97361536D01*
X161690963Y-97382994D01*
X161585000Y-97361536D01*
X161305000Y-97361536D01*
X161163810Y-97388103D01*
X161034135Y-97471546D01*
X160947141Y-97598866D01*
X160916536Y-97750000D01*
X160916536Y-98950000D01*
X160943103Y-99091190D01*
X161026546Y-99220865D01*
X161153866Y-99307859D01*
X161305000Y-99338464D01*
X161585000Y-99338464D01*
X161699037Y-99317006D01*
X161805000Y-99338464D01*
X162085000Y-99338464D01*
X162199037Y-99317006D01*
X162305000Y-99338464D01*
X162585000Y-99338464D01*
X162699037Y-99317006D01*
X162805000Y-99338464D01*
X163085000Y-99338464D01*
X163136409Y-99328791D01*
X163049136Y-99538968D01*
X163048942Y-99760466D01*
X162965408Y-99844000D01*
X160933464Y-99844000D01*
X160933464Y-99710000D01*
X160906897Y-99568810D01*
X160823454Y-99439135D01*
X160696134Y-99352141D01*
X160545000Y-99321536D01*
X159345000Y-99321536D01*
X159203810Y-99348103D01*
X159074135Y-99431546D01*
X158987141Y-99558866D01*
X158956536Y-99710000D01*
X158956536Y-99844000D01*
X158725592Y-99844000D01*
X158494000Y-99612408D01*
X158494000Y-99322814D01*
X158504190Y-99320897D01*
X158633865Y-99237454D01*
X158720859Y-99110134D01*
X158751464Y-98959000D01*
X158751464Y-97759000D01*
X158724897Y-97617810D01*
X158644188Y-97492383D01*
X158650759Y-97489661D01*
X158793662Y-97346758D01*
X158871000Y-97160047D01*
X158871000Y-96598700D01*
X158744000Y-96471700D01*
X158000700Y-96471700D01*
X158000700Y-96491700D01*
X157975300Y-96491700D01*
X157975300Y-96471700D01*
X157232000Y-96471700D01*
X157105000Y-96598700D01*
X157105000Y-97160047D01*
X157182338Y-97346758D01*
X157325241Y-97489661D01*
X157333554Y-97493104D01*
X157255141Y-97607866D01*
X157224536Y-97759000D01*
X157224536Y-97853000D01*
X156191847Y-97853000D01*
X156217464Y-97726500D01*
X156217464Y-96583500D01*
X156190897Y-96442310D01*
X156107454Y-96312635D01*
X156081000Y-96294560D01*
X156081000Y-95707464D01*
X156132000Y-95707464D01*
X156273190Y-95680897D01*
X156402865Y-95597454D01*
X156489859Y-95470134D01*
X156509124Y-95375000D01*
X157454011Y-95375000D01*
X157325241Y-95428339D01*
X157182338Y-95571242D01*
X157105000Y-95757953D01*
X157105000Y-96319300D01*
X157232000Y-96446300D01*
X157975300Y-96446300D01*
X157975300Y-96426300D01*
X158000700Y-96426300D01*
X158000700Y-96446300D01*
X158744000Y-96446300D01*
X158871000Y-96319300D01*
X158871000Y-95757953D01*
X158793662Y-95571242D01*
X158650759Y-95428339D01*
X158521989Y-95375000D01*
X159929579Y-95375000D01*
X160085021Y-95530714D01*
X160371968Y-95649864D01*
X160682669Y-95650136D01*
X160969823Y-95531486D01*
X161189714Y-95311979D01*
X161308864Y-95025032D01*
X161309136Y-94714331D01*
X161190486Y-94427177D01*
X160970979Y-94207286D01*
X160684032Y-94088136D01*
X160373331Y-94087864D01*
X160086177Y-94206514D01*
X159929417Y-94363000D01*
X156509927Y-94363000D01*
X156493897Y-94277810D01*
X156410454Y-94148135D01*
X156283134Y-94061141D01*
X156132000Y-94030536D01*
X154932000Y-94030536D01*
X154790810Y-94057103D01*
X154661135Y-94140546D01*
X154574141Y-94267866D01*
X154543536Y-94419000D01*
X154543536Y-95319000D01*
X154570103Y-95460190D01*
X154653546Y-95589865D01*
X154780866Y-95676859D01*
X154932000Y-95707464D01*
X155069000Y-95707464D01*
X155069000Y-96292907D01*
X155050135Y-96305046D01*
X154963141Y-96432366D01*
X154940274Y-96545288D01*
X154920897Y-96442310D01*
X154837454Y-96312635D01*
X154710134Y-96225641D01*
X154559000Y-96195036D01*
X154051000Y-96195036D01*
X153909810Y-96221603D01*
X153780135Y-96305046D01*
X153693141Y-96432366D01*
X153670274Y-96545288D01*
X153650897Y-96442310D01*
X153567454Y-96312635D01*
X153440134Y-96225641D01*
X153289000Y-96195036D01*
X152781000Y-96195036D01*
X152639810Y-96221603D01*
X152510135Y-96305046D01*
X152423141Y-96432366D01*
X152400274Y-96545288D01*
X152380897Y-96442310D01*
X152297454Y-96312635D01*
X152170134Y-96225641D01*
X152019000Y-96195036D01*
X151511000Y-96195036D01*
X151369810Y-96221603D01*
X151240135Y-96305046D01*
X151204885Y-96356636D01*
X151179661Y-96295741D01*
X151036758Y-96152838D01*
X150850047Y-96075500D01*
X150634700Y-96075500D01*
X150507700Y-96202500D01*
X150507700Y-97142300D01*
X150527700Y-97142300D01*
X150527700Y-97167700D01*
X150507700Y-97167700D01*
X150507700Y-98107500D01*
X150634700Y-98234500D01*
X150850047Y-98234500D01*
X151036758Y-98157162D01*
X151179661Y-98014259D01*
X151204629Y-97953981D01*
X151232546Y-97997365D01*
X151359866Y-98084359D01*
X151511000Y-98114964D01*
X152019000Y-98114964D01*
X152160190Y-98088397D01*
X152289865Y-98004954D01*
X152376859Y-97877634D01*
X152399726Y-97764712D01*
X152419103Y-97867690D01*
X152502546Y-97997365D01*
X152529000Y-98015440D01*
X152529000Y-98215408D01*
X152190408Y-98554000D01*
X142449592Y-98554000D01*
X141327796Y-97432204D01*
X141163638Y-97322517D01*
X141023793Y-97294700D01*
X145923000Y-97294700D01*
X145923000Y-97827548D01*
X146000339Y-98014259D01*
X146143242Y-98157162D01*
X146329953Y-98234500D01*
X146545300Y-98234500D01*
X146672300Y-98107500D01*
X146672300Y-97167700D01*
X146697700Y-97167700D01*
X146697700Y-98107500D01*
X146824700Y-98234500D01*
X147040047Y-98234500D01*
X147226758Y-98157162D01*
X147320000Y-98063920D01*
X147413242Y-98157162D01*
X147599953Y-98234500D01*
X147815300Y-98234500D01*
X147942300Y-98107500D01*
X147942300Y-97167700D01*
X146697700Y-97167700D01*
X146672300Y-97167700D01*
X146050000Y-97167700D01*
X145923000Y-97294700D01*
X141023793Y-97294700D01*
X140970000Y-97284000D01*
X135748383Y-97284000D01*
X135782796Y-97247457D01*
X135972669Y-96747100D01*
X135864542Y-96532700D01*
X134632700Y-96532700D01*
X134632700Y-96552700D01*
X134607300Y-96552700D01*
X134607300Y-96532700D01*
X134587300Y-96532700D01*
X134587300Y-96507300D01*
X134607300Y-96507300D01*
X134607300Y-95275465D01*
X134632700Y-95275465D01*
X134632700Y-96507300D01*
X135864542Y-96507300D01*
X135877073Y-96482452D01*
X145923000Y-96482452D01*
X145923000Y-97015300D01*
X146050000Y-97142300D01*
X146672300Y-97142300D01*
X146672300Y-96202500D01*
X146697700Y-96202500D01*
X146697700Y-97142300D01*
X147942300Y-97142300D01*
X147942300Y-96202500D01*
X147967700Y-96202500D01*
X147967700Y-97142300D01*
X147987700Y-97142300D01*
X147987700Y-97167700D01*
X147967700Y-97167700D01*
X147967700Y-98107500D01*
X148094700Y-98234500D01*
X148310047Y-98234500D01*
X148496758Y-98157162D01*
X148639661Y-98014259D01*
X148664629Y-97953981D01*
X148692546Y-97997365D01*
X148819866Y-98084359D01*
X148971000Y-98114964D01*
X149479000Y-98114964D01*
X149620190Y-98088397D01*
X149749865Y-98004954D01*
X149785115Y-97953364D01*
X149810339Y-98014259D01*
X149953242Y-98157162D01*
X150139953Y-98234500D01*
X150355300Y-98234500D01*
X150482300Y-98107500D01*
X150482300Y-97167700D01*
X150462300Y-97167700D01*
X150462300Y-97142300D01*
X150482300Y-97142300D01*
X150482300Y-96202500D01*
X150355300Y-96075500D01*
X150139953Y-96075500D01*
X149953242Y-96152838D01*
X149810339Y-96295741D01*
X149785371Y-96356019D01*
X149757454Y-96312635D01*
X149630134Y-96225641D01*
X149479000Y-96195036D01*
X148971000Y-96195036D01*
X148829810Y-96221603D01*
X148700135Y-96305046D01*
X148664885Y-96356636D01*
X148639661Y-96295741D01*
X148496758Y-96152838D01*
X148310047Y-96075500D01*
X148094700Y-96075500D01*
X147967700Y-96202500D01*
X147942300Y-96202500D01*
X147815300Y-96075500D01*
X147599953Y-96075500D01*
X147413242Y-96152838D01*
X147320000Y-96246080D01*
X147226758Y-96152838D01*
X147040047Y-96075500D01*
X146824700Y-96075500D01*
X146697700Y-96202500D01*
X146672300Y-96202500D01*
X146545300Y-96075500D01*
X146329953Y-96075500D01*
X146143242Y-96152838D01*
X146000339Y-96295741D01*
X145923000Y-96482452D01*
X135877073Y-96482452D01*
X135972669Y-96292900D01*
X135782796Y-95792543D01*
X135415898Y-95402935D01*
X134927832Y-95183390D01*
X134847100Y-95167332D01*
X134632700Y-95275465D01*
X134607300Y-95275465D01*
X134392900Y-95167332D01*
X134312168Y-95183390D01*
X133824102Y-95402935D01*
X133457204Y-95792543D01*
X133332064Y-96122314D01*
X133332064Y-95656400D01*
X133305497Y-95515210D01*
X133222054Y-95385535D01*
X133094734Y-95298541D01*
X132943600Y-95267936D01*
X131216400Y-95267936D01*
X131075210Y-95294503D01*
X130945535Y-95377946D01*
X130858541Y-95505266D01*
X130827936Y-95656400D01*
X130827936Y-95889000D01*
X130175000Y-95889000D01*
X129973589Y-95929063D01*
X129933526Y-95937032D01*
X129728815Y-96073816D01*
X128458816Y-97343816D01*
X128322032Y-97548527D01*
X128274000Y-97790000D01*
X127635000Y-97790000D01*
X127635000Y-94419000D01*
X152343536Y-94419000D01*
X152343536Y-95319000D01*
X152370103Y-95460190D01*
X152453546Y-95589865D01*
X152580866Y-95676859D01*
X152732000Y-95707464D01*
X153932000Y-95707464D01*
X154073190Y-95680897D01*
X154202865Y-95597454D01*
X154289859Y-95470134D01*
X154320464Y-95319000D01*
X154320464Y-94419000D01*
X154293897Y-94277810D01*
X154210454Y-94148135D01*
X154083134Y-94061141D01*
X153932000Y-94030536D01*
X152732000Y-94030536D01*
X152590810Y-94057103D01*
X152461135Y-94140546D01*
X152374141Y-94267866D01*
X152343536Y-94419000D01*
X127635000Y-94419000D01*
X127635000Y-92618289D01*
X139809672Y-92618289D01*
X140147941Y-93071078D01*
X141417384Y-93650843D01*
X142812063Y-93700681D01*
X144119650Y-93213005D01*
X144332059Y-93071078D01*
X144670328Y-92618289D01*
X142240000Y-90187961D01*
X139809672Y-92618289D01*
X127635000Y-92618289D01*
X127635000Y-90742063D01*
X138709319Y-90742063D01*
X139196995Y-92049650D01*
X139338922Y-92262059D01*
X139791711Y-92600328D01*
X142222039Y-90170000D01*
X142257961Y-90170000D01*
X144688289Y-92600328D01*
X145141078Y-92262059D01*
X145720843Y-90992616D01*
X145770681Y-89597937D01*
X145283005Y-88290350D01*
X145141078Y-88077941D01*
X144688289Y-87739672D01*
X142257961Y-90170000D01*
X142222039Y-90170000D01*
X139791711Y-87739672D01*
X139338922Y-88077941D01*
X138759157Y-89347384D01*
X138709319Y-90742063D01*
X127635000Y-90742063D01*
X127635000Y-88996835D01*
X132001125Y-88996835D01*
X132156902Y-89293766D01*
X132884416Y-89623698D01*
X133682812Y-89650109D01*
X134430540Y-89368976D01*
X134543098Y-89293766D01*
X134698875Y-88996835D01*
X133350000Y-87647961D01*
X132001125Y-88996835D01*
X127635000Y-88996835D01*
X127635000Y-87962812D01*
X131329891Y-87962812D01*
X131611024Y-88710540D01*
X131686234Y-88823098D01*
X131983165Y-88978875D01*
X133332039Y-87630000D01*
X133367961Y-87630000D01*
X134716835Y-88978875D01*
X135013766Y-88823098D01*
X135343698Y-88095584D01*
X135356065Y-87721711D01*
X139809672Y-87721711D01*
X142240000Y-90152039D01*
X144670328Y-87721711D01*
X174099672Y-87721711D01*
X176530000Y-90152039D01*
X178960328Y-87721711D01*
X178622059Y-87268922D01*
X177352616Y-86689157D01*
X175957937Y-86639319D01*
X174650350Y-87126995D01*
X174437941Y-87268922D01*
X174099672Y-87721711D01*
X144670328Y-87721711D01*
X144332059Y-87268922D01*
X143062616Y-86689157D01*
X141667937Y-86639319D01*
X140360350Y-87126995D01*
X140147941Y-87268922D01*
X139809672Y-87721711D01*
X135356065Y-87721711D01*
X135370109Y-87297188D01*
X135088976Y-86549460D01*
X135013766Y-86436902D01*
X134716835Y-86281125D01*
X133367961Y-87630000D01*
X133332039Y-87630000D01*
X131983165Y-86281125D01*
X131686234Y-86436902D01*
X131356302Y-87164416D01*
X131329891Y-87962812D01*
X127635000Y-87962812D01*
X127635000Y-86263165D01*
X132001125Y-86263165D01*
X133350000Y-87612039D01*
X134698875Y-86263165D01*
X134543098Y-85966234D01*
X133815584Y-85636302D01*
X133017188Y-85609891D01*
X132269460Y-85891024D01*
X132156902Y-85966234D01*
X132001125Y-86263165D01*
X127635000Y-86263165D01*
X127635000Y-84455000D01*
X192405000Y-84455000D01*
X192405000Y-118745000D01*
X192405000Y-118745000D01*
G37*
X192405000Y-118745000D02*
X127635000Y-118745000D01*
X127635000Y-97790000D01*
X128274000Y-97790000D01*
X128274000Y-114935000D01*
X128311558Y-115123816D01*
X128322032Y-115176473D01*
X128458816Y-115381184D01*
X130363816Y-117286184D01*
X130568527Y-117422968D01*
X130810000Y-117471000D01*
X134781361Y-117471000D01*
X134812021Y-117501714D01*
X135098968Y-117620864D01*
X135409669Y-117621136D01*
X135696823Y-117502486D01*
X135916714Y-117282979D01*
X136035864Y-116996032D01*
X136035878Y-116979700D01*
X146638010Y-116979700D01*
X146638010Y-118291058D01*
X146715349Y-118477769D01*
X146858252Y-118620672D01*
X147044963Y-118698010D01*
X149006560Y-118698010D01*
X149133560Y-118571010D01*
X149133560Y-116852700D01*
X149158960Y-116852700D01*
X149158960Y-118571010D01*
X149285960Y-118698010D01*
X151247557Y-118698010D01*
X151434268Y-118620672D01*
X151577171Y-118477769D01*
X151654510Y-118291058D01*
X151654510Y-116994669D01*
X152253864Y-116994669D01*
X152372514Y-117281823D01*
X152592021Y-117501714D01*
X152878968Y-117620864D01*
X153189669Y-117621136D01*
X153476823Y-117502486D01*
X153508364Y-117471000D01*
X154535026Y-117471000D01*
X154535026Y-118190010D01*
X154561593Y-118331200D01*
X154645036Y-118460875D01*
X154772356Y-118547869D01*
X154923490Y-118578474D01*
X158923990Y-118578474D01*
X159065180Y-118551907D01*
X159194855Y-118468464D01*
X159281849Y-118341144D01*
X159312454Y-118190010D01*
X159312454Y-117217000D01*
X160647536Y-117217000D01*
X160647536Y-117411500D01*
X160674103Y-117552690D01*
X160757546Y-117682365D01*
X160884866Y-117769359D01*
X161036000Y-117799964D01*
X164084000Y-117799964D01*
X164225190Y-117773397D01*
X164354865Y-117689954D01*
X164441859Y-117562634D01*
X164472464Y-117411500D01*
X164472464Y-115760500D01*
X164445897Y-115619310D01*
X164362454Y-115489635D01*
X164235134Y-115402641D01*
X164084000Y-115372036D01*
X161036000Y-115372036D01*
X160894810Y-115398603D01*
X160765135Y-115482046D01*
X160678141Y-115609366D01*
X160647536Y-115760500D01*
X160647536Y-115955000D01*
X159312454Y-115955000D01*
X159312454Y-115489990D01*
X159285887Y-115348800D01*
X159202444Y-115219125D01*
X159075124Y-115132131D01*
X158923990Y-115101526D01*
X154923490Y-115101526D01*
X154782300Y-115128093D01*
X154652625Y-115211536D01*
X154565631Y-115338856D01*
X154535026Y-115489990D01*
X154535026Y-116209000D01*
X153508639Y-116209000D01*
X153477979Y-116178286D01*
X153191032Y-116059136D01*
X152880331Y-116058864D01*
X152593177Y-116177514D01*
X152373286Y-116397021D01*
X152254136Y-116683968D01*
X152253864Y-116994669D01*
X151654510Y-116994669D01*
X151654510Y-116979700D01*
X151527510Y-116852700D01*
X149158960Y-116852700D01*
X149133560Y-116852700D01*
X146765010Y-116852700D01*
X146638010Y-116979700D01*
X136035878Y-116979700D01*
X136036136Y-116685331D01*
X135917486Y-116398177D01*
X135697979Y-116178286D01*
X135411032Y-116059136D01*
X135100331Y-116058864D01*
X134813177Y-116177514D01*
X134781636Y-116209000D01*
X131071368Y-116209000D01*
X129536000Y-114673632D01*
X129536000Y-114576661D01*
X133222758Y-114576661D01*
X133434990Y-115090303D01*
X133827630Y-115483629D01*
X134340900Y-115696757D01*
X134896661Y-115697242D01*
X135410303Y-115485010D01*
X135417035Y-115478289D01*
X139809672Y-115478289D01*
X140147941Y-115931078D01*
X141417384Y-116510843D01*
X142812063Y-116560681D01*
X144119650Y-116073005D01*
X144332059Y-115931078D01*
X144670328Y-115478289D01*
X142240000Y-113047961D01*
X139809672Y-115478289D01*
X135417035Y-115478289D01*
X135803629Y-115092370D01*
X136016757Y-114579100D01*
X136017242Y-114023339D01*
X135843175Y-113602063D01*
X138709319Y-113602063D01*
X139196995Y-114909650D01*
X139338922Y-115122059D01*
X139791711Y-115460328D01*
X142222039Y-113030000D01*
X142257961Y-113030000D01*
X144688289Y-115460328D01*
X144783842Y-115388942D01*
X146638010Y-115388942D01*
X146638010Y-116700300D01*
X146765010Y-116827300D01*
X149133560Y-116827300D01*
X149133560Y-115108990D01*
X149158960Y-115108990D01*
X149158960Y-116827300D01*
X151527510Y-116827300D01*
X151654510Y-116700300D01*
X151654510Y-115388942D01*
X151577171Y-115202231D01*
X151434268Y-115059328D01*
X151247557Y-114981990D01*
X149285960Y-114981990D01*
X149158960Y-115108990D01*
X149133560Y-115108990D01*
X149006560Y-114981990D01*
X147044963Y-114981990D01*
X146858252Y-115059328D01*
X146715349Y-115202231D01*
X146638010Y-115388942D01*
X144783842Y-115388942D01*
X145141078Y-115122059D01*
X145720843Y-113852616D01*
X145770681Y-112457937D01*
X145562482Y-111899700D01*
X146638010Y-111899700D01*
X146638010Y-113211058D01*
X146715349Y-113397769D01*
X146858252Y-113540672D01*
X147044963Y-113618010D01*
X149006560Y-113618010D01*
X149133560Y-113491010D01*
X149133560Y-111772700D01*
X149158960Y-111772700D01*
X149158960Y-113491010D01*
X149285960Y-113618010D01*
X151247557Y-113618010D01*
X151434268Y-113540672D01*
X151577171Y-113397769D01*
X151654510Y-113211058D01*
X151654510Y-111914669D01*
X152253864Y-111914669D01*
X152372514Y-112201823D01*
X152592021Y-112421714D01*
X152878968Y-112540864D01*
X153189669Y-112541136D01*
X153476823Y-112422486D01*
X153633583Y-112266000D01*
X154535026Y-112266000D01*
X154535026Y-113110010D01*
X154561593Y-113251200D01*
X154645036Y-113380875D01*
X154772356Y-113467869D01*
X154923490Y-113498474D01*
X158923990Y-113498474D01*
X159065180Y-113471907D01*
X159194855Y-113388464D01*
X159281849Y-113261144D01*
X159312454Y-113110010D01*
X159312454Y-112153700D01*
X160528000Y-112153700D01*
X160528000Y-112940547D01*
X160605338Y-113127258D01*
X160748241Y-113270161D01*
X160934952Y-113347500D01*
X162420300Y-113347500D01*
X162547300Y-113220500D01*
X162547300Y-112026700D01*
X162572700Y-112026700D01*
X162572700Y-113220500D01*
X162699700Y-113347500D01*
X164185048Y-113347500D01*
X164371759Y-113270161D01*
X164514662Y-113127258D01*
X164592000Y-112940547D01*
X164592000Y-112153700D01*
X164465000Y-112026700D01*
X162572700Y-112026700D01*
X162547300Y-112026700D01*
X160655000Y-112026700D01*
X160528000Y-112153700D01*
X159312454Y-112153700D01*
X159312454Y-111087453D01*
X160528000Y-111087453D01*
X160528000Y-111874300D01*
X160655000Y-112001300D01*
X162547300Y-112001300D01*
X162547300Y-110807500D01*
X162572700Y-110807500D01*
X162572700Y-112001300D01*
X164465000Y-112001300D01*
X164592000Y-111874300D01*
X164592000Y-111252000D01*
X165473536Y-111252000D01*
X165473536Y-117348000D01*
X165500103Y-117489190D01*
X165583546Y-117618865D01*
X165710866Y-117705859D01*
X165862000Y-117736464D01*
X171958000Y-117736464D01*
X172099190Y-117709897D01*
X172228865Y-117626454D01*
X172315859Y-117499134D01*
X172346464Y-117348000D01*
X172346464Y-116994669D01*
X180193864Y-116994669D01*
X180312514Y-117281823D01*
X180532021Y-117501714D01*
X180818968Y-117620864D01*
X181129669Y-117621136D01*
X181145245Y-117614700D01*
X185902000Y-117614700D01*
X185902000Y-117951048D01*
X185979339Y-118137759D01*
X186122242Y-118280662D01*
X186308953Y-118358000D01*
X186870300Y-118358000D01*
X186997300Y-118231000D01*
X186997300Y-117487700D01*
X186029000Y-117487700D01*
X185902000Y-117614700D01*
X181145245Y-117614700D01*
X181416823Y-117502486D01*
X181448364Y-117471000D01*
X183515000Y-117471000D01*
X183756473Y-117422968D01*
X183961184Y-117286184D01*
X184248416Y-116998952D01*
X185902000Y-116998952D01*
X185902000Y-117335300D01*
X186029000Y-117462300D01*
X186997300Y-117462300D01*
X186997300Y-116719000D01*
X186870300Y-116592000D01*
X186308953Y-116592000D01*
X186122242Y-116669338D01*
X185979339Y-116812241D01*
X185902000Y-116998952D01*
X184248416Y-116998952D01*
X185046369Y-116201000D01*
X186121981Y-116201000D01*
X186131546Y-116215865D01*
X186258866Y-116302859D01*
X186410000Y-116333464D01*
X187610000Y-116333464D01*
X187751190Y-116306897D01*
X187880865Y-116223454D01*
X187960980Y-116106202D01*
X188031546Y-116215865D01*
X188158866Y-116302859D01*
X188310000Y-116333464D01*
X188404000Y-116333464D01*
X188404000Y-116711536D01*
X188310000Y-116711536D01*
X188168810Y-116738103D01*
X188043383Y-116818812D01*
X188040661Y-116812241D01*
X187897758Y-116669338D01*
X187711047Y-116592000D01*
X187149700Y-116592000D01*
X187022700Y-116719000D01*
X187022700Y-117462300D01*
X187042700Y-117462300D01*
X187042700Y-117487700D01*
X187022700Y-117487700D01*
X187022700Y-118231000D01*
X187149700Y-118358000D01*
X187711047Y-118358000D01*
X187897758Y-118280662D01*
X188040661Y-118137759D01*
X188044104Y-118129446D01*
X188158866Y-118207859D01*
X188310000Y-118238464D01*
X189510000Y-118238464D01*
X189651190Y-118211897D01*
X189780865Y-118128454D01*
X189867859Y-118001134D01*
X189898464Y-117850000D01*
X189898464Y-117100000D01*
X189871897Y-116958810D01*
X189788454Y-116829135D01*
X189661134Y-116742141D01*
X189510000Y-116711536D01*
X189416000Y-116711536D01*
X189416000Y-116333464D01*
X189510000Y-116333464D01*
X189651190Y-116306897D01*
X189780865Y-116223454D01*
X189867859Y-116096134D01*
X189898464Y-115945000D01*
X189898464Y-115793904D01*
X190406184Y-115286184D01*
X190542968Y-115081473D01*
X190591000Y-114840000D01*
X190591000Y-114268464D01*
X190960000Y-114268464D01*
X191101190Y-114241897D01*
X191230865Y-114158454D01*
X191317859Y-114031134D01*
X191348464Y-113880000D01*
X191348464Y-112180000D01*
X191321897Y-112038810D01*
X191238454Y-111909135D01*
X191111134Y-111822141D01*
X190960000Y-111791536D01*
X188960000Y-111791536D01*
X188818810Y-111818103D01*
X188689135Y-111901546D01*
X188602141Y-112028866D01*
X188571536Y-112180000D01*
X188571536Y-113880000D01*
X188598103Y-114021190D01*
X188681546Y-114150865D01*
X188808866Y-114237859D01*
X188960000Y-114268464D01*
X189329000Y-114268464D01*
X189329000Y-114578632D01*
X189101096Y-114806536D01*
X188310000Y-114806536D01*
X188168810Y-114833103D01*
X188039135Y-114916546D01*
X187959020Y-115033798D01*
X187888454Y-114924135D01*
X187761134Y-114837141D01*
X187610000Y-114806536D01*
X186410000Y-114806536D01*
X186268810Y-114833103D01*
X186139135Y-114916546D01*
X186123793Y-114939000D01*
X184785000Y-114939000D01*
X184583589Y-114979063D01*
X184543526Y-114987032D01*
X184338815Y-115123816D01*
X183253632Y-116209000D01*
X181448639Y-116209000D01*
X181417979Y-116178286D01*
X181131032Y-116059136D01*
X180820331Y-116058864D01*
X180533177Y-116177514D01*
X180313286Y-116397021D01*
X180194136Y-116683968D01*
X180193864Y-116994669D01*
X172346464Y-116994669D01*
X172346464Y-115478289D01*
X174099672Y-115478289D01*
X174437941Y-115931078D01*
X175707384Y-116510843D01*
X177102063Y-116560681D01*
X178409650Y-116073005D01*
X178622059Y-115931078D01*
X178960328Y-115478289D01*
X176530000Y-113047961D01*
X174099672Y-115478289D01*
X172346464Y-115478289D01*
X172346464Y-113602063D01*
X172999319Y-113602063D01*
X173486995Y-114909650D01*
X173628922Y-115122059D01*
X174081711Y-115460328D01*
X176512039Y-113030000D01*
X176547961Y-113030000D01*
X178978289Y-115460328D01*
X179431078Y-115122059D01*
X180010843Y-113852616D01*
X180060681Y-112457937D01*
X179573005Y-111150350D01*
X179431078Y-110937941D01*
X178978289Y-110599672D01*
X176547961Y-113030000D01*
X176512039Y-113030000D01*
X174081711Y-110599672D01*
X173628922Y-110937941D01*
X173049157Y-112207384D01*
X172999319Y-113602063D01*
X172346464Y-113602063D01*
X172346464Y-111252000D01*
X172319897Y-111110810D01*
X172236454Y-110981135D01*
X172109134Y-110894141D01*
X171958000Y-110863536D01*
X169416000Y-110863536D01*
X169416000Y-110581711D01*
X174099672Y-110581711D01*
X176530000Y-113012039D01*
X178960328Y-110581711D01*
X178622059Y-110128922D01*
X177567025Y-109647079D01*
X181210882Y-109647079D01*
X181397074Y-109969985D01*
X182214910Y-110341556D01*
X183112687Y-110371871D01*
X183953725Y-110056314D01*
X184082926Y-109969985D01*
X184269118Y-109647079D01*
X182740000Y-108117961D01*
X181210882Y-109647079D01*
X177567025Y-109647079D01*
X177352616Y-109549157D01*
X175957937Y-109499319D01*
X174650350Y-109986995D01*
X174437941Y-110128922D01*
X174099672Y-110581711D01*
X169416000Y-110581711D01*
X169416000Y-109818421D01*
X169571714Y-109662979D01*
X169690864Y-109376032D01*
X169691136Y-109065331D01*
X169572486Y-108778177D01*
X169352979Y-108558286D01*
X169146833Y-108472687D01*
X180468129Y-108472687D01*
X180783686Y-109313725D01*
X180870015Y-109442926D01*
X181192921Y-109629118D01*
X182722039Y-108100000D01*
X182757961Y-108100000D01*
X184287079Y-109629118D01*
X184609985Y-109442926D01*
X184981556Y-108625090D01*
X185011871Y-107727313D01*
X184696314Y-106886275D01*
X184609985Y-106757074D01*
X184287079Y-106570882D01*
X182757961Y-108100000D01*
X182722039Y-108100000D01*
X181192921Y-106570882D01*
X180870015Y-106757074D01*
X180498444Y-107574910D01*
X180468129Y-108472687D01*
X169146833Y-108472687D01*
X169066032Y-108439136D01*
X168755331Y-108438864D01*
X168468177Y-108557514D01*
X168248286Y-108777021D01*
X168129136Y-109063968D01*
X168128864Y-109374669D01*
X168247514Y-109661823D01*
X168404000Y-109818583D01*
X168404000Y-110863536D01*
X165862000Y-110863536D01*
X165720810Y-110890103D01*
X165591135Y-110973546D01*
X165504141Y-111100866D01*
X165473536Y-111252000D01*
X164592000Y-111252000D01*
X164592000Y-111087453D01*
X164514662Y-110900742D01*
X164371759Y-110757839D01*
X164185048Y-110680500D01*
X162699700Y-110680500D01*
X162572700Y-110807500D01*
X162547300Y-110807500D01*
X162420300Y-110680500D01*
X160934952Y-110680500D01*
X160748241Y-110757839D01*
X160605338Y-110900742D01*
X160528000Y-111087453D01*
X159312454Y-111087453D01*
X159312454Y-110409990D01*
X159285887Y-110268800D01*
X159202444Y-110139125D01*
X159075124Y-110052131D01*
X158923990Y-110021526D01*
X154923490Y-110021526D01*
X154782300Y-110048093D01*
X154652625Y-110131536D01*
X154565631Y-110258856D01*
X154535026Y-110409990D01*
X154535026Y-111254000D01*
X153633421Y-111254000D01*
X153477979Y-111098286D01*
X153191032Y-110979136D01*
X152880331Y-110978864D01*
X152593177Y-111097514D01*
X152373286Y-111317021D01*
X152254136Y-111603968D01*
X152253864Y-111914669D01*
X151654510Y-111914669D01*
X151654510Y-111899700D01*
X151527510Y-111772700D01*
X149158960Y-111772700D01*
X149133560Y-111772700D01*
X146765010Y-111772700D01*
X146638010Y-111899700D01*
X145562482Y-111899700D01*
X145283005Y-111150350D01*
X145141078Y-110937941D01*
X144688289Y-110599672D01*
X142257961Y-113030000D01*
X142222039Y-113030000D01*
X139791711Y-110599672D01*
X139338922Y-110937941D01*
X138759157Y-112207384D01*
X138709319Y-113602063D01*
X135843175Y-113602063D01*
X135805010Y-113509697D01*
X135412370Y-113116371D01*
X134899100Y-112903243D01*
X134343339Y-112902758D01*
X133829697Y-113114990D01*
X133436371Y-113507630D01*
X133223243Y-114020900D01*
X133222758Y-114576661D01*
X129536000Y-114576661D01*
X129536000Y-110581711D01*
X139809672Y-110581711D01*
X142240000Y-113012039D01*
X144670328Y-110581711D01*
X144466549Y-110308942D01*
X146638010Y-110308942D01*
X146638010Y-111620300D01*
X146765010Y-111747300D01*
X149133560Y-111747300D01*
X149133560Y-110028990D01*
X149158960Y-110028990D01*
X149158960Y-111747300D01*
X151527510Y-111747300D01*
X151654510Y-111620300D01*
X151654510Y-110308942D01*
X151577171Y-110122231D01*
X151434268Y-109979328D01*
X151247557Y-109901990D01*
X149285960Y-109901990D01*
X149158960Y-110028990D01*
X149133560Y-110028990D01*
X149006560Y-109901990D01*
X147044963Y-109901990D01*
X146858252Y-109979328D01*
X146715349Y-110122231D01*
X146638010Y-110308942D01*
X144466549Y-110308942D01*
X144332059Y-110128922D01*
X143062616Y-109549157D01*
X141667937Y-109499319D01*
X140360350Y-109986995D01*
X140147941Y-110128922D01*
X139809672Y-110581711D01*
X129536000Y-110581711D01*
X129536000Y-106655617D01*
X130835400Y-106655617D01*
X130835400Y-106704383D01*
X130930140Y-107180671D01*
X131199935Y-107584448D01*
X131603712Y-107854243D01*
X132080000Y-107948983D01*
X132556288Y-107854243D01*
X132960065Y-107584448D01*
X133229860Y-107180671D01*
X133324600Y-106704383D01*
X133324600Y-106655617D01*
X133375400Y-106655617D01*
X133375400Y-106704383D01*
X133470140Y-107180671D01*
X133739935Y-107584448D01*
X134143712Y-107854243D01*
X134620000Y-107948983D01*
X135096288Y-107854243D01*
X135500065Y-107584448D01*
X135766299Y-107186000D01*
X138892073Y-107186000D01*
X138908103Y-107271190D01*
X138991546Y-107400865D01*
X139118866Y-107487859D01*
X139270000Y-107518464D01*
X140470000Y-107518464D01*
X140611190Y-107491897D01*
X140740865Y-107408454D01*
X140827859Y-107281134D01*
X140858464Y-107130000D01*
X140858464Y-106230000D01*
X140831897Y-106088810D01*
X140748454Y-105959135D01*
X140621134Y-105872141D01*
X140470000Y-105841536D01*
X139270000Y-105841536D01*
X139128810Y-105868103D01*
X138999135Y-105951546D01*
X138912141Y-106078866D01*
X138892876Y-106174000D01*
X135766299Y-106174000D01*
X135500065Y-105775552D01*
X135096288Y-105505757D01*
X134620000Y-105411017D01*
X134143712Y-105505757D01*
X133739935Y-105775552D01*
X133470140Y-106179329D01*
X133375400Y-106655617D01*
X133324600Y-106655617D01*
X133229860Y-106179329D01*
X132960065Y-105775552D01*
X132556288Y-105505757D01*
X132080000Y-105411017D01*
X131603712Y-105505757D01*
X131199935Y-105775552D01*
X130930140Y-106179329D01*
X130835400Y-106655617D01*
X129536000Y-106655617D01*
X129536000Y-101575617D01*
X130835400Y-101575617D01*
X130835400Y-101624383D01*
X130930140Y-102100671D01*
X131199935Y-102504448D01*
X131603712Y-102774243D01*
X132080000Y-102868983D01*
X132556288Y-102774243D01*
X132960065Y-102504448D01*
X133229860Y-102100671D01*
X133324600Y-101624383D01*
X133324600Y-101575617D01*
X133229860Y-101099329D01*
X132960065Y-100695552D01*
X132556288Y-100425757D01*
X132080000Y-100331017D01*
X131603712Y-100425757D01*
X131199935Y-100695552D01*
X130930140Y-101099329D01*
X130835400Y-101575617D01*
X129536000Y-101575617D01*
X129536000Y-98051368D01*
X130436369Y-97151000D01*
X130827936Y-97151000D01*
X130827936Y-97383600D01*
X130854503Y-97524790D01*
X130937946Y-97654465D01*
X131065266Y-97741459D01*
X131216400Y-97772064D01*
X132652344Y-97772064D01*
X132541577Y-97882831D01*
X132080000Y-97791017D01*
X131603712Y-97885757D01*
X131199935Y-98155552D01*
X130930140Y-98559329D01*
X130835400Y-99035617D01*
X130835400Y-99084383D01*
X130930140Y-99560671D01*
X131199935Y-99964448D01*
X131603712Y-100234243D01*
X132080000Y-100328983D01*
X132556288Y-100234243D01*
X132960065Y-99964448D01*
X133229860Y-99560671D01*
X133324600Y-99084383D01*
X133324600Y-99035617D01*
X133240877Y-98614715D01*
X133559592Y-98296000D01*
X133646091Y-98296000D01*
X133470140Y-98559329D01*
X133375400Y-99035617D01*
X133375400Y-99084383D01*
X133470140Y-99560671D01*
X133739935Y-99964448D01*
X134143712Y-100234243D01*
X134620000Y-100328983D01*
X135081577Y-100237169D01*
X136802204Y-101957796D01*
X136966362Y-102067483D01*
X137160000Y-102106000D01*
X138892073Y-102106000D01*
X138908103Y-102191190D01*
X138991546Y-102320865D01*
X139054676Y-102364000D01*
X135593909Y-102364000D01*
X135769860Y-102100671D01*
X135864600Y-101624383D01*
X135864600Y-101575617D01*
X135769860Y-101099329D01*
X135500065Y-100695552D01*
X135096288Y-100425757D01*
X134620000Y-100331017D01*
X134143712Y-100425757D01*
X133739935Y-100695552D01*
X133470140Y-101099329D01*
X133375400Y-101575617D01*
X133375400Y-101624383D01*
X133470140Y-102100671D01*
X133646091Y-102364000D01*
X133350000Y-102364000D01*
X133156362Y-102402517D01*
X132992204Y-102512204D01*
X132541577Y-102962831D01*
X132080000Y-102871017D01*
X131603712Y-102965757D01*
X131199935Y-103235552D01*
X130930140Y-103639329D01*
X130835400Y-104115617D01*
X130835400Y-104164383D01*
X130930140Y-104640671D01*
X131199935Y-105044448D01*
X131603712Y-105314243D01*
X132080000Y-105408983D01*
X132556288Y-105314243D01*
X132960065Y-105044448D01*
X133229860Y-104640671D01*
X133324600Y-104164383D01*
X133324600Y-104115617D01*
X133240877Y-103694715D01*
X133559592Y-103376000D01*
X133646091Y-103376000D01*
X133470140Y-103639329D01*
X133375400Y-104115617D01*
X133375400Y-104164383D01*
X133470140Y-104640671D01*
X133739935Y-105044448D01*
X134143712Y-105314243D01*
X134620000Y-105408983D01*
X135096288Y-105314243D01*
X135500065Y-105044448D01*
X135766299Y-104646000D01*
X138892073Y-104646000D01*
X138908103Y-104731190D01*
X138991546Y-104860865D01*
X139118866Y-104947859D01*
X139270000Y-104978464D01*
X140470000Y-104978464D01*
X140611190Y-104951897D01*
X140740865Y-104868454D01*
X140827859Y-104741134D01*
X140858464Y-104590000D01*
X140858464Y-103690000D01*
X140831897Y-103548810D01*
X140748454Y-103419135D01*
X140685324Y-103376000D01*
X141254375Y-103376000D01*
X141199135Y-103411546D01*
X141112141Y-103538866D01*
X141081536Y-103690000D01*
X141081536Y-104590000D01*
X141108103Y-104731190D01*
X141191546Y-104860865D01*
X141318866Y-104947859D01*
X141470000Y-104978464D01*
X142670000Y-104978464D01*
X142811190Y-104951897D01*
X142940865Y-104868454D01*
X143027859Y-104741134D01*
X143047124Y-104646000D01*
X144951408Y-104646000D01*
X145650057Y-105344649D01*
X145649864Y-105564669D01*
X145768514Y-105851823D01*
X145988021Y-106071714D01*
X146234355Y-106174000D01*
X143047927Y-106174000D01*
X143031897Y-106088810D01*
X142948454Y-105959135D01*
X142821134Y-105872141D01*
X142670000Y-105841536D01*
X141470000Y-105841536D01*
X141328810Y-105868103D01*
X141199135Y-105951546D01*
X141112141Y-106078866D01*
X141081536Y-106230000D01*
X141081536Y-107130000D01*
X141108103Y-107271190D01*
X141191546Y-107400865D01*
X141318866Y-107487859D01*
X141470000Y-107518464D01*
X142670000Y-107518464D01*
X142811190Y-107491897D01*
X142940865Y-107408454D01*
X143027859Y-107281134D01*
X143047124Y-107186000D01*
X149374646Y-107186000D01*
X149333136Y-107285968D01*
X149333016Y-107423094D01*
X149070331Y-107422864D01*
X148783177Y-107541514D01*
X148563286Y-107761021D01*
X148444136Y-108047968D01*
X148443987Y-108217921D01*
X148365032Y-108185136D01*
X148054331Y-108184864D01*
X147767177Y-108303514D01*
X147547286Y-108523021D01*
X147428136Y-108809968D01*
X147427864Y-109120669D01*
X147546514Y-109407823D01*
X147766021Y-109627714D01*
X148052968Y-109746864D01*
X148363669Y-109747136D01*
X148650823Y-109628486D01*
X148807583Y-109472000D01*
X158667408Y-109472000D01*
X159408204Y-110212796D01*
X159572362Y-110322483D01*
X159766000Y-110361000D01*
X163449000Y-110361000D01*
X163642638Y-110322483D01*
X163806796Y-110212796D01*
X167466671Y-106552921D01*
X181210882Y-106552921D01*
X182740000Y-108082039D01*
X184269118Y-106552921D01*
X184082926Y-106230015D01*
X183265090Y-105858444D01*
X182367313Y-105828129D01*
X181526275Y-106143686D01*
X181397074Y-106230015D01*
X181210882Y-106552921D01*
X167466671Y-106552921D01*
X168693233Y-105326359D01*
X178896802Y-105326359D01*
X179070446Y-105746612D01*
X179391697Y-106068423D01*
X179811646Y-106242801D01*
X180266359Y-106243198D01*
X180686612Y-106069554D01*
X181008423Y-105748303D01*
X181015608Y-105731000D01*
X184213632Y-105731000D01*
X185329000Y-106846368D01*
X185329000Y-111791536D01*
X184960000Y-111791536D01*
X184818810Y-111818103D01*
X184689135Y-111901546D01*
X184602141Y-112028866D01*
X184571536Y-112180000D01*
X184571536Y-113880000D01*
X184598103Y-114021190D01*
X184681546Y-114150865D01*
X184808866Y-114237859D01*
X184960000Y-114268464D01*
X186960000Y-114268464D01*
X187101190Y-114241897D01*
X187230865Y-114158454D01*
X187317859Y-114031134D01*
X187348464Y-113880000D01*
X187348464Y-112180000D01*
X187321897Y-112038810D01*
X187238454Y-111909135D01*
X187111134Y-111822141D01*
X186960000Y-111791536D01*
X186591000Y-111791536D01*
X186591000Y-106585000D01*
X186542968Y-106343527D01*
X186542968Y-106343526D01*
X186406184Y-106138816D01*
X184921184Y-104653816D01*
X184716473Y-104517032D01*
X184475000Y-104469000D01*
X181016005Y-104469000D01*
X181009554Y-104453388D01*
X180688303Y-104131577D01*
X180268354Y-103957199D01*
X179813641Y-103956802D01*
X179393388Y-104130446D01*
X179071577Y-104451697D01*
X178897199Y-104871646D01*
X178896802Y-105326359D01*
X168693233Y-105326359D01*
X168759796Y-105259796D01*
X168813646Y-105179204D01*
X168869483Y-105095638D01*
X168908000Y-104902000D01*
X168908000Y-103505000D01*
X168869483Y-103311362D01*
X168759796Y-103147204D01*
X168104796Y-102492204D01*
X167940638Y-102382517D01*
X167807328Y-102356000D01*
X168442408Y-102356000D01*
X169314204Y-103227796D01*
X169478362Y-103337483D01*
X169672000Y-103376000D01*
X170007073Y-103376000D01*
X170023103Y-103461190D01*
X170106546Y-103590865D01*
X170233866Y-103677859D01*
X170385000Y-103708464D01*
X171585000Y-103708464D01*
X171726190Y-103681897D01*
X171855865Y-103598454D01*
X171942859Y-103471134D01*
X171973464Y-103320000D01*
X171973464Y-102420000D01*
X171946897Y-102278810D01*
X171863454Y-102149135D01*
X171736134Y-102062141D01*
X171585000Y-102031536D01*
X170385000Y-102031536D01*
X170243810Y-102058103D01*
X170114135Y-102141546D01*
X170027141Y-102268866D01*
X170007876Y-102364000D01*
X169881592Y-102364000D01*
X169117592Y-101600000D01*
X169881592Y-100836000D01*
X170007073Y-100836000D01*
X170023103Y-100921190D01*
X170106546Y-101050865D01*
X170233866Y-101137859D01*
X170385000Y-101168464D01*
X171585000Y-101168464D01*
X171726190Y-101141897D01*
X171855865Y-101058454D01*
X171942859Y-100931134D01*
X171973464Y-100780000D01*
X171973464Y-99880000D01*
X172196536Y-99880000D01*
X172196536Y-100780000D01*
X172223103Y-100921190D01*
X172306546Y-101050865D01*
X172433866Y-101137859D01*
X172585000Y-101168464D01*
X173785000Y-101168464D01*
X173858325Y-101154667D01*
X173962514Y-101406823D01*
X174155498Y-101600145D01*
X173963286Y-101792021D01*
X173857717Y-102046261D01*
X173785000Y-102031536D01*
X172585000Y-102031536D01*
X172443810Y-102058103D01*
X172314135Y-102141546D01*
X172227141Y-102268866D01*
X172196536Y-102420000D01*
X172196536Y-103320000D01*
X172223103Y-103461190D01*
X172306546Y-103590865D01*
X172433866Y-103677859D01*
X172585000Y-103708464D01*
X173785000Y-103708464D01*
X173926190Y-103681897D01*
X174055865Y-103598454D01*
X174137453Y-103479045D01*
X175410204Y-104751796D01*
X175574362Y-104861483D01*
X175768000Y-104900000D01*
X178246000Y-104900000D01*
X178439638Y-104861483D01*
X178603796Y-104751796D01*
X179671136Y-103684456D01*
X179811646Y-103742801D01*
X180266359Y-103743198D01*
X180686612Y-103569554D01*
X181008423Y-103248303D01*
X181182801Y-102828354D01*
X181183198Y-102373641D01*
X181009554Y-101953388D01*
X180688303Y-101631577D01*
X180612591Y-101600139D01*
X180686612Y-101569554D01*
X181008423Y-101248303D01*
X181182801Y-100828354D01*
X181183198Y-100373641D01*
X181009554Y-99953388D01*
X180688303Y-99631577D01*
X180268354Y-99457199D01*
X179813641Y-99456802D01*
X179671235Y-99515643D01*
X179328029Y-99172437D01*
X179750080Y-99362008D01*
X180255098Y-99376891D01*
X180727370Y-99197379D01*
X180790801Y-99154996D01*
X180856788Y-98934748D01*
X180040000Y-98117961D01*
X180025858Y-98132103D01*
X180007897Y-98114142D01*
X180022039Y-98100000D01*
X180057961Y-98100000D01*
X180874748Y-98916788D01*
X181094996Y-98850801D01*
X181302008Y-98389920D01*
X181316891Y-97884902D01*
X181137379Y-97412630D01*
X181094996Y-97349199D01*
X180874748Y-97283212D01*
X180057961Y-98100000D01*
X180022039Y-98100000D01*
X179205252Y-97283212D01*
X178985004Y-97349199D01*
X178777992Y-97810080D01*
X178763109Y-98315098D01*
X178942412Y-98786820D01*
X178603796Y-98448204D01*
X178439638Y-98338517D01*
X178246000Y-98300000D01*
X175768000Y-98300000D01*
X175574362Y-98338517D01*
X175410204Y-98448204D01*
X174136209Y-99722199D01*
X174063454Y-99609135D01*
X173936134Y-99522141D01*
X173785000Y-99491536D01*
X172585000Y-99491536D01*
X172443810Y-99518103D01*
X172314135Y-99601546D01*
X172227141Y-99728866D01*
X172196536Y-99880000D01*
X171973464Y-99880000D01*
X171946897Y-99738810D01*
X171863454Y-99609135D01*
X171736134Y-99522141D01*
X171585000Y-99491536D01*
X170385000Y-99491536D01*
X170243810Y-99518103D01*
X170114135Y-99601546D01*
X170027141Y-99728866D01*
X170007876Y-99824000D01*
X169672000Y-99824000D01*
X169478362Y-99862517D01*
X169417224Y-99903368D01*
X169587796Y-99732796D01*
X169697483Y-99568638D01*
X169736000Y-99375000D01*
X169736000Y-99188464D01*
X169830000Y-99188464D01*
X169971190Y-99161897D01*
X170096617Y-99081188D01*
X170099339Y-99087759D01*
X170242242Y-99230662D01*
X170428953Y-99308000D01*
X170990300Y-99308000D01*
X171117300Y-99181000D01*
X171117300Y-98437700D01*
X171142700Y-98437700D01*
X171142700Y-99181000D01*
X171269700Y-99308000D01*
X171831047Y-99308000D01*
X172017758Y-99230662D01*
X172160661Y-99087759D01*
X172238000Y-98901048D01*
X172238000Y-98564700D01*
X172111000Y-98437700D01*
X171142700Y-98437700D01*
X171117300Y-98437700D01*
X171097300Y-98437700D01*
X171097300Y-98412300D01*
X171117300Y-98412300D01*
X171117300Y-97669000D01*
X171142700Y-97669000D01*
X171142700Y-98412300D01*
X172111000Y-98412300D01*
X172238000Y-98285300D01*
X172238000Y-97948952D01*
X172160661Y-97762241D01*
X172017758Y-97619338D01*
X171831047Y-97542000D01*
X171269700Y-97542000D01*
X171142700Y-97669000D01*
X171117300Y-97669000D01*
X170990300Y-97542000D01*
X170428953Y-97542000D01*
X170242242Y-97619338D01*
X170099339Y-97762241D01*
X170095896Y-97770554D01*
X169981134Y-97692141D01*
X169830000Y-97661536D01*
X168630000Y-97661536D01*
X168488810Y-97688103D01*
X168400000Y-97745250D01*
X168400000Y-97198972D01*
X168478866Y-97252859D01*
X168630000Y-97283464D01*
X169830000Y-97283464D01*
X169971190Y-97256897D01*
X170096617Y-97176188D01*
X170099339Y-97182759D01*
X170242242Y-97325662D01*
X170428953Y-97403000D01*
X170990300Y-97403000D01*
X171117300Y-97276000D01*
X171117300Y-96532700D01*
X171142700Y-96532700D01*
X171142700Y-97276000D01*
X171269700Y-97403000D01*
X171831047Y-97403000D01*
X172017758Y-97325662D01*
X172078168Y-97265252D01*
X179223212Y-97265252D01*
X180040000Y-98082039D01*
X180856788Y-97265252D01*
X180790801Y-97045004D01*
X180329920Y-96837992D01*
X179824902Y-96823109D01*
X179352630Y-97002621D01*
X179289199Y-97045004D01*
X179223212Y-97265252D01*
X172078168Y-97265252D01*
X172160661Y-97182759D01*
X172238000Y-96996048D01*
X172238000Y-96659700D01*
X172225379Y-96647079D01*
X181210882Y-96647079D01*
X181397074Y-96969985D01*
X182214910Y-97341556D01*
X183112687Y-97371871D01*
X183953725Y-97056314D01*
X184082926Y-96969985D01*
X184269118Y-96647079D01*
X182740000Y-95117961D01*
X181210882Y-96647079D01*
X172225379Y-96647079D01*
X172111000Y-96532700D01*
X171142700Y-96532700D01*
X171117300Y-96532700D01*
X171097300Y-96532700D01*
X171097300Y-96507300D01*
X171117300Y-96507300D01*
X171117300Y-95764000D01*
X171142700Y-95764000D01*
X171142700Y-96507300D01*
X172111000Y-96507300D01*
X172238000Y-96380300D01*
X172238000Y-96043952D01*
X172160661Y-95857241D01*
X172017758Y-95714338D01*
X171831047Y-95637000D01*
X171269700Y-95637000D01*
X171142700Y-95764000D01*
X171117300Y-95764000D01*
X170990300Y-95637000D01*
X170428953Y-95637000D01*
X170242242Y-95714338D01*
X170099339Y-95857241D01*
X170095896Y-95865554D01*
X169981134Y-95787141D01*
X169830000Y-95756536D01*
X168630000Y-95756536D01*
X168488810Y-95783103D01*
X168359135Y-95866546D01*
X168272141Y-95993866D01*
X168268064Y-96014000D01*
X168148000Y-96014000D01*
X167954362Y-96052517D01*
X167790204Y-96162204D01*
X167536204Y-96416204D01*
X167426517Y-96580362D01*
X167388000Y-96774000D01*
X167388000Y-99539443D01*
X167323454Y-99439135D01*
X167196134Y-99352141D01*
X167045000Y-99321536D01*
X166951000Y-99321536D01*
X166951000Y-96273592D01*
X168103592Y-95121000D01*
X168266186Y-95121000D01*
X168268103Y-95131190D01*
X168351546Y-95260865D01*
X168478866Y-95347859D01*
X168630000Y-95378464D01*
X169830000Y-95378464D01*
X169971190Y-95351897D01*
X170096617Y-95271188D01*
X170099339Y-95277759D01*
X170242242Y-95420662D01*
X170428953Y-95498000D01*
X170990300Y-95498000D01*
X171117300Y-95371000D01*
X171117300Y-94627700D01*
X171142700Y-94627700D01*
X171142700Y-95371000D01*
X171269700Y-95498000D01*
X171831047Y-95498000D01*
X171892158Y-95472687D01*
X180468129Y-95472687D01*
X180783686Y-96313725D01*
X180870015Y-96442926D01*
X181192921Y-96629118D01*
X182722039Y-95100000D01*
X182757961Y-95100000D01*
X184287079Y-96629118D01*
X184609985Y-96442926D01*
X184981556Y-95625090D01*
X185011871Y-94727313D01*
X184696314Y-93886275D01*
X184609985Y-93757074D01*
X184287079Y-93570882D01*
X182757961Y-95100000D01*
X182722039Y-95100000D01*
X181192921Y-93570882D01*
X180870015Y-93757074D01*
X180498444Y-94574910D01*
X180468129Y-95472687D01*
X171892158Y-95472687D01*
X172017758Y-95420662D01*
X172160661Y-95277759D01*
X172238000Y-95091048D01*
X172238000Y-94754700D01*
X172111000Y-94627700D01*
X171142700Y-94627700D01*
X171117300Y-94627700D01*
X171097300Y-94627700D01*
X171097300Y-94602300D01*
X171117300Y-94602300D01*
X171117300Y-93859000D01*
X171142700Y-93859000D01*
X171142700Y-94602300D01*
X172111000Y-94602300D01*
X172238000Y-94475300D01*
X172238000Y-94138952D01*
X172160661Y-93952241D01*
X172017758Y-93809338D01*
X171831047Y-93732000D01*
X171269700Y-93732000D01*
X171142700Y-93859000D01*
X171117300Y-93859000D01*
X170990300Y-93732000D01*
X170762592Y-93732000D01*
X170829796Y-93664796D01*
X170939483Y-93500638D01*
X170964581Y-93374464D01*
X171072000Y-93374464D01*
X171213190Y-93347897D01*
X171342865Y-93264454D01*
X171429859Y-93137134D01*
X171460464Y-92986000D01*
X171460464Y-92618289D01*
X174099672Y-92618289D01*
X174437941Y-93071078D01*
X175707384Y-93650843D01*
X177102063Y-93700681D01*
X177498246Y-93552921D01*
X181210882Y-93552921D01*
X182740000Y-95082039D01*
X184269118Y-93552921D01*
X184082926Y-93230015D01*
X183265090Y-92858444D01*
X182367313Y-92828129D01*
X181526275Y-93143686D01*
X181397074Y-93230015D01*
X181210882Y-93552921D01*
X177498246Y-93552921D01*
X178409650Y-93213005D01*
X178622059Y-93071078D01*
X178960328Y-92618289D01*
X176530000Y-90187961D01*
X174099672Y-92618289D01*
X171460464Y-92618289D01*
X171460464Y-91586000D01*
X171433897Y-91444810D01*
X171350454Y-91315135D01*
X171264239Y-91256227D01*
X171359759Y-91216661D01*
X171502662Y-91073758D01*
X171580000Y-90887047D01*
X171580000Y-90742063D01*
X172999319Y-90742063D01*
X173486995Y-92049650D01*
X173628922Y-92262059D01*
X174081711Y-92600328D01*
X176512039Y-90170000D01*
X176547961Y-90170000D01*
X178978289Y-92600328D01*
X179431078Y-92262059D01*
X180010843Y-90992616D01*
X180060681Y-89597937D01*
X179903563Y-89176661D01*
X186562758Y-89176661D01*
X186774990Y-89690303D01*
X187167630Y-90083629D01*
X187680900Y-90296757D01*
X188236661Y-90297242D01*
X188750303Y-90085010D01*
X189143629Y-89692370D01*
X189356757Y-89179100D01*
X189357242Y-88623339D01*
X189145010Y-88109697D01*
X188752370Y-87716371D01*
X188239100Y-87503243D01*
X187683339Y-87502758D01*
X187169697Y-87714990D01*
X186776371Y-88107630D01*
X186563243Y-88620900D01*
X186562758Y-89176661D01*
X179903563Y-89176661D01*
X179573005Y-88290350D01*
X179431078Y-88077941D01*
X178978289Y-87739672D01*
X176547961Y-90170000D01*
X176512039Y-90170000D01*
X174081711Y-87739672D01*
X173628922Y-88077941D01*
X173049157Y-89347384D01*
X172999319Y-90742063D01*
X171580000Y-90742063D01*
X171580000Y-90225700D01*
X171453000Y-90098700D01*
X170484700Y-90098700D01*
X170484700Y-90118700D01*
X170459300Y-90118700D01*
X170459300Y-90098700D01*
X170439300Y-90098700D01*
X170439300Y-90073300D01*
X170459300Y-90073300D01*
X170459300Y-89005000D01*
X170484700Y-89005000D01*
X170484700Y-90073300D01*
X171453000Y-90073300D01*
X171580000Y-89946300D01*
X171580000Y-89284953D01*
X171502662Y-89098242D01*
X171359759Y-88955339D01*
X171173048Y-88878000D01*
X170611700Y-88878000D01*
X170484700Y-89005000D01*
X170459300Y-89005000D01*
X170332300Y-88878000D01*
X169770952Y-88878000D01*
X169584241Y-88955339D01*
X169530249Y-89009331D01*
X169472000Y-88997536D01*
X168272000Y-88997536D01*
X168130810Y-89024103D01*
X168001135Y-89107546D01*
X167914141Y-89234866D01*
X167883536Y-89386000D01*
X167883536Y-89598790D01*
X167784362Y-89618517D01*
X167620204Y-89728204D01*
X167051182Y-90297226D01*
X167023454Y-90254135D01*
X166896134Y-90167141D01*
X166745000Y-90136536D01*
X165995000Y-90136536D01*
X165853810Y-90163103D01*
X165724135Y-90246546D01*
X165637141Y-90373866D01*
X165606536Y-90525000D01*
X165606536Y-90619000D01*
X165161000Y-90619000D01*
X164967362Y-90657517D01*
X164803204Y-90767204D01*
X164587204Y-90983204D01*
X164477517Y-91147362D01*
X164439000Y-91341000D01*
X164439000Y-97361536D01*
X164305000Y-97361536D01*
X164190963Y-97382994D01*
X164085000Y-97361536D01*
X163805000Y-97361536D01*
X163690963Y-97382994D01*
X163585000Y-97361536D01*
X163305000Y-97361536D01*
X163190963Y-97382994D01*
X163085000Y-97361536D01*
X162805000Y-97361536D01*
X162690963Y-97382994D01*
X162585000Y-97361536D01*
X162305000Y-97361536D01*
X162190963Y-97382994D01*
X162085000Y-97361536D01*
X161805000Y-97361536D01*
X161690963Y-97382994D01*
X161585000Y-97361536D01*
X161305000Y-97361536D01*
X161163810Y-97388103D01*
X161034135Y-97471546D01*
X160947141Y-97598866D01*
X160916536Y-97750000D01*
X160916536Y-98950000D01*
X160943103Y-99091190D01*
X161026546Y-99220865D01*
X161153866Y-99307859D01*
X161305000Y-99338464D01*
X161585000Y-99338464D01*
X161699037Y-99317006D01*
X161805000Y-99338464D01*
X162085000Y-99338464D01*
X162199037Y-99317006D01*
X162305000Y-99338464D01*
X162585000Y-99338464D01*
X162699037Y-99317006D01*
X162805000Y-99338464D01*
X163085000Y-99338464D01*
X163136409Y-99328791D01*
X163049136Y-99538968D01*
X163048942Y-99760466D01*
X162965408Y-99844000D01*
X160933464Y-99844000D01*
X160933464Y-99710000D01*
X160906897Y-99568810D01*
X160823454Y-99439135D01*
X160696134Y-99352141D01*
X160545000Y-99321536D01*
X159345000Y-99321536D01*
X159203810Y-99348103D01*
X159074135Y-99431546D01*
X158987141Y-99558866D01*
X158956536Y-99710000D01*
X158956536Y-99844000D01*
X158725592Y-99844000D01*
X158494000Y-99612408D01*
X158494000Y-99322814D01*
X158504190Y-99320897D01*
X158633865Y-99237454D01*
X158720859Y-99110134D01*
X158751464Y-98959000D01*
X158751464Y-97759000D01*
X158724897Y-97617810D01*
X158644188Y-97492383D01*
X158650759Y-97489661D01*
X158793662Y-97346758D01*
X158871000Y-97160047D01*
X158871000Y-96598700D01*
X158744000Y-96471700D01*
X158000700Y-96471700D01*
X158000700Y-96491700D01*
X157975300Y-96491700D01*
X157975300Y-96471700D01*
X157232000Y-96471700D01*
X157105000Y-96598700D01*
X157105000Y-97160047D01*
X157182338Y-97346758D01*
X157325241Y-97489661D01*
X157333554Y-97493104D01*
X157255141Y-97607866D01*
X157224536Y-97759000D01*
X157224536Y-97853000D01*
X156191847Y-97853000D01*
X156217464Y-97726500D01*
X156217464Y-96583500D01*
X156190897Y-96442310D01*
X156107454Y-96312635D01*
X156081000Y-96294560D01*
X156081000Y-95707464D01*
X156132000Y-95707464D01*
X156273190Y-95680897D01*
X156402865Y-95597454D01*
X156489859Y-95470134D01*
X156509124Y-95375000D01*
X157454011Y-95375000D01*
X157325241Y-95428339D01*
X157182338Y-95571242D01*
X157105000Y-95757953D01*
X157105000Y-96319300D01*
X157232000Y-96446300D01*
X157975300Y-96446300D01*
X157975300Y-96426300D01*
X158000700Y-96426300D01*
X158000700Y-96446300D01*
X158744000Y-96446300D01*
X158871000Y-96319300D01*
X158871000Y-95757953D01*
X158793662Y-95571242D01*
X158650759Y-95428339D01*
X158521989Y-95375000D01*
X159929579Y-95375000D01*
X160085021Y-95530714D01*
X160371968Y-95649864D01*
X160682669Y-95650136D01*
X160969823Y-95531486D01*
X161189714Y-95311979D01*
X161308864Y-95025032D01*
X161309136Y-94714331D01*
X161190486Y-94427177D01*
X160970979Y-94207286D01*
X160684032Y-94088136D01*
X160373331Y-94087864D01*
X160086177Y-94206514D01*
X159929417Y-94363000D01*
X156509927Y-94363000D01*
X156493897Y-94277810D01*
X156410454Y-94148135D01*
X156283134Y-94061141D01*
X156132000Y-94030536D01*
X154932000Y-94030536D01*
X154790810Y-94057103D01*
X154661135Y-94140546D01*
X154574141Y-94267866D01*
X154543536Y-94419000D01*
X154543536Y-95319000D01*
X154570103Y-95460190D01*
X154653546Y-95589865D01*
X154780866Y-95676859D01*
X154932000Y-95707464D01*
X155069000Y-95707464D01*
X155069000Y-96292907D01*
X155050135Y-96305046D01*
X154963141Y-96432366D01*
X154940274Y-96545288D01*
X154920897Y-96442310D01*
X154837454Y-96312635D01*
X154710134Y-96225641D01*
X154559000Y-96195036D01*
X154051000Y-96195036D01*
X153909810Y-96221603D01*
X153780135Y-96305046D01*
X153693141Y-96432366D01*
X153670274Y-96545288D01*
X153650897Y-96442310D01*
X153567454Y-96312635D01*
X153440134Y-96225641D01*
X153289000Y-96195036D01*
X152781000Y-96195036D01*
X152639810Y-96221603D01*
X152510135Y-96305046D01*
X152423141Y-96432366D01*
X152400274Y-96545288D01*
X152380897Y-96442310D01*
X152297454Y-96312635D01*
X152170134Y-96225641D01*
X152019000Y-96195036D01*
X151511000Y-96195036D01*
X151369810Y-96221603D01*
X151240135Y-96305046D01*
X151204885Y-96356636D01*
X151179661Y-96295741D01*
X151036758Y-96152838D01*
X150850047Y-96075500D01*
X150634700Y-96075500D01*
X150507700Y-96202500D01*
X150507700Y-97142300D01*
X150527700Y-97142300D01*
X150527700Y-97167700D01*
X150507700Y-97167700D01*
X150507700Y-98107500D01*
X150634700Y-98234500D01*
X150850047Y-98234500D01*
X151036758Y-98157162D01*
X151179661Y-98014259D01*
X151204629Y-97953981D01*
X151232546Y-97997365D01*
X151359866Y-98084359D01*
X151511000Y-98114964D01*
X152019000Y-98114964D01*
X152160190Y-98088397D01*
X152289865Y-98004954D01*
X152376859Y-97877634D01*
X152399726Y-97764712D01*
X152419103Y-97867690D01*
X152502546Y-97997365D01*
X152529000Y-98015440D01*
X152529000Y-98215408D01*
X152190408Y-98554000D01*
X142449592Y-98554000D01*
X141327796Y-97432204D01*
X141163638Y-97322517D01*
X141023793Y-97294700D01*
X145923000Y-97294700D01*
X145923000Y-97827548D01*
X146000339Y-98014259D01*
X146143242Y-98157162D01*
X146329953Y-98234500D01*
X146545300Y-98234500D01*
X146672300Y-98107500D01*
X146672300Y-97167700D01*
X146697700Y-97167700D01*
X146697700Y-98107500D01*
X146824700Y-98234500D01*
X147040047Y-98234500D01*
X147226758Y-98157162D01*
X147320000Y-98063920D01*
X147413242Y-98157162D01*
X147599953Y-98234500D01*
X147815300Y-98234500D01*
X147942300Y-98107500D01*
X147942300Y-97167700D01*
X146697700Y-97167700D01*
X146672300Y-97167700D01*
X146050000Y-97167700D01*
X145923000Y-97294700D01*
X141023793Y-97294700D01*
X140970000Y-97284000D01*
X135748383Y-97284000D01*
X135782796Y-97247457D01*
X135972669Y-96747100D01*
X135864542Y-96532700D01*
X134632700Y-96532700D01*
X134632700Y-96552700D01*
X134607300Y-96552700D01*
X134607300Y-96532700D01*
X134587300Y-96532700D01*
X134587300Y-96507300D01*
X134607300Y-96507300D01*
X134607300Y-95275465D01*
X134632700Y-95275465D01*
X134632700Y-96507300D01*
X135864542Y-96507300D01*
X135877073Y-96482452D01*
X145923000Y-96482452D01*
X145923000Y-97015300D01*
X146050000Y-97142300D01*
X146672300Y-97142300D01*
X146672300Y-96202500D01*
X146697700Y-96202500D01*
X146697700Y-97142300D01*
X147942300Y-97142300D01*
X147942300Y-96202500D01*
X147967700Y-96202500D01*
X147967700Y-97142300D01*
X147987700Y-97142300D01*
X147987700Y-97167700D01*
X147967700Y-97167700D01*
X147967700Y-98107500D01*
X148094700Y-98234500D01*
X148310047Y-98234500D01*
X148496758Y-98157162D01*
X148639661Y-98014259D01*
X148664629Y-97953981D01*
X148692546Y-97997365D01*
X148819866Y-98084359D01*
X148971000Y-98114964D01*
X149479000Y-98114964D01*
X149620190Y-98088397D01*
X149749865Y-98004954D01*
X149785115Y-97953364D01*
X149810339Y-98014259D01*
X149953242Y-98157162D01*
X150139953Y-98234500D01*
X150355300Y-98234500D01*
X150482300Y-98107500D01*
X150482300Y-97167700D01*
X150462300Y-97167700D01*
X150462300Y-97142300D01*
X150482300Y-97142300D01*
X150482300Y-96202500D01*
X150355300Y-96075500D01*
X150139953Y-96075500D01*
X149953242Y-96152838D01*
X149810339Y-96295741D01*
X149785371Y-96356019D01*
X149757454Y-96312635D01*
X149630134Y-96225641D01*
X149479000Y-96195036D01*
X148971000Y-96195036D01*
X148829810Y-96221603D01*
X148700135Y-96305046D01*
X148664885Y-96356636D01*
X148639661Y-96295741D01*
X148496758Y-96152838D01*
X148310047Y-96075500D01*
X148094700Y-96075500D01*
X147967700Y-96202500D01*
X147942300Y-96202500D01*
X147815300Y-96075500D01*
X147599953Y-96075500D01*
X147413242Y-96152838D01*
X147320000Y-96246080D01*
X147226758Y-96152838D01*
X147040047Y-96075500D01*
X146824700Y-96075500D01*
X146697700Y-96202500D01*
X146672300Y-96202500D01*
X146545300Y-96075500D01*
X146329953Y-96075500D01*
X146143242Y-96152838D01*
X146000339Y-96295741D01*
X145923000Y-96482452D01*
X135877073Y-96482452D01*
X135972669Y-96292900D01*
X135782796Y-95792543D01*
X135415898Y-95402935D01*
X134927832Y-95183390D01*
X134847100Y-95167332D01*
X134632700Y-95275465D01*
X134607300Y-95275465D01*
X134392900Y-95167332D01*
X134312168Y-95183390D01*
X133824102Y-95402935D01*
X133457204Y-95792543D01*
X133332064Y-96122314D01*
X133332064Y-95656400D01*
X133305497Y-95515210D01*
X133222054Y-95385535D01*
X133094734Y-95298541D01*
X132943600Y-95267936D01*
X131216400Y-95267936D01*
X131075210Y-95294503D01*
X130945535Y-95377946D01*
X130858541Y-95505266D01*
X130827936Y-95656400D01*
X130827936Y-95889000D01*
X130175000Y-95889000D01*
X129973589Y-95929063D01*
X129933526Y-95937032D01*
X129728815Y-96073816D01*
X128458816Y-97343816D01*
X128322032Y-97548527D01*
X128274000Y-97790000D01*
X127635000Y-97790000D01*
X127635000Y-94419000D01*
X152343536Y-94419000D01*
X152343536Y-95319000D01*
X152370103Y-95460190D01*
X152453546Y-95589865D01*
X152580866Y-95676859D01*
X152732000Y-95707464D01*
X153932000Y-95707464D01*
X154073190Y-95680897D01*
X154202865Y-95597454D01*
X154289859Y-95470134D01*
X154320464Y-95319000D01*
X154320464Y-94419000D01*
X154293897Y-94277810D01*
X154210454Y-94148135D01*
X154083134Y-94061141D01*
X153932000Y-94030536D01*
X152732000Y-94030536D01*
X152590810Y-94057103D01*
X152461135Y-94140546D01*
X152374141Y-94267866D01*
X152343536Y-94419000D01*
X127635000Y-94419000D01*
X127635000Y-92618289D01*
X139809672Y-92618289D01*
X140147941Y-93071078D01*
X141417384Y-93650843D01*
X142812063Y-93700681D01*
X144119650Y-93213005D01*
X144332059Y-93071078D01*
X144670328Y-92618289D01*
X142240000Y-90187961D01*
X139809672Y-92618289D01*
X127635000Y-92618289D01*
X127635000Y-90742063D01*
X138709319Y-90742063D01*
X139196995Y-92049650D01*
X139338922Y-92262059D01*
X139791711Y-92600328D01*
X142222039Y-90170000D01*
X142257961Y-90170000D01*
X144688289Y-92600328D01*
X145141078Y-92262059D01*
X145720843Y-90992616D01*
X145770681Y-89597937D01*
X145283005Y-88290350D01*
X145141078Y-88077941D01*
X144688289Y-87739672D01*
X142257961Y-90170000D01*
X142222039Y-90170000D01*
X139791711Y-87739672D01*
X139338922Y-88077941D01*
X138759157Y-89347384D01*
X138709319Y-90742063D01*
X127635000Y-90742063D01*
X127635000Y-88996835D01*
X132001125Y-88996835D01*
X132156902Y-89293766D01*
X132884416Y-89623698D01*
X133682812Y-89650109D01*
X134430540Y-89368976D01*
X134543098Y-89293766D01*
X134698875Y-88996835D01*
X133350000Y-87647961D01*
X132001125Y-88996835D01*
X127635000Y-88996835D01*
X127635000Y-87962812D01*
X131329891Y-87962812D01*
X131611024Y-88710540D01*
X131686234Y-88823098D01*
X131983165Y-88978875D01*
X133332039Y-87630000D01*
X133367961Y-87630000D01*
X134716835Y-88978875D01*
X135013766Y-88823098D01*
X135343698Y-88095584D01*
X135356065Y-87721711D01*
X139809672Y-87721711D01*
X142240000Y-90152039D01*
X144670328Y-87721711D01*
X174099672Y-87721711D01*
X176530000Y-90152039D01*
X178960328Y-87721711D01*
X178622059Y-87268922D01*
X177352616Y-86689157D01*
X175957937Y-86639319D01*
X174650350Y-87126995D01*
X174437941Y-87268922D01*
X174099672Y-87721711D01*
X144670328Y-87721711D01*
X144332059Y-87268922D01*
X143062616Y-86689157D01*
X141667937Y-86639319D01*
X140360350Y-87126995D01*
X140147941Y-87268922D01*
X139809672Y-87721711D01*
X135356065Y-87721711D01*
X135370109Y-87297188D01*
X135088976Y-86549460D01*
X135013766Y-86436902D01*
X134716835Y-86281125D01*
X133367961Y-87630000D01*
X133332039Y-87630000D01*
X131983165Y-86281125D01*
X131686234Y-86436902D01*
X131356302Y-87164416D01*
X131329891Y-87962812D01*
X127635000Y-87962812D01*
X127635000Y-86263165D01*
X132001125Y-86263165D01*
X133350000Y-87612039D01*
X134698875Y-86263165D01*
X134543098Y-85966234D01*
X133815584Y-85636302D01*
X133017188Y-85609891D01*
X132269460Y-85891024D01*
X132156902Y-85966234D01*
X132001125Y-86263165D01*
X127635000Y-86263165D01*
X127635000Y-84455000D01*
X192405000Y-84455000D01*
X192405000Y-118745000D01*
G36*
X163895466Y-100476058D02*
X164127204Y-100707796D01*
X164291362Y-100817483D01*
X164485000Y-100856000D01*
X165456536Y-100856000D01*
X165456536Y-100990000D01*
X165477994Y-101104037D01*
X165456536Y-101210000D01*
X165456536Y-101490000D01*
X165477994Y-101604037D01*
X165456536Y-101710000D01*
X165456536Y-101880044D01*
X165414339Y-101922241D01*
X165337000Y-102108952D01*
X165337000Y-102210300D01*
X165464000Y-102337300D01*
X165678412Y-102337300D01*
X165693866Y-102347859D01*
X165701718Y-102349449D01*
X165681125Y-102362700D01*
X165464000Y-102362700D01*
X165337000Y-102489700D01*
X165337000Y-102591048D01*
X165414339Y-102777759D01*
X165456536Y-102819956D01*
X165456536Y-102990000D01*
X165477994Y-103104037D01*
X165456536Y-103210000D01*
X165456536Y-103490000D01*
X165483103Y-103631190D01*
X165566546Y-103760865D01*
X165693866Y-103847859D01*
X165845000Y-103878464D01*
X165939000Y-103878464D01*
X165939000Y-105887408D01*
X165451000Y-106375408D01*
X165451000Y-105560932D01*
X165473464Y-105450000D01*
X165473464Y-104250000D01*
X165446897Y-104108810D01*
X165363454Y-103979135D01*
X165236134Y-103892141D01*
X165085000Y-103861536D01*
X164805000Y-103861536D01*
X164690963Y-103882994D01*
X164585000Y-103861536D01*
X164305000Y-103861536D01*
X164190963Y-103882994D01*
X164085000Y-103861536D01*
X163805000Y-103861536D01*
X163690963Y-103882994D01*
X163585000Y-103861536D01*
X163305000Y-103861536D01*
X163190963Y-103882994D01*
X163085000Y-103861536D01*
X162805000Y-103861536D01*
X162690963Y-103882994D01*
X162585000Y-103861536D01*
X162305000Y-103861536D01*
X162190963Y-103882994D01*
X162085000Y-103861536D01*
X161805000Y-103861536D01*
X161690963Y-103882994D01*
X161585000Y-103861536D01*
X161305000Y-103861536D01*
X161163810Y-103888103D01*
X161034135Y-103971546D01*
X160947141Y-104098866D01*
X160916536Y-104250000D01*
X160916536Y-105209944D01*
X159585056Y-103878464D01*
X160545000Y-103878464D01*
X160686190Y-103851897D01*
X160815865Y-103768454D01*
X160902859Y-103641134D01*
X160933464Y-103490000D01*
X160933464Y-103210000D01*
X160912006Y-103095963D01*
X160933464Y-102990000D01*
X160933464Y-102710000D01*
X160912006Y-102595963D01*
X160933464Y-102490000D01*
X160933464Y-102210000D01*
X160912006Y-102095963D01*
X160933464Y-101990000D01*
X160933464Y-101710000D01*
X160912006Y-101595963D01*
X160933464Y-101490000D01*
X160933464Y-101319956D01*
X160975661Y-101277759D01*
X161053000Y-101091048D01*
X161053000Y-100989700D01*
X160926002Y-100862702D01*
X161053000Y-100862702D01*
X161053000Y-100856000D01*
X163175000Y-100856000D01*
X163368638Y-100817483D01*
X163532796Y-100707796D01*
X163764649Y-100475943D01*
X163895466Y-100476058D01*
X163895466Y-100476058D01*
G37*
X163895466Y-100476058D02*
X164127204Y-100707796D01*
X164291362Y-100817483D01*
X164485000Y-100856000D01*
X165456536Y-100856000D01*
X165456536Y-100990000D01*
X165477994Y-101104037D01*
X165456536Y-101210000D01*
X165456536Y-101490000D01*
X165477994Y-101604037D01*
X165456536Y-101710000D01*
X165456536Y-101880044D01*
X165414339Y-101922241D01*
X165337000Y-102108952D01*
X165337000Y-102210300D01*
X165464000Y-102337300D01*
X165678412Y-102337300D01*
X165693866Y-102347859D01*
X165701718Y-102349449D01*
X165681125Y-102362700D01*
X165464000Y-102362700D01*
X165337000Y-102489700D01*
X165337000Y-102591048D01*
X165414339Y-102777759D01*
X165456536Y-102819956D01*
X165456536Y-102990000D01*
X165477994Y-103104037D01*
X165456536Y-103210000D01*
X165456536Y-103490000D01*
X165483103Y-103631190D01*
X165566546Y-103760865D01*
X165693866Y-103847859D01*
X165845000Y-103878464D01*
X165939000Y-103878464D01*
X165939000Y-105887408D01*
X165451000Y-106375408D01*
X165451000Y-105560932D01*
X165473464Y-105450000D01*
X165473464Y-104250000D01*
X165446897Y-104108810D01*
X165363454Y-103979135D01*
X165236134Y-103892141D01*
X165085000Y-103861536D01*
X164805000Y-103861536D01*
X164690963Y-103882994D01*
X164585000Y-103861536D01*
X164305000Y-103861536D01*
X164190963Y-103882994D01*
X164085000Y-103861536D01*
X163805000Y-103861536D01*
X163690963Y-103882994D01*
X163585000Y-103861536D01*
X163305000Y-103861536D01*
X163190963Y-103882994D01*
X163085000Y-103861536D01*
X162805000Y-103861536D01*
X162690963Y-103882994D01*
X162585000Y-103861536D01*
X162305000Y-103861536D01*
X162190963Y-103882994D01*
X162085000Y-103861536D01*
X161805000Y-103861536D01*
X161690963Y-103882994D01*
X161585000Y-103861536D01*
X161305000Y-103861536D01*
X161163810Y-103888103D01*
X161034135Y-103971546D01*
X160947141Y-104098866D01*
X160916536Y-104250000D01*
X160916536Y-105209944D01*
X159585056Y-103878464D01*
X160545000Y-103878464D01*
X160686190Y-103851897D01*
X160815865Y-103768454D01*
X160902859Y-103641134D01*
X160933464Y-103490000D01*
X160933464Y-103210000D01*
X160912006Y-103095963D01*
X160933464Y-102990000D01*
X160933464Y-102710000D01*
X160912006Y-102595963D01*
X160933464Y-102490000D01*
X160933464Y-102210000D01*
X160912006Y-102095963D01*
X160933464Y-101990000D01*
X160933464Y-101710000D01*
X160912006Y-101595963D01*
X160933464Y-101490000D01*
X160933464Y-101319956D01*
X160975661Y-101277759D01*
X161053000Y-101091048D01*
X161053000Y-100989700D01*
X160926002Y-100862702D01*
X161053000Y-100862702D01*
X161053000Y-100856000D01*
X163175000Y-100856000D01*
X163368638Y-100817483D01*
X163532796Y-100707796D01*
X163764649Y-100475943D01*
X163895466Y-100476058D01*
G36*
X153689103Y-97867690D02*
X153772546Y-97997365D01*
X153799000Y-98015440D01*
X153799000Y-98552000D01*
X153837517Y-98745638D01*
X153947204Y-98909796D01*
X154455204Y-99417796D01*
X154619362Y-99527483D01*
X154813000Y-99566000D01*
X155619408Y-99566000D01*
X157990000Y-101936592D01*
X157990000Y-103505000D01*
X158028517Y-103698638D01*
X158138204Y-103862796D01*
X158671408Y-104396000D01*
X156036077Y-104396000D01*
X156099865Y-104354954D01*
X156186859Y-104227634D01*
X156217464Y-104076500D01*
X156217464Y-102933500D01*
X156190897Y-102792310D01*
X156107454Y-102662635D01*
X155980134Y-102575641D01*
X155829000Y-102545036D01*
X155321000Y-102545036D01*
X155179810Y-102571603D01*
X155050135Y-102655046D01*
X154963141Y-102782366D01*
X154940274Y-102895288D01*
X154920897Y-102792310D01*
X154837454Y-102662635D01*
X154710134Y-102575641D01*
X154559000Y-102545036D01*
X154051000Y-102545036D01*
X153909810Y-102571603D01*
X153780135Y-102655046D01*
X153693141Y-102782366D01*
X153670274Y-102895288D01*
X153650897Y-102792310D01*
X153567454Y-102662635D01*
X153541000Y-102644560D01*
X153541000Y-102198421D01*
X153696714Y-102042979D01*
X153815864Y-101756032D01*
X153816136Y-101445331D01*
X153697486Y-101158177D01*
X153477979Y-100938286D01*
X153191032Y-100819136D01*
X152880331Y-100818864D01*
X152593177Y-100937514D01*
X152373286Y-101157021D01*
X152254136Y-101443968D01*
X152253864Y-101754669D01*
X152372514Y-102041823D01*
X152529000Y-102198583D01*
X152529000Y-102642907D01*
X152510135Y-102655046D01*
X152423141Y-102782366D01*
X152400274Y-102895288D01*
X152380897Y-102792310D01*
X152297454Y-102662635D01*
X152170134Y-102575641D01*
X152019000Y-102545036D01*
X151511000Y-102545036D01*
X151369810Y-102571603D01*
X151240135Y-102655046D01*
X151153141Y-102782366D01*
X151130274Y-102895288D01*
X151110897Y-102792310D01*
X151027454Y-102662635D01*
X150900134Y-102575641D01*
X150749000Y-102545036D01*
X150241000Y-102545036D01*
X150099810Y-102571603D01*
X149970135Y-102655046D01*
X149883141Y-102782366D01*
X149860274Y-102895288D01*
X149840897Y-102792310D01*
X149757454Y-102662635D01*
X149731000Y-102644560D01*
X149731000Y-100965000D01*
X149692483Y-100771362D01*
X149582796Y-100607204D01*
X148947796Y-99972204D01*
X148783638Y-99862517D01*
X148590000Y-99824000D01*
X146050000Y-99824000D01*
X145856362Y-99862517D01*
X145722895Y-99951697D01*
X145692204Y-99972204D01*
X145057204Y-100607204D01*
X144947517Y-100771362D01*
X144928174Y-100868608D01*
X144809032Y-100819136D01*
X144498331Y-100818864D01*
X144211177Y-100937514D01*
X144054417Y-101094000D01*
X143047927Y-101094000D01*
X143031897Y-101008810D01*
X142948454Y-100879135D01*
X142821134Y-100792141D01*
X142670000Y-100761536D01*
X141470000Y-100761536D01*
X141328810Y-100788103D01*
X141199135Y-100871546D01*
X141112141Y-100998866D01*
X141081536Y-101150000D01*
X141081536Y-102050000D01*
X141108103Y-102191190D01*
X141191546Y-102320865D01*
X141254676Y-102364000D01*
X140685625Y-102364000D01*
X140740865Y-102328454D01*
X140827859Y-102201134D01*
X140858464Y-102050000D01*
X140858464Y-101150000D01*
X140831897Y-101008810D01*
X140748454Y-100879135D01*
X140621134Y-100792141D01*
X140470000Y-100761536D01*
X139270000Y-100761536D01*
X139128810Y-100788103D01*
X138999135Y-100871546D01*
X138912141Y-100998866D01*
X138892876Y-101094000D01*
X137369592Y-101094000D01*
X135780877Y-99505285D01*
X135864600Y-99084383D01*
X135864600Y-99035617D01*
X135769860Y-98559329D01*
X135593909Y-98296000D01*
X140760408Y-98296000D01*
X141882204Y-99417796D01*
X142046362Y-99527483D01*
X142240000Y-99566000D01*
X152400000Y-99566000D01*
X152593638Y-99527483D01*
X152757796Y-99417796D01*
X153392796Y-98782796D01*
X153446646Y-98702204D01*
X153502483Y-98618638D01*
X153541000Y-98425000D01*
X153541000Y-98017093D01*
X153559865Y-98004954D01*
X153646859Y-97877634D01*
X153669726Y-97764712D01*
X153689103Y-97867690D01*
X153689103Y-97867690D01*
G37*
X153689103Y-97867690D02*
X153772546Y-97997365D01*
X153799000Y-98015440D01*
X153799000Y-98552000D01*
X153837517Y-98745638D01*
X153947204Y-98909796D01*
X154455204Y-99417796D01*
X154619362Y-99527483D01*
X154813000Y-99566000D01*
X155619408Y-99566000D01*
X157990000Y-101936592D01*
X157990000Y-103505000D01*
X158028517Y-103698638D01*
X158138204Y-103862796D01*
X158671408Y-104396000D01*
X156036077Y-104396000D01*
X156099865Y-104354954D01*
X156186859Y-104227634D01*
X156217464Y-104076500D01*
X156217464Y-102933500D01*
X156190897Y-102792310D01*
X156107454Y-102662635D01*
X155980134Y-102575641D01*
X155829000Y-102545036D01*
X155321000Y-102545036D01*
X155179810Y-102571603D01*
X155050135Y-102655046D01*
X154963141Y-102782366D01*
X154940274Y-102895288D01*
X154920897Y-102792310D01*
X154837454Y-102662635D01*
X154710134Y-102575641D01*
X154559000Y-102545036D01*
X154051000Y-102545036D01*
X153909810Y-102571603D01*
X153780135Y-102655046D01*
X153693141Y-102782366D01*
X153670274Y-102895288D01*
X153650897Y-102792310D01*
X153567454Y-102662635D01*
X153541000Y-102644560D01*
X153541000Y-102198421D01*
X153696714Y-102042979D01*
X153815864Y-101756032D01*
X153816136Y-101445331D01*
X153697486Y-101158177D01*
X153477979Y-100938286D01*
X153191032Y-100819136D01*
X152880331Y-100818864D01*
X152593177Y-100937514D01*
X152373286Y-101157021D01*
X152254136Y-101443968D01*
X152253864Y-101754669D01*
X152372514Y-102041823D01*
X152529000Y-102198583D01*
X152529000Y-102642907D01*
X152510135Y-102655046D01*
X152423141Y-102782366D01*
X152400274Y-102895288D01*
X152380897Y-102792310D01*
X152297454Y-102662635D01*
X152170134Y-102575641D01*
X152019000Y-102545036D01*
X151511000Y-102545036D01*
X151369810Y-102571603D01*
X151240135Y-102655046D01*
X151153141Y-102782366D01*
X151130274Y-102895288D01*
X151110897Y-102792310D01*
X151027454Y-102662635D01*
X150900134Y-102575641D01*
X150749000Y-102545036D01*
X150241000Y-102545036D01*
X150099810Y-102571603D01*
X149970135Y-102655046D01*
X149883141Y-102782366D01*
X149860274Y-102895288D01*
X149840897Y-102792310D01*
X149757454Y-102662635D01*
X149731000Y-102644560D01*
X149731000Y-100965000D01*
X149692483Y-100771362D01*
X149582796Y-100607204D01*
X148947796Y-99972204D01*
X148783638Y-99862517D01*
X148590000Y-99824000D01*
X146050000Y-99824000D01*
X145856362Y-99862517D01*
X145722895Y-99951697D01*
X145692204Y-99972204D01*
X145057204Y-100607204D01*
X144947517Y-100771362D01*
X144928174Y-100868608D01*
X144809032Y-100819136D01*
X144498331Y-100818864D01*
X144211177Y-100937514D01*
X144054417Y-101094000D01*
X143047927Y-101094000D01*
X143031897Y-101008810D01*
X142948454Y-100879135D01*
X142821134Y-100792141D01*
X142670000Y-100761536D01*
X141470000Y-100761536D01*
X141328810Y-100788103D01*
X141199135Y-100871546D01*
X141112141Y-100998866D01*
X141081536Y-101150000D01*
X141081536Y-102050000D01*
X141108103Y-102191190D01*
X141191546Y-102320865D01*
X141254676Y-102364000D01*
X140685625Y-102364000D01*
X140740865Y-102328454D01*
X140827859Y-102201134D01*
X140858464Y-102050000D01*
X140858464Y-101150000D01*
X140831897Y-101008810D01*
X140748454Y-100879135D01*
X140621134Y-100792141D01*
X140470000Y-100761536D01*
X139270000Y-100761536D01*
X139128810Y-100788103D01*
X138999135Y-100871546D01*
X138912141Y-100998866D01*
X138892876Y-101094000D01*
X137369592Y-101094000D01*
X135780877Y-99505285D01*
X135864600Y-99084383D01*
X135864600Y-99035617D01*
X135769860Y-98559329D01*
X135593909Y-98296000D01*
X140760408Y-98296000D01*
X141882204Y-99417796D01*
X142046362Y-99527483D01*
X142240000Y-99566000D01*
X152400000Y-99566000D01*
X152593638Y-99527483D01*
X152757796Y-99417796D01*
X153392796Y-98782796D01*
X153446646Y-98702204D01*
X153502483Y-98618638D01*
X153541000Y-98425000D01*
X153541000Y-98017093D01*
X153559865Y-98004954D01*
X153646859Y-97877634D01*
X153669726Y-97764712D01*
X153689103Y-97867690D01*
G36*
X167910103Y-90927190D02*
X167993546Y-91056865D01*
X168079761Y-91115773D01*
X167984241Y-91155339D01*
X167841338Y-91298242D01*
X167764000Y-91484953D01*
X167764000Y-92146300D01*
X167891000Y-92273300D01*
X168859300Y-92273300D01*
X168859300Y-92253300D01*
X168884700Y-92253300D01*
X168884700Y-92273300D01*
X168904700Y-92273300D01*
X168904700Y-92298700D01*
X168884700Y-92298700D01*
X168884700Y-92318700D01*
X168859300Y-92318700D01*
X168859300Y-92298700D01*
X167891000Y-92298700D01*
X167764000Y-92425700D01*
X167764000Y-93087047D01*
X167841338Y-93273758D01*
X167984241Y-93416661D01*
X168170952Y-93494000D01*
X168732300Y-93494000D01*
X168859298Y-93367002D01*
X168859298Y-93448519D01*
X168762517Y-93593362D01*
X168724000Y-93787000D01*
X168724000Y-93851536D01*
X168630000Y-93851536D01*
X168488810Y-93878103D01*
X168359135Y-93961546D01*
X168272141Y-94088866D01*
X168268064Y-94109000D01*
X167894000Y-94109000D01*
X167700362Y-94147517D01*
X167536204Y-94257204D01*
X166087204Y-95706204D01*
X165977517Y-95870362D01*
X165939000Y-96064000D01*
X165939000Y-99321536D01*
X165845000Y-99321536D01*
X165703810Y-99348103D01*
X165574135Y-99431546D01*
X165487141Y-99558866D01*
X165456536Y-99710000D01*
X165456536Y-99844000D01*
X164694592Y-99844000D01*
X164610943Y-99760351D01*
X164611136Y-99540331D01*
X164527726Y-99338464D01*
X164585000Y-99338464D01*
X164699037Y-99317006D01*
X164805000Y-99338464D01*
X165085000Y-99338464D01*
X165226190Y-99311897D01*
X165355865Y-99228454D01*
X165442859Y-99101134D01*
X165473464Y-98950000D01*
X165473464Y-97750000D01*
X165451000Y-97630615D01*
X165451000Y-93164700D01*
X165487000Y-93164700D01*
X165487000Y-93726047D01*
X165564338Y-93912758D01*
X165707241Y-94055661D01*
X165893952Y-94133000D01*
X166230300Y-94133000D01*
X166357300Y-94006000D01*
X166357300Y-93037700D01*
X166382700Y-93037700D01*
X166382700Y-94006000D01*
X166509700Y-94133000D01*
X166846048Y-94133000D01*
X167032759Y-94055661D01*
X167175662Y-93912758D01*
X167253000Y-93726047D01*
X167253000Y-93164700D01*
X167126000Y-93037700D01*
X166382700Y-93037700D01*
X166357300Y-93037700D01*
X165614000Y-93037700D01*
X165487000Y-93164700D01*
X165451000Y-93164700D01*
X165451000Y-91631000D01*
X165606536Y-91631000D01*
X165606536Y-91725000D01*
X165633103Y-91866190D01*
X165713812Y-91991617D01*
X165707241Y-91994339D01*
X165564338Y-92137242D01*
X165487000Y-92323953D01*
X165487000Y-92885300D01*
X165614000Y-93012300D01*
X166357300Y-93012300D01*
X166357300Y-92992300D01*
X166382700Y-92992300D01*
X166382700Y-93012300D01*
X167126000Y-93012300D01*
X167253000Y-92885300D01*
X167253000Y-92323953D01*
X167175662Y-92137242D01*
X167032759Y-91994339D01*
X167024446Y-91990896D01*
X167102859Y-91876134D01*
X167133464Y-91725000D01*
X167133464Y-91591931D01*
X167296796Y-91482796D01*
X167900965Y-90878627D01*
X167910103Y-90927190D01*
X167910103Y-90927190D01*
G37*
X167910103Y-90927190D02*
X167993546Y-91056865D01*
X168079761Y-91115773D01*
X167984241Y-91155339D01*
X167841338Y-91298242D01*
X167764000Y-91484953D01*
X167764000Y-92146300D01*
X167891000Y-92273300D01*
X168859300Y-92273300D01*
X168859300Y-92253300D01*
X168884700Y-92253300D01*
X168884700Y-92273300D01*
X168904700Y-92273300D01*
X168904700Y-92298700D01*
X168884700Y-92298700D01*
X168884700Y-92318700D01*
X168859300Y-92318700D01*
X168859300Y-92298700D01*
X167891000Y-92298700D01*
X167764000Y-92425700D01*
X167764000Y-93087047D01*
X167841338Y-93273758D01*
X167984241Y-93416661D01*
X168170952Y-93494000D01*
X168732300Y-93494000D01*
X168859298Y-93367002D01*
X168859298Y-93448519D01*
X168762517Y-93593362D01*
X168724000Y-93787000D01*
X168724000Y-93851536D01*
X168630000Y-93851536D01*
X168488810Y-93878103D01*
X168359135Y-93961546D01*
X168272141Y-94088866D01*
X168268064Y-94109000D01*
X167894000Y-94109000D01*
X167700362Y-94147517D01*
X167536204Y-94257204D01*
X166087204Y-95706204D01*
X165977517Y-95870362D01*
X165939000Y-96064000D01*
X165939000Y-99321536D01*
X165845000Y-99321536D01*
X165703810Y-99348103D01*
X165574135Y-99431546D01*
X165487141Y-99558866D01*
X165456536Y-99710000D01*
X165456536Y-99844000D01*
X164694592Y-99844000D01*
X164610943Y-99760351D01*
X164611136Y-99540331D01*
X164527726Y-99338464D01*
X164585000Y-99338464D01*
X164699037Y-99317006D01*
X164805000Y-99338464D01*
X165085000Y-99338464D01*
X165226190Y-99311897D01*
X165355865Y-99228454D01*
X165442859Y-99101134D01*
X165473464Y-98950000D01*
X165473464Y-97750000D01*
X165451000Y-97630615D01*
X165451000Y-93164700D01*
X165487000Y-93164700D01*
X165487000Y-93726047D01*
X165564338Y-93912758D01*
X165707241Y-94055661D01*
X165893952Y-94133000D01*
X166230300Y-94133000D01*
X166357300Y-94006000D01*
X166357300Y-93037700D01*
X166382700Y-93037700D01*
X166382700Y-94006000D01*
X166509700Y-94133000D01*
X166846048Y-94133000D01*
X167032759Y-94055661D01*
X167175662Y-93912758D01*
X167253000Y-93726047D01*
X167253000Y-93164700D01*
X167126000Y-93037700D01*
X166382700Y-93037700D01*
X166357300Y-93037700D01*
X165614000Y-93037700D01*
X165487000Y-93164700D01*
X165451000Y-93164700D01*
X165451000Y-91631000D01*
X165606536Y-91631000D01*
X165606536Y-91725000D01*
X165633103Y-91866190D01*
X165713812Y-91991617D01*
X165707241Y-91994339D01*
X165564338Y-92137242D01*
X165487000Y-92323953D01*
X165487000Y-92885300D01*
X165614000Y-93012300D01*
X166357300Y-93012300D01*
X166357300Y-92992300D01*
X166382700Y-92992300D01*
X166382700Y-93012300D01*
X167126000Y-93012300D01*
X167253000Y-92885300D01*
X167253000Y-92323953D01*
X167175662Y-92137242D01*
X167032759Y-91994339D01*
X167024446Y-91990896D01*
X167102859Y-91876134D01*
X167133464Y-91725000D01*
X167133464Y-91591931D01*
X167296796Y-91482796D01*
X167900965Y-90878627D01*
X167910103Y-90927190D01*
G36*
X175491536Y-102750000D02*
X175518103Y-102891190D01*
X175601546Y-103020865D01*
X175728866Y-103107859D01*
X175880000Y-103138464D01*
X176050044Y-103138464D01*
X176092242Y-103180662D01*
X176278953Y-103258000D01*
X176390300Y-103258000D01*
X176517300Y-103131000D01*
X176517300Y-102931223D01*
X176530980Y-102911202D01*
X176542700Y-102929415D01*
X176542700Y-103131000D01*
X176669700Y-103258000D01*
X176781047Y-103258000D01*
X176967758Y-103180662D01*
X177009956Y-103138464D01*
X177180000Y-103138464D01*
X177294000Y-103117013D01*
X177294000Y-103888000D01*
X175977592Y-103888000D01*
X175010394Y-102920802D01*
X175066823Y-102897486D01*
X175223583Y-102741000D01*
X175491536Y-102741000D01*
X175491536Y-102750000D01*
X175491536Y-102750000D01*
G37*
X175491536Y-102750000D02*
X175518103Y-102891190D01*
X175601546Y-103020865D01*
X175728866Y-103107859D01*
X175880000Y-103138464D01*
X176050044Y-103138464D01*
X176092242Y-103180662D01*
X176278953Y-103258000D01*
X176390300Y-103258000D01*
X176517300Y-103131000D01*
X176517300Y-102931223D01*
X176530980Y-102911202D01*
X176542700Y-102929415D01*
X176542700Y-103131000D01*
X176669700Y-103258000D01*
X176781047Y-103258000D01*
X176967758Y-103180662D01*
X177009956Y-103138464D01*
X177180000Y-103138464D01*
X177294000Y-103117013D01*
X177294000Y-103888000D01*
X175977592Y-103888000D01*
X175010394Y-102920802D01*
X175066823Y-102897486D01*
X175223583Y-102741000D01*
X175491536Y-102741000D01*
X175491536Y-102750000D01*
G36*
X177294000Y-100084621D02*
X177180000Y-100061536D01*
X177009956Y-100061536D01*
X176967758Y-100019338D01*
X176781047Y-99942000D01*
X176669700Y-99942000D01*
X176542700Y-100069000D01*
X176542700Y-100268777D01*
X176529020Y-100288798D01*
X176517300Y-100270585D01*
X176517300Y-100069000D01*
X176390300Y-99942000D01*
X176278953Y-99942000D01*
X176092242Y-100019338D01*
X176050044Y-100061536D01*
X175880000Y-100061536D01*
X175738810Y-100088103D01*
X175609135Y-100171546D01*
X175522141Y-100298866D01*
X175491536Y-100450000D01*
X175491536Y-100459000D01*
X175223421Y-100459000D01*
X175067979Y-100303286D01*
X175010269Y-100279323D01*
X175977592Y-99312000D01*
X177294000Y-99312000D01*
X177294000Y-100084621D01*
X177294000Y-100084621D01*
G37*
X177294000Y-100084621D02*
X177180000Y-100061536D01*
X177009956Y-100061536D01*
X176967758Y-100019338D01*
X176781047Y-99942000D01*
X176669700Y-99942000D01*
X176542700Y-100069000D01*
X176542700Y-100268777D01*
X176529020Y-100288798D01*
X176517300Y-100270585D01*
X176517300Y-100069000D01*
X176390300Y-99942000D01*
X176278953Y-99942000D01*
X176092242Y-100019338D01*
X176050044Y-100061536D01*
X175880000Y-100061536D01*
X175738810Y-100088103D01*
X175609135Y-100171546D01*
X175522141Y-100298866D01*
X175491536Y-100450000D01*
X175491536Y-100459000D01*
X175223421Y-100459000D01*
X175067979Y-100303286D01*
X175010269Y-100279323D01*
X175977592Y-99312000D01*
X177294000Y-99312000D01*
X177294000Y-100084621D01*
M02*
