G04 #@! TF.FileFunction,Paste,Top*
%FSLAX46Y46*%
G04 Gerber Fmt 4.6, Leading zero omitted, Abs format (unit mm)*
G04 Created by KiCad (PCBNEW 4.0.5+dfsg1-4) date Wed Jul 18 12:49:48 2018*
%MOMM*%
%LPD*%
G01*
G04 APERTURE LIST*
%ADD10C,0.100000*%
%ADD11R,1.400000X1.200000*%
%ADD12R,4.000500X2.700020*%
%ADD13R,0.750000X1.200000*%
%ADD14R,1.200000X0.750000*%
%ADD15R,2.000000X1.700000*%
%ADD16R,1.200000X0.900000*%
%ADD17R,3.048000X1.651000*%
%ADD18R,6.096000X6.096000*%
%ADD19R,0.300000X0.850000*%
%ADD20R,0.508000X1.143000*%
%ADD21R,1.200000X0.280000*%
%ADD22R,0.280000X1.200000*%
G04 APERTURE END LIST*
D10*
D11*
X163492000Y-94780000D03*
X165692000Y-94780000D03*
X165692000Y-93180000D03*
X163492000Y-93180000D03*
D12*
X149146260Y-111125000D03*
X156923740Y-111125000D03*
X149146260Y-116205000D03*
X156923740Y-116205000D03*
D13*
X157988000Y-98359000D03*
X157988000Y-96459000D03*
D14*
X169230000Y-96520000D03*
X171130000Y-96520000D03*
X161224000Y-93472000D03*
X159324000Y-93472000D03*
X169230000Y-98552000D03*
X171130000Y-98552000D03*
X171130000Y-94488000D03*
X169230000Y-94488000D03*
D15*
X185960000Y-113030000D03*
X189960000Y-113030000D03*
D16*
X142070000Y-106680000D03*
X139870000Y-106680000D03*
X147150000Y-108204000D03*
X144950000Y-108204000D03*
X156040000Y-94488000D03*
X153840000Y-94488000D03*
X173058000Y-102870000D03*
X170858000Y-102870000D03*
X173058000Y-100330000D03*
X170858000Y-100330000D03*
D17*
X162560000Y-111379000D03*
D18*
X168910000Y-113665000D03*
D17*
X162560000Y-115951000D03*
D19*
X176030000Y-100875000D03*
X176530000Y-100875000D03*
X177030000Y-100875000D03*
X177030000Y-102325000D03*
X176530000Y-102325000D03*
X176030000Y-102325000D03*
D14*
X188910000Y-117475000D03*
X187010000Y-117475000D03*
X188910000Y-115570000D03*
X187010000Y-115570000D03*
D20*
X155575000Y-103505000D03*
X153035000Y-103505000D03*
X151765000Y-103505000D03*
X150495000Y-103505000D03*
X149225000Y-103505000D03*
X147955000Y-103505000D03*
X146685000Y-103505000D03*
X146685000Y-97155000D03*
X147955000Y-97155000D03*
X149225000Y-97155000D03*
X150495000Y-97155000D03*
X151765000Y-97155000D03*
X153035000Y-97155000D03*
X154305000Y-97155000D03*
X155575000Y-97155000D03*
X154305000Y-103505000D03*
D21*
X159945000Y-99850000D03*
X159945000Y-100350000D03*
X159945000Y-100850000D03*
X159945000Y-101350000D03*
X159945000Y-101850000D03*
X159945000Y-102350000D03*
X159945000Y-102850000D03*
X159945000Y-103350000D03*
D22*
X161445000Y-104850000D03*
X161945000Y-104850000D03*
X162445000Y-104850000D03*
X162945000Y-104850000D03*
X163445000Y-104850000D03*
X163945000Y-104850000D03*
X164445000Y-104850000D03*
X164945000Y-104850000D03*
D21*
X166445000Y-103350000D03*
X166445000Y-102850000D03*
X166445000Y-102350000D03*
X166445000Y-101850000D03*
X166445000Y-101350000D03*
X166445000Y-100850000D03*
X166445000Y-100350000D03*
X166445000Y-99850000D03*
D22*
X164945000Y-98350000D03*
X164445000Y-98350000D03*
X163945000Y-98350000D03*
X163445000Y-98350000D03*
X162945000Y-98350000D03*
X162445000Y-98350000D03*
X161945000Y-98350000D03*
X161445000Y-98350000D03*
M02*
