G04 #@! TF.FileFunction,Copper,L2,Bot,Signal*
%FSLAX46Y46*%
G04 Gerber Fmt 4.6, Leading zero omitted, Abs format (unit mm)*
G04 Created by KiCad (PCBNEW 4.0.5+dfsg1-4) date Fri Dec 28 13:07:42 2018*
%MOMM*%
%LPD*%
G01*
G04 APERTURE LIST*
%ADD10C,0.100000*%
%ADD11R,1.727200X1.727200*%
%ADD12O,1.727200X1.727200*%
%ADD13C,1.524000*%
%ADD14C,3.500000*%
%ADD15C,6.000000*%
%ADD16C,3.000000*%
%ADD17C,0.800000*%
%ADD18C,0.250000*%
%ADD19C,0.500000*%
%ADD20C,0.254000*%
G04 APERTURE END LIST*
D10*
D11*
X134620000Y-106680000D03*
D12*
X132080000Y-106680000D03*
X134620000Y-104140000D03*
X132080000Y-104140000D03*
X134620000Y-101600000D03*
X132080000Y-101600000D03*
X134620000Y-99060000D03*
X132080000Y-99060000D03*
X134620000Y-96520000D03*
X132080000Y-96520000D03*
D13*
X180040000Y-100600000D03*
X180040000Y-102600000D03*
X180040000Y-98100000D03*
X180040000Y-105100000D03*
D14*
X182740000Y-108100000D03*
X182740000Y-95100000D03*
D15*
X142240000Y-90170000D03*
X142240000Y-113030000D03*
X176530000Y-113030000D03*
X176530000Y-90170000D03*
D16*
X132080000Y-86360000D03*
D17*
X167500000Y-91500000D03*
X159750000Y-96500000D03*
X131000000Y-117000000D03*
X165250000Y-96750000D03*
X142240000Y-103886000D03*
X166624000Y-104902000D03*
X148590000Y-95250000D03*
X145796000Y-95250000D03*
X172720000Y-96520000D03*
X172720000Y-98552000D03*
X190500000Y-101600000D03*
X151511000Y-91440000D03*
X163195000Y-101600000D03*
X184785000Y-117475000D03*
X176530000Y-99695000D03*
X176530000Y-103505000D03*
X157480000Y-102870000D03*
X180975000Y-116840000D03*
X152908000Y-116332000D03*
X152908000Y-111252000D03*
X174625000Y-102235000D03*
X163830000Y-99695000D03*
X174625000Y-100965000D03*
X147955000Y-105410000D03*
X150114000Y-107442000D03*
X152273000Y-99695000D03*
D18*
X142240000Y-113030000D02*
X142240000Y-103886000D01*
X182740000Y-95100000D02*
X182740000Y-100698000D01*
X183642000Y-101600000D02*
X190500000Y-101600000D01*
X182740000Y-100698000D02*
X183642000Y-101600000D01*
X142240000Y-90170000D02*
X150241000Y-90170000D01*
X150241000Y-90170000D02*
X151511000Y-91440000D01*
X163195000Y-101600000D02*
X161925000Y-102870000D01*
X161925000Y-102870000D02*
X157480000Y-102870000D01*
D19*
X134620000Y-106680000D02*
X134620000Y-115370000D01*
X145668000Y-116332000D02*
X144750000Y-117250000D01*
X144750000Y-117250000D02*
X136500000Y-117250000D01*
X145668000Y-116332000D02*
X152908000Y-116332000D01*
X134620000Y-115370000D02*
X136500000Y-117250000D01*
X160401000Y-117729000D02*
X159004000Y-116332000D01*
X180086000Y-117729000D02*
X160401000Y-117729000D01*
X180975000Y-116840000D02*
X180086000Y-117729000D01*
X159004000Y-116332000D02*
X152908000Y-116332000D01*
D18*
X168910000Y-102108000D02*
X168910000Y-108204000D01*
X154940000Y-109220000D02*
X152908000Y-111252000D01*
X167894000Y-109220000D02*
X154940000Y-109220000D01*
X168910000Y-108204000D02*
X167894000Y-109220000D01*
X168910000Y-102235000D02*
X168910000Y-102108000D01*
X168910000Y-102108000D02*
X168910000Y-100965000D01*
X168910000Y-100965000D02*
X167640000Y-99695000D01*
X168910000Y-102235000D02*
X174625000Y-102235000D01*
X167640000Y-99695000D02*
X163830000Y-99695000D01*
D19*
X174625000Y-100965000D02*
X175905000Y-100965000D01*
X175905000Y-100965000D02*
X180040000Y-105100000D01*
D18*
X147955000Y-105410000D02*
X150114000Y-107442000D01*
X152273000Y-99695000D02*
X139065000Y-99695000D01*
X139065000Y-99695000D02*
X134620000Y-104140000D01*
D20*
G36*
X130999460Y-84621024D02*
X130886902Y-84696234D01*
X130731125Y-84993165D01*
X132080000Y-86342039D01*
X133428875Y-84993165D01*
X133273098Y-84696234D01*
X132741167Y-84455000D01*
X192405000Y-84455000D01*
X192405000Y-118745000D01*
X127635000Y-118745000D01*
X127635000Y-106907100D01*
X130727331Y-106907100D01*
X130917204Y-107407457D01*
X131284102Y-107797065D01*
X131772168Y-108016610D01*
X131852900Y-108032668D01*
X132067300Y-107924535D01*
X132067300Y-106692700D01*
X130835458Y-106692700D01*
X130727331Y-106907100D01*
X127635000Y-106907100D01*
X127635000Y-106452900D01*
X130727331Y-106452900D01*
X130835458Y-106667300D01*
X132067300Y-106667300D01*
X132067300Y-106647300D01*
X132092700Y-106647300D01*
X132092700Y-106667300D01*
X132112700Y-106667300D01*
X132112700Y-106692700D01*
X132092700Y-106692700D01*
X132092700Y-107924535D01*
X132307100Y-108032668D01*
X132387832Y-108016610D01*
X132875898Y-107797065D01*
X133242796Y-107407457D01*
X133367936Y-107077686D01*
X133367936Y-107543600D01*
X133394503Y-107684790D01*
X133477946Y-107814465D01*
X133605266Y-107901459D01*
X133756400Y-107932064D01*
X133989000Y-107932064D01*
X133989000Y-115370000D01*
X134024976Y-115550864D01*
X134037032Y-115611473D01*
X134173816Y-115816184D01*
X136053815Y-117696184D01*
X136102928Y-117729000D01*
X136258527Y-117832968D01*
X136500000Y-117881000D01*
X144750000Y-117881000D01*
X144991473Y-117832968D01*
X145196184Y-117696184D01*
X145929368Y-116963000D01*
X152434361Y-116963000D01*
X152465021Y-116993714D01*
X152751968Y-117112864D01*
X153062669Y-117113136D01*
X153349823Y-116994486D01*
X153381364Y-116963000D01*
X158742632Y-116963000D01*
X159954815Y-118175184D01*
X160159526Y-118311968D01*
X160199589Y-118319937D01*
X160401000Y-118360000D01*
X180086000Y-118360000D01*
X180327473Y-118311968D01*
X180532184Y-118175184D01*
X181086270Y-117621098D01*
X181129669Y-117621136D01*
X181416823Y-117502486D01*
X181636714Y-117282979D01*
X181755864Y-116996032D01*
X181756136Y-116685331D01*
X181637486Y-116398177D01*
X181417979Y-116178286D01*
X181131032Y-116059136D01*
X180820331Y-116058864D01*
X180533177Y-116177514D01*
X180313286Y-116397021D01*
X180194136Y-116683968D01*
X180194097Y-116728535D01*
X179824632Y-117098000D01*
X160662369Y-117098000D01*
X159450184Y-115885816D01*
X159245473Y-115749032D01*
X159004000Y-115701000D01*
X153381639Y-115701000D01*
X153350979Y-115670286D01*
X153064032Y-115551136D01*
X152753331Y-115550864D01*
X152466177Y-115669514D01*
X152434636Y-115701000D01*
X145668000Y-115701000D01*
X145426527Y-115749032D01*
X145221816Y-115885816D01*
X144488632Y-116619000D01*
X136761369Y-116619000D01*
X135620658Y-115478289D01*
X139809672Y-115478289D01*
X140147941Y-115931078D01*
X141417384Y-116510843D01*
X142812063Y-116560681D01*
X144119650Y-116073005D01*
X144332059Y-115931078D01*
X144670328Y-115478289D01*
X174099672Y-115478289D01*
X174437941Y-115931078D01*
X175707384Y-116510843D01*
X177102063Y-116560681D01*
X178409650Y-116073005D01*
X178622059Y-115931078D01*
X178960328Y-115478289D01*
X176530000Y-113047961D01*
X174099672Y-115478289D01*
X144670328Y-115478289D01*
X142240000Y-113047961D01*
X139809672Y-115478289D01*
X135620658Y-115478289D01*
X135251000Y-115108632D01*
X135251000Y-113602063D01*
X138709319Y-113602063D01*
X139196995Y-114909650D01*
X139338922Y-115122059D01*
X139791711Y-115460328D01*
X142222039Y-113030000D01*
X142257961Y-113030000D01*
X144688289Y-115460328D01*
X145141078Y-115122059D01*
X145720843Y-113852616D01*
X145729796Y-113602063D01*
X172999319Y-113602063D01*
X173486995Y-114909650D01*
X173628922Y-115122059D01*
X174081711Y-115460328D01*
X176512039Y-113030000D01*
X176547961Y-113030000D01*
X178978289Y-115460328D01*
X179431078Y-115122059D01*
X180010843Y-113852616D01*
X180060681Y-112457937D01*
X179573005Y-111150350D01*
X179431078Y-110937941D01*
X178978289Y-110599672D01*
X176547961Y-113030000D01*
X176512039Y-113030000D01*
X174081711Y-110599672D01*
X173628922Y-110937941D01*
X173049157Y-112207384D01*
X172999319Y-113602063D01*
X145729796Y-113602063D01*
X145770681Y-112457937D01*
X145378602Y-111406669D01*
X152126864Y-111406669D01*
X152245514Y-111693823D01*
X152465021Y-111913714D01*
X152751968Y-112032864D01*
X153062669Y-112033136D01*
X153349823Y-111914486D01*
X153569714Y-111694979D01*
X153688864Y-111408032D01*
X153689058Y-111186534D01*
X154293881Y-110581711D01*
X174099672Y-110581711D01*
X176530000Y-113012039D01*
X178960328Y-110581711D01*
X178622059Y-110128922D01*
X177567025Y-109647079D01*
X181210882Y-109647079D01*
X181397074Y-109969985D01*
X182214910Y-110341556D01*
X183112687Y-110371871D01*
X183953725Y-110056314D01*
X184082926Y-109969985D01*
X184269118Y-109647079D01*
X182740000Y-108117961D01*
X181210882Y-109647079D01*
X177567025Y-109647079D01*
X177352616Y-109549157D01*
X175957937Y-109499319D01*
X174650350Y-109986995D01*
X174437941Y-110128922D01*
X174099672Y-110581711D01*
X154293881Y-110581711D01*
X155149592Y-109726000D01*
X167894000Y-109726000D01*
X168087638Y-109687483D01*
X168251796Y-109577796D01*
X169267796Y-108561796D01*
X169327336Y-108472687D01*
X180468129Y-108472687D01*
X180783686Y-109313725D01*
X180870015Y-109442926D01*
X181192921Y-109629118D01*
X182722039Y-108100000D01*
X182757961Y-108100000D01*
X184287079Y-109629118D01*
X184609985Y-109442926D01*
X184981556Y-108625090D01*
X185011871Y-107727313D01*
X184696314Y-106886275D01*
X184609985Y-106757074D01*
X184287079Y-106570882D01*
X182757961Y-108100000D01*
X182722039Y-108100000D01*
X181192921Y-106570882D01*
X180870015Y-106757074D01*
X180498444Y-107574910D01*
X180468129Y-108472687D01*
X169327336Y-108472687D01*
X169377483Y-108397638D01*
X169416000Y-108204000D01*
X169416000Y-106552921D01*
X181210882Y-106552921D01*
X182740000Y-108082039D01*
X184269118Y-106552921D01*
X184082926Y-106230015D01*
X183265090Y-105858444D01*
X182367313Y-105828129D01*
X181526275Y-106143686D01*
X181397074Y-106230015D01*
X181210882Y-106552921D01*
X169416000Y-106552921D01*
X169416000Y-102741000D01*
X174026579Y-102741000D01*
X174182021Y-102896714D01*
X174468968Y-103015864D01*
X174779669Y-103016136D01*
X175066823Y-102897486D01*
X175286714Y-102677979D01*
X175405864Y-102391032D01*
X175406136Y-102080331D01*
X175287486Y-101793177D01*
X175094502Y-101599855D01*
X175098364Y-101596000D01*
X175643632Y-101596000D01*
X178903677Y-104856045D01*
X178897199Y-104871646D01*
X178896802Y-105326359D01*
X179070446Y-105746612D01*
X179391697Y-106068423D01*
X179811646Y-106242801D01*
X180266359Y-106243198D01*
X180686612Y-106069554D01*
X181008423Y-105748303D01*
X181182801Y-105328354D01*
X181183198Y-104873641D01*
X181009554Y-104453388D01*
X180688303Y-104131577D01*
X180268354Y-103957199D01*
X179813641Y-103956802D01*
X179796325Y-103963957D01*
X179407249Y-103574881D01*
X179811646Y-103742801D01*
X180266359Y-103743198D01*
X180686612Y-103569554D01*
X181008423Y-103248303D01*
X181182801Y-102828354D01*
X181183198Y-102373641D01*
X181009554Y-101953388D01*
X180688303Y-101631577D01*
X180612591Y-101600139D01*
X180686612Y-101569554D01*
X181008423Y-101248303D01*
X181182801Y-100828354D01*
X181183198Y-100373641D01*
X181009554Y-99953388D01*
X180688303Y-99631577D01*
X180268354Y-99457199D01*
X179813641Y-99456802D01*
X179393388Y-99630446D01*
X179071577Y-99951697D01*
X178897199Y-100371646D01*
X178896802Y-100826359D01*
X179070446Y-101246612D01*
X179391697Y-101568423D01*
X179467409Y-101599861D01*
X179393388Y-101630446D01*
X179071577Y-101951697D01*
X178897199Y-102371646D01*
X178896802Y-102826359D01*
X179064437Y-103232069D01*
X176351184Y-100518816D01*
X176146473Y-100382032D01*
X175905000Y-100334000D01*
X175098639Y-100334000D01*
X175067979Y-100303286D01*
X174781032Y-100184136D01*
X174470331Y-100183864D01*
X174183177Y-100302514D01*
X173963286Y-100522021D01*
X173844136Y-100808968D01*
X173843864Y-101119669D01*
X173962514Y-101406823D01*
X174155498Y-101600145D01*
X174026417Y-101729000D01*
X169416000Y-101729000D01*
X169416000Y-100965000D01*
X169377483Y-100771362D01*
X169267796Y-100607204D01*
X167997796Y-99337204D01*
X167833638Y-99227517D01*
X167640000Y-99189000D01*
X164428421Y-99189000D01*
X164272979Y-99033286D01*
X164035672Y-98934748D01*
X179223212Y-98934748D01*
X179289199Y-99154996D01*
X179750080Y-99362008D01*
X180255098Y-99376891D01*
X180727370Y-99197379D01*
X180790801Y-99154996D01*
X180856788Y-98934748D01*
X180040000Y-98117961D01*
X179223212Y-98934748D01*
X164035672Y-98934748D01*
X163986032Y-98914136D01*
X163675331Y-98913864D01*
X163388177Y-99032514D01*
X163168286Y-99252021D01*
X163049136Y-99538968D01*
X163048864Y-99849669D01*
X163167514Y-100136823D01*
X163387021Y-100356714D01*
X163673968Y-100475864D01*
X163984669Y-100476136D01*
X164271823Y-100357486D01*
X164428583Y-100201000D01*
X167430408Y-100201000D01*
X168404000Y-101174592D01*
X168404000Y-107994408D01*
X167684408Y-108714000D01*
X154940000Y-108714000D01*
X154746362Y-108752517D01*
X154582204Y-108862204D01*
X152973351Y-110471057D01*
X152753331Y-110470864D01*
X152466177Y-110589514D01*
X152246286Y-110809021D01*
X152127136Y-111095968D01*
X152126864Y-111406669D01*
X145378602Y-111406669D01*
X145283005Y-111150350D01*
X145141078Y-110937941D01*
X144688289Y-110599672D01*
X142257961Y-113030000D01*
X142222039Y-113030000D01*
X139791711Y-110599672D01*
X139338922Y-110937941D01*
X138759157Y-112207384D01*
X138709319Y-113602063D01*
X135251000Y-113602063D01*
X135251000Y-110581711D01*
X139809672Y-110581711D01*
X142240000Y-113012039D01*
X144670328Y-110581711D01*
X144332059Y-110128922D01*
X143062616Y-109549157D01*
X141667937Y-109499319D01*
X140360350Y-109986995D01*
X140147941Y-110128922D01*
X139809672Y-110581711D01*
X135251000Y-110581711D01*
X135251000Y-107932064D01*
X135483600Y-107932064D01*
X135624790Y-107905497D01*
X135754465Y-107822054D01*
X135841459Y-107694734D01*
X135872064Y-107543600D01*
X135872064Y-105816400D01*
X135845497Y-105675210D01*
X135774367Y-105564669D01*
X147173864Y-105564669D01*
X147292514Y-105851823D01*
X147512021Y-106071714D01*
X147798968Y-106190864D01*
X148046605Y-106191081D01*
X149333035Y-107401837D01*
X149332864Y-107596669D01*
X149451514Y-107883823D01*
X149671021Y-108103714D01*
X149957968Y-108222864D01*
X150268669Y-108223136D01*
X150555823Y-108104486D01*
X150775714Y-107884979D01*
X150894864Y-107598032D01*
X150895136Y-107287331D01*
X150776486Y-107000177D01*
X150556979Y-106780286D01*
X150270032Y-106661136D01*
X150022395Y-106660919D01*
X148735965Y-105450162D01*
X148736136Y-105255331D01*
X148617486Y-104968177D01*
X148397979Y-104748286D01*
X148111032Y-104629136D01*
X147800331Y-104628864D01*
X147513177Y-104747514D01*
X147293286Y-104967021D01*
X147174136Y-105253968D01*
X147173864Y-105564669D01*
X135774367Y-105564669D01*
X135762054Y-105545535D01*
X135634734Y-105458541D01*
X135483600Y-105427936D01*
X133756400Y-105427936D01*
X133615210Y-105454503D01*
X133485535Y-105537946D01*
X133398541Y-105665266D01*
X133367936Y-105816400D01*
X133367936Y-106282314D01*
X133242796Y-105952543D01*
X132875898Y-105562935D01*
X132394554Y-105346414D01*
X132556288Y-105314243D01*
X132960065Y-105044448D01*
X133229860Y-104640671D01*
X133324600Y-104164383D01*
X133324600Y-104115617D01*
X133375400Y-104115617D01*
X133375400Y-104164383D01*
X133470140Y-104640671D01*
X133739935Y-105044448D01*
X134143712Y-105314243D01*
X134620000Y-105408983D01*
X135096288Y-105314243D01*
X135500065Y-105044448D01*
X135769860Y-104640671D01*
X135864600Y-104164383D01*
X135864600Y-104115617D01*
X135780877Y-103694715D01*
X139274592Y-100201000D01*
X151674579Y-100201000D01*
X151830021Y-100356714D01*
X152116968Y-100475864D01*
X152427669Y-100476136D01*
X152714823Y-100357486D01*
X152934714Y-100137979D01*
X153053864Y-99851032D01*
X153054136Y-99540331D01*
X152935486Y-99253177D01*
X152715979Y-99033286D01*
X152429032Y-98914136D01*
X152118331Y-98913864D01*
X151831177Y-99032514D01*
X151674417Y-99189000D01*
X139065000Y-99189000D01*
X138871362Y-99227517D01*
X138707204Y-99337204D01*
X135081577Y-102962831D01*
X134620000Y-102871017D01*
X134143712Y-102965757D01*
X133739935Y-103235552D01*
X133470140Y-103639329D01*
X133375400Y-104115617D01*
X133324600Y-104115617D01*
X133229860Y-103639329D01*
X132960065Y-103235552D01*
X132556288Y-102965757D01*
X132080000Y-102871017D01*
X131603712Y-102965757D01*
X131199935Y-103235552D01*
X130930140Y-103639329D01*
X130835400Y-104115617D01*
X130835400Y-104164383D01*
X130930140Y-104640671D01*
X131199935Y-105044448D01*
X131603712Y-105314243D01*
X131765446Y-105346414D01*
X131284102Y-105562935D01*
X130917204Y-105952543D01*
X130727331Y-106452900D01*
X127635000Y-106452900D01*
X127635000Y-101575617D01*
X130835400Y-101575617D01*
X130835400Y-101624383D01*
X130930140Y-102100671D01*
X131199935Y-102504448D01*
X131603712Y-102774243D01*
X132080000Y-102868983D01*
X132556288Y-102774243D01*
X132960065Y-102504448D01*
X133229860Y-102100671D01*
X133324600Y-101624383D01*
X133324600Y-101575617D01*
X133375400Y-101575617D01*
X133375400Y-101624383D01*
X133470140Y-102100671D01*
X133739935Y-102504448D01*
X134143712Y-102774243D01*
X134620000Y-102868983D01*
X135096288Y-102774243D01*
X135500065Y-102504448D01*
X135769860Y-102100671D01*
X135864600Y-101624383D01*
X135864600Y-101575617D01*
X135769860Y-101099329D01*
X135500065Y-100695552D01*
X135096288Y-100425757D01*
X134620000Y-100331017D01*
X134143712Y-100425757D01*
X133739935Y-100695552D01*
X133470140Y-101099329D01*
X133375400Y-101575617D01*
X133324600Y-101575617D01*
X133229860Y-101099329D01*
X132960065Y-100695552D01*
X132556288Y-100425757D01*
X132080000Y-100331017D01*
X131603712Y-100425757D01*
X131199935Y-100695552D01*
X130930140Y-101099329D01*
X130835400Y-101575617D01*
X127635000Y-101575617D01*
X127635000Y-99035617D01*
X130835400Y-99035617D01*
X130835400Y-99084383D01*
X130930140Y-99560671D01*
X131199935Y-99964448D01*
X131603712Y-100234243D01*
X132080000Y-100328983D01*
X132556288Y-100234243D01*
X132960065Y-99964448D01*
X133229860Y-99560671D01*
X133324600Y-99084383D01*
X133324600Y-99035617D01*
X133375400Y-99035617D01*
X133375400Y-99084383D01*
X133470140Y-99560671D01*
X133739935Y-99964448D01*
X134143712Y-100234243D01*
X134620000Y-100328983D01*
X135096288Y-100234243D01*
X135500065Y-99964448D01*
X135769860Y-99560671D01*
X135864600Y-99084383D01*
X135864600Y-99035617D01*
X135769860Y-98559329D01*
X135606671Y-98315098D01*
X178763109Y-98315098D01*
X178942621Y-98787370D01*
X178985004Y-98850801D01*
X179205252Y-98916788D01*
X180022039Y-98100000D01*
X180057961Y-98100000D01*
X180874748Y-98916788D01*
X181094996Y-98850801D01*
X181302008Y-98389920D01*
X181316891Y-97884902D01*
X181137379Y-97412630D01*
X181094996Y-97349199D01*
X180874748Y-97283212D01*
X180057961Y-98100000D01*
X180022039Y-98100000D01*
X179205252Y-97283212D01*
X178985004Y-97349199D01*
X178777992Y-97810080D01*
X178763109Y-98315098D01*
X135606671Y-98315098D01*
X135500065Y-98155552D01*
X135096288Y-97885757D01*
X134620000Y-97791017D01*
X134143712Y-97885757D01*
X133739935Y-98155552D01*
X133470140Y-98559329D01*
X133375400Y-99035617D01*
X133324600Y-99035617D01*
X133229860Y-98559329D01*
X132960065Y-98155552D01*
X132556288Y-97885757D01*
X132080000Y-97791017D01*
X131603712Y-97885757D01*
X131199935Y-98155552D01*
X130930140Y-98559329D01*
X130835400Y-99035617D01*
X127635000Y-99035617D01*
X127635000Y-96495617D01*
X130835400Y-96495617D01*
X130835400Y-96544383D01*
X130930140Y-97020671D01*
X131199935Y-97424448D01*
X131603712Y-97694243D01*
X132080000Y-97788983D01*
X132556288Y-97694243D01*
X132960065Y-97424448D01*
X133229860Y-97020671D01*
X133324600Y-96544383D01*
X133324600Y-96495617D01*
X133375400Y-96495617D01*
X133375400Y-96544383D01*
X133470140Y-97020671D01*
X133739935Y-97424448D01*
X134143712Y-97694243D01*
X134620000Y-97788983D01*
X135096288Y-97694243D01*
X135500065Y-97424448D01*
X135606436Y-97265252D01*
X179223212Y-97265252D01*
X180040000Y-98082039D01*
X180856788Y-97265252D01*
X180790801Y-97045004D01*
X180329920Y-96837992D01*
X179824902Y-96823109D01*
X179352630Y-97002621D01*
X179289199Y-97045004D01*
X179223212Y-97265252D01*
X135606436Y-97265252D01*
X135769860Y-97020671D01*
X135844172Y-96647079D01*
X181210882Y-96647079D01*
X181397074Y-96969985D01*
X182214910Y-97341556D01*
X183112687Y-97371871D01*
X183953725Y-97056314D01*
X184082926Y-96969985D01*
X184269118Y-96647079D01*
X182740000Y-95117961D01*
X181210882Y-96647079D01*
X135844172Y-96647079D01*
X135864600Y-96544383D01*
X135864600Y-96495617D01*
X135769860Y-96019329D01*
X135500065Y-95615552D01*
X135286253Y-95472687D01*
X180468129Y-95472687D01*
X180783686Y-96313725D01*
X180870015Y-96442926D01*
X181192921Y-96629118D01*
X182722039Y-95100000D01*
X182757961Y-95100000D01*
X184287079Y-96629118D01*
X184609985Y-96442926D01*
X184981556Y-95625090D01*
X185011871Y-94727313D01*
X184696314Y-93886275D01*
X184609985Y-93757074D01*
X184287079Y-93570882D01*
X182757961Y-95100000D01*
X182722039Y-95100000D01*
X181192921Y-93570882D01*
X180870015Y-93757074D01*
X180498444Y-94574910D01*
X180468129Y-95472687D01*
X135286253Y-95472687D01*
X135096288Y-95345757D01*
X134620000Y-95251017D01*
X134143712Y-95345757D01*
X133739935Y-95615552D01*
X133470140Y-96019329D01*
X133375400Y-96495617D01*
X133324600Y-96495617D01*
X133229860Y-96019329D01*
X132960065Y-95615552D01*
X132556288Y-95345757D01*
X132080000Y-95251017D01*
X131603712Y-95345757D01*
X131199935Y-95615552D01*
X130930140Y-96019329D01*
X130835400Y-96495617D01*
X127635000Y-96495617D01*
X127635000Y-92618289D01*
X139809672Y-92618289D01*
X140147941Y-93071078D01*
X141417384Y-93650843D01*
X142812063Y-93700681D01*
X144119650Y-93213005D01*
X144332059Y-93071078D01*
X144670328Y-92618289D01*
X174099672Y-92618289D01*
X174437941Y-93071078D01*
X175707384Y-93650843D01*
X177102063Y-93700681D01*
X177498246Y-93552921D01*
X181210882Y-93552921D01*
X182740000Y-95082039D01*
X184269118Y-93552921D01*
X184082926Y-93230015D01*
X183265090Y-92858444D01*
X182367313Y-92828129D01*
X181526275Y-93143686D01*
X181397074Y-93230015D01*
X181210882Y-93552921D01*
X177498246Y-93552921D01*
X178409650Y-93213005D01*
X178622059Y-93071078D01*
X178960328Y-92618289D01*
X176530000Y-90187961D01*
X174099672Y-92618289D01*
X144670328Y-92618289D01*
X142240000Y-90187961D01*
X139809672Y-92618289D01*
X127635000Y-92618289D01*
X127635000Y-90742063D01*
X138709319Y-90742063D01*
X139196995Y-92049650D01*
X139338922Y-92262059D01*
X139791711Y-92600328D01*
X142222039Y-90170000D01*
X142257961Y-90170000D01*
X144688289Y-92600328D01*
X145141078Y-92262059D01*
X145720843Y-90992616D01*
X145729796Y-90742063D01*
X172999319Y-90742063D01*
X173486995Y-92049650D01*
X173628922Y-92262059D01*
X174081711Y-92600328D01*
X176512039Y-90170000D01*
X176547961Y-90170000D01*
X178978289Y-92600328D01*
X179431078Y-92262059D01*
X180010843Y-90992616D01*
X180060681Y-89597937D01*
X179573005Y-88290350D01*
X179431078Y-88077941D01*
X178978289Y-87739672D01*
X176547961Y-90170000D01*
X176512039Y-90170000D01*
X174081711Y-87739672D01*
X173628922Y-88077941D01*
X173049157Y-89347384D01*
X172999319Y-90742063D01*
X145729796Y-90742063D01*
X145770681Y-89597937D01*
X145283005Y-88290350D01*
X145141078Y-88077941D01*
X144688289Y-87739672D01*
X142257961Y-90170000D01*
X142222039Y-90170000D01*
X139791711Y-87739672D01*
X139338922Y-88077941D01*
X138759157Y-89347384D01*
X138709319Y-90742063D01*
X127635000Y-90742063D01*
X127635000Y-87726835D01*
X130731125Y-87726835D01*
X130886902Y-88023766D01*
X131614416Y-88353698D01*
X132412812Y-88380109D01*
X133160540Y-88098976D01*
X133273098Y-88023766D01*
X133428875Y-87726835D01*
X133423751Y-87721711D01*
X139809672Y-87721711D01*
X142240000Y-90152039D01*
X144670328Y-87721711D01*
X174099672Y-87721711D01*
X176530000Y-90152039D01*
X178960328Y-87721711D01*
X178622059Y-87268922D01*
X177352616Y-86689157D01*
X175957937Y-86639319D01*
X174650350Y-87126995D01*
X174437941Y-87268922D01*
X174099672Y-87721711D01*
X144670328Y-87721711D01*
X144332059Y-87268922D01*
X143062616Y-86689157D01*
X141667937Y-86639319D01*
X140360350Y-87126995D01*
X140147941Y-87268922D01*
X139809672Y-87721711D01*
X133423751Y-87721711D01*
X132080000Y-86377961D01*
X130731125Y-87726835D01*
X127635000Y-87726835D01*
X127635000Y-86692812D01*
X130059891Y-86692812D01*
X130341024Y-87440540D01*
X130416234Y-87553098D01*
X130713165Y-87708875D01*
X132062039Y-86360000D01*
X132097961Y-86360000D01*
X133446835Y-87708875D01*
X133743766Y-87553098D01*
X134073698Y-86825584D01*
X134100109Y-86027188D01*
X133818976Y-85279460D01*
X133743766Y-85166902D01*
X133446835Y-85011125D01*
X132097961Y-86360000D01*
X132062039Y-86360000D01*
X130713165Y-85011125D01*
X130416234Y-85166902D01*
X130086302Y-85894416D01*
X130059891Y-86692812D01*
X127635000Y-86692812D01*
X127635000Y-84455000D01*
X131441033Y-84455000D01*
X130999460Y-84621024D01*
X130999460Y-84621024D01*
G37*
X130999460Y-84621024D02*
X130886902Y-84696234D01*
X130731125Y-84993165D01*
X132080000Y-86342039D01*
X133428875Y-84993165D01*
X133273098Y-84696234D01*
X132741167Y-84455000D01*
X192405000Y-84455000D01*
X192405000Y-118745000D01*
X127635000Y-118745000D01*
X127635000Y-106907100D01*
X130727331Y-106907100D01*
X130917204Y-107407457D01*
X131284102Y-107797065D01*
X131772168Y-108016610D01*
X131852900Y-108032668D01*
X132067300Y-107924535D01*
X132067300Y-106692700D01*
X130835458Y-106692700D01*
X130727331Y-106907100D01*
X127635000Y-106907100D01*
X127635000Y-106452900D01*
X130727331Y-106452900D01*
X130835458Y-106667300D01*
X132067300Y-106667300D01*
X132067300Y-106647300D01*
X132092700Y-106647300D01*
X132092700Y-106667300D01*
X132112700Y-106667300D01*
X132112700Y-106692700D01*
X132092700Y-106692700D01*
X132092700Y-107924535D01*
X132307100Y-108032668D01*
X132387832Y-108016610D01*
X132875898Y-107797065D01*
X133242796Y-107407457D01*
X133367936Y-107077686D01*
X133367936Y-107543600D01*
X133394503Y-107684790D01*
X133477946Y-107814465D01*
X133605266Y-107901459D01*
X133756400Y-107932064D01*
X133989000Y-107932064D01*
X133989000Y-115370000D01*
X134024976Y-115550864D01*
X134037032Y-115611473D01*
X134173816Y-115816184D01*
X136053815Y-117696184D01*
X136102928Y-117729000D01*
X136258527Y-117832968D01*
X136500000Y-117881000D01*
X144750000Y-117881000D01*
X144991473Y-117832968D01*
X145196184Y-117696184D01*
X145929368Y-116963000D01*
X152434361Y-116963000D01*
X152465021Y-116993714D01*
X152751968Y-117112864D01*
X153062669Y-117113136D01*
X153349823Y-116994486D01*
X153381364Y-116963000D01*
X158742632Y-116963000D01*
X159954815Y-118175184D01*
X160159526Y-118311968D01*
X160199589Y-118319937D01*
X160401000Y-118360000D01*
X180086000Y-118360000D01*
X180327473Y-118311968D01*
X180532184Y-118175184D01*
X181086270Y-117621098D01*
X181129669Y-117621136D01*
X181416823Y-117502486D01*
X181636714Y-117282979D01*
X181755864Y-116996032D01*
X181756136Y-116685331D01*
X181637486Y-116398177D01*
X181417979Y-116178286D01*
X181131032Y-116059136D01*
X180820331Y-116058864D01*
X180533177Y-116177514D01*
X180313286Y-116397021D01*
X180194136Y-116683968D01*
X180194097Y-116728535D01*
X179824632Y-117098000D01*
X160662369Y-117098000D01*
X159450184Y-115885816D01*
X159245473Y-115749032D01*
X159004000Y-115701000D01*
X153381639Y-115701000D01*
X153350979Y-115670286D01*
X153064032Y-115551136D01*
X152753331Y-115550864D01*
X152466177Y-115669514D01*
X152434636Y-115701000D01*
X145668000Y-115701000D01*
X145426527Y-115749032D01*
X145221816Y-115885816D01*
X144488632Y-116619000D01*
X136761369Y-116619000D01*
X135620658Y-115478289D01*
X139809672Y-115478289D01*
X140147941Y-115931078D01*
X141417384Y-116510843D01*
X142812063Y-116560681D01*
X144119650Y-116073005D01*
X144332059Y-115931078D01*
X144670328Y-115478289D01*
X174099672Y-115478289D01*
X174437941Y-115931078D01*
X175707384Y-116510843D01*
X177102063Y-116560681D01*
X178409650Y-116073005D01*
X178622059Y-115931078D01*
X178960328Y-115478289D01*
X176530000Y-113047961D01*
X174099672Y-115478289D01*
X144670328Y-115478289D01*
X142240000Y-113047961D01*
X139809672Y-115478289D01*
X135620658Y-115478289D01*
X135251000Y-115108632D01*
X135251000Y-113602063D01*
X138709319Y-113602063D01*
X139196995Y-114909650D01*
X139338922Y-115122059D01*
X139791711Y-115460328D01*
X142222039Y-113030000D01*
X142257961Y-113030000D01*
X144688289Y-115460328D01*
X145141078Y-115122059D01*
X145720843Y-113852616D01*
X145729796Y-113602063D01*
X172999319Y-113602063D01*
X173486995Y-114909650D01*
X173628922Y-115122059D01*
X174081711Y-115460328D01*
X176512039Y-113030000D01*
X176547961Y-113030000D01*
X178978289Y-115460328D01*
X179431078Y-115122059D01*
X180010843Y-113852616D01*
X180060681Y-112457937D01*
X179573005Y-111150350D01*
X179431078Y-110937941D01*
X178978289Y-110599672D01*
X176547961Y-113030000D01*
X176512039Y-113030000D01*
X174081711Y-110599672D01*
X173628922Y-110937941D01*
X173049157Y-112207384D01*
X172999319Y-113602063D01*
X145729796Y-113602063D01*
X145770681Y-112457937D01*
X145378602Y-111406669D01*
X152126864Y-111406669D01*
X152245514Y-111693823D01*
X152465021Y-111913714D01*
X152751968Y-112032864D01*
X153062669Y-112033136D01*
X153349823Y-111914486D01*
X153569714Y-111694979D01*
X153688864Y-111408032D01*
X153689058Y-111186534D01*
X154293881Y-110581711D01*
X174099672Y-110581711D01*
X176530000Y-113012039D01*
X178960328Y-110581711D01*
X178622059Y-110128922D01*
X177567025Y-109647079D01*
X181210882Y-109647079D01*
X181397074Y-109969985D01*
X182214910Y-110341556D01*
X183112687Y-110371871D01*
X183953725Y-110056314D01*
X184082926Y-109969985D01*
X184269118Y-109647079D01*
X182740000Y-108117961D01*
X181210882Y-109647079D01*
X177567025Y-109647079D01*
X177352616Y-109549157D01*
X175957937Y-109499319D01*
X174650350Y-109986995D01*
X174437941Y-110128922D01*
X174099672Y-110581711D01*
X154293881Y-110581711D01*
X155149592Y-109726000D01*
X167894000Y-109726000D01*
X168087638Y-109687483D01*
X168251796Y-109577796D01*
X169267796Y-108561796D01*
X169327336Y-108472687D01*
X180468129Y-108472687D01*
X180783686Y-109313725D01*
X180870015Y-109442926D01*
X181192921Y-109629118D01*
X182722039Y-108100000D01*
X182757961Y-108100000D01*
X184287079Y-109629118D01*
X184609985Y-109442926D01*
X184981556Y-108625090D01*
X185011871Y-107727313D01*
X184696314Y-106886275D01*
X184609985Y-106757074D01*
X184287079Y-106570882D01*
X182757961Y-108100000D01*
X182722039Y-108100000D01*
X181192921Y-106570882D01*
X180870015Y-106757074D01*
X180498444Y-107574910D01*
X180468129Y-108472687D01*
X169327336Y-108472687D01*
X169377483Y-108397638D01*
X169416000Y-108204000D01*
X169416000Y-106552921D01*
X181210882Y-106552921D01*
X182740000Y-108082039D01*
X184269118Y-106552921D01*
X184082926Y-106230015D01*
X183265090Y-105858444D01*
X182367313Y-105828129D01*
X181526275Y-106143686D01*
X181397074Y-106230015D01*
X181210882Y-106552921D01*
X169416000Y-106552921D01*
X169416000Y-102741000D01*
X174026579Y-102741000D01*
X174182021Y-102896714D01*
X174468968Y-103015864D01*
X174779669Y-103016136D01*
X175066823Y-102897486D01*
X175286714Y-102677979D01*
X175405864Y-102391032D01*
X175406136Y-102080331D01*
X175287486Y-101793177D01*
X175094502Y-101599855D01*
X175098364Y-101596000D01*
X175643632Y-101596000D01*
X178903677Y-104856045D01*
X178897199Y-104871646D01*
X178896802Y-105326359D01*
X179070446Y-105746612D01*
X179391697Y-106068423D01*
X179811646Y-106242801D01*
X180266359Y-106243198D01*
X180686612Y-106069554D01*
X181008423Y-105748303D01*
X181182801Y-105328354D01*
X181183198Y-104873641D01*
X181009554Y-104453388D01*
X180688303Y-104131577D01*
X180268354Y-103957199D01*
X179813641Y-103956802D01*
X179796325Y-103963957D01*
X179407249Y-103574881D01*
X179811646Y-103742801D01*
X180266359Y-103743198D01*
X180686612Y-103569554D01*
X181008423Y-103248303D01*
X181182801Y-102828354D01*
X181183198Y-102373641D01*
X181009554Y-101953388D01*
X180688303Y-101631577D01*
X180612591Y-101600139D01*
X180686612Y-101569554D01*
X181008423Y-101248303D01*
X181182801Y-100828354D01*
X181183198Y-100373641D01*
X181009554Y-99953388D01*
X180688303Y-99631577D01*
X180268354Y-99457199D01*
X179813641Y-99456802D01*
X179393388Y-99630446D01*
X179071577Y-99951697D01*
X178897199Y-100371646D01*
X178896802Y-100826359D01*
X179070446Y-101246612D01*
X179391697Y-101568423D01*
X179467409Y-101599861D01*
X179393388Y-101630446D01*
X179071577Y-101951697D01*
X178897199Y-102371646D01*
X178896802Y-102826359D01*
X179064437Y-103232069D01*
X176351184Y-100518816D01*
X176146473Y-100382032D01*
X175905000Y-100334000D01*
X175098639Y-100334000D01*
X175067979Y-100303286D01*
X174781032Y-100184136D01*
X174470331Y-100183864D01*
X174183177Y-100302514D01*
X173963286Y-100522021D01*
X173844136Y-100808968D01*
X173843864Y-101119669D01*
X173962514Y-101406823D01*
X174155498Y-101600145D01*
X174026417Y-101729000D01*
X169416000Y-101729000D01*
X169416000Y-100965000D01*
X169377483Y-100771362D01*
X169267796Y-100607204D01*
X167997796Y-99337204D01*
X167833638Y-99227517D01*
X167640000Y-99189000D01*
X164428421Y-99189000D01*
X164272979Y-99033286D01*
X164035672Y-98934748D01*
X179223212Y-98934748D01*
X179289199Y-99154996D01*
X179750080Y-99362008D01*
X180255098Y-99376891D01*
X180727370Y-99197379D01*
X180790801Y-99154996D01*
X180856788Y-98934748D01*
X180040000Y-98117961D01*
X179223212Y-98934748D01*
X164035672Y-98934748D01*
X163986032Y-98914136D01*
X163675331Y-98913864D01*
X163388177Y-99032514D01*
X163168286Y-99252021D01*
X163049136Y-99538968D01*
X163048864Y-99849669D01*
X163167514Y-100136823D01*
X163387021Y-100356714D01*
X163673968Y-100475864D01*
X163984669Y-100476136D01*
X164271823Y-100357486D01*
X164428583Y-100201000D01*
X167430408Y-100201000D01*
X168404000Y-101174592D01*
X168404000Y-107994408D01*
X167684408Y-108714000D01*
X154940000Y-108714000D01*
X154746362Y-108752517D01*
X154582204Y-108862204D01*
X152973351Y-110471057D01*
X152753331Y-110470864D01*
X152466177Y-110589514D01*
X152246286Y-110809021D01*
X152127136Y-111095968D01*
X152126864Y-111406669D01*
X145378602Y-111406669D01*
X145283005Y-111150350D01*
X145141078Y-110937941D01*
X144688289Y-110599672D01*
X142257961Y-113030000D01*
X142222039Y-113030000D01*
X139791711Y-110599672D01*
X139338922Y-110937941D01*
X138759157Y-112207384D01*
X138709319Y-113602063D01*
X135251000Y-113602063D01*
X135251000Y-110581711D01*
X139809672Y-110581711D01*
X142240000Y-113012039D01*
X144670328Y-110581711D01*
X144332059Y-110128922D01*
X143062616Y-109549157D01*
X141667937Y-109499319D01*
X140360350Y-109986995D01*
X140147941Y-110128922D01*
X139809672Y-110581711D01*
X135251000Y-110581711D01*
X135251000Y-107932064D01*
X135483600Y-107932064D01*
X135624790Y-107905497D01*
X135754465Y-107822054D01*
X135841459Y-107694734D01*
X135872064Y-107543600D01*
X135872064Y-105816400D01*
X135845497Y-105675210D01*
X135774367Y-105564669D01*
X147173864Y-105564669D01*
X147292514Y-105851823D01*
X147512021Y-106071714D01*
X147798968Y-106190864D01*
X148046605Y-106191081D01*
X149333035Y-107401837D01*
X149332864Y-107596669D01*
X149451514Y-107883823D01*
X149671021Y-108103714D01*
X149957968Y-108222864D01*
X150268669Y-108223136D01*
X150555823Y-108104486D01*
X150775714Y-107884979D01*
X150894864Y-107598032D01*
X150895136Y-107287331D01*
X150776486Y-107000177D01*
X150556979Y-106780286D01*
X150270032Y-106661136D01*
X150022395Y-106660919D01*
X148735965Y-105450162D01*
X148736136Y-105255331D01*
X148617486Y-104968177D01*
X148397979Y-104748286D01*
X148111032Y-104629136D01*
X147800331Y-104628864D01*
X147513177Y-104747514D01*
X147293286Y-104967021D01*
X147174136Y-105253968D01*
X147173864Y-105564669D01*
X135774367Y-105564669D01*
X135762054Y-105545535D01*
X135634734Y-105458541D01*
X135483600Y-105427936D01*
X133756400Y-105427936D01*
X133615210Y-105454503D01*
X133485535Y-105537946D01*
X133398541Y-105665266D01*
X133367936Y-105816400D01*
X133367936Y-106282314D01*
X133242796Y-105952543D01*
X132875898Y-105562935D01*
X132394554Y-105346414D01*
X132556288Y-105314243D01*
X132960065Y-105044448D01*
X133229860Y-104640671D01*
X133324600Y-104164383D01*
X133324600Y-104115617D01*
X133375400Y-104115617D01*
X133375400Y-104164383D01*
X133470140Y-104640671D01*
X133739935Y-105044448D01*
X134143712Y-105314243D01*
X134620000Y-105408983D01*
X135096288Y-105314243D01*
X135500065Y-105044448D01*
X135769860Y-104640671D01*
X135864600Y-104164383D01*
X135864600Y-104115617D01*
X135780877Y-103694715D01*
X139274592Y-100201000D01*
X151674579Y-100201000D01*
X151830021Y-100356714D01*
X152116968Y-100475864D01*
X152427669Y-100476136D01*
X152714823Y-100357486D01*
X152934714Y-100137979D01*
X153053864Y-99851032D01*
X153054136Y-99540331D01*
X152935486Y-99253177D01*
X152715979Y-99033286D01*
X152429032Y-98914136D01*
X152118331Y-98913864D01*
X151831177Y-99032514D01*
X151674417Y-99189000D01*
X139065000Y-99189000D01*
X138871362Y-99227517D01*
X138707204Y-99337204D01*
X135081577Y-102962831D01*
X134620000Y-102871017D01*
X134143712Y-102965757D01*
X133739935Y-103235552D01*
X133470140Y-103639329D01*
X133375400Y-104115617D01*
X133324600Y-104115617D01*
X133229860Y-103639329D01*
X132960065Y-103235552D01*
X132556288Y-102965757D01*
X132080000Y-102871017D01*
X131603712Y-102965757D01*
X131199935Y-103235552D01*
X130930140Y-103639329D01*
X130835400Y-104115617D01*
X130835400Y-104164383D01*
X130930140Y-104640671D01*
X131199935Y-105044448D01*
X131603712Y-105314243D01*
X131765446Y-105346414D01*
X131284102Y-105562935D01*
X130917204Y-105952543D01*
X130727331Y-106452900D01*
X127635000Y-106452900D01*
X127635000Y-101575617D01*
X130835400Y-101575617D01*
X130835400Y-101624383D01*
X130930140Y-102100671D01*
X131199935Y-102504448D01*
X131603712Y-102774243D01*
X132080000Y-102868983D01*
X132556288Y-102774243D01*
X132960065Y-102504448D01*
X133229860Y-102100671D01*
X133324600Y-101624383D01*
X133324600Y-101575617D01*
X133375400Y-101575617D01*
X133375400Y-101624383D01*
X133470140Y-102100671D01*
X133739935Y-102504448D01*
X134143712Y-102774243D01*
X134620000Y-102868983D01*
X135096288Y-102774243D01*
X135500065Y-102504448D01*
X135769860Y-102100671D01*
X135864600Y-101624383D01*
X135864600Y-101575617D01*
X135769860Y-101099329D01*
X135500065Y-100695552D01*
X135096288Y-100425757D01*
X134620000Y-100331017D01*
X134143712Y-100425757D01*
X133739935Y-100695552D01*
X133470140Y-101099329D01*
X133375400Y-101575617D01*
X133324600Y-101575617D01*
X133229860Y-101099329D01*
X132960065Y-100695552D01*
X132556288Y-100425757D01*
X132080000Y-100331017D01*
X131603712Y-100425757D01*
X131199935Y-100695552D01*
X130930140Y-101099329D01*
X130835400Y-101575617D01*
X127635000Y-101575617D01*
X127635000Y-99035617D01*
X130835400Y-99035617D01*
X130835400Y-99084383D01*
X130930140Y-99560671D01*
X131199935Y-99964448D01*
X131603712Y-100234243D01*
X132080000Y-100328983D01*
X132556288Y-100234243D01*
X132960065Y-99964448D01*
X133229860Y-99560671D01*
X133324600Y-99084383D01*
X133324600Y-99035617D01*
X133375400Y-99035617D01*
X133375400Y-99084383D01*
X133470140Y-99560671D01*
X133739935Y-99964448D01*
X134143712Y-100234243D01*
X134620000Y-100328983D01*
X135096288Y-100234243D01*
X135500065Y-99964448D01*
X135769860Y-99560671D01*
X135864600Y-99084383D01*
X135864600Y-99035617D01*
X135769860Y-98559329D01*
X135606671Y-98315098D01*
X178763109Y-98315098D01*
X178942621Y-98787370D01*
X178985004Y-98850801D01*
X179205252Y-98916788D01*
X180022039Y-98100000D01*
X180057961Y-98100000D01*
X180874748Y-98916788D01*
X181094996Y-98850801D01*
X181302008Y-98389920D01*
X181316891Y-97884902D01*
X181137379Y-97412630D01*
X181094996Y-97349199D01*
X180874748Y-97283212D01*
X180057961Y-98100000D01*
X180022039Y-98100000D01*
X179205252Y-97283212D01*
X178985004Y-97349199D01*
X178777992Y-97810080D01*
X178763109Y-98315098D01*
X135606671Y-98315098D01*
X135500065Y-98155552D01*
X135096288Y-97885757D01*
X134620000Y-97791017D01*
X134143712Y-97885757D01*
X133739935Y-98155552D01*
X133470140Y-98559329D01*
X133375400Y-99035617D01*
X133324600Y-99035617D01*
X133229860Y-98559329D01*
X132960065Y-98155552D01*
X132556288Y-97885757D01*
X132080000Y-97791017D01*
X131603712Y-97885757D01*
X131199935Y-98155552D01*
X130930140Y-98559329D01*
X130835400Y-99035617D01*
X127635000Y-99035617D01*
X127635000Y-96495617D01*
X130835400Y-96495617D01*
X130835400Y-96544383D01*
X130930140Y-97020671D01*
X131199935Y-97424448D01*
X131603712Y-97694243D01*
X132080000Y-97788983D01*
X132556288Y-97694243D01*
X132960065Y-97424448D01*
X133229860Y-97020671D01*
X133324600Y-96544383D01*
X133324600Y-96495617D01*
X133375400Y-96495617D01*
X133375400Y-96544383D01*
X133470140Y-97020671D01*
X133739935Y-97424448D01*
X134143712Y-97694243D01*
X134620000Y-97788983D01*
X135096288Y-97694243D01*
X135500065Y-97424448D01*
X135606436Y-97265252D01*
X179223212Y-97265252D01*
X180040000Y-98082039D01*
X180856788Y-97265252D01*
X180790801Y-97045004D01*
X180329920Y-96837992D01*
X179824902Y-96823109D01*
X179352630Y-97002621D01*
X179289199Y-97045004D01*
X179223212Y-97265252D01*
X135606436Y-97265252D01*
X135769860Y-97020671D01*
X135844172Y-96647079D01*
X181210882Y-96647079D01*
X181397074Y-96969985D01*
X182214910Y-97341556D01*
X183112687Y-97371871D01*
X183953725Y-97056314D01*
X184082926Y-96969985D01*
X184269118Y-96647079D01*
X182740000Y-95117961D01*
X181210882Y-96647079D01*
X135844172Y-96647079D01*
X135864600Y-96544383D01*
X135864600Y-96495617D01*
X135769860Y-96019329D01*
X135500065Y-95615552D01*
X135286253Y-95472687D01*
X180468129Y-95472687D01*
X180783686Y-96313725D01*
X180870015Y-96442926D01*
X181192921Y-96629118D01*
X182722039Y-95100000D01*
X182757961Y-95100000D01*
X184287079Y-96629118D01*
X184609985Y-96442926D01*
X184981556Y-95625090D01*
X185011871Y-94727313D01*
X184696314Y-93886275D01*
X184609985Y-93757074D01*
X184287079Y-93570882D01*
X182757961Y-95100000D01*
X182722039Y-95100000D01*
X181192921Y-93570882D01*
X180870015Y-93757074D01*
X180498444Y-94574910D01*
X180468129Y-95472687D01*
X135286253Y-95472687D01*
X135096288Y-95345757D01*
X134620000Y-95251017D01*
X134143712Y-95345757D01*
X133739935Y-95615552D01*
X133470140Y-96019329D01*
X133375400Y-96495617D01*
X133324600Y-96495617D01*
X133229860Y-96019329D01*
X132960065Y-95615552D01*
X132556288Y-95345757D01*
X132080000Y-95251017D01*
X131603712Y-95345757D01*
X131199935Y-95615552D01*
X130930140Y-96019329D01*
X130835400Y-96495617D01*
X127635000Y-96495617D01*
X127635000Y-92618289D01*
X139809672Y-92618289D01*
X140147941Y-93071078D01*
X141417384Y-93650843D01*
X142812063Y-93700681D01*
X144119650Y-93213005D01*
X144332059Y-93071078D01*
X144670328Y-92618289D01*
X174099672Y-92618289D01*
X174437941Y-93071078D01*
X175707384Y-93650843D01*
X177102063Y-93700681D01*
X177498246Y-93552921D01*
X181210882Y-93552921D01*
X182740000Y-95082039D01*
X184269118Y-93552921D01*
X184082926Y-93230015D01*
X183265090Y-92858444D01*
X182367313Y-92828129D01*
X181526275Y-93143686D01*
X181397074Y-93230015D01*
X181210882Y-93552921D01*
X177498246Y-93552921D01*
X178409650Y-93213005D01*
X178622059Y-93071078D01*
X178960328Y-92618289D01*
X176530000Y-90187961D01*
X174099672Y-92618289D01*
X144670328Y-92618289D01*
X142240000Y-90187961D01*
X139809672Y-92618289D01*
X127635000Y-92618289D01*
X127635000Y-90742063D01*
X138709319Y-90742063D01*
X139196995Y-92049650D01*
X139338922Y-92262059D01*
X139791711Y-92600328D01*
X142222039Y-90170000D01*
X142257961Y-90170000D01*
X144688289Y-92600328D01*
X145141078Y-92262059D01*
X145720843Y-90992616D01*
X145729796Y-90742063D01*
X172999319Y-90742063D01*
X173486995Y-92049650D01*
X173628922Y-92262059D01*
X174081711Y-92600328D01*
X176512039Y-90170000D01*
X176547961Y-90170000D01*
X178978289Y-92600328D01*
X179431078Y-92262059D01*
X180010843Y-90992616D01*
X180060681Y-89597937D01*
X179573005Y-88290350D01*
X179431078Y-88077941D01*
X178978289Y-87739672D01*
X176547961Y-90170000D01*
X176512039Y-90170000D01*
X174081711Y-87739672D01*
X173628922Y-88077941D01*
X173049157Y-89347384D01*
X172999319Y-90742063D01*
X145729796Y-90742063D01*
X145770681Y-89597937D01*
X145283005Y-88290350D01*
X145141078Y-88077941D01*
X144688289Y-87739672D01*
X142257961Y-90170000D01*
X142222039Y-90170000D01*
X139791711Y-87739672D01*
X139338922Y-88077941D01*
X138759157Y-89347384D01*
X138709319Y-90742063D01*
X127635000Y-90742063D01*
X127635000Y-87726835D01*
X130731125Y-87726835D01*
X130886902Y-88023766D01*
X131614416Y-88353698D01*
X132412812Y-88380109D01*
X133160540Y-88098976D01*
X133273098Y-88023766D01*
X133428875Y-87726835D01*
X133423751Y-87721711D01*
X139809672Y-87721711D01*
X142240000Y-90152039D01*
X144670328Y-87721711D01*
X174099672Y-87721711D01*
X176530000Y-90152039D01*
X178960328Y-87721711D01*
X178622059Y-87268922D01*
X177352616Y-86689157D01*
X175957937Y-86639319D01*
X174650350Y-87126995D01*
X174437941Y-87268922D01*
X174099672Y-87721711D01*
X144670328Y-87721711D01*
X144332059Y-87268922D01*
X143062616Y-86689157D01*
X141667937Y-86639319D01*
X140360350Y-87126995D01*
X140147941Y-87268922D01*
X139809672Y-87721711D01*
X133423751Y-87721711D01*
X132080000Y-86377961D01*
X130731125Y-87726835D01*
X127635000Y-87726835D01*
X127635000Y-86692812D01*
X130059891Y-86692812D01*
X130341024Y-87440540D01*
X130416234Y-87553098D01*
X130713165Y-87708875D01*
X132062039Y-86360000D01*
X132097961Y-86360000D01*
X133446835Y-87708875D01*
X133743766Y-87553098D01*
X134073698Y-86825584D01*
X134100109Y-86027188D01*
X133818976Y-85279460D01*
X133743766Y-85166902D01*
X133446835Y-85011125D01*
X132097961Y-86360000D01*
X132062039Y-86360000D01*
X130713165Y-85011125D01*
X130416234Y-85166902D01*
X130086302Y-85894416D01*
X130059891Y-86692812D01*
X127635000Y-86692812D01*
X127635000Y-84455000D01*
X131441033Y-84455000D01*
X130999460Y-84621024D01*
M02*
