M48
;DRILL file {KiCad 4.0.5+dfsg1-4} date Thu Feb 15 14:09:18 2018
;FORMAT={-:-/ absolute / inch / decimal}
FMAT,2
INCH,TZ
T1C0.016
T2C0.036
T3C0.040
T4C0.063
T5C0.091
T6C0.126
%
G90
G05
M72
T1
X5.09Y-4.615
X5.325Y-4.6
X5.55Y-3.9
X5.695Y-4.
X5.765Y-4.15
X5.775Y-4.
X5.825Y-4.15
X5.835Y-4.29
X5.875Y-4.26
X5.91Y-4.23
X5.965Y-3.6
X6.025Y-4.
X6.025Y-4.4
X6.025Y-4.6
X6.2Y-4.05
X6.32Y-3.735
X6.38Y-3.6
X6.4Y-4.5
X6.425Y-4.
X6.45Y-3.925
X6.55Y-3.725
X6.65Y-4.3
X6.8Y-3.725
X6.8Y-3.8
X6.8Y-3.875
X6.875Y-3.975
X6.875Y-4.025
X6.95Y-3.925
X6.95Y-4.075
X7.125Y-4.6
X7.275Y-4.625
X7.5Y-4.
T2
X7.0882Y-3.8622
X7.0882Y-3.9606
X7.0882Y-4.0394
X7.0882Y-4.1378
T3
X5.2Y-3.8
X5.2Y-3.9
X5.2Y-4.
X5.2Y-4.1
X5.2Y-4.2
X5.3Y-3.8
X5.3Y-3.9
X5.3Y-4.
X5.3Y-4.1
X5.3Y-4.2
T4
X5.25Y-3.45
T5
X7.1945Y-3.7441
X7.1945Y-4.2559
T6
X5.6Y-3.55
X5.6Y-4.45
X6.95Y-3.55
X6.95Y-4.45
T0
M30
