G04 #@! TF.FileFunction,Copper,L1,Top,Signal*
%FSLAX46Y46*%
G04 Gerber Fmt 4.6, Leading zero omitted, Abs format (unit mm)*
G04 Created by KiCad (PCBNEW 4.0.5+dfsg1-4) date Fri Dec 28 13:07:42 2018*
%MOMM*%
%LPD*%
G01*
G04 APERTURE LIST*
%ADD10C,0.100000*%
%ADD11R,4.000500X2.700020*%
%ADD12R,1.400000X1.200000*%
%ADD13R,1.200000X0.750000*%
%ADD14R,2.000000X1.700000*%
%ADD15R,1.727200X1.727200*%
%ADD16O,1.727200X1.727200*%
%ADD17C,1.524000*%
%ADD18C,3.500000*%
%ADD19R,1.200000X0.900000*%
%ADD20R,0.300000X0.850000*%
%ADD21C,6.000000*%
%ADD22R,0.508000X1.143000*%
%ADD23R,1.200000X0.280000*%
%ADD24R,0.280000X1.200000*%
%ADD25C,3.000000*%
%ADD26R,0.750000X1.200000*%
%ADD27R,0.650000X1.060000*%
%ADD28C,1.000000*%
%ADD29C,0.800000*%
%ADD30C,0.250000*%
%ADD31C,0.500000*%
%ADD32C,0.254000*%
G04 APERTURE END LIST*
D10*
D11*
X149019260Y-116078000D03*
X156796740Y-116078000D03*
X149019260Y-110998000D03*
X156796740Y-110998000D03*
D12*
X163650000Y-95050000D03*
X165850000Y-95050000D03*
X165850000Y-93450000D03*
X163650000Y-93450000D03*
D13*
X169230000Y-96520000D03*
X171130000Y-96520000D03*
X169230000Y-98552000D03*
X171130000Y-98552000D03*
D14*
X185960000Y-113030000D03*
X189960000Y-113030000D03*
D15*
X134620000Y-106680000D03*
D16*
X132080000Y-106680000D03*
X134620000Y-104140000D03*
X132080000Y-104140000D03*
X134620000Y-101600000D03*
X132080000Y-101600000D03*
X134620000Y-99060000D03*
X132080000Y-99060000D03*
X134620000Y-96520000D03*
X132080000Y-96520000D03*
D17*
X180040000Y-100600000D03*
X180040000Y-102600000D03*
X180040000Y-98100000D03*
X180040000Y-105100000D03*
D18*
X182740000Y-108100000D03*
X182740000Y-95100000D03*
D19*
X161460000Y-116078000D03*
X163660000Y-116078000D03*
X142070000Y-106680000D03*
X139870000Y-106680000D03*
X147150000Y-108204000D03*
X144950000Y-108204000D03*
X158412000Y-94488000D03*
X160612000Y-94488000D03*
X156040000Y-94488000D03*
X153840000Y-94488000D03*
D20*
X176030000Y-100875000D03*
X176530000Y-100875000D03*
X177030000Y-100875000D03*
X177030000Y-102325000D03*
X176530000Y-102325000D03*
X176030000Y-102325000D03*
D21*
X142240000Y-90170000D03*
X142240000Y-113030000D03*
X176530000Y-113030000D03*
X176530000Y-90170000D03*
D13*
X188910000Y-117475000D03*
X187010000Y-117475000D03*
X188910000Y-115570000D03*
X187010000Y-115570000D03*
D22*
X155575000Y-103505000D03*
X153035000Y-103505000D03*
X151765000Y-103505000D03*
X150495000Y-103505000D03*
X149225000Y-103505000D03*
X147955000Y-103505000D03*
X146685000Y-103505000D03*
X146685000Y-97155000D03*
X147955000Y-97155000D03*
X149225000Y-97155000D03*
X150495000Y-97155000D03*
X151765000Y-97155000D03*
X153035000Y-97155000D03*
X154305000Y-97155000D03*
X155575000Y-97155000D03*
X154305000Y-103505000D03*
D23*
X159945000Y-99850000D03*
X159945000Y-100350000D03*
X159945000Y-100850000D03*
X159945000Y-101350000D03*
X159945000Y-101850000D03*
X159945000Y-102350000D03*
X159945000Y-102850000D03*
X159945000Y-103350000D03*
D24*
X161445000Y-104850000D03*
X161945000Y-104850000D03*
X162445000Y-104850000D03*
X162945000Y-104850000D03*
X163445000Y-104850000D03*
X163945000Y-104850000D03*
X164445000Y-104850000D03*
X164945000Y-104850000D03*
D23*
X166445000Y-103350000D03*
X166445000Y-102850000D03*
X166445000Y-102350000D03*
X166445000Y-101850000D03*
X166445000Y-101350000D03*
X166445000Y-100850000D03*
X166445000Y-100350000D03*
X166445000Y-99850000D03*
D24*
X164945000Y-98350000D03*
X164445000Y-98350000D03*
X163945000Y-98350000D03*
X163445000Y-98350000D03*
X162945000Y-98350000D03*
X162445000Y-98350000D03*
X161945000Y-98350000D03*
X161445000Y-98350000D03*
D25*
X132080000Y-86360000D03*
D26*
X157988000Y-98232000D03*
X157988000Y-96332000D03*
D19*
X173058000Y-102870000D03*
X170858000Y-102870000D03*
D13*
X168976000Y-116078000D03*
X170876000Y-116078000D03*
X163642000Y-91440000D03*
X165542000Y-91440000D03*
D19*
X173058000Y-100330000D03*
X170858000Y-100330000D03*
D27*
X165166000Y-113876000D03*
X166116000Y-113876000D03*
X167066000Y-113876000D03*
X167066000Y-111676000D03*
X165166000Y-111676000D03*
D28*
X137160000Y-88900000D03*
X182880000Y-88900000D03*
X170180000Y-109220000D03*
D29*
X167500000Y-91500000D03*
X159750000Y-96500000D03*
X131000000Y-117000000D03*
X165250000Y-96750000D03*
X142240000Y-103886000D03*
X166624000Y-104902000D03*
X148590000Y-95250000D03*
X145796000Y-95250000D03*
X172720000Y-96520000D03*
X172720000Y-98552000D03*
X190500000Y-101600000D03*
X151511000Y-91440000D03*
X163195000Y-101600000D03*
X184785000Y-117475000D03*
X176530000Y-99695000D03*
X176530000Y-103505000D03*
X157480000Y-102870000D03*
X180975000Y-116840000D03*
X152908000Y-116332000D03*
X152908000Y-111252000D03*
X174625000Y-102235000D03*
X163830000Y-99695000D03*
X174625000Y-100965000D03*
X147955000Y-105410000D03*
X150114000Y-107442000D03*
X152273000Y-99695000D03*
D30*
X165700000Y-91500000D02*
X167500000Y-91500000D01*
X157988000Y-96459000D02*
X159709000Y-96459000D01*
X159709000Y-96459000D02*
X159750000Y-96500000D01*
X142240000Y-113030000D02*
X134970000Y-113030000D01*
X134970000Y-113030000D02*
X131000000Y-117000000D01*
X165850000Y-95050000D02*
X165850000Y-96150000D01*
X165850000Y-96150000D02*
X165250000Y-96750000D01*
X164846000Y-102350000D02*
X164846000Y-103124000D01*
X164846000Y-103124000D02*
X166624000Y-104902000D01*
X150495000Y-97155000D02*
X150495000Y-95885000D01*
X147955000Y-95885000D02*
X148590000Y-95250000D01*
X147955000Y-95885000D02*
X147955000Y-97155000D01*
X149860000Y-95250000D02*
X148590000Y-95250000D01*
X150495000Y-95885000D02*
X149860000Y-95250000D01*
X146685000Y-97155000D02*
X146685000Y-96139000D01*
X146685000Y-96139000D02*
X145796000Y-95250000D01*
X171130000Y-96520000D02*
X172720000Y-96520000D01*
X171130000Y-98552000D02*
X172720000Y-98552000D01*
X166445000Y-102350000D02*
X164846000Y-102350000D01*
X164846000Y-102350000D02*
X163945000Y-102350000D01*
X162445000Y-100850000D02*
X163195000Y-101600000D01*
X162445000Y-100850000D02*
X159945000Y-100850000D01*
X163945000Y-102350000D02*
X163195000Y-101600000D01*
X187010000Y-117475000D02*
X184785000Y-117475000D01*
X176530000Y-100875000D02*
X176530000Y-99695000D01*
X176530000Y-102325000D02*
X176530000Y-103505000D01*
D31*
X165166000Y-113876000D02*
X162476000Y-113876000D01*
X161460000Y-114892000D02*
X161460000Y-116078000D01*
X162476000Y-113876000D02*
X161460000Y-114892000D01*
X161460000Y-116078000D02*
X157050740Y-116078000D01*
X157050740Y-116078000D02*
X156796740Y-116332000D01*
X187010000Y-115570000D02*
X184785000Y-115570000D01*
X183515000Y-116840000D02*
X180975000Y-116840000D01*
X184785000Y-115570000D02*
X183515000Y-116840000D01*
X152908000Y-116332000D02*
X156796740Y-116332000D01*
D30*
X152908000Y-111252000D02*
X156796740Y-111252000D01*
X165166000Y-111676000D02*
X157474740Y-111676000D01*
X157474740Y-111676000D02*
X156796740Y-110998000D01*
X163650000Y-93450000D02*
X163650000Y-91650000D01*
X163650000Y-91650000D02*
X163800000Y-91500000D01*
X162500000Y-91500000D02*
X163800000Y-91500000D01*
X156796740Y-111252000D02*
X156923740Y-111125000D01*
X166445000Y-100350000D02*
X167366000Y-100350000D01*
X168148000Y-96520000D02*
X169230000Y-96520000D01*
X167894000Y-96774000D02*
X168148000Y-96520000D01*
X167894000Y-99822000D02*
X167894000Y-96774000D01*
X167366000Y-100350000D02*
X167894000Y-99822000D01*
X155575000Y-97155000D02*
X156083000Y-97155000D01*
X157033000Y-98359000D02*
X157988000Y-98359000D01*
X156464000Y-97790000D02*
X157033000Y-98359000D01*
X156464000Y-97536000D02*
X156464000Y-97790000D01*
X156083000Y-97155000D02*
X156464000Y-97536000D01*
X155575000Y-97155000D02*
X155575000Y-96139000D01*
X155575000Y-96139000D02*
X156040000Y-95674000D01*
X159945000Y-100350000D02*
X158516000Y-100350000D01*
X158516000Y-100350000D02*
X157988000Y-99822000D01*
X157988000Y-99822000D02*
X157988000Y-98359000D01*
X174625000Y-102235000D02*
X175895000Y-102235000D01*
X159945000Y-100350000D02*
X163175000Y-100350000D01*
X163175000Y-100350000D02*
X163830000Y-99695000D01*
X164485000Y-100350000D02*
X163830000Y-99695000D01*
X164485000Y-100350000D02*
X166445000Y-100350000D01*
X176030000Y-102325000D02*
X175985000Y-102325000D01*
X175985000Y-102325000D02*
X175895000Y-102235000D01*
X161250000Y-92750000D02*
X162500000Y-91500000D01*
X159250000Y-92750000D02*
X161250000Y-92750000D01*
X158500000Y-93500000D02*
X159250000Y-92750000D01*
X156040000Y-95674000D02*
X156040000Y-94488000D01*
X156040000Y-94488000D02*
X158388000Y-94488000D01*
X158388000Y-94488000D02*
X158500000Y-94376000D01*
X158500000Y-94376000D02*
X158500000Y-93500000D01*
X175895000Y-100965000D02*
X174625000Y-100965000D01*
D31*
X185960000Y-113030000D02*
X185960000Y-106585000D01*
X185960000Y-106585000D02*
X184475000Y-105100000D01*
X184475000Y-105100000D02*
X180040000Y-105100000D01*
D30*
X176030000Y-100875000D02*
X175985000Y-100875000D01*
X175985000Y-100875000D02*
X175895000Y-100965000D01*
X132080000Y-104140000D02*
X133350000Y-105410000D01*
X138938000Y-108204000D02*
X144950000Y-108204000D01*
X136144000Y-105410000D02*
X138938000Y-108204000D01*
X133350000Y-105410000D02*
X136144000Y-105410000D01*
X132080000Y-96520000D02*
X133350000Y-97790000D01*
X139870000Y-104056000D02*
X139870000Y-106680000D01*
X138684000Y-102870000D02*
X139870000Y-104056000D01*
X133731000Y-102870000D02*
X138684000Y-102870000D01*
X133350000Y-102489000D02*
X133731000Y-102870000D01*
X133350000Y-97790000D02*
X133350000Y-102489000D01*
X177030000Y-100875000D02*
X177509000Y-100875000D01*
X178246000Y-98806000D02*
X180040000Y-100600000D01*
X173058000Y-100330000D02*
X174244000Y-100330000D01*
X174244000Y-100330000D02*
X175768000Y-98806000D01*
X175768000Y-98806000D02*
X177546000Y-98806000D01*
X177546000Y-98806000D02*
X177800000Y-98806000D01*
X177800000Y-100584000D02*
X177800000Y-98806000D01*
X177800000Y-98806000D02*
X178246000Y-98806000D01*
X177509000Y-100875000D02*
X177800000Y-100584000D01*
X173058000Y-102870000D02*
X174244000Y-102870000D01*
X174244000Y-102870000D02*
X175768000Y-104394000D01*
X175768000Y-104394000D02*
X177800000Y-104394000D01*
X177800000Y-102616000D02*
X177800000Y-104394000D01*
X177800000Y-104394000D02*
X178246000Y-104394000D01*
X177509000Y-102325000D02*
X177800000Y-102616000D01*
X177030000Y-102325000D02*
X177509000Y-102325000D01*
X178246000Y-104394000D02*
X180040000Y-102600000D01*
X159258000Y-106680000D02*
X142070000Y-106680000D01*
X160401000Y-107823000D02*
X159258000Y-106680000D01*
X163195000Y-107823000D02*
X160401000Y-107823000D01*
X164445000Y-106573000D02*
X163195000Y-107823000D01*
X164445000Y-104850000D02*
X164445000Y-106573000D01*
X153840000Y-94488000D02*
X153840000Y-95674000D01*
X153840000Y-95674000D02*
X154305000Y-96139000D01*
X154940000Y-99060000D02*
X154813000Y-99060000D01*
X158496000Y-103505000D02*
X158496000Y-101727000D01*
X158496000Y-101727000D02*
X155829000Y-99060000D01*
X155829000Y-99060000D02*
X154940000Y-99060000D01*
X154305000Y-96139000D02*
X154305000Y-97155000D01*
X162945000Y-105787000D02*
X162687000Y-106045000D01*
X162687000Y-106045000D02*
X161036000Y-106045000D01*
X161036000Y-106045000D02*
X158496000Y-103505000D01*
X162945000Y-104850000D02*
X162945000Y-105787000D01*
X154305000Y-98552000D02*
X154305000Y-97155000D01*
X154813000Y-99060000D02*
X154305000Y-98552000D01*
X147955000Y-103505000D02*
X147955000Y-105410000D01*
X150114000Y-107442000D02*
X159131000Y-107442000D01*
X159131000Y-107442000D02*
X160274000Y-108585000D01*
X160274000Y-108585000D02*
X163195000Y-108585000D01*
X163195000Y-108585000D02*
X164945000Y-106835000D01*
X164945000Y-106835000D02*
X164945000Y-104850000D01*
X188910000Y-115570000D02*
X188910000Y-117475000D01*
D31*
X188910000Y-115570000D02*
X189230000Y-115570000D01*
X189230000Y-115570000D02*
X189960000Y-114840000D01*
X189960000Y-114840000D02*
X189960000Y-113030000D01*
D30*
X153035000Y-98965000D02*
X152273000Y-99695000D01*
X153035000Y-97155000D02*
X153035000Y-98965000D01*
X134620000Y-101600000D02*
X142875000Y-101600000D01*
X144780000Y-103505000D02*
X146685000Y-103505000D01*
X142875000Y-101600000D02*
X144780000Y-103505000D01*
X134620000Y-99060000D02*
X135890000Y-100330000D01*
X149225000Y-100965000D02*
X149225000Y-103505000D01*
X148590000Y-100330000D02*
X149225000Y-100965000D01*
X135890000Y-100330000D02*
X148590000Y-100330000D01*
X134620000Y-96520000D02*
X137414000Y-99314000D01*
X153035000Y-102108000D02*
X153035000Y-103505000D01*
X150241000Y-99314000D02*
X153035000Y-102108000D01*
X137414000Y-99314000D02*
X150241000Y-99314000D01*
X163945000Y-104850000D02*
X163945000Y-106311000D01*
X150622000Y-105029000D02*
X150622000Y-103505000D01*
X151130000Y-105537000D02*
X150622000Y-105029000D01*
X158877000Y-105537000D02*
X151130000Y-105537000D01*
X160528000Y-107188000D02*
X158877000Y-105537000D01*
X163068000Y-107188000D02*
X160528000Y-107188000D01*
X163945000Y-106311000D02*
X163068000Y-107188000D01*
X163445000Y-104850000D02*
X163445000Y-106049000D01*
X154432000Y-104648000D02*
X154432000Y-103505000D01*
X154686000Y-104902000D02*
X154432000Y-104648000D01*
X159004000Y-104902000D02*
X154686000Y-104902000D01*
X160655000Y-106553000D02*
X159004000Y-104902000D01*
X162941000Y-106553000D02*
X160655000Y-106553000D01*
X163445000Y-106049000D02*
X162941000Y-106553000D01*
X166445000Y-100850000D02*
X168136000Y-100850000D01*
X169230000Y-99756000D02*
X169230000Y-98552000D01*
X168136000Y-100850000D02*
X169230000Y-99756000D01*
X160600000Y-94500000D02*
X161750000Y-94500000D01*
X162300000Y-95050000D02*
X163650000Y-95050000D01*
X161750000Y-94500000D02*
X162300000Y-95050000D01*
X165850000Y-93450000D02*
X166950000Y-93450000D01*
X166445000Y-97055000D02*
X166445000Y-99850000D01*
X167500000Y-96000000D02*
X166445000Y-97055000D01*
X167500000Y-94000000D02*
X167500000Y-96000000D01*
X166950000Y-93450000D02*
X167500000Y-94000000D01*
X167066000Y-113876000D02*
X167066000Y-116078000D01*
X167066000Y-116078000D02*
X167132000Y-116078000D01*
X163660000Y-116078000D02*
X167132000Y-116078000D01*
X167132000Y-116078000D02*
X168976000Y-116078000D01*
X147150000Y-108204000D02*
X159004000Y-108204000D01*
X165862000Y-109220000D02*
X160020000Y-109220000D01*
X168656000Y-106426000D02*
X165862000Y-109220000D01*
X168656000Y-103378000D02*
X168656000Y-106426000D01*
X159004000Y-108204000D02*
X160020000Y-109220000D01*
X168128000Y-102850000D02*
X168656000Y-103378000D01*
X168128000Y-102850000D02*
X166445000Y-102850000D01*
X169672000Y-102870000D02*
X170858000Y-102870000D01*
X168652000Y-101850000D02*
X169672000Y-102870000D01*
X166445000Y-101850000D02*
X168652000Y-101850000D01*
X170858000Y-100330000D02*
X169672000Y-100330000D01*
X168652000Y-101350000D02*
X169672000Y-100330000D01*
X168652000Y-101350000D02*
X166445000Y-101350000D01*
D32*
G36*
X130999460Y-84621024D02*
X130886902Y-84696234D01*
X130731125Y-84993165D01*
X132080000Y-86342039D01*
X133428875Y-84993165D01*
X133273098Y-84696234D01*
X132741167Y-84455000D01*
X192405000Y-84455000D01*
X192405000Y-118745000D01*
X127635000Y-118745000D01*
X127635000Y-115478289D01*
X139809672Y-115478289D01*
X140147941Y-115931078D01*
X141417384Y-116510843D01*
X142812063Y-116560681D01*
X143731684Y-116217700D01*
X146511010Y-116217700D01*
X146511010Y-117529058D01*
X146588349Y-117715769D01*
X146731252Y-117858672D01*
X146917963Y-117936010D01*
X148879560Y-117936010D01*
X149006560Y-117809010D01*
X149006560Y-116090700D01*
X149031960Y-116090700D01*
X149031960Y-117809010D01*
X149158960Y-117936010D01*
X151120557Y-117936010D01*
X151307268Y-117858672D01*
X151450171Y-117715769D01*
X151527510Y-117529058D01*
X151527510Y-116486669D01*
X152126864Y-116486669D01*
X152245514Y-116773823D01*
X152465021Y-116993714D01*
X152751968Y-117112864D01*
X153062669Y-117113136D01*
X153349823Y-116994486D01*
X153381364Y-116963000D01*
X154408026Y-116963000D01*
X154408026Y-117428010D01*
X154434593Y-117569200D01*
X154518036Y-117698875D01*
X154645356Y-117785869D01*
X154796490Y-117816474D01*
X158796990Y-117816474D01*
X158938180Y-117789907D01*
X159067855Y-117706464D01*
X159154849Y-117579144D01*
X159185454Y-117428010D01*
X159185454Y-116994669D01*
X180193864Y-116994669D01*
X180312514Y-117281823D01*
X180532021Y-117501714D01*
X180818968Y-117620864D01*
X181129669Y-117621136D01*
X181145245Y-117614700D01*
X185902000Y-117614700D01*
X185902000Y-117951048D01*
X185979339Y-118137759D01*
X186122242Y-118280662D01*
X186308953Y-118358000D01*
X186870300Y-118358000D01*
X186997300Y-118231000D01*
X186997300Y-117487700D01*
X186029000Y-117487700D01*
X185902000Y-117614700D01*
X181145245Y-117614700D01*
X181416823Y-117502486D01*
X181448364Y-117471000D01*
X183515000Y-117471000D01*
X183756473Y-117422968D01*
X183961184Y-117286184D01*
X184248416Y-116998952D01*
X185902000Y-116998952D01*
X185902000Y-117335300D01*
X186029000Y-117462300D01*
X186997300Y-117462300D01*
X186997300Y-116719000D01*
X186870300Y-116592000D01*
X186308953Y-116592000D01*
X186122242Y-116669338D01*
X185979339Y-116812241D01*
X185902000Y-116998952D01*
X184248416Y-116998952D01*
X185046369Y-116201000D01*
X186121981Y-116201000D01*
X186131546Y-116215865D01*
X186258866Y-116302859D01*
X186410000Y-116333464D01*
X187610000Y-116333464D01*
X187751190Y-116306897D01*
X187880865Y-116223454D01*
X187960980Y-116106202D01*
X188031546Y-116215865D01*
X188158866Y-116302859D01*
X188310000Y-116333464D01*
X188404000Y-116333464D01*
X188404000Y-116711536D01*
X188310000Y-116711536D01*
X188168810Y-116738103D01*
X188043383Y-116818812D01*
X188040661Y-116812241D01*
X187897758Y-116669338D01*
X187711047Y-116592000D01*
X187149700Y-116592000D01*
X187022700Y-116719000D01*
X187022700Y-117462300D01*
X187042700Y-117462300D01*
X187042700Y-117487700D01*
X187022700Y-117487700D01*
X187022700Y-118231000D01*
X187149700Y-118358000D01*
X187711047Y-118358000D01*
X187897758Y-118280662D01*
X188040661Y-118137759D01*
X188044104Y-118129446D01*
X188158866Y-118207859D01*
X188310000Y-118238464D01*
X189510000Y-118238464D01*
X189651190Y-118211897D01*
X189780865Y-118128454D01*
X189867859Y-118001134D01*
X189898464Y-117850000D01*
X189898464Y-117100000D01*
X189871897Y-116958810D01*
X189788454Y-116829135D01*
X189661134Y-116742141D01*
X189510000Y-116711536D01*
X189416000Y-116711536D01*
X189416000Y-116333464D01*
X189510000Y-116333464D01*
X189651190Y-116306897D01*
X189780865Y-116223454D01*
X189867859Y-116096134D01*
X189898464Y-115945000D01*
X189898464Y-115793904D01*
X190406184Y-115286184D01*
X190542968Y-115081473D01*
X190591000Y-114840000D01*
X190591000Y-114268464D01*
X190960000Y-114268464D01*
X191101190Y-114241897D01*
X191230865Y-114158454D01*
X191317859Y-114031134D01*
X191348464Y-113880000D01*
X191348464Y-112180000D01*
X191321897Y-112038810D01*
X191238454Y-111909135D01*
X191111134Y-111822141D01*
X190960000Y-111791536D01*
X188960000Y-111791536D01*
X188818810Y-111818103D01*
X188689135Y-111901546D01*
X188602141Y-112028866D01*
X188571536Y-112180000D01*
X188571536Y-113880000D01*
X188598103Y-114021190D01*
X188681546Y-114150865D01*
X188808866Y-114237859D01*
X188960000Y-114268464D01*
X189329000Y-114268464D01*
X189329000Y-114578632D01*
X189101096Y-114806536D01*
X188310000Y-114806536D01*
X188168810Y-114833103D01*
X188039135Y-114916546D01*
X187959020Y-115033798D01*
X187888454Y-114924135D01*
X187761134Y-114837141D01*
X187610000Y-114806536D01*
X186410000Y-114806536D01*
X186268810Y-114833103D01*
X186139135Y-114916546D01*
X186123793Y-114939000D01*
X184785000Y-114939000D01*
X184583589Y-114979063D01*
X184543526Y-114987032D01*
X184338815Y-115123816D01*
X183253632Y-116209000D01*
X181448639Y-116209000D01*
X181417979Y-116178286D01*
X181131032Y-116059136D01*
X180820331Y-116058864D01*
X180533177Y-116177514D01*
X180313286Y-116397021D01*
X180194136Y-116683968D01*
X180193864Y-116994669D01*
X159185454Y-116994669D01*
X159185454Y-116709000D01*
X160523720Y-116709000D01*
X160581546Y-116798865D01*
X160708866Y-116885859D01*
X160860000Y-116916464D01*
X162060000Y-116916464D01*
X162201190Y-116889897D01*
X162330865Y-116806454D01*
X162417859Y-116679134D01*
X162448464Y-116528000D01*
X162448464Y-115628000D01*
X162671536Y-115628000D01*
X162671536Y-116528000D01*
X162698103Y-116669190D01*
X162781546Y-116798865D01*
X162908866Y-116885859D01*
X163060000Y-116916464D01*
X164260000Y-116916464D01*
X164401190Y-116889897D01*
X164530865Y-116806454D01*
X164617859Y-116679134D01*
X164637124Y-116584000D01*
X168012186Y-116584000D01*
X168014103Y-116594190D01*
X168097546Y-116723865D01*
X168224866Y-116810859D01*
X168376000Y-116841464D01*
X169576000Y-116841464D01*
X169717190Y-116814897D01*
X169842617Y-116734188D01*
X169845339Y-116740759D01*
X169988242Y-116883662D01*
X170174953Y-116961000D01*
X170736300Y-116961000D01*
X170863300Y-116834000D01*
X170863300Y-116090700D01*
X170888700Y-116090700D01*
X170888700Y-116834000D01*
X171015700Y-116961000D01*
X171577047Y-116961000D01*
X171763758Y-116883662D01*
X171906661Y-116740759D01*
X171984000Y-116554048D01*
X171984000Y-116217700D01*
X171857000Y-116090700D01*
X170888700Y-116090700D01*
X170863300Y-116090700D01*
X170843300Y-116090700D01*
X170843300Y-116065300D01*
X170863300Y-116065300D01*
X170863300Y-115322000D01*
X170888700Y-115322000D01*
X170888700Y-116065300D01*
X171857000Y-116065300D01*
X171984000Y-115938300D01*
X171984000Y-115601952D01*
X171932777Y-115478289D01*
X174099672Y-115478289D01*
X174437941Y-115931078D01*
X175707384Y-116510843D01*
X177102063Y-116560681D01*
X178409650Y-116073005D01*
X178622059Y-115931078D01*
X178960328Y-115478289D01*
X176530000Y-113047961D01*
X174099672Y-115478289D01*
X171932777Y-115478289D01*
X171906661Y-115415241D01*
X171763758Y-115272338D01*
X171577047Y-115195000D01*
X171015700Y-115195000D01*
X170888700Y-115322000D01*
X170863300Y-115322000D01*
X170736300Y-115195000D01*
X170174953Y-115195000D01*
X169988242Y-115272338D01*
X169845339Y-115415241D01*
X169841896Y-115423554D01*
X169727134Y-115345141D01*
X169576000Y-115314536D01*
X168376000Y-115314536D01*
X168234810Y-115341103D01*
X168105135Y-115424546D01*
X168018141Y-115551866D01*
X168014064Y-115572000D01*
X167572000Y-115572000D01*
X167572000Y-114742280D01*
X167661865Y-114684454D01*
X167748859Y-114557134D01*
X167779464Y-114406000D01*
X167779464Y-113602063D01*
X172999319Y-113602063D01*
X173486995Y-114909650D01*
X173628922Y-115122059D01*
X174081711Y-115460328D01*
X176512039Y-113030000D01*
X176547961Y-113030000D01*
X178978289Y-115460328D01*
X179431078Y-115122059D01*
X180010843Y-113852616D01*
X180060681Y-112457937D01*
X179573005Y-111150350D01*
X179431078Y-110937941D01*
X178978289Y-110599672D01*
X176547961Y-113030000D01*
X176512039Y-113030000D01*
X174081711Y-110599672D01*
X173628922Y-110937941D01*
X173049157Y-112207384D01*
X172999319Y-113602063D01*
X167779464Y-113602063D01*
X167779464Y-113346000D01*
X167752897Y-113204810D01*
X167669454Y-113075135D01*
X167542134Y-112988141D01*
X167391000Y-112957536D01*
X166770956Y-112957536D01*
X166728759Y-112915339D01*
X166542048Y-112838000D01*
X166255700Y-112838000D01*
X166128700Y-112965000D01*
X166128700Y-113863300D01*
X166148700Y-113863300D01*
X166148700Y-113888700D01*
X166128700Y-113888700D01*
X166128700Y-114787000D01*
X166255700Y-114914000D01*
X166542048Y-114914000D01*
X166560000Y-114906564D01*
X166560000Y-115572000D01*
X164637927Y-115572000D01*
X164621897Y-115486810D01*
X164538454Y-115357135D01*
X164411134Y-115270141D01*
X164260000Y-115239536D01*
X163060000Y-115239536D01*
X162918810Y-115266103D01*
X162789135Y-115349546D01*
X162702141Y-115476866D01*
X162671536Y-115628000D01*
X162448464Y-115628000D01*
X162421897Y-115486810D01*
X162338454Y-115357135D01*
X162211134Y-115270141D01*
X162091000Y-115245814D01*
X162091000Y-115153368D01*
X162737368Y-114507000D01*
X164471541Y-114507000D01*
X164479103Y-114547190D01*
X164562546Y-114676865D01*
X164689866Y-114763859D01*
X164841000Y-114794464D01*
X165461044Y-114794464D01*
X165503241Y-114836661D01*
X165689952Y-114914000D01*
X165976300Y-114914000D01*
X166103300Y-114787000D01*
X166103300Y-113888700D01*
X166083300Y-113888700D01*
X166083300Y-113863300D01*
X166103300Y-113863300D01*
X166103300Y-112965000D01*
X165976300Y-112838000D01*
X165689952Y-112838000D01*
X165503241Y-112915339D01*
X165461044Y-112957536D01*
X164841000Y-112957536D01*
X164699810Y-112984103D01*
X164570135Y-113067546D01*
X164483141Y-113194866D01*
X164472989Y-113245000D01*
X162476000Y-113245000D01*
X162234527Y-113293032D01*
X162029816Y-113429816D01*
X161013816Y-114445816D01*
X160877032Y-114650527D01*
X160829000Y-114892000D01*
X160829000Y-115245369D01*
X160718810Y-115266103D01*
X160589135Y-115349546D01*
X160522548Y-115447000D01*
X159185454Y-115447000D01*
X159185454Y-114727990D01*
X159158887Y-114586800D01*
X159075444Y-114457125D01*
X158948124Y-114370131D01*
X158796990Y-114339526D01*
X154796490Y-114339526D01*
X154655300Y-114366093D01*
X154525625Y-114449536D01*
X154438631Y-114576856D01*
X154408026Y-114727990D01*
X154408026Y-115701000D01*
X153381639Y-115701000D01*
X153350979Y-115670286D01*
X153064032Y-115551136D01*
X152753331Y-115550864D01*
X152466177Y-115669514D01*
X152246286Y-115889021D01*
X152127136Y-116175968D01*
X152126864Y-116486669D01*
X151527510Y-116486669D01*
X151527510Y-116217700D01*
X151400510Y-116090700D01*
X149031960Y-116090700D01*
X149006560Y-116090700D01*
X146638010Y-116090700D01*
X146511010Y-116217700D01*
X143731684Y-116217700D01*
X144119650Y-116073005D01*
X144332059Y-115931078D01*
X144670328Y-115478289D01*
X142240000Y-113047961D01*
X139809672Y-115478289D01*
X127635000Y-115478289D01*
X127635000Y-113602063D01*
X138709319Y-113602063D01*
X139196995Y-114909650D01*
X139338922Y-115122059D01*
X139791711Y-115460328D01*
X142222039Y-113030000D01*
X142257961Y-113030000D01*
X144688289Y-115460328D01*
X145141078Y-115122059D01*
X145367201Y-114626942D01*
X146511010Y-114626942D01*
X146511010Y-115938300D01*
X146638010Y-116065300D01*
X149006560Y-116065300D01*
X149006560Y-114346990D01*
X149031960Y-114346990D01*
X149031960Y-116065300D01*
X151400510Y-116065300D01*
X151527510Y-115938300D01*
X151527510Y-114626942D01*
X151450171Y-114440231D01*
X151307268Y-114297328D01*
X151120557Y-114219990D01*
X149158960Y-114219990D01*
X149031960Y-114346990D01*
X149006560Y-114346990D01*
X148879560Y-114219990D01*
X146917963Y-114219990D01*
X146731252Y-114297328D01*
X146588349Y-114440231D01*
X146511010Y-114626942D01*
X145367201Y-114626942D01*
X145720843Y-113852616D01*
X145770681Y-112457937D01*
X145283005Y-111150350D01*
X145274553Y-111137700D01*
X146511010Y-111137700D01*
X146511010Y-112449058D01*
X146588349Y-112635769D01*
X146731252Y-112778672D01*
X146917963Y-112856010D01*
X148879560Y-112856010D01*
X149006560Y-112729010D01*
X149006560Y-111010700D01*
X149031960Y-111010700D01*
X149031960Y-112729010D01*
X149158960Y-112856010D01*
X151120557Y-112856010D01*
X151307268Y-112778672D01*
X151450171Y-112635769D01*
X151527510Y-112449058D01*
X151527510Y-111406669D01*
X152126864Y-111406669D01*
X152245514Y-111693823D01*
X152465021Y-111913714D01*
X152751968Y-112032864D01*
X153062669Y-112033136D01*
X153349823Y-111914486D01*
X153506583Y-111758000D01*
X154408026Y-111758000D01*
X154408026Y-112348010D01*
X154434593Y-112489200D01*
X154518036Y-112618875D01*
X154645356Y-112705869D01*
X154796490Y-112736474D01*
X158796990Y-112736474D01*
X158938180Y-112709907D01*
X159067855Y-112626464D01*
X159154849Y-112499144D01*
X159185454Y-112348010D01*
X159185454Y-112182000D01*
X164452536Y-112182000D01*
X164452536Y-112206000D01*
X164479103Y-112347190D01*
X164562546Y-112476865D01*
X164689866Y-112563859D01*
X164841000Y-112594464D01*
X165491000Y-112594464D01*
X165632190Y-112567897D01*
X165761865Y-112484454D01*
X165848859Y-112357134D01*
X165879464Y-112206000D01*
X165879464Y-111146000D01*
X166352536Y-111146000D01*
X166352536Y-112206000D01*
X166379103Y-112347190D01*
X166462546Y-112476865D01*
X166589866Y-112563859D01*
X166741000Y-112594464D01*
X167391000Y-112594464D01*
X167532190Y-112567897D01*
X167661865Y-112484454D01*
X167748859Y-112357134D01*
X167779464Y-112206000D01*
X167779464Y-111146000D01*
X167752897Y-111004810D01*
X167669454Y-110875135D01*
X167542134Y-110788141D01*
X167391000Y-110757536D01*
X166741000Y-110757536D01*
X166599810Y-110784103D01*
X166470135Y-110867546D01*
X166383141Y-110994866D01*
X166352536Y-111146000D01*
X165879464Y-111146000D01*
X165852897Y-111004810D01*
X165769454Y-110875135D01*
X165642134Y-110788141D01*
X165491000Y-110757536D01*
X164841000Y-110757536D01*
X164699810Y-110784103D01*
X164570135Y-110867546D01*
X164483141Y-110994866D01*
X164452536Y-111146000D01*
X164452536Y-111170000D01*
X159185454Y-111170000D01*
X159185454Y-109647990D01*
X159158887Y-109506800D01*
X159075444Y-109377125D01*
X158948124Y-109290131D01*
X158796990Y-109259526D01*
X154796490Y-109259526D01*
X154655300Y-109286093D01*
X154525625Y-109369536D01*
X154438631Y-109496856D01*
X154408026Y-109647990D01*
X154408026Y-110746000D01*
X153506421Y-110746000D01*
X153350979Y-110590286D01*
X153064032Y-110471136D01*
X152753331Y-110470864D01*
X152466177Y-110589514D01*
X152246286Y-110809021D01*
X152127136Y-111095968D01*
X152126864Y-111406669D01*
X151527510Y-111406669D01*
X151527510Y-111137700D01*
X151400510Y-111010700D01*
X149031960Y-111010700D01*
X149006560Y-111010700D01*
X146638010Y-111010700D01*
X146511010Y-111137700D01*
X145274553Y-111137700D01*
X145141078Y-110937941D01*
X144688289Y-110599672D01*
X142257961Y-113030000D01*
X142222039Y-113030000D01*
X139791711Y-110599672D01*
X139338922Y-110937941D01*
X138759157Y-112207384D01*
X138709319Y-113602063D01*
X127635000Y-113602063D01*
X127635000Y-110581711D01*
X139809672Y-110581711D01*
X142240000Y-113012039D01*
X144670328Y-110581711D01*
X144332059Y-110128922D01*
X143062616Y-109549157D01*
X143000631Y-109546942D01*
X146511010Y-109546942D01*
X146511010Y-110858300D01*
X146638010Y-110985300D01*
X149006560Y-110985300D01*
X149006560Y-109266990D01*
X149031960Y-109266990D01*
X149031960Y-110985300D01*
X151400510Y-110985300D01*
X151527510Y-110858300D01*
X151527510Y-109546942D01*
X151450171Y-109360231D01*
X151307268Y-109217328D01*
X151120557Y-109139990D01*
X149158960Y-109139990D01*
X149031960Y-109266990D01*
X149006560Y-109266990D01*
X148879560Y-109139990D01*
X146917963Y-109139990D01*
X146731252Y-109217328D01*
X146588349Y-109360231D01*
X146511010Y-109546942D01*
X143000631Y-109546942D01*
X141667937Y-109499319D01*
X140360350Y-109986995D01*
X140147941Y-110128922D01*
X139809672Y-110581711D01*
X127635000Y-110581711D01*
X127635000Y-106907100D01*
X130727331Y-106907100D01*
X130917204Y-107407457D01*
X131284102Y-107797065D01*
X131772168Y-108016610D01*
X131852900Y-108032668D01*
X132067300Y-107924535D01*
X132067300Y-106692700D01*
X130835458Y-106692700D01*
X130727331Y-106907100D01*
X127635000Y-106907100D01*
X127635000Y-106452900D01*
X130727331Y-106452900D01*
X130835458Y-106667300D01*
X132067300Y-106667300D01*
X132067300Y-106647300D01*
X132092700Y-106647300D01*
X132092700Y-106667300D01*
X132112700Y-106667300D01*
X132112700Y-106692700D01*
X132092700Y-106692700D01*
X132092700Y-107924535D01*
X132307100Y-108032668D01*
X132387832Y-108016610D01*
X132875898Y-107797065D01*
X133242796Y-107407457D01*
X133367936Y-107077686D01*
X133367936Y-107543600D01*
X133394503Y-107684790D01*
X133477946Y-107814465D01*
X133605266Y-107901459D01*
X133756400Y-107932064D01*
X135483600Y-107932064D01*
X135624790Y-107905497D01*
X135754465Y-107822054D01*
X135841459Y-107694734D01*
X135872064Y-107543600D01*
X135872064Y-105916000D01*
X135934408Y-105916000D01*
X138580204Y-108561796D01*
X138744362Y-108671483D01*
X138938000Y-108710000D01*
X143972073Y-108710000D01*
X143988103Y-108795190D01*
X144071546Y-108924865D01*
X144198866Y-109011859D01*
X144350000Y-109042464D01*
X145550000Y-109042464D01*
X145691190Y-109015897D01*
X145820865Y-108932454D01*
X145907859Y-108805134D01*
X145938464Y-108654000D01*
X145938464Y-107754000D01*
X145911897Y-107612810D01*
X145828454Y-107483135D01*
X145701134Y-107396141D01*
X145550000Y-107365536D01*
X144350000Y-107365536D01*
X144208810Y-107392103D01*
X144079135Y-107475546D01*
X143992141Y-107602866D01*
X143972876Y-107698000D01*
X139147592Y-107698000D01*
X136501796Y-105052204D01*
X136337638Y-104942517D01*
X136144000Y-104904000D01*
X135593909Y-104904000D01*
X135769860Y-104640671D01*
X135864600Y-104164383D01*
X135864600Y-104115617D01*
X135769860Y-103639329D01*
X135593909Y-103376000D01*
X138474408Y-103376000D01*
X139364000Y-104265592D01*
X139364000Y-105841536D01*
X139270000Y-105841536D01*
X139128810Y-105868103D01*
X138999135Y-105951546D01*
X138912141Y-106078866D01*
X138881536Y-106230000D01*
X138881536Y-107130000D01*
X138908103Y-107271190D01*
X138991546Y-107400865D01*
X139118866Y-107487859D01*
X139270000Y-107518464D01*
X140470000Y-107518464D01*
X140611190Y-107491897D01*
X140740865Y-107408454D01*
X140827859Y-107281134D01*
X140858464Y-107130000D01*
X140858464Y-106230000D01*
X140831897Y-106088810D01*
X140748454Y-105959135D01*
X140621134Y-105872141D01*
X140470000Y-105841536D01*
X140376000Y-105841536D01*
X140376000Y-104056000D01*
X140337483Y-103862362D01*
X140227796Y-103698204D01*
X139041796Y-102512204D01*
X138877638Y-102402517D01*
X138684000Y-102364000D01*
X135593909Y-102364000D01*
X135766299Y-102106000D01*
X142665408Y-102106000D01*
X144422204Y-103862796D01*
X144586362Y-103972483D01*
X144780000Y-104011000D01*
X146042536Y-104011000D01*
X146042536Y-104076500D01*
X146069103Y-104217690D01*
X146152546Y-104347365D01*
X146279866Y-104434359D01*
X146431000Y-104464964D01*
X146939000Y-104464964D01*
X147080190Y-104438397D01*
X147209865Y-104354954D01*
X147296859Y-104227634D01*
X147319726Y-104114712D01*
X147339103Y-104217690D01*
X147422546Y-104347365D01*
X147449000Y-104365440D01*
X147449000Y-104811579D01*
X147293286Y-104967021D01*
X147174136Y-105253968D01*
X147173864Y-105564669D01*
X147292514Y-105851823D01*
X147512021Y-106071714D01*
X147758355Y-106174000D01*
X143047927Y-106174000D01*
X143031897Y-106088810D01*
X142948454Y-105959135D01*
X142821134Y-105872141D01*
X142670000Y-105841536D01*
X141470000Y-105841536D01*
X141328810Y-105868103D01*
X141199135Y-105951546D01*
X141112141Y-106078866D01*
X141081536Y-106230000D01*
X141081536Y-107130000D01*
X141108103Y-107271190D01*
X141191546Y-107400865D01*
X141318866Y-107487859D01*
X141470000Y-107518464D01*
X142670000Y-107518464D01*
X142811190Y-107491897D01*
X142940865Y-107408454D01*
X143027859Y-107281134D01*
X143047124Y-107186000D01*
X149374646Y-107186000D01*
X149333136Y-107285968D01*
X149332864Y-107596669D01*
X149374733Y-107698000D01*
X148127927Y-107698000D01*
X148111897Y-107612810D01*
X148028454Y-107483135D01*
X147901134Y-107396141D01*
X147750000Y-107365536D01*
X146550000Y-107365536D01*
X146408810Y-107392103D01*
X146279135Y-107475546D01*
X146192141Y-107602866D01*
X146161536Y-107754000D01*
X146161536Y-108654000D01*
X146188103Y-108795190D01*
X146271546Y-108924865D01*
X146398866Y-109011859D01*
X146550000Y-109042464D01*
X147750000Y-109042464D01*
X147891190Y-109015897D01*
X148020865Y-108932454D01*
X148107859Y-108805134D01*
X148127124Y-108710000D01*
X158794408Y-108710000D01*
X159662204Y-109577796D01*
X159826362Y-109687483D01*
X160020000Y-109726000D01*
X165862000Y-109726000D01*
X166055638Y-109687483D01*
X166219796Y-109577796D01*
X166300931Y-109496661D01*
X168782758Y-109496661D01*
X168994990Y-110010303D01*
X169387630Y-110403629D01*
X169900900Y-110616757D01*
X170456661Y-110617242D01*
X170542652Y-110581711D01*
X174099672Y-110581711D01*
X176530000Y-113012039D01*
X178960328Y-110581711D01*
X178622059Y-110128922D01*
X177567025Y-109647079D01*
X181210882Y-109647079D01*
X181397074Y-109969985D01*
X182214910Y-110341556D01*
X183112687Y-110371871D01*
X183953725Y-110056314D01*
X184082926Y-109969985D01*
X184269118Y-109647079D01*
X182740000Y-108117961D01*
X181210882Y-109647079D01*
X177567025Y-109647079D01*
X177352616Y-109549157D01*
X175957937Y-109499319D01*
X174650350Y-109986995D01*
X174437941Y-110128922D01*
X174099672Y-110581711D01*
X170542652Y-110581711D01*
X170970303Y-110405010D01*
X171363629Y-110012370D01*
X171576757Y-109499100D01*
X171577242Y-108943339D01*
X171382774Y-108472687D01*
X180468129Y-108472687D01*
X180783686Y-109313725D01*
X180870015Y-109442926D01*
X181192921Y-109629118D01*
X182722039Y-108100000D01*
X182757961Y-108100000D01*
X184287079Y-109629118D01*
X184609985Y-109442926D01*
X184981556Y-108625090D01*
X185011871Y-107727313D01*
X184696314Y-106886275D01*
X184609985Y-106757074D01*
X184287079Y-106570882D01*
X182757961Y-108100000D01*
X182722039Y-108100000D01*
X181192921Y-106570882D01*
X180870015Y-106757074D01*
X180498444Y-107574910D01*
X180468129Y-108472687D01*
X171382774Y-108472687D01*
X171365010Y-108429697D01*
X170972370Y-108036371D01*
X170459100Y-107823243D01*
X169903339Y-107822758D01*
X169389697Y-108034990D01*
X168996371Y-108427630D01*
X168783243Y-108940900D01*
X168782758Y-109496661D01*
X166300931Y-109496661D01*
X169013796Y-106783796D01*
X169038624Y-106746638D01*
X169123483Y-106619638D01*
X169136753Y-106552921D01*
X181210882Y-106552921D01*
X182740000Y-108082039D01*
X184269118Y-106552921D01*
X184082926Y-106230015D01*
X183265090Y-105858444D01*
X182367313Y-105828129D01*
X181526275Y-106143686D01*
X181397074Y-106230015D01*
X181210882Y-106552921D01*
X169136753Y-106552921D01*
X169162000Y-106426000D01*
X169162000Y-105326359D01*
X178896802Y-105326359D01*
X179070446Y-105746612D01*
X179391697Y-106068423D01*
X179811646Y-106242801D01*
X180266359Y-106243198D01*
X180686612Y-106069554D01*
X181008423Y-105748303D01*
X181015608Y-105731000D01*
X184213632Y-105731000D01*
X185329000Y-106846368D01*
X185329000Y-111791536D01*
X184960000Y-111791536D01*
X184818810Y-111818103D01*
X184689135Y-111901546D01*
X184602141Y-112028866D01*
X184571536Y-112180000D01*
X184571536Y-113880000D01*
X184598103Y-114021190D01*
X184681546Y-114150865D01*
X184808866Y-114237859D01*
X184960000Y-114268464D01*
X186960000Y-114268464D01*
X187101190Y-114241897D01*
X187230865Y-114158454D01*
X187317859Y-114031134D01*
X187348464Y-113880000D01*
X187348464Y-112180000D01*
X187321897Y-112038810D01*
X187238454Y-111909135D01*
X187111134Y-111822141D01*
X186960000Y-111791536D01*
X186591000Y-111791536D01*
X186591000Y-106585000D01*
X186542968Y-106343527D01*
X186542968Y-106343526D01*
X186406184Y-106138816D01*
X184921184Y-104653816D01*
X184716473Y-104517032D01*
X184475000Y-104469000D01*
X181016005Y-104469000D01*
X181009554Y-104453388D01*
X180688303Y-104131577D01*
X180268354Y-103957199D01*
X179813641Y-103956802D01*
X179393388Y-104130446D01*
X179071577Y-104451697D01*
X178897199Y-104871646D01*
X178896802Y-105326359D01*
X169162000Y-105326359D01*
X169162000Y-103378000D01*
X169123483Y-103184362D01*
X169013796Y-103020204D01*
X168485796Y-102492204D01*
X168321638Y-102382517D01*
X168188328Y-102356000D01*
X168442408Y-102356000D01*
X169314204Y-103227796D01*
X169478362Y-103337483D01*
X169672000Y-103376000D01*
X169880073Y-103376000D01*
X169896103Y-103461190D01*
X169979546Y-103590865D01*
X170106866Y-103677859D01*
X170258000Y-103708464D01*
X171458000Y-103708464D01*
X171599190Y-103681897D01*
X171728865Y-103598454D01*
X171815859Y-103471134D01*
X171846464Y-103320000D01*
X171846464Y-102420000D01*
X171819897Y-102278810D01*
X171736454Y-102149135D01*
X171609134Y-102062141D01*
X171458000Y-102031536D01*
X170258000Y-102031536D01*
X170116810Y-102058103D01*
X169987135Y-102141546D01*
X169900141Y-102268866D01*
X169880997Y-102363405D01*
X169117592Y-101600000D01*
X169880314Y-100837278D01*
X169896103Y-100921190D01*
X169979546Y-101050865D01*
X170106866Y-101137859D01*
X170258000Y-101168464D01*
X171458000Y-101168464D01*
X171599190Y-101141897D01*
X171728865Y-101058454D01*
X171815859Y-100931134D01*
X171846464Y-100780000D01*
X171846464Y-99880000D01*
X172069536Y-99880000D01*
X172069536Y-100780000D01*
X172096103Y-100921190D01*
X172179546Y-101050865D01*
X172306866Y-101137859D01*
X172458000Y-101168464D01*
X173658000Y-101168464D01*
X173799190Y-101141897D01*
X173843870Y-101113147D01*
X173843864Y-101119669D01*
X173962514Y-101406823D01*
X174155498Y-101600145D01*
X173963286Y-101792021D01*
X173844136Y-102078968D01*
X173844130Y-102086053D01*
X173809134Y-102062141D01*
X173658000Y-102031536D01*
X172458000Y-102031536D01*
X172316810Y-102058103D01*
X172187135Y-102141546D01*
X172100141Y-102268866D01*
X172069536Y-102420000D01*
X172069536Y-103320000D01*
X172096103Y-103461190D01*
X172179546Y-103590865D01*
X172306866Y-103677859D01*
X172458000Y-103708464D01*
X173658000Y-103708464D01*
X173799190Y-103681897D01*
X173928865Y-103598454D01*
X174015859Y-103471134D01*
X174035003Y-103376595D01*
X175410204Y-104751796D01*
X175574362Y-104861483D01*
X175768000Y-104900000D01*
X178246000Y-104900000D01*
X178439638Y-104861483D01*
X178603796Y-104751796D01*
X179671136Y-103684456D01*
X179811646Y-103742801D01*
X180266359Y-103743198D01*
X180686612Y-103569554D01*
X181008423Y-103248303D01*
X181182801Y-102828354D01*
X181183198Y-102373641D01*
X181009554Y-101953388D01*
X180688303Y-101631577D01*
X180612591Y-101600139D01*
X180686612Y-101569554D01*
X181008423Y-101248303D01*
X181182801Y-100828354D01*
X181183198Y-100373641D01*
X181009554Y-99953388D01*
X180688303Y-99631577D01*
X180268354Y-99457199D01*
X179813641Y-99456802D01*
X179671235Y-99515643D01*
X179328029Y-99172437D01*
X179750080Y-99362008D01*
X180255098Y-99376891D01*
X180727370Y-99197379D01*
X180790801Y-99154996D01*
X180856788Y-98934748D01*
X180040000Y-98117961D01*
X180025858Y-98132103D01*
X180007897Y-98114142D01*
X180022039Y-98100000D01*
X180057961Y-98100000D01*
X180874748Y-98916788D01*
X181094996Y-98850801D01*
X181302008Y-98389920D01*
X181316891Y-97884902D01*
X181137379Y-97412630D01*
X181094996Y-97349199D01*
X180874748Y-97283212D01*
X180057961Y-98100000D01*
X180022039Y-98100000D01*
X179205252Y-97283212D01*
X178985004Y-97349199D01*
X178777992Y-97810080D01*
X178763109Y-98315098D01*
X178942412Y-98786820D01*
X178603796Y-98448204D01*
X178439638Y-98338517D01*
X178246000Y-98300000D01*
X175768000Y-98300000D01*
X175574362Y-98338517D01*
X175410204Y-98448204D01*
X174035686Y-99822722D01*
X174019897Y-99738810D01*
X173936454Y-99609135D01*
X173809134Y-99522141D01*
X173658000Y-99491536D01*
X172458000Y-99491536D01*
X172316810Y-99518103D01*
X172187135Y-99601546D01*
X172100141Y-99728866D01*
X172069536Y-99880000D01*
X171846464Y-99880000D01*
X171819897Y-99738810D01*
X171736454Y-99609135D01*
X171609134Y-99522141D01*
X171458000Y-99491536D01*
X170258000Y-99491536D01*
X170116810Y-99518103D01*
X169987135Y-99601546D01*
X169900141Y-99728866D01*
X169880876Y-99824000D01*
X169722474Y-99824000D01*
X169736000Y-99756000D01*
X169736000Y-99315464D01*
X169830000Y-99315464D01*
X169971190Y-99288897D01*
X170096617Y-99208188D01*
X170099339Y-99214759D01*
X170242242Y-99357662D01*
X170428953Y-99435000D01*
X170990300Y-99435000D01*
X171117300Y-99308000D01*
X171117300Y-98564700D01*
X171142700Y-98564700D01*
X171142700Y-99308000D01*
X171269700Y-99435000D01*
X171831047Y-99435000D01*
X172017758Y-99357662D01*
X172160661Y-99214759D01*
X172238000Y-99028048D01*
X172238000Y-98691700D01*
X172111000Y-98564700D01*
X171142700Y-98564700D01*
X171117300Y-98564700D01*
X171097300Y-98564700D01*
X171097300Y-98539300D01*
X171117300Y-98539300D01*
X171117300Y-97796000D01*
X171142700Y-97796000D01*
X171142700Y-98539300D01*
X172111000Y-98539300D01*
X172238000Y-98412300D01*
X172238000Y-98075952D01*
X172160661Y-97889241D01*
X172017758Y-97746338D01*
X171831047Y-97669000D01*
X171269700Y-97669000D01*
X171142700Y-97796000D01*
X171117300Y-97796000D01*
X170990300Y-97669000D01*
X170428953Y-97669000D01*
X170242242Y-97746338D01*
X170099339Y-97889241D01*
X170095896Y-97897554D01*
X169981134Y-97819141D01*
X169830000Y-97788536D01*
X168630000Y-97788536D01*
X168488810Y-97815103D01*
X168400000Y-97872250D01*
X168400000Y-97198972D01*
X168478866Y-97252859D01*
X168630000Y-97283464D01*
X169830000Y-97283464D01*
X169971190Y-97256897D01*
X170096617Y-97176188D01*
X170099339Y-97182759D01*
X170242242Y-97325662D01*
X170428953Y-97403000D01*
X170990300Y-97403000D01*
X171117300Y-97276000D01*
X171117300Y-96532700D01*
X171142700Y-96532700D01*
X171142700Y-97276000D01*
X171269700Y-97403000D01*
X171831047Y-97403000D01*
X172017758Y-97325662D01*
X172078168Y-97265252D01*
X179223212Y-97265252D01*
X180040000Y-98082039D01*
X180856788Y-97265252D01*
X180790801Y-97045004D01*
X180329920Y-96837992D01*
X179824902Y-96823109D01*
X179352630Y-97002621D01*
X179289199Y-97045004D01*
X179223212Y-97265252D01*
X172078168Y-97265252D01*
X172160661Y-97182759D01*
X172238000Y-96996048D01*
X172238000Y-96659700D01*
X172225379Y-96647079D01*
X181210882Y-96647079D01*
X181397074Y-96969985D01*
X182214910Y-97341556D01*
X183112687Y-97371871D01*
X183953725Y-97056314D01*
X184082926Y-96969985D01*
X184269118Y-96647079D01*
X182740000Y-95117961D01*
X181210882Y-96647079D01*
X172225379Y-96647079D01*
X172111000Y-96532700D01*
X171142700Y-96532700D01*
X171117300Y-96532700D01*
X171097300Y-96532700D01*
X171097300Y-96507300D01*
X171117300Y-96507300D01*
X171117300Y-95764000D01*
X171142700Y-95764000D01*
X171142700Y-96507300D01*
X172111000Y-96507300D01*
X172238000Y-96380300D01*
X172238000Y-96043952D01*
X172160661Y-95857241D01*
X172017758Y-95714338D01*
X171831047Y-95637000D01*
X171269700Y-95637000D01*
X171142700Y-95764000D01*
X171117300Y-95764000D01*
X170990300Y-95637000D01*
X170428953Y-95637000D01*
X170242242Y-95714338D01*
X170099339Y-95857241D01*
X170095896Y-95865554D01*
X169981134Y-95787141D01*
X169830000Y-95756536D01*
X168630000Y-95756536D01*
X168488810Y-95783103D01*
X168359135Y-95866546D01*
X168272141Y-95993866D01*
X168268064Y-96014000D01*
X168148000Y-96014000D01*
X167997251Y-96043986D01*
X168006000Y-96000000D01*
X168006000Y-95472687D01*
X180468129Y-95472687D01*
X180783686Y-96313725D01*
X180870015Y-96442926D01*
X181192921Y-96629118D01*
X182722039Y-95100000D01*
X182757961Y-95100000D01*
X184287079Y-96629118D01*
X184609985Y-96442926D01*
X184981556Y-95625090D01*
X185011871Y-94727313D01*
X184696314Y-93886275D01*
X184609985Y-93757074D01*
X184287079Y-93570882D01*
X182757961Y-95100000D01*
X182722039Y-95100000D01*
X181192921Y-93570882D01*
X180870015Y-93757074D01*
X180498444Y-94574910D01*
X180468129Y-95472687D01*
X168006000Y-95472687D01*
X168006000Y-94000000D01*
X167967483Y-93806362D01*
X167857796Y-93642204D01*
X167307796Y-93092204D01*
X167143638Y-92982517D01*
X166950000Y-92944000D01*
X166938464Y-92944000D01*
X166938464Y-92850000D01*
X166911897Y-92708810D01*
X166853649Y-92618289D01*
X174099672Y-92618289D01*
X174437941Y-93071078D01*
X175707384Y-93650843D01*
X177102063Y-93700681D01*
X177498246Y-93552921D01*
X181210882Y-93552921D01*
X182740000Y-95082039D01*
X184269118Y-93552921D01*
X184082926Y-93230015D01*
X183265090Y-92858444D01*
X182367313Y-92828129D01*
X181526275Y-93143686D01*
X181397074Y-93230015D01*
X181210882Y-93552921D01*
X177498246Y-93552921D01*
X178409650Y-93213005D01*
X178622059Y-93071078D01*
X178960328Y-92618289D01*
X176530000Y-90187961D01*
X174099672Y-92618289D01*
X166853649Y-92618289D01*
X166828454Y-92579135D01*
X166701134Y-92492141D01*
X166550000Y-92461536D01*
X165150000Y-92461536D01*
X165008810Y-92488103D01*
X164879135Y-92571546D01*
X164792141Y-92698866D01*
X164761536Y-92850000D01*
X164761536Y-94050000D01*
X164772629Y-94108951D01*
X164719339Y-94162241D01*
X164712288Y-94179264D01*
X164738464Y-94050000D01*
X164738464Y-92850000D01*
X164711897Y-92708810D01*
X164628454Y-92579135D01*
X164501134Y-92492141D01*
X164350000Y-92461536D01*
X164156000Y-92461536D01*
X164156000Y-92203464D01*
X164242000Y-92203464D01*
X164383190Y-92176897D01*
X164508617Y-92096188D01*
X164511339Y-92102759D01*
X164654242Y-92245662D01*
X164840953Y-92323000D01*
X165402300Y-92323000D01*
X165529300Y-92196000D01*
X165529300Y-91452700D01*
X165554700Y-91452700D01*
X165554700Y-92196000D01*
X165681700Y-92323000D01*
X166243047Y-92323000D01*
X166429758Y-92245662D01*
X166572661Y-92102759D01*
X166650000Y-91916048D01*
X166650000Y-91579700D01*
X166523000Y-91452700D01*
X165554700Y-91452700D01*
X165529300Y-91452700D01*
X165509300Y-91452700D01*
X165509300Y-91427300D01*
X165529300Y-91427300D01*
X165529300Y-90684000D01*
X165554700Y-90684000D01*
X165554700Y-91427300D01*
X166523000Y-91427300D01*
X166650000Y-91300300D01*
X166650000Y-90963952D01*
X166572661Y-90777241D01*
X166537483Y-90742063D01*
X172999319Y-90742063D01*
X173486995Y-92049650D01*
X173628922Y-92262059D01*
X174081711Y-92600328D01*
X176512039Y-90170000D01*
X176547961Y-90170000D01*
X178978289Y-92600328D01*
X179431078Y-92262059D01*
X180010843Y-90992616D01*
X180060681Y-89597937D01*
X179903563Y-89176661D01*
X181482758Y-89176661D01*
X181694990Y-89690303D01*
X182087630Y-90083629D01*
X182600900Y-90296757D01*
X183156661Y-90297242D01*
X183670303Y-90085010D01*
X184063629Y-89692370D01*
X184276757Y-89179100D01*
X184277242Y-88623339D01*
X184065010Y-88109697D01*
X183672370Y-87716371D01*
X183159100Y-87503243D01*
X182603339Y-87502758D01*
X182089697Y-87714990D01*
X181696371Y-88107630D01*
X181483243Y-88620900D01*
X181482758Y-89176661D01*
X179903563Y-89176661D01*
X179573005Y-88290350D01*
X179431078Y-88077941D01*
X178978289Y-87739672D01*
X176547961Y-90170000D01*
X176512039Y-90170000D01*
X174081711Y-87739672D01*
X173628922Y-88077941D01*
X173049157Y-89347384D01*
X172999319Y-90742063D01*
X166537483Y-90742063D01*
X166429758Y-90634338D01*
X166243047Y-90557000D01*
X165681700Y-90557000D01*
X165554700Y-90684000D01*
X165529300Y-90684000D01*
X165402300Y-90557000D01*
X164840953Y-90557000D01*
X164654242Y-90634338D01*
X164511339Y-90777241D01*
X164507896Y-90785554D01*
X164393134Y-90707141D01*
X164242000Y-90676536D01*
X163042000Y-90676536D01*
X162900810Y-90703103D01*
X162771135Y-90786546D01*
X162684141Y-90913866D01*
X162667914Y-90994000D01*
X162500000Y-90994000D01*
X162306362Y-91032517D01*
X162142204Y-91142204D01*
X161040408Y-92244000D01*
X159250000Y-92244000D01*
X159056362Y-92282517D01*
X158892204Y-92392204D01*
X158142204Y-93142204D01*
X158032517Y-93306362D01*
X157994000Y-93500000D01*
X157994000Y-93649536D01*
X157812000Y-93649536D01*
X157670810Y-93676103D01*
X157541135Y-93759546D01*
X157454141Y-93886866D01*
X157434876Y-93982000D01*
X157017927Y-93982000D01*
X157001897Y-93896810D01*
X156918454Y-93767135D01*
X156791134Y-93680141D01*
X156640000Y-93649536D01*
X155440000Y-93649536D01*
X155298810Y-93676103D01*
X155169135Y-93759546D01*
X155082141Y-93886866D01*
X155051536Y-94038000D01*
X155051536Y-94938000D01*
X155078103Y-95079190D01*
X155161546Y-95208865D01*
X155288866Y-95295859D01*
X155440000Y-95326464D01*
X155534000Y-95326464D01*
X155534000Y-95464408D01*
X155217204Y-95781204D01*
X155107517Y-95945362D01*
X155069000Y-96139000D01*
X155069000Y-96292907D01*
X155050135Y-96305046D01*
X154963141Y-96432366D01*
X154940274Y-96545288D01*
X154920897Y-96442310D01*
X154837454Y-96312635D01*
X154811000Y-96294560D01*
X154811000Y-96139000D01*
X154772483Y-95945362D01*
X154662796Y-95781204D01*
X154346000Y-95464408D01*
X154346000Y-95326464D01*
X154440000Y-95326464D01*
X154581190Y-95299897D01*
X154710865Y-95216454D01*
X154797859Y-95089134D01*
X154828464Y-94938000D01*
X154828464Y-94038000D01*
X154801897Y-93896810D01*
X154718454Y-93767135D01*
X154591134Y-93680141D01*
X154440000Y-93649536D01*
X153240000Y-93649536D01*
X153098810Y-93676103D01*
X152969135Y-93759546D01*
X152882141Y-93886866D01*
X152851536Y-94038000D01*
X152851536Y-94938000D01*
X152878103Y-95079190D01*
X152961546Y-95208865D01*
X153088866Y-95295859D01*
X153240000Y-95326464D01*
X153334000Y-95326464D01*
X153334000Y-95674000D01*
X153372517Y-95867638D01*
X153482204Y-96031796D01*
X153770117Y-96319709D01*
X153693141Y-96432366D01*
X153670274Y-96545288D01*
X153650897Y-96442310D01*
X153567454Y-96312635D01*
X153440134Y-96225641D01*
X153289000Y-96195036D01*
X152781000Y-96195036D01*
X152639810Y-96221603D01*
X152510135Y-96305046D01*
X152423141Y-96432366D01*
X152400274Y-96545288D01*
X152380897Y-96442310D01*
X152297454Y-96312635D01*
X152170134Y-96225641D01*
X152019000Y-96195036D01*
X151511000Y-96195036D01*
X151369810Y-96221603D01*
X151240135Y-96305046D01*
X151204885Y-96356636D01*
X151179661Y-96295741D01*
X151036758Y-96152838D01*
X150850047Y-96075500D01*
X150634700Y-96075500D01*
X150507700Y-96202500D01*
X150507700Y-97142300D01*
X150527700Y-97142300D01*
X150527700Y-97167700D01*
X150507700Y-97167700D01*
X150507700Y-98107500D01*
X150634700Y-98234500D01*
X150850047Y-98234500D01*
X151036758Y-98157162D01*
X151179661Y-98014259D01*
X151204629Y-97953981D01*
X151232546Y-97997365D01*
X151359866Y-98084359D01*
X151511000Y-98114964D01*
X152019000Y-98114964D01*
X152160190Y-98088397D01*
X152289865Y-98004954D01*
X152376859Y-97877634D01*
X152399726Y-97764712D01*
X152419103Y-97867690D01*
X152502546Y-97997365D01*
X152529000Y-98015440D01*
X152529000Y-98749023D01*
X152356715Y-98914073D01*
X152118331Y-98913864D01*
X151831177Y-99032514D01*
X151611286Y-99252021D01*
X151492136Y-99538968D01*
X151491864Y-99849272D01*
X150598796Y-98956204D01*
X150434638Y-98846517D01*
X150241000Y-98808000D01*
X137623592Y-98808000D01*
X136110292Y-97294700D01*
X145923000Y-97294700D01*
X145923000Y-97827548D01*
X146000339Y-98014259D01*
X146143242Y-98157162D01*
X146329953Y-98234500D01*
X146545300Y-98234500D01*
X146672300Y-98107500D01*
X146672300Y-97167700D01*
X146697700Y-97167700D01*
X146697700Y-98107500D01*
X146824700Y-98234500D01*
X147040047Y-98234500D01*
X147226758Y-98157162D01*
X147320000Y-98063920D01*
X147413242Y-98157162D01*
X147599953Y-98234500D01*
X147815300Y-98234500D01*
X147942300Y-98107500D01*
X147942300Y-97167700D01*
X146697700Y-97167700D01*
X146672300Y-97167700D01*
X146050000Y-97167700D01*
X145923000Y-97294700D01*
X136110292Y-97294700D01*
X135780877Y-96965285D01*
X135864600Y-96544383D01*
X135864600Y-96495617D01*
X135861982Y-96482452D01*
X145923000Y-96482452D01*
X145923000Y-97015300D01*
X146050000Y-97142300D01*
X146672300Y-97142300D01*
X146672300Y-96202500D01*
X146697700Y-96202500D01*
X146697700Y-97142300D01*
X147942300Y-97142300D01*
X147942300Y-96202500D01*
X147967700Y-96202500D01*
X147967700Y-97142300D01*
X147987700Y-97142300D01*
X147987700Y-97167700D01*
X147967700Y-97167700D01*
X147967700Y-98107500D01*
X148094700Y-98234500D01*
X148310047Y-98234500D01*
X148496758Y-98157162D01*
X148639661Y-98014259D01*
X148664629Y-97953981D01*
X148692546Y-97997365D01*
X148819866Y-98084359D01*
X148971000Y-98114964D01*
X149479000Y-98114964D01*
X149620190Y-98088397D01*
X149749865Y-98004954D01*
X149785115Y-97953364D01*
X149810339Y-98014259D01*
X149953242Y-98157162D01*
X150139953Y-98234500D01*
X150355300Y-98234500D01*
X150482300Y-98107500D01*
X150482300Y-97167700D01*
X150462300Y-97167700D01*
X150462300Y-97142300D01*
X150482300Y-97142300D01*
X150482300Y-96202500D01*
X150355300Y-96075500D01*
X150139953Y-96075500D01*
X149953242Y-96152838D01*
X149810339Y-96295741D01*
X149785371Y-96356019D01*
X149757454Y-96312635D01*
X149630134Y-96225641D01*
X149479000Y-96195036D01*
X148971000Y-96195036D01*
X148829810Y-96221603D01*
X148700135Y-96305046D01*
X148664885Y-96356636D01*
X148639661Y-96295741D01*
X148496758Y-96152838D01*
X148310047Y-96075500D01*
X148094700Y-96075500D01*
X147967700Y-96202500D01*
X147942300Y-96202500D01*
X147815300Y-96075500D01*
X147599953Y-96075500D01*
X147413242Y-96152838D01*
X147320000Y-96246080D01*
X147226758Y-96152838D01*
X147040047Y-96075500D01*
X146824700Y-96075500D01*
X146697700Y-96202500D01*
X146672300Y-96202500D01*
X146545300Y-96075500D01*
X146329953Y-96075500D01*
X146143242Y-96152838D01*
X146000339Y-96295741D01*
X145923000Y-96482452D01*
X135861982Y-96482452D01*
X135769860Y-96019329D01*
X135500065Y-95615552D01*
X135096288Y-95345757D01*
X134620000Y-95251017D01*
X134143712Y-95345757D01*
X133739935Y-95615552D01*
X133470140Y-96019329D01*
X133375400Y-96495617D01*
X133375400Y-96544383D01*
X133470140Y-97020671D01*
X133739935Y-97424448D01*
X134143712Y-97694243D01*
X134620000Y-97788983D01*
X135081577Y-97697169D01*
X137056204Y-99671796D01*
X137220362Y-99781483D01*
X137414000Y-99820000D01*
X150031408Y-99820000D01*
X152529000Y-102317592D01*
X152529000Y-102642907D01*
X152510135Y-102655046D01*
X152423141Y-102782366D01*
X152400274Y-102895288D01*
X152380897Y-102792310D01*
X152297454Y-102662635D01*
X152170134Y-102575641D01*
X152019000Y-102545036D01*
X151511000Y-102545036D01*
X151369810Y-102571603D01*
X151240135Y-102655046D01*
X151153141Y-102782366D01*
X151130274Y-102895288D01*
X151110897Y-102792310D01*
X151027454Y-102662635D01*
X150900134Y-102575641D01*
X150749000Y-102545036D01*
X150241000Y-102545036D01*
X150099810Y-102571603D01*
X149970135Y-102655046D01*
X149883141Y-102782366D01*
X149860274Y-102895288D01*
X149840897Y-102792310D01*
X149757454Y-102662635D01*
X149731000Y-102644560D01*
X149731000Y-100965000D01*
X149692483Y-100771362D01*
X149582796Y-100607204D01*
X148947796Y-99972204D01*
X148783638Y-99862517D01*
X148590000Y-99824000D01*
X136099592Y-99824000D01*
X135780877Y-99505285D01*
X135864600Y-99084383D01*
X135864600Y-99035617D01*
X135769860Y-98559329D01*
X135500065Y-98155552D01*
X135096288Y-97885757D01*
X134620000Y-97791017D01*
X134143712Y-97885757D01*
X133856000Y-98078000D01*
X133856000Y-97790000D01*
X133817483Y-97596362D01*
X133707796Y-97432204D01*
X133240877Y-96965285D01*
X133324600Y-96544383D01*
X133324600Y-96495617D01*
X133229860Y-96019329D01*
X132960065Y-95615552D01*
X132556288Y-95345757D01*
X132080000Y-95251017D01*
X131603712Y-95345757D01*
X131199935Y-95615552D01*
X130930140Y-96019329D01*
X130835400Y-96495617D01*
X130835400Y-96544383D01*
X130930140Y-97020671D01*
X131199935Y-97424448D01*
X131603712Y-97694243D01*
X132080000Y-97788983D01*
X132541577Y-97697169D01*
X132844000Y-97999592D01*
X132844000Y-98078000D01*
X132556288Y-97885757D01*
X132080000Y-97791017D01*
X131603712Y-97885757D01*
X131199935Y-98155552D01*
X130930140Y-98559329D01*
X130835400Y-99035617D01*
X130835400Y-99084383D01*
X130930140Y-99560671D01*
X131199935Y-99964448D01*
X131603712Y-100234243D01*
X132080000Y-100328983D01*
X132556288Y-100234243D01*
X132844000Y-100042000D01*
X132844000Y-100618000D01*
X132556288Y-100425757D01*
X132080000Y-100331017D01*
X131603712Y-100425757D01*
X131199935Y-100695552D01*
X130930140Y-101099329D01*
X130835400Y-101575617D01*
X130835400Y-101624383D01*
X130930140Y-102100671D01*
X131199935Y-102504448D01*
X131603712Y-102774243D01*
X132080000Y-102868983D01*
X132556288Y-102774243D01*
X132860329Y-102571090D01*
X132882517Y-102682638D01*
X132992204Y-102846796D01*
X133373204Y-103227796D01*
X133537362Y-103337483D01*
X133656052Y-103361092D01*
X133470140Y-103639329D01*
X133375400Y-104115617D01*
X133375400Y-104164383D01*
X133470140Y-104640671D01*
X133646091Y-104904000D01*
X133559592Y-104904000D01*
X133240877Y-104585285D01*
X133324600Y-104164383D01*
X133324600Y-104115617D01*
X133229860Y-103639329D01*
X132960065Y-103235552D01*
X132556288Y-102965757D01*
X132080000Y-102871017D01*
X131603712Y-102965757D01*
X131199935Y-103235552D01*
X130930140Y-103639329D01*
X130835400Y-104115617D01*
X130835400Y-104164383D01*
X130930140Y-104640671D01*
X131199935Y-105044448D01*
X131603712Y-105314243D01*
X131765446Y-105346414D01*
X131284102Y-105562935D01*
X130917204Y-105952543D01*
X130727331Y-106452900D01*
X127635000Y-106452900D01*
X127635000Y-92618289D01*
X139809672Y-92618289D01*
X140147941Y-93071078D01*
X141417384Y-93650843D01*
X142812063Y-93700681D01*
X144119650Y-93213005D01*
X144332059Y-93071078D01*
X144670328Y-92618289D01*
X142240000Y-90187961D01*
X139809672Y-92618289D01*
X127635000Y-92618289D01*
X127635000Y-90742063D01*
X138709319Y-90742063D01*
X139196995Y-92049650D01*
X139338922Y-92262059D01*
X139791711Y-92600328D01*
X142222039Y-90170000D01*
X142257961Y-90170000D01*
X144688289Y-92600328D01*
X145141078Y-92262059D01*
X145720843Y-90992616D01*
X145770681Y-89597937D01*
X145283005Y-88290350D01*
X145141078Y-88077941D01*
X144688289Y-87739672D01*
X142257961Y-90170000D01*
X142222039Y-90170000D01*
X139791711Y-87739672D01*
X139338922Y-88077941D01*
X138759157Y-89347384D01*
X138709319Y-90742063D01*
X127635000Y-90742063D01*
X127635000Y-89176661D01*
X135762758Y-89176661D01*
X135974990Y-89690303D01*
X136367630Y-90083629D01*
X136880900Y-90296757D01*
X137436661Y-90297242D01*
X137950303Y-90085010D01*
X138343629Y-89692370D01*
X138556757Y-89179100D01*
X138557242Y-88623339D01*
X138345010Y-88109697D01*
X137957701Y-87721711D01*
X139809672Y-87721711D01*
X142240000Y-90152039D01*
X144670328Y-87721711D01*
X174099672Y-87721711D01*
X176530000Y-90152039D01*
X178960328Y-87721711D01*
X178622059Y-87268922D01*
X177352616Y-86689157D01*
X175957937Y-86639319D01*
X174650350Y-87126995D01*
X174437941Y-87268922D01*
X174099672Y-87721711D01*
X144670328Y-87721711D01*
X144332059Y-87268922D01*
X143062616Y-86689157D01*
X141667937Y-86639319D01*
X140360350Y-87126995D01*
X140147941Y-87268922D01*
X139809672Y-87721711D01*
X137957701Y-87721711D01*
X137952370Y-87716371D01*
X137439100Y-87503243D01*
X136883339Y-87502758D01*
X136369697Y-87714990D01*
X135976371Y-88107630D01*
X135763243Y-88620900D01*
X135762758Y-89176661D01*
X127635000Y-89176661D01*
X127635000Y-87726835D01*
X130731125Y-87726835D01*
X130886902Y-88023766D01*
X131614416Y-88353698D01*
X132412812Y-88380109D01*
X133160540Y-88098976D01*
X133273098Y-88023766D01*
X133428875Y-87726835D01*
X132080000Y-86377961D01*
X130731125Y-87726835D01*
X127635000Y-87726835D01*
X127635000Y-86692812D01*
X130059891Y-86692812D01*
X130341024Y-87440540D01*
X130416234Y-87553098D01*
X130713165Y-87708875D01*
X132062039Y-86360000D01*
X132097961Y-86360000D01*
X133446835Y-87708875D01*
X133743766Y-87553098D01*
X134073698Y-86825584D01*
X134100109Y-86027188D01*
X133818976Y-85279460D01*
X133743766Y-85166902D01*
X133446835Y-85011125D01*
X132097961Y-86360000D01*
X132062039Y-86360000D01*
X130713165Y-85011125D01*
X130416234Y-85166902D01*
X130086302Y-85894416D01*
X130059891Y-86692812D01*
X127635000Y-86692812D01*
X127635000Y-84455000D01*
X131441033Y-84455000D01*
X130999460Y-84621024D01*
X130999460Y-84621024D01*
G37*
X130999460Y-84621024D02*
X130886902Y-84696234D01*
X130731125Y-84993165D01*
X132080000Y-86342039D01*
X133428875Y-84993165D01*
X133273098Y-84696234D01*
X132741167Y-84455000D01*
X192405000Y-84455000D01*
X192405000Y-118745000D01*
X127635000Y-118745000D01*
X127635000Y-115478289D01*
X139809672Y-115478289D01*
X140147941Y-115931078D01*
X141417384Y-116510843D01*
X142812063Y-116560681D01*
X143731684Y-116217700D01*
X146511010Y-116217700D01*
X146511010Y-117529058D01*
X146588349Y-117715769D01*
X146731252Y-117858672D01*
X146917963Y-117936010D01*
X148879560Y-117936010D01*
X149006560Y-117809010D01*
X149006560Y-116090700D01*
X149031960Y-116090700D01*
X149031960Y-117809010D01*
X149158960Y-117936010D01*
X151120557Y-117936010D01*
X151307268Y-117858672D01*
X151450171Y-117715769D01*
X151527510Y-117529058D01*
X151527510Y-116486669D01*
X152126864Y-116486669D01*
X152245514Y-116773823D01*
X152465021Y-116993714D01*
X152751968Y-117112864D01*
X153062669Y-117113136D01*
X153349823Y-116994486D01*
X153381364Y-116963000D01*
X154408026Y-116963000D01*
X154408026Y-117428010D01*
X154434593Y-117569200D01*
X154518036Y-117698875D01*
X154645356Y-117785869D01*
X154796490Y-117816474D01*
X158796990Y-117816474D01*
X158938180Y-117789907D01*
X159067855Y-117706464D01*
X159154849Y-117579144D01*
X159185454Y-117428010D01*
X159185454Y-116994669D01*
X180193864Y-116994669D01*
X180312514Y-117281823D01*
X180532021Y-117501714D01*
X180818968Y-117620864D01*
X181129669Y-117621136D01*
X181145245Y-117614700D01*
X185902000Y-117614700D01*
X185902000Y-117951048D01*
X185979339Y-118137759D01*
X186122242Y-118280662D01*
X186308953Y-118358000D01*
X186870300Y-118358000D01*
X186997300Y-118231000D01*
X186997300Y-117487700D01*
X186029000Y-117487700D01*
X185902000Y-117614700D01*
X181145245Y-117614700D01*
X181416823Y-117502486D01*
X181448364Y-117471000D01*
X183515000Y-117471000D01*
X183756473Y-117422968D01*
X183961184Y-117286184D01*
X184248416Y-116998952D01*
X185902000Y-116998952D01*
X185902000Y-117335300D01*
X186029000Y-117462300D01*
X186997300Y-117462300D01*
X186997300Y-116719000D01*
X186870300Y-116592000D01*
X186308953Y-116592000D01*
X186122242Y-116669338D01*
X185979339Y-116812241D01*
X185902000Y-116998952D01*
X184248416Y-116998952D01*
X185046369Y-116201000D01*
X186121981Y-116201000D01*
X186131546Y-116215865D01*
X186258866Y-116302859D01*
X186410000Y-116333464D01*
X187610000Y-116333464D01*
X187751190Y-116306897D01*
X187880865Y-116223454D01*
X187960980Y-116106202D01*
X188031546Y-116215865D01*
X188158866Y-116302859D01*
X188310000Y-116333464D01*
X188404000Y-116333464D01*
X188404000Y-116711536D01*
X188310000Y-116711536D01*
X188168810Y-116738103D01*
X188043383Y-116818812D01*
X188040661Y-116812241D01*
X187897758Y-116669338D01*
X187711047Y-116592000D01*
X187149700Y-116592000D01*
X187022700Y-116719000D01*
X187022700Y-117462300D01*
X187042700Y-117462300D01*
X187042700Y-117487700D01*
X187022700Y-117487700D01*
X187022700Y-118231000D01*
X187149700Y-118358000D01*
X187711047Y-118358000D01*
X187897758Y-118280662D01*
X188040661Y-118137759D01*
X188044104Y-118129446D01*
X188158866Y-118207859D01*
X188310000Y-118238464D01*
X189510000Y-118238464D01*
X189651190Y-118211897D01*
X189780865Y-118128454D01*
X189867859Y-118001134D01*
X189898464Y-117850000D01*
X189898464Y-117100000D01*
X189871897Y-116958810D01*
X189788454Y-116829135D01*
X189661134Y-116742141D01*
X189510000Y-116711536D01*
X189416000Y-116711536D01*
X189416000Y-116333464D01*
X189510000Y-116333464D01*
X189651190Y-116306897D01*
X189780865Y-116223454D01*
X189867859Y-116096134D01*
X189898464Y-115945000D01*
X189898464Y-115793904D01*
X190406184Y-115286184D01*
X190542968Y-115081473D01*
X190591000Y-114840000D01*
X190591000Y-114268464D01*
X190960000Y-114268464D01*
X191101190Y-114241897D01*
X191230865Y-114158454D01*
X191317859Y-114031134D01*
X191348464Y-113880000D01*
X191348464Y-112180000D01*
X191321897Y-112038810D01*
X191238454Y-111909135D01*
X191111134Y-111822141D01*
X190960000Y-111791536D01*
X188960000Y-111791536D01*
X188818810Y-111818103D01*
X188689135Y-111901546D01*
X188602141Y-112028866D01*
X188571536Y-112180000D01*
X188571536Y-113880000D01*
X188598103Y-114021190D01*
X188681546Y-114150865D01*
X188808866Y-114237859D01*
X188960000Y-114268464D01*
X189329000Y-114268464D01*
X189329000Y-114578632D01*
X189101096Y-114806536D01*
X188310000Y-114806536D01*
X188168810Y-114833103D01*
X188039135Y-114916546D01*
X187959020Y-115033798D01*
X187888454Y-114924135D01*
X187761134Y-114837141D01*
X187610000Y-114806536D01*
X186410000Y-114806536D01*
X186268810Y-114833103D01*
X186139135Y-114916546D01*
X186123793Y-114939000D01*
X184785000Y-114939000D01*
X184583589Y-114979063D01*
X184543526Y-114987032D01*
X184338815Y-115123816D01*
X183253632Y-116209000D01*
X181448639Y-116209000D01*
X181417979Y-116178286D01*
X181131032Y-116059136D01*
X180820331Y-116058864D01*
X180533177Y-116177514D01*
X180313286Y-116397021D01*
X180194136Y-116683968D01*
X180193864Y-116994669D01*
X159185454Y-116994669D01*
X159185454Y-116709000D01*
X160523720Y-116709000D01*
X160581546Y-116798865D01*
X160708866Y-116885859D01*
X160860000Y-116916464D01*
X162060000Y-116916464D01*
X162201190Y-116889897D01*
X162330865Y-116806454D01*
X162417859Y-116679134D01*
X162448464Y-116528000D01*
X162448464Y-115628000D01*
X162671536Y-115628000D01*
X162671536Y-116528000D01*
X162698103Y-116669190D01*
X162781546Y-116798865D01*
X162908866Y-116885859D01*
X163060000Y-116916464D01*
X164260000Y-116916464D01*
X164401190Y-116889897D01*
X164530865Y-116806454D01*
X164617859Y-116679134D01*
X164637124Y-116584000D01*
X168012186Y-116584000D01*
X168014103Y-116594190D01*
X168097546Y-116723865D01*
X168224866Y-116810859D01*
X168376000Y-116841464D01*
X169576000Y-116841464D01*
X169717190Y-116814897D01*
X169842617Y-116734188D01*
X169845339Y-116740759D01*
X169988242Y-116883662D01*
X170174953Y-116961000D01*
X170736300Y-116961000D01*
X170863300Y-116834000D01*
X170863300Y-116090700D01*
X170888700Y-116090700D01*
X170888700Y-116834000D01*
X171015700Y-116961000D01*
X171577047Y-116961000D01*
X171763758Y-116883662D01*
X171906661Y-116740759D01*
X171984000Y-116554048D01*
X171984000Y-116217700D01*
X171857000Y-116090700D01*
X170888700Y-116090700D01*
X170863300Y-116090700D01*
X170843300Y-116090700D01*
X170843300Y-116065300D01*
X170863300Y-116065300D01*
X170863300Y-115322000D01*
X170888700Y-115322000D01*
X170888700Y-116065300D01*
X171857000Y-116065300D01*
X171984000Y-115938300D01*
X171984000Y-115601952D01*
X171932777Y-115478289D01*
X174099672Y-115478289D01*
X174437941Y-115931078D01*
X175707384Y-116510843D01*
X177102063Y-116560681D01*
X178409650Y-116073005D01*
X178622059Y-115931078D01*
X178960328Y-115478289D01*
X176530000Y-113047961D01*
X174099672Y-115478289D01*
X171932777Y-115478289D01*
X171906661Y-115415241D01*
X171763758Y-115272338D01*
X171577047Y-115195000D01*
X171015700Y-115195000D01*
X170888700Y-115322000D01*
X170863300Y-115322000D01*
X170736300Y-115195000D01*
X170174953Y-115195000D01*
X169988242Y-115272338D01*
X169845339Y-115415241D01*
X169841896Y-115423554D01*
X169727134Y-115345141D01*
X169576000Y-115314536D01*
X168376000Y-115314536D01*
X168234810Y-115341103D01*
X168105135Y-115424546D01*
X168018141Y-115551866D01*
X168014064Y-115572000D01*
X167572000Y-115572000D01*
X167572000Y-114742280D01*
X167661865Y-114684454D01*
X167748859Y-114557134D01*
X167779464Y-114406000D01*
X167779464Y-113602063D01*
X172999319Y-113602063D01*
X173486995Y-114909650D01*
X173628922Y-115122059D01*
X174081711Y-115460328D01*
X176512039Y-113030000D01*
X176547961Y-113030000D01*
X178978289Y-115460328D01*
X179431078Y-115122059D01*
X180010843Y-113852616D01*
X180060681Y-112457937D01*
X179573005Y-111150350D01*
X179431078Y-110937941D01*
X178978289Y-110599672D01*
X176547961Y-113030000D01*
X176512039Y-113030000D01*
X174081711Y-110599672D01*
X173628922Y-110937941D01*
X173049157Y-112207384D01*
X172999319Y-113602063D01*
X167779464Y-113602063D01*
X167779464Y-113346000D01*
X167752897Y-113204810D01*
X167669454Y-113075135D01*
X167542134Y-112988141D01*
X167391000Y-112957536D01*
X166770956Y-112957536D01*
X166728759Y-112915339D01*
X166542048Y-112838000D01*
X166255700Y-112838000D01*
X166128700Y-112965000D01*
X166128700Y-113863300D01*
X166148700Y-113863300D01*
X166148700Y-113888700D01*
X166128700Y-113888700D01*
X166128700Y-114787000D01*
X166255700Y-114914000D01*
X166542048Y-114914000D01*
X166560000Y-114906564D01*
X166560000Y-115572000D01*
X164637927Y-115572000D01*
X164621897Y-115486810D01*
X164538454Y-115357135D01*
X164411134Y-115270141D01*
X164260000Y-115239536D01*
X163060000Y-115239536D01*
X162918810Y-115266103D01*
X162789135Y-115349546D01*
X162702141Y-115476866D01*
X162671536Y-115628000D01*
X162448464Y-115628000D01*
X162421897Y-115486810D01*
X162338454Y-115357135D01*
X162211134Y-115270141D01*
X162091000Y-115245814D01*
X162091000Y-115153368D01*
X162737368Y-114507000D01*
X164471541Y-114507000D01*
X164479103Y-114547190D01*
X164562546Y-114676865D01*
X164689866Y-114763859D01*
X164841000Y-114794464D01*
X165461044Y-114794464D01*
X165503241Y-114836661D01*
X165689952Y-114914000D01*
X165976300Y-114914000D01*
X166103300Y-114787000D01*
X166103300Y-113888700D01*
X166083300Y-113888700D01*
X166083300Y-113863300D01*
X166103300Y-113863300D01*
X166103300Y-112965000D01*
X165976300Y-112838000D01*
X165689952Y-112838000D01*
X165503241Y-112915339D01*
X165461044Y-112957536D01*
X164841000Y-112957536D01*
X164699810Y-112984103D01*
X164570135Y-113067546D01*
X164483141Y-113194866D01*
X164472989Y-113245000D01*
X162476000Y-113245000D01*
X162234527Y-113293032D01*
X162029816Y-113429816D01*
X161013816Y-114445816D01*
X160877032Y-114650527D01*
X160829000Y-114892000D01*
X160829000Y-115245369D01*
X160718810Y-115266103D01*
X160589135Y-115349546D01*
X160522548Y-115447000D01*
X159185454Y-115447000D01*
X159185454Y-114727990D01*
X159158887Y-114586800D01*
X159075444Y-114457125D01*
X158948124Y-114370131D01*
X158796990Y-114339526D01*
X154796490Y-114339526D01*
X154655300Y-114366093D01*
X154525625Y-114449536D01*
X154438631Y-114576856D01*
X154408026Y-114727990D01*
X154408026Y-115701000D01*
X153381639Y-115701000D01*
X153350979Y-115670286D01*
X153064032Y-115551136D01*
X152753331Y-115550864D01*
X152466177Y-115669514D01*
X152246286Y-115889021D01*
X152127136Y-116175968D01*
X152126864Y-116486669D01*
X151527510Y-116486669D01*
X151527510Y-116217700D01*
X151400510Y-116090700D01*
X149031960Y-116090700D01*
X149006560Y-116090700D01*
X146638010Y-116090700D01*
X146511010Y-116217700D01*
X143731684Y-116217700D01*
X144119650Y-116073005D01*
X144332059Y-115931078D01*
X144670328Y-115478289D01*
X142240000Y-113047961D01*
X139809672Y-115478289D01*
X127635000Y-115478289D01*
X127635000Y-113602063D01*
X138709319Y-113602063D01*
X139196995Y-114909650D01*
X139338922Y-115122059D01*
X139791711Y-115460328D01*
X142222039Y-113030000D01*
X142257961Y-113030000D01*
X144688289Y-115460328D01*
X145141078Y-115122059D01*
X145367201Y-114626942D01*
X146511010Y-114626942D01*
X146511010Y-115938300D01*
X146638010Y-116065300D01*
X149006560Y-116065300D01*
X149006560Y-114346990D01*
X149031960Y-114346990D01*
X149031960Y-116065300D01*
X151400510Y-116065300D01*
X151527510Y-115938300D01*
X151527510Y-114626942D01*
X151450171Y-114440231D01*
X151307268Y-114297328D01*
X151120557Y-114219990D01*
X149158960Y-114219990D01*
X149031960Y-114346990D01*
X149006560Y-114346990D01*
X148879560Y-114219990D01*
X146917963Y-114219990D01*
X146731252Y-114297328D01*
X146588349Y-114440231D01*
X146511010Y-114626942D01*
X145367201Y-114626942D01*
X145720843Y-113852616D01*
X145770681Y-112457937D01*
X145283005Y-111150350D01*
X145274553Y-111137700D01*
X146511010Y-111137700D01*
X146511010Y-112449058D01*
X146588349Y-112635769D01*
X146731252Y-112778672D01*
X146917963Y-112856010D01*
X148879560Y-112856010D01*
X149006560Y-112729010D01*
X149006560Y-111010700D01*
X149031960Y-111010700D01*
X149031960Y-112729010D01*
X149158960Y-112856010D01*
X151120557Y-112856010D01*
X151307268Y-112778672D01*
X151450171Y-112635769D01*
X151527510Y-112449058D01*
X151527510Y-111406669D01*
X152126864Y-111406669D01*
X152245514Y-111693823D01*
X152465021Y-111913714D01*
X152751968Y-112032864D01*
X153062669Y-112033136D01*
X153349823Y-111914486D01*
X153506583Y-111758000D01*
X154408026Y-111758000D01*
X154408026Y-112348010D01*
X154434593Y-112489200D01*
X154518036Y-112618875D01*
X154645356Y-112705869D01*
X154796490Y-112736474D01*
X158796990Y-112736474D01*
X158938180Y-112709907D01*
X159067855Y-112626464D01*
X159154849Y-112499144D01*
X159185454Y-112348010D01*
X159185454Y-112182000D01*
X164452536Y-112182000D01*
X164452536Y-112206000D01*
X164479103Y-112347190D01*
X164562546Y-112476865D01*
X164689866Y-112563859D01*
X164841000Y-112594464D01*
X165491000Y-112594464D01*
X165632190Y-112567897D01*
X165761865Y-112484454D01*
X165848859Y-112357134D01*
X165879464Y-112206000D01*
X165879464Y-111146000D01*
X166352536Y-111146000D01*
X166352536Y-112206000D01*
X166379103Y-112347190D01*
X166462546Y-112476865D01*
X166589866Y-112563859D01*
X166741000Y-112594464D01*
X167391000Y-112594464D01*
X167532190Y-112567897D01*
X167661865Y-112484454D01*
X167748859Y-112357134D01*
X167779464Y-112206000D01*
X167779464Y-111146000D01*
X167752897Y-111004810D01*
X167669454Y-110875135D01*
X167542134Y-110788141D01*
X167391000Y-110757536D01*
X166741000Y-110757536D01*
X166599810Y-110784103D01*
X166470135Y-110867546D01*
X166383141Y-110994866D01*
X166352536Y-111146000D01*
X165879464Y-111146000D01*
X165852897Y-111004810D01*
X165769454Y-110875135D01*
X165642134Y-110788141D01*
X165491000Y-110757536D01*
X164841000Y-110757536D01*
X164699810Y-110784103D01*
X164570135Y-110867546D01*
X164483141Y-110994866D01*
X164452536Y-111146000D01*
X164452536Y-111170000D01*
X159185454Y-111170000D01*
X159185454Y-109647990D01*
X159158887Y-109506800D01*
X159075444Y-109377125D01*
X158948124Y-109290131D01*
X158796990Y-109259526D01*
X154796490Y-109259526D01*
X154655300Y-109286093D01*
X154525625Y-109369536D01*
X154438631Y-109496856D01*
X154408026Y-109647990D01*
X154408026Y-110746000D01*
X153506421Y-110746000D01*
X153350979Y-110590286D01*
X153064032Y-110471136D01*
X152753331Y-110470864D01*
X152466177Y-110589514D01*
X152246286Y-110809021D01*
X152127136Y-111095968D01*
X152126864Y-111406669D01*
X151527510Y-111406669D01*
X151527510Y-111137700D01*
X151400510Y-111010700D01*
X149031960Y-111010700D01*
X149006560Y-111010700D01*
X146638010Y-111010700D01*
X146511010Y-111137700D01*
X145274553Y-111137700D01*
X145141078Y-110937941D01*
X144688289Y-110599672D01*
X142257961Y-113030000D01*
X142222039Y-113030000D01*
X139791711Y-110599672D01*
X139338922Y-110937941D01*
X138759157Y-112207384D01*
X138709319Y-113602063D01*
X127635000Y-113602063D01*
X127635000Y-110581711D01*
X139809672Y-110581711D01*
X142240000Y-113012039D01*
X144670328Y-110581711D01*
X144332059Y-110128922D01*
X143062616Y-109549157D01*
X143000631Y-109546942D01*
X146511010Y-109546942D01*
X146511010Y-110858300D01*
X146638010Y-110985300D01*
X149006560Y-110985300D01*
X149006560Y-109266990D01*
X149031960Y-109266990D01*
X149031960Y-110985300D01*
X151400510Y-110985300D01*
X151527510Y-110858300D01*
X151527510Y-109546942D01*
X151450171Y-109360231D01*
X151307268Y-109217328D01*
X151120557Y-109139990D01*
X149158960Y-109139990D01*
X149031960Y-109266990D01*
X149006560Y-109266990D01*
X148879560Y-109139990D01*
X146917963Y-109139990D01*
X146731252Y-109217328D01*
X146588349Y-109360231D01*
X146511010Y-109546942D01*
X143000631Y-109546942D01*
X141667937Y-109499319D01*
X140360350Y-109986995D01*
X140147941Y-110128922D01*
X139809672Y-110581711D01*
X127635000Y-110581711D01*
X127635000Y-106907100D01*
X130727331Y-106907100D01*
X130917204Y-107407457D01*
X131284102Y-107797065D01*
X131772168Y-108016610D01*
X131852900Y-108032668D01*
X132067300Y-107924535D01*
X132067300Y-106692700D01*
X130835458Y-106692700D01*
X130727331Y-106907100D01*
X127635000Y-106907100D01*
X127635000Y-106452900D01*
X130727331Y-106452900D01*
X130835458Y-106667300D01*
X132067300Y-106667300D01*
X132067300Y-106647300D01*
X132092700Y-106647300D01*
X132092700Y-106667300D01*
X132112700Y-106667300D01*
X132112700Y-106692700D01*
X132092700Y-106692700D01*
X132092700Y-107924535D01*
X132307100Y-108032668D01*
X132387832Y-108016610D01*
X132875898Y-107797065D01*
X133242796Y-107407457D01*
X133367936Y-107077686D01*
X133367936Y-107543600D01*
X133394503Y-107684790D01*
X133477946Y-107814465D01*
X133605266Y-107901459D01*
X133756400Y-107932064D01*
X135483600Y-107932064D01*
X135624790Y-107905497D01*
X135754465Y-107822054D01*
X135841459Y-107694734D01*
X135872064Y-107543600D01*
X135872064Y-105916000D01*
X135934408Y-105916000D01*
X138580204Y-108561796D01*
X138744362Y-108671483D01*
X138938000Y-108710000D01*
X143972073Y-108710000D01*
X143988103Y-108795190D01*
X144071546Y-108924865D01*
X144198866Y-109011859D01*
X144350000Y-109042464D01*
X145550000Y-109042464D01*
X145691190Y-109015897D01*
X145820865Y-108932454D01*
X145907859Y-108805134D01*
X145938464Y-108654000D01*
X145938464Y-107754000D01*
X145911897Y-107612810D01*
X145828454Y-107483135D01*
X145701134Y-107396141D01*
X145550000Y-107365536D01*
X144350000Y-107365536D01*
X144208810Y-107392103D01*
X144079135Y-107475546D01*
X143992141Y-107602866D01*
X143972876Y-107698000D01*
X139147592Y-107698000D01*
X136501796Y-105052204D01*
X136337638Y-104942517D01*
X136144000Y-104904000D01*
X135593909Y-104904000D01*
X135769860Y-104640671D01*
X135864600Y-104164383D01*
X135864600Y-104115617D01*
X135769860Y-103639329D01*
X135593909Y-103376000D01*
X138474408Y-103376000D01*
X139364000Y-104265592D01*
X139364000Y-105841536D01*
X139270000Y-105841536D01*
X139128810Y-105868103D01*
X138999135Y-105951546D01*
X138912141Y-106078866D01*
X138881536Y-106230000D01*
X138881536Y-107130000D01*
X138908103Y-107271190D01*
X138991546Y-107400865D01*
X139118866Y-107487859D01*
X139270000Y-107518464D01*
X140470000Y-107518464D01*
X140611190Y-107491897D01*
X140740865Y-107408454D01*
X140827859Y-107281134D01*
X140858464Y-107130000D01*
X140858464Y-106230000D01*
X140831897Y-106088810D01*
X140748454Y-105959135D01*
X140621134Y-105872141D01*
X140470000Y-105841536D01*
X140376000Y-105841536D01*
X140376000Y-104056000D01*
X140337483Y-103862362D01*
X140227796Y-103698204D01*
X139041796Y-102512204D01*
X138877638Y-102402517D01*
X138684000Y-102364000D01*
X135593909Y-102364000D01*
X135766299Y-102106000D01*
X142665408Y-102106000D01*
X144422204Y-103862796D01*
X144586362Y-103972483D01*
X144780000Y-104011000D01*
X146042536Y-104011000D01*
X146042536Y-104076500D01*
X146069103Y-104217690D01*
X146152546Y-104347365D01*
X146279866Y-104434359D01*
X146431000Y-104464964D01*
X146939000Y-104464964D01*
X147080190Y-104438397D01*
X147209865Y-104354954D01*
X147296859Y-104227634D01*
X147319726Y-104114712D01*
X147339103Y-104217690D01*
X147422546Y-104347365D01*
X147449000Y-104365440D01*
X147449000Y-104811579D01*
X147293286Y-104967021D01*
X147174136Y-105253968D01*
X147173864Y-105564669D01*
X147292514Y-105851823D01*
X147512021Y-106071714D01*
X147758355Y-106174000D01*
X143047927Y-106174000D01*
X143031897Y-106088810D01*
X142948454Y-105959135D01*
X142821134Y-105872141D01*
X142670000Y-105841536D01*
X141470000Y-105841536D01*
X141328810Y-105868103D01*
X141199135Y-105951546D01*
X141112141Y-106078866D01*
X141081536Y-106230000D01*
X141081536Y-107130000D01*
X141108103Y-107271190D01*
X141191546Y-107400865D01*
X141318866Y-107487859D01*
X141470000Y-107518464D01*
X142670000Y-107518464D01*
X142811190Y-107491897D01*
X142940865Y-107408454D01*
X143027859Y-107281134D01*
X143047124Y-107186000D01*
X149374646Y-107186000D01*
X149333136Y-107285968D01*
X149332864Y-107596669D01*
X149374733Y-107698000D01*
X148127927Y-107698000D01*
X148111897Y-107612810D01*
X148028454Y-107483135D01*
X147901134Y-107396141D01*
X147750000Y-107365536D01*
X146550000Y-107365536D01*
X146408810Y-107392103D01*
X146279135Y-107475546D01*
X146192141Y-107602866D01*
X146161536Y-107754000D01*
X146161536Y-108654000D01*
X146188103Y-108795190D01*
X146271546Y-108924865D01*
X146398866Y-109011859D01*
X146550000Y-109042464D01*
X147750000Y-109042464D01*
X147891190Y-109015897D01*
X148020865Y-108932454D01*
X148107859Y-108805134D01*
X148127124Y-108710000D01*
X158794408Y-108710000D01*
X159662204Y-109577796D01*
X159826362Y-109687483D01*
X160020000Y-109726000D01*
X165862000Y-109726000D01*
X166055638Y-109687483D01*
X166219796Y-109577796D01*
X166300931Y-109496661D01*
X168782758Y-109496661D01*
X168994990Y-110010303D01*
X169387630Y-110403629D01*
X169900900Y-110616757D01*
X170456661Y-110617242D01*
X170542652Y-110581711D01*
X174099672Y-110581711D01*
X176530000Y-113012039D01*
X178960328Y-110581711D01*
X178622059Y-110128922D01*
X177567025Y-109647079D01*
X181210882Y-109647079D01*
X181397074Y-109969985D01*
X182214910Y-110341556D01*
X183112687Y-110371871D01*
X183953725Y-110056314D01*
X184082926Y-109969985D01*
X184269118Y-109647079D01*
X182740000Y-108117961D01*
X181210882Y-109647079D01*
X177567025Y-109647079D01*
X177352616Y-109549157D01*
X175957937Y-109499319D01*
X174650350Y-109986995D01*
X174437941Y-110128922D01*
X174099672Y-110581711D01*
X170542652Y-110581711D01*
X170970303Y-110405010D01*
X171363629Y-110012370D01*
X171576757Y-109499100D01*
X171577242Y-108943339D01*
X171382774Y-108472687D01*
X180468129Y-108472687D01*
X180783686Y-109313725D01*
X180870015Y-109442926D01*
X181192921Y-109629118D01*
X182722039Y-108100000D01*
X182757961Y-108100000D01*
X184287079Y-109629118D01*
X184609985Y-109442926D01*
X184981556Y-108625090D01*
X185011871Y-107727313D01*
X184696314Y-106886275D01*
X184609985Y-106757074D01*
X184287079Y-106570882D01*
X182757961Y-108100000D01*
X182722039Y-108100000D01*
X181192921Y-106570882D01*
X180870015Y-106757074D01*
X180498444Y-107574910D01*
X180468129Y-108472687D01*
X171382774Y-108472687D01*
X171365010Y-108429697D01*
X170972370Y-108036371D01*
X170459100Y-107823243D01*
X169903339Y-107822758D01*
X169389697Y-108034990D01*
X168996371Y-108427630D01*
X168783243Y-108940900D01*
X168782758Y-109496661D01*
X166300931Y-109496661D01*
X169013796Y-106783796D01*
X169038624Y-106746638D01*
X169123483Y-106619638D01*
X169136753Y-106552921D01*
X181210882Y-106552921D01*
X182740000Y-108082039D01*
X184269118Y-106552921D01*
X184082926Y-106230015D01*
X183265090Y-105858444D01*
X182367313Y-105828129D01*
X181526275Y-106143686D01*
X181397074Y-106230015D01*
X181210882Y-106552921D01*
X169136753Y-106552921D01*
X169162000Y-106426000D01*
X169162000Y-105326359D01*
X178896802Y-105326359D01*
X179070446Y-105746612D01*
X179391697Y-106068423D01*
X179811646Y-106242801D01*
X180266359Y-106243198D01*
X180686612Y-106069554D01*
X181008423Y-105748303D01*
X181015608Y-105731000D01*
X184213632Y-105731000D01*
X185329000Y-106846368D01*
X185329000Y-111791536D01*
X184960000Y-111791536D01*
X184818810Y-111818103D01*
X184689135Y-111901546D01*
X184602141Y-112028866D01*
X184571536Y-112180000D01*
X184571536Y-113880000D01*
X184598103Y-114021190D01*
X184681546Y-114150865D01*
X184808866Y-114237859D01*
X184960000Y-114268464D01*
X186960000Y-114268464D01*
X187101190Y-114241897D01*
X187230865Y-114158454D01*
X187317859Y-114031134D01*
X187348464Y-113880000D01*
X187348464Y-112180000D01*
X187321897Y-112038810D01*
X187238454Y-111909135D01*
X187111134Y-111822141D01*
X186960000Y-111791536D01*
X186591000Y-111791536D01*
X186591000Y-106585000D01*
X186542968Y-106343527D01*
X186542968Y-106343526D01*
X186406184Y-106138816D01*
X184921184Y-104653816D01*
X184716473Y-104517032D01*
X184475000Y-104469000D01*
X181016005Y-104469000D01*
X181009554Y-104453388D01*
X180688303Y-104131577D01*
X180268354Y-103957199D01*
X179813641Y-103956802D01*
X179393388Y-104130446D01*
X179071577Y-104451697D01*
X178897199Y-104871646D01*
X178896802Y-105326359D01*
X169162000Y-105326359D01*
X169162000Y-103378000D01*
X169123483Y-103184362D01*
X169013796Y-103020204D01*
X168485796Y-102492204D01*
X168321638Y-102382517D01*
X168188328Y-102356000D01*
X168442408Y-102356000D01*
X169314204Y-103227796D01*
X169478362Y-103337483D01*
X169672000Y-103376000D01*
X169880073Y-103376000D01*
X169896103Y-103461190D01*
X169979546Y-103590865D01*
X170106866Y-103677859D01*
X170258000Y-103708464D01*
X171458000Y-103708464D01*
X171599190Y-103681897D01*
X171728865Y-103598454D01*
X171815859Y-103471134D01*
X171846464Y-103320000D01*
X171846464Y-102420000D01*
X171819897Y-102278810D01*
X171736454Y-102149135D01*
X171609134Y-102062141D01*
X171458000Y-102031536D01*
X170258000Y-102031536D01*
X170116810Y-102058103D01*
X169987135Y-102141546D01*
X169900141Y-102268866D01*
X169880997Y-102363405D01*
X169117592Y-101600000D01*
X169880314Y-100837278D01*
X169896103Y-100921190D01*
X169979546Y-101050865D01*
X170106866Y-101137859D01*
X170258000Y-101168464D01*
X171458000Y-101168464D01*
X171599190Y-101141897D01*
X171728865Y-101058454D01*
X171815859Y-100931134D01*
X171846464Y-100780000D01*
X171846464Y-99880000D01*
X172069536Y-99880000D01*
X172069536Y-100780000D01*
X172096103Y-100921190D01*
X172179546Y-101050865D01*
X172306866Y-101137859D01*
X172458000Y-101168464D01*
X173658000Y-101168464D01*
X173799190Y-101141897D01*
X173843870Y-101113147D01*
X173843864Y-101119669D01*
X173962514Y-101406823D01*
X174155498Y-101600145D01*
X173963286Y-101792021D01*
X173844136Y-102078968D01*
X173844130Y-102086053D01*
X173809134Y-102062141D01*
X173658000Y-102031536D01*
X172458000Y-102031536D01*
X172316810Y-102058103D01*
X172187135Y-102141546D01*
X172100141Y-102268866D01*
X172069536Y-102420000D01*
X172069536Y-103320000D01*
X172096103Y-103461190D01*
X172179546Y-103590865D01*
X172306866Y-103677859D01*
X172458000Y-103708464D01*
X173658000Y-103708464D01*
X173799190Y-103681897D01*
X173928865Y-103598454D01*
X174015859Y-103471134D01*
X174035003Y-103376595D01*
X175410204Y-104751796D01*
X175574362Y-104861483D01*
X175768000Y-104900000D01*
X178246000Y-104900000D01*
X178439638Y-104861483D01*
X178603796Y-104751796D01*
X179671136Y-103684456D01*
X179811646Y-103742801D01*
X180266359Y-103743198D01*
X180686612Y-103569554D01*
X181008423Y-103248303D01*
X181182801Y-102828354D01*
X181183198Y-102373641D01*
X181009554Y-101953388D01*
X180688303Y-101631577D01*
X180612591Y-101600139D01*
X180686612Y-101569554D01*
X181008423Y-101248303D01*
X181182801Y-100828354D01*
X181183198Y-100373641D01*
X181009554Y-99953388D01*
X180688303Y-99631577D01*
X180268354Y-99457199D01*
X179813641Y-99456802D01*
X179671235Y-99515643D01*
X179328029Y-99172437D01*
X179750080Y-99362008D01*
X180255098Y-99376891D01*
X180727370Y-99197379D01*
X180790801Y-99154996D01*
X180856788Y-98934748D01*
X180040000Y-98117961D01*
X180025858Y-98132103D01*
X180007897Y-98114142D01*
X180022039Y-98100000D01*
X180057961Y-98100000D01*
X180874748Y-98916788D01*
X181094996Y-98850801D01*
X181302008Y-98389920D01*
X181316891Y-97884902D01*
X181137379Y-97412630D01*
X181094996Y-97349199D01*
X180874748Y-97283212D01*
X180057961Y-98100000D01*
X180022039Y-98100000D01*
X179205252Y-97283212D01*
X178985004Y-97349199D01*
X178777992Y-97810080D01*
X178763109Y-98315098D01*
X178942412Y-98786820D01*
X178603796Y-98448204D01*
X178439638Y-98338517D01*
X178246000Y-98300000D01*
X175768000Y-98300000D01*
X175574362Y-98338517D01*
X175410204Y-98448204D01*
X174035686Y-99822722D01*
X174019897Y-99738810D01*
X173936454Y-99609135D01*
X173809134Y-99522141D01*
X173658000Y-99491536D01*
X172458000Y-99491536D01*
X172316810Y-99518103D01*
X172187135Y-99601546D01*
X172100141Y-99728866D01*
X172069536Y-99880000D01*
X171846464Y-99880000D01*
X171819897Y-99738810D01*
X171736454Y-99609135D01*
X171609134Y-99522141D01*
X171458000Y-99491536D01*
X170258000Y-99491536D01*
X170116810Y-99518103D01*
X169987135Y-99601546D01*
X169900141Y-99728866D01*
X169880876Y-99824000D01*
X169722474Y-99824000D01*
X169736000Y-99756000D01*
X169736000Y-99315464D01*
X169830000Y-99315464D01*
X169971190Y-99288897D01*
X170096617Y-99208188D01*
X170099339Y-99214759D01*
X170242242Y-99357662D01*
X170428953Y-99435000D01*
X170990300Y-99435000D01*
X171117300Y-99308000D01*
X171117300Y-98564700D01*
X171142700Y-98564700D01*
X171142700Y-99308000D01*
X171269700Y-99435000D01*
X171831047Y-99435000D01*
X172017758Y-99357662D01*
X172160661Y-99214759D01*
X172238000Y-99028048D01*
X172238000Y-98691700D01*
X172111000Y-98564700D01*
X171142700Y-98564700D01*
X171117300Y-98564700D01*
X171097300Y-98564700D01*
X171097300Y-98539300D01*
X171117300Y-98539300D01*
X171117300Y-97796000D01*
X171142700Y-97796000D01*
X171142700Y-98539300D01*
X172111000Y-98539300D01*
X172238000Y-98412300D01*
X172238000Y-98075952D01*
X172160661Y-97889241D01*
X172017758Y-97746338D01*
X171831047Y-97669000D01*
X171269700Y-97669000D01*
X171142700Y-97796000D01*
X171117300Y-97796000D01*
X170990300Y-97669000D01*
X170428953Y-97669000D01*
X170242242Y-97746338D01*
X170099339Y-97889241D01*
X170095896Y-97897554D01*
X169981134Y-97819141D01*
X169830000Y-97788536D01*
X168630000Y-97788536D01*
X168488810Y-97815103D01*
X168400000Y-97872250D01*
X168400000Y-97198972D01*
X168478866Y-97252859D01*
X168630000Y-97283464D01*
X169830000Y-97283464D01*
X169971190Y-97256897D01*
X170096617Y-97176188D01*
X170099339Y-97182759D01*
X170242242Y-97325662D01*
X170428953Y-97403000D01*
X170990300Y-97403000D01*
X171117300Y-97276000D01*
X171117300Y-96532700D01*
X171142700Y-96532700D01*
X171142700Y-97276000D01*
X171269700Y-97403000D01*
X171831047Y-97403000D01*
X172017758Y-97325662D01*
X172078168Y-97265252D01*
X179223212Y-97265252D01*
X180040000Y-98082039D01*
X180856788Y-97265252D01*
X180790801Y-97045004D01*
X180329920Y-96837992D01*
X179824902Y-96823109D01*
X179352630Y-97002621D01*
X179289199Y-97045004D01*
X179223212Y-97265252D01*
X172078168Y-97265252D01*
X172160661Y-97182759D01*
X172238000Y-96996048D01*
X172238000Y-96659700D01*
X172225379Y-96647079D01*
X181210882Y-96647079D01*
X181397074Y-96969985D01*
X182214910Y-97341556D01*
X183112687Y-97371871D01*
X183953725Y-97056314D01*
X184082926Y-96969985D01*
X184269118Y-96647079D01*
X182740000Y-95117961D01*
X181210882Y-96647079D01*
X172225379Y-96647079D01*
X172111000Y-96532700D01*
X171142700Y-96532700D01*
X171117300Y-96532700D01*
X171097300Y-96532700D01*
X171097300Y-96507300D01*
X171117300Y-96507300D01*
X171117300Y-95764000D01*
X171142700Y-95764000D01*
X171142700Y-96507300D01*
X172111000Y-96507300D01*
X172238000Y-96380300D01*
X172238000Y-96043952D01*
X172160661Y-95857241D01*
X172017758Y-95714338D01*
X171831047Y-95637000D01*
X171269700Y-95637000D01*
X171142700Y-95764000D01*
X171117300Y-95764000D01*
X170990300Y-95637000D01*
X170428953Y-95637000D01*
X170242242Y-95714338D01*
X170099339Y-95857241D01*
X170095896Y-95865554D01*
X169981134Y-95787141D01*
X169830000Y-95756536D01*
X168630000Y-95756536D01*
X168488810Y-95783103D01*
X168359135Y-95866546D01*
X168272141Y-95993866D01*
X168268064Y-96014000D01*
X168148000Y-96014000D01*
X167997251Y-96043986D01*
X168006000Y-96000000D01*
X168006000Y-95472687D01*
X180468129Y-95472687D01*
X180783686Y-96313725D01*
X180870015Y-96442926D01*
X181192921Y-96629118D01*
X182722039Y-95100000D01*
X182757961Y-95100000D01*
X184287079Y-96629118D01*
X184609985Y-96442926D01*
X184981556Y-95625090D01*
X185011871Y-94727313D01*
X184696314Y-93886275D01*
X184609985Y-93757074D01*
X184287079Y-93570882D01*
X182757961Y-95100000D01*
X182722039Y-95100000D01*
X181192921Y-93570882D01*
X180870015Y-93757074D01*
X180498444Y-94574910D01*
X180468129Y-95472687D01*
X168006000Y-95472687D01*
X168006000Y-94000000D01*
X167967483Y-93806362D01*
X167857796Y-93642204D01*
X167307796Y-93092204D01*
X167143638Y-92982517D01*
X166950000Y-92944000D01*
X166938464Y-92944000D01*
X166938464Y-92850000D01*
X166911897Y-92708810D01*
X166853649Y-92618289D01*
X174099672Y-92618289D01*
X174437941Y-93071078D01*
X175707384Y-93650843D01*
X177102063Y-93700681D01*
X177498246Y-93552921D01*
X181210882Y-93552921D01*
X182740000Y-95082039D01*
X184269118Y-93552921D01*
X184082926Y-93230015D01*
X183265090Y-92858444D01*
X182367313Y-92828129D01*
X181526275Y-93143686D01*
X181397074Y-93230015D01*
X181210882Y-93552921D01*
X177498246Y-93552921D01*
X178409650Y-93213005D01*
X178622059Y-93071078D01*
X178960328Y-92618289D01*
X176530000Y-90187961D01*
X174099672Y-92618289D01*
X166853649Y-92618289D01*
X166828454Y-92579135D01*
X166701134Y-92492141D01*
X166550000Y-92461536D01*
X165150000Y-92461536D01*
X165008810Y-92488103D01*
X164879135Y-92571546D01*
X164792141Y-92698866D01*
X164761536Y-92850000D01*
X164761536Y-94050000D01*
X164772629Y-94108951D01*
X164719339Y-94162241D01*
X164712288Y-94179264D01*
X164738464Y-94050000D01*
X164738464Y-92850000D01*
X164711897Y-92708810D01*
X164628454Y-92579135D01*
X164501134Y-92492141D01*
X164350000Y-92461536D01*
X164156000Y-92461536D01*
X164156000Y-92203464D01*
X164242000Y-92203464D01*
X164383190Y-92176897D01*
X164508617Y-92096188D01*
X164511339Y-92102759D01*
X164654242Y-92245662D01*
X164840953Y-92323000D01*
X165402300Y-92323000D01*
X165529300Y-92196000D01*
X165529300Y-91452700D01*
X165554700Y-91452700D01*
X165554700Y-92196000D01*
X165681700Y-92323000D01*
X166243047Y-92323000D01*
X166429758Y-92245662D01*
X166572661Y-92102759D01*
X166650000Y-91916048D01*
X166650000Y-91579700D01*
X166523000Y-91452700D01*
X165554700Y-91452700D01*
X165529300Y-91452700D01*
X165509300Y-91452700D01*
X165509300Y-91427300D01*
X165529300Y-91427300D01*
X165529300Y-90684000D01*
X165554700Y-90684000D01*
X165554700Y-91427300D01*
X166523000Y-91427300D01*
X166650000Y-91300300D01*
X166650000Y-90963952D01*
X166572661Y-90777241D01*
X166537483Y-90742063D01*
X172999319Y-90742063D01*
X173486995Y-92049650D01*
X173628922Y-92262059D01*
X174081711Y-92600328D01*
X176512039Y-90170000D01*
X176547961Y-90170000D01*
X178978289Y-92600328D01*
X179431078Y-92262059D01*
X180010843Y-90992616D01*
X180060681Y-89597937D01*
X179903563Y-89176661D01*
X181482758Y-89176661D01*
X181694990Y-89690303D01*
X182087630Y-90083629D01*
X182600900Y-90296757D01*
X183156661Y-90297242D01*
X183670303Y-90085010D01*
X184063629Y-89692370D01*
X184276757Y-89179100D01*
X184277242Y-88623339D01*
X184065010Y-88109697D01*
X183672370Y-87716371D01*
X183159100Y-87503243D01*
X182603339Y-87502758D01*
X182089697Y-87714990D01*
X181696371Y-88107630D01*
X181483243Y-88620900D01*
X181482758Y-89176661D01*
X179903563Y-89176661D01*
X179573005Y-88290350D01*
X179431078Y-88077941D01*
X178978289Y-87739672D01*
X176547961Y-90170000D01*
X176512039Y-90170000D01*
X174081711Y-87739672D01*
X173628922Y-88077941D01*
X173049157Y-89347384D01*
X172999319Y-90742063D01*
X166537483Y-90742063D01*
X166429758Y-90634338D01*
X166243047Y-90557000D01*
X165681700Y-90557000D01*
X165554700Y-90684000D01*
X165529300Y-90684000D01*
X165402300Y-90557000D01*
X164840953Y-90557000D01*
X164654242Y-90634338D01*
X164511339Y-90777241D01*
X164507896Y-90785554D01*
X164393134Y-90707141D01*
X164242000Y-90676536D01*
X163042000Y-90676536D01*
X162900810Y-90703103D01*
X162771135Y-90786546D01*
X162684141Y-90913866D01*
X162667914Y-90994000D01*
X162500000Y-90994000D01*
X162306362Y-91032517D01*
X162142204Y-91142204D01*
X161040408Y-92244000D01*
X159250000Y-92244000D01*
X159056362Y-92282517D01*
X158892204Y-92392204D01*
X158142204Y-93142204D01*
X158032517Y-93306362D01*
X157994000Y-93500000D01*
X157994000Y-93649536D01*
X157812000Y-93649536D01*
X157670810Y-93676103D01*
X157541135Y-93759546D01*
X157454141Y-93886866D01*
X157434876Y-93982000D01*
X157017927Y-93982000D01*
X157001897Y-93896810D01*
X156918454Y-93767135D01*
X156791134Y-93680141D01*
X156640000Y-93649536D01*
X155440000Y-93649536D01*
X155298810Y-93676103D01*
X155169135Y-93759546D01*
X155082141Y-93886866D01*
X155051536Y-94038000D01*
X155051536Y-94938000D01*
X155078103Y-95079190D01*
X155161546Y-95208865D01*
X155288866Y-95295859D01*
X155440000Y-95326464D01*
X155534000Y-95326464D01*
X155534000Y-95464408D01*
X155217204Y-95781204D01*
X155107517Y-95945362D01*
X155069000Y-96139000D01*
X155069000Y-96292907D01*
X155050135Y-96305046D01*
X154963141Y-96432366D01*
X154940274Y-96545288D01*
X154920897Y-96442310D01*
X154837454Y-96312635D01*
X154811000Y-96294560D01*
X154811000Y-96139000D01*
X154772483Y-95945362D01*
X154662796Y-95781204D01*
X154346000Y-95464408D01*
X154346000Y-95326464D01*
X154440000Y-95326464D01*
X154581190Y-95299897D01*
X154710865Y-95216454D01*
X154797859Y-95089134D01*
X154828464Y-94938000D01*
X154828464Y-94038000D01*
X154801897Y-93896810D01*
X154718454Y-93767135D01*
X154591134Y-93680141D01*
X154440000Y-93649536D01*
X153240000Y-93649536D01*
X153098810Y-93676103D01*
X152969135Y-93759546D01*
X152882141Y-93886866D01*
X152851536Y-94038000D01*
X152851536Y-94938000D01*
X152878103Y-95079190D01*
X152961546Y-95208865D01*
X153088866Y-95295859D01*
X153240000Y-95326464D01*
X153334000Y-95326464D01*
X153334000Y-95674000D01*
X153372517Y-95867638D01*
X153482204Y-96031796D01*
X153770117Y-96319709D01*
X153693141Y-96432366D01*
X153670274Y-96545288D01*
X153650897Y-96442310D01*
X153567454Y-96312635D01*
X153440134Y-96225641D01*
X153289000Y-96195036D01*
X152781000Y-96195036D01*
X152639810Y-96221603D01*
X152510135Y-96305046D01*
X152423141Y-96432366D01*
X152400274Y-96545288D01*
X152380897Y-96442310D01*
X152297454Y-96312635D01*
X152170134Y-96225641D01*
X152019000Y-96195036D01*
X151511000Y-96195036D01*
X151369810Y-96221603D01*
X151240135Y-96305046D01*
X151204885Y-96356636D01*
X151179661Y-96295741D01*
X151036758Y-96152838D01*
X150850047Y-96075500D01*
X150634700Y-96075500D01*
X150507700Y-96202500D01*
X150507700Y-97142300D01*
X150527700Y-97142300D01*
X150527700Y-97167700D01*
X150507700Y-97167700D01*
X150507700Y-98107500D01*
X150634700Y-98234500D01*
X150850047Y-98234500D01*
X151036758Y-98157162D01*
X151179661Y-98014259D01*
X151204629Y-97953981D01*
X151232546Y-97997365D01*
X151359866Y-98084359D01*
X151511000Y-98114964D01*
X152019000Y-98114964D01*
X152160190Y-98088397D01*
X152289865Y-98004954D01*
X152376859Y-97877634D01*
X152399726Y-97764712D01*
X152419103Y-97867690D01*
X152502546Y-97997365D01*
X152529000Y-98015440D01*
X152529000Y-98749023D01*
X152356715Y-98914073D01*
X152118331Y-98913864D01*
X151831177Y-99032514D01*
X151611286Y-99252021D01*
X151492136Y-99538968D01*
X151491864Y-99849272D01*
X150598796Y-98956204D01*
X150434638Y-98846517D01*
X150241000Y-98808000D01*
X137623592Y-98808000D01*
X136110292Y-97294700D01*
X145923000Y-97294700D01*
X145923000Y-97827548D01*
X146000339Y-98014259D01*
X146143242Y-98157162D01*
X146329953Y-98234500D01*
X146545300Y-98234500D01*
X146672300Y-98107500D01*
X146672300Y-97167700D01*
X146697700Y-97167700D01*
X146697700Y-98107500D01*
X146824700Y-98234500D01*
X147040047Y-98234500D01*
X147226758Y-98157162D01*
X147320000Y-98063920D01*
X147413242Y-98157162D01*
X147599953Y-98234500D01*
X147815300Y-98234500D01*
X147942300Y-98107500D01*
X147942300Y-97167700D01*
X146697700Y-97167700D01*
X146672300Y-97167700D01*
X146050000Y-97167700D01*
X145923000Y-97294700D01*
X136110292Y-97294700D01*
X135780877Y-96965285D01*
X135864600Y-96544383D01*
X135864600Y-96495617D01*
X135861982Y-96482452D01*
X145923000Y-96482452D01*
X145923000Y-97015300D01*
X146050000Y-97142300D01*
X146672300Y-97142300D01*
X146672300Y-96202500D01*
X146697700Y-96202500D01*
X146697700Y-97142300D01*
X147942300Y-97142300D01*
X147942300Y-96202500D01*
X147967700Y-96202500D01*
X147967700Y-97142300D01*
X147987700Y-97142300D01*
X147987700Y-97167700D01*
X147967700Y-97167700D01*
X147967700Y-98107500D01*
X148094700Y-98234500D01*
X148310047Y-98234500D01*
X148496758Y-98157162D01*
X148639661Y-98014259D01*
X148664629Y-97953981D01*
X148692546Y-97997365D01*
X148819866Y-98084359D01*
X148971000Y-98114964D01*
X149479000Y-98114964D01*
X149620190Y-98088397D01*
X149749865Y-98004954D01*
X149785115Y-97953364D01*
X149810339Y-98014259D01*
X149953242Y-98157162D01*
X150139953Y-98234500D01*
X150355300Y-98234500D01*
X150482300Y-98107500D01*
X150482300Y-97167700D01*
X150462300Y-97167700D01*
X150462300Y-97142300D01*
X150482300Y-97142300D01*
X150482300Y-96202500D01*
X150355300Y-96075500D01*
X150139953Y-96075500D01*
X149953242Y-96152838D01*
X149810339Y-96295741D01*
X149785371Y-96356019D01*
X149757454Y-96312635D01*
X149630134Y-96225641D01*
X149479000Y-96195036D01*
X148971000Y-96195036D01*
X148829810Y-96221603D01*
X148700135Y-96305046D01*
X148664885Y-96356636D01*
X148639661Y-96295741D01*
X148496758Y-96152838D01*
X148310047Y-96075500D01*
X148094700Y-96075500D01*
X147967700Y-96202500D01*
X147942300Y-96202500D01*
X147815300Y-96075500D01*
X147599953Y-96075500D01*
X147413242Y-96152838D01*
X147320000Y-96246080D01*
X147226758Y-96152838D01*
X147040047Y-96075500D01*
X146824700Y-96075500D01*
X146697700Y-96202500D01*
X146672300Y-96202500D01*
X146545300Y-96075500D01*
X146329953Y-96075500D01*
X146143242Y-96152838D01*
X146000339Y-96295741D01*
X145923000Y-96482452D01*
X135861982Y-96482452D01*
X135769860Y-96019329D01*
X135500065Y-95615552D01*
X135096288Y-95345757D01*
X134620000Y-95251017D01*
X134143712Y-95345757D01*
X133739935Y-95615552D01*
X133470140Y-96019329D01*
X133375400Y-96495617D01*
X133375400Y-96544383D01*
X133470140Y-97020671D01*
X133739935Y-97424448D01*
X134143712Y-97694243D01*
X134620000Y-97788983D01*
X135081577Y-97697169D01*
X137056204Y-99671796D01*
X137220362Y-99781483D01*
X137414000Y-99820000D01*
X150031408Y-99820000D01*
X152529000Y-102317592D01*
X152529000Y-102642907D01*
X152510135Y-102655046D01*
X152423141Y-102782366D01*
X152400274Y-102895288D01*
X152380897Y-102792310D01*
X152297454Y-102662635D01*
X152170134Y-102575641D01*
X152019000Y-102545036D01*
X151511000Y-102545036D01*
X151369810Y-102571603D01*
X151240135Y-102655046D01*
X151153141Y-102782366D01*
X151130274Y-102895288D01*
X151110897Y-102792310D01*
X151027454Y-102662635D01*
X150900134Y-102575641D01*
X150749000Y-102545036D01*
X150241000Y-102545036D01*
X150099810Y-102571603D01*
X149970135Y-102655046D01*
X149883141Y-102782366D01*
X149860274Y-102895288D01*
X149840897Y-102792310D01*
X149757454Y-102662635D01*
X149731000Y-102644560D01*
X149731000Y-100965000D01*
X149692483Y-100771362D01*
X149582796Y-100607204D01*
X148947796Y-99972204D01*
X148783638Y-99862517D01*
X148590000Y-99824000D01*
X136099592Y-99824000D01*
X135780877Y-99505285D01*
X135864600Y-99084383D01*
X135864600Y-99035617D01*
X135769860Y-98559329D01*
X135500065Y-98155552D01*
X135096288Y-97885757D01*
X134620000Y-97791017D01*
X134143712Y-97885757D01*
X133856000Y-98078000D01*
X133856000Y-97790000D01*
X133817483Y-97596362D01*
X133707796Y-97432204D01*
X133240877Y-96965285D01*
X133324600Y-96544383D01*
X133324600Y-96495617D01*
X133229860Y-96019329D01*
X132960065Y-95615552D01*
X132556288Y-95345757D01*
X132080000Y-95251017D01*
X131603712Y-95345757D01*
X131199935Y-95615552D01*
X130930140Y-96019329D01*
X130835400Y-96495617D01*
X130835400Y-96544383D01*
X130930140Y-97020671D01*
X131199935Y-97424448D01*
X131603712Y-97694243D01*
X132080000Y-97788983D01*
X132541577Y-97697169D01*
X132844000Y-97999592D01*
X132844000Y-98078000D01*
X132556288Y-97885757D01*
X132080000Y-97791017D01*
X131603712Y-97885757D01*
X131199935Y-98155552D01*
X130930140Y-98559329D01*
X130835400Y-99035617D01*
X130835400Y-99084383D01*
X130930140Y-99560671D01*
X131199935Y-99964448D01*
X131603712Y-100234243D01*
X132080000Y-100328983D01*
X132556288Y-100234243D01*
X132844000Y-100042000D01*
X132844000Y-100618000D01*
X132556288Y-100425757D01*
X132080000Y-100331017D01*
X131603712Y-100425757D01*
X131199935Y-100695552D01*
X130930140Y-101099329D01*
X130835400Y-101575617D01*
X130835400Y-101624383D01*
X130930140Y-102100671D01*
X131199935Y-102504448D01*
X131603712Y-102774243D01*
X132080000Y-102868983D01*
X132556288Y-102774243D01*
X132860329Y-102571090D01*
X132882517Y-102682638D01*
X132992204Y-102846796D01*
X133373204Y-103227796D01*
X133537362Y-103337483D01*
X133656052Y-103361092D01*
X133470140Y-103639329D01*
X133375400Y-104115617D01*
X133375400Y-104164383D01*
X133470140Y-104640671D01*
X133646091Y-104904000D01*
X133559592Y-104904000D01*
X133240877Y-104585285D01*
X133324600Y-104164383D01*
X133324600Y-104115617D01*
X133229860Y-103639329D01*
X132960065Y-103235552D01*
X132556288Y-102965757D01*
X132080000Y-102871017D01*
X131603712Y-102965757D01*
X131199935Y-103235552D01*
X130930140Y-103639329D01*
X130835400Y-104115617D01*
X130835400Y-104164383D01*
X130930140Y-104640671D01*
X131199935Y-105044448D01*
X131603712Y-105314243D01*
X131765446Y-105346414D01*
X131284102Y-105562935D01*
X130917204Y-105952543D01*
X130727331Y-106452900D01*
X127635000Y-106452900D01*
X127635000Y-92618289D01*
X139809672Y-92618289D01*
X140147941Y-93071078D01*
X141417384Y-93650843D01*
X142812063Y-93700681D01*
X144119650Y-93213005D01*
X144332059Y-93071078D01*
X144670328Y-92618289D01*
X142240000Y-90187961D01*
X139809672Y-92618289D01*
X127635000Y-92618289D01*
X127635000Y-90742063D01*
X138709319Y-90742063D01*
X139196995Y-92049650D01*
X139338922Y-92262059D01*
X139791711Y-92600328D01*
X142222039Y-90170000D01*
X142257961Y-90170000D01*
X144688289Y-92600328D01*
X145141078Y-92262059D01*
X145720843Y-90992616D01*
X145770681Y-89597937D01*
X145283005Y-88290350D01*
X145141078Y-88077941D01*
X144688289Y-87739672D01*
X142257961Y-90170000D01*
X142222039Y-90170000D01*
X139791711Y-87739672D01*
X139338922Y-88077941D01*
X138759157Y-89347384D01*
X138709319Y-90742063D01*
X127635000Y-90742063D01*
X127635000Y-89176661D01*
X135762758Y-89176661D01*
X135974990Y-89690303D01*
X136367630Y-90083629D01*
X136880900Y-90296757D01*
X137436661Y-90297242D01*
X137950303Y-90085010D01*
X138343629Y-89692370D01*
X138556757Y-89179100D01*
X138557242Y-88623339D01*
X138345010Y-88109697D01*
X137957701Y-87721711D01*
X139809672Y-87721711D01*
X142240000Y-90152039D01*
X144670328Y-87721711D01*
X174099672Y-87721711D01*
X176530000Y-90152039D01*
X178960328Y-87721711D01*
X178622059Y-87268922D01*
X177352616Y-86689157D01*
X175957937Y-86639319D01*
X174650350Y-87126995D01*
X174437941Y-87268922D01*
X174099672Y-87721711D01*
X144670328Y-87721711D01*
X144332059Y-87268922D01*
X143062616Y-86689157D01*
X141667937Y-86639319D01*
X140360350Y-87126995D01*
X140147941Y-87268922D01*
X139809672Y-87721711D01*
X137957701Y-87721711D01*
X137952370Y-87716371D01*
X137439100Y-87503243D01*
X136883339Y-87502758D01*
X136369697Y-87714990D01*
X135976371Y-88107630D01*
X135763243Y-88620900D01*
X135762758Y-89176661D01*
X127635000Y-89176661D01*
X127635000Y-87726835D01*
X130731125Y-87726835D01*
X130886902Y-88023766D01*
X131614416Y-88353698D01*
X132412812Y-88380109D01*
X133160540Y-88098976D01*
X133273098Y-88023766D01*
X133428875Y-87726835D01*
X132080000Y-86377961D01*
X130731125Y-87726835D01*
X127635000Y-87726835D01*
X127635000Y-86692812D01*
X130059891Y-86692812D01*
X130341024Y-87440540D01*
X130416234Y-87553098D01*
X130713165Y-87708875D01*
X132062039Y-86360000D01*
X132097961Y-86360000D01*
X133446835Y-87708875D01*
X133743766Y-87553098D01*
X134073698Y-86825584D01*
X134100109Y-86027188D01*
X133818976Y-85279460D01*
X133743766Y-85166902D01*
X133446835Y-85011125D01*
X132097961Y-86360000D01*
X132062039Y-86360000D01*
X130713165Y-85011125D01*
X130416234Y-85166902D01*
X130086302Y-85894416D01*
X130059891Y-86692812D01*
X127635000Y-86692812D01*
X127635000Y-84455000D01*
X131441033Y-84455000D01*
X130999460Y-84621024D01*
G36*
X163895466Y-100476058D02*
X164127204Y-100707796D01*
X164291362Y-100817483D01*
X164485000Y-100856000D01*
X165456536Y-100856000D01*
X165456536Y-100990000D01*
X165477994Y-101104037D01*
X165456536Y-101210000D01*
X165456536Y-101490000D01*
X165477994Y-101604037D01*
X165456536Y-101710000D01*
X165456536Y-101880044D01*
X165414339Y-101922241D01*
X165337000Y-102108952D01*
X165337000Y-102210300D01*
X165464000Y-102337300D01*
X165678412Y-102337300D01*
X165693866Y-102347859D01*
X165701718Y-102349449D01*
X165681125Y-102362700D01*
X165464000Y-102362700D01*
X165337000Y-102489700D01*
X165337000Y-102591048D01*
X165414339Y-102777759D01*
X165456536Y-102819956D01*
X165456536Y-102990000D01*
X165477994Y-103104037D01*
X165456536Y-103210000D01*
X165456536Y-103490000D01*
X165483103Y-103631190D01*
X165566546Y-103760865D01*
X165693866Y-103847859D01*
X165845000Y-103878464D01*
X167045000Y-103878464D01*
X167186190Y-103851897D01*
X167315865Y-103768454D01*
X167402859Y-103641134D01*
X167433464Y-103490000D01*
X167433464Y-103356000D01*
X167918408Y-103356000D01*
X168150000Y-103587592D01*
X168150000Y-106216408D01*
X165652408Y-108714000D01*
X163781592Y-108714000D01*
X165302796Y-107192796D01*
X165307337Y-107186000D01*
X165412483Y-107028638D01*
X165451000Y-106835000D01*
X165451000Y-105560932D01*
X165473464Y-105450000D01*
X165473464Y-104250000D01*
X165446897Y-104108810D01*
X165363454Y-103979135D01*
X165236134Y-103892141D01*
X165085000Y-103861536D01*
X164805000Y-103861536D01*
X164690963Y-103882994D01*
X164585000Y-103861536D01*
X164305000Y-103861536D01*
X164190963Y-103882994D01*
X164085000Y-103861536D01*
X163805000Y-103861536D01*
X163690963Y-103882994D01*
X163585000Y-103861536D01*
X163305000Y-103861536D01*
X163190963Y-103882994D01*
X163085000Y-103861536D01*
X162805000Y-103861536D01*
X162690963Y-103882994D01*
X162585000Y-103861536D01*
X162305000Y-103861536D01*
X162190963Y-103882994D01*
X162085000Y-103861536D01*
X161805000Y-103861536D01*
X161690963Y-103882994D01*
X161585000Y-103861536D01*
X161305000Y-103861536D01*
X161163810Y-103888103D01*
X161034135Y-103971546D01*
X160947141Y-104098866D01*
X160916536Y-104250000D01*
X160916536Y-105209944D01*
X159585056Y-103878464D01*
X160545000Y-103878464D01*
X160686190Y-103851897D01*
X160815865Y-103768454D01*
X160902859Y-103641134D01*
X160933464Y-103490000D01*
X160933464Y-103210000D01*
X160912006Y-103095963D01*
X160933464Y-102990000D01*
X160933464Y-102710000D01*
X160912006Y-102595963D01*
X160933464Y-102490000D01*
X160933464Y-102210000D01*
X160912006Y-102095963D01*
X160933464Y-101990000D01*
X160933464Y-101710000D01*
X160912006Y-101595963D01*
X160933464Y-101490000D01*
X160933464Y-101319956D01*
X160975661Y-101277759D01*
X161053000Y-101091048D01*
X161053000Y-100989700D01*
X160926002Y-100862702D01*
X161053000Y-100862702D01*
X161053000Y-100856000D01*
X163175000Y-100856000D01*
X163368638Y-100817483D01*
X163532796Y-100707796D01*
X163764649Y-100475943D01*
X163895466Y-100476058D01*
X163895466Y-100476058D01*
G37*
X163895466Y-100476058D02*
X164127204Y-100707796D01*
X164291362Y-100817483D01*
X164485000Y-100856000D01*
X165456536Y-100856000D01*
X165456536Y-100990000D01*
X165477994Y-101104037D01*
X165456536Y-101210000D01*
X165456536Y-101490000D01*
X165477994Y-101604037D01*
X165456536Y-101710000D01*
X165456536Y-101880044D01*
X165414339Y-101922241D01*
X165337000Y-102108952D01*
X165337000Y-102210300D01*
X165464000Y-102337300D01*
X165678412Y-102337300D01*
X165693866Y-102347859D01*
X165701718Y-102349449D01*
X165681125Y-102362700D01*
X165464000Y-102362700D01*
X165337000Y-102489700D01*
X165337000Y-102591048D01*
X165414339Y-102777759D01*
X165456536Y-102819956D01*
X165456536Y-102990000D01*
X165477994Y-103104037D01*
X165456536Y-103210000D01*
X165456536Y-103490000D01*
X165483103Y-103631190D01*
X165566546Y-103760865D01*
X165693866Y-103847859D01*
X165845000Y-103878464D01*
X167045000Y-103878464D01*
X167186190Y-103851897D01*
X167315865Y-103768454D01*
X167402859Y-103641134D01*
X167433464Y-103490000D01*
X167433464Y-103356000D01*
X167918408Y-103356000D01*
X168150000Y-103587592D01*
X168150000Y-106216408D01*
X165652408Y-108714000D01*
X163781592Y-108714000D01*
X165302796Y-107192796D01*
X165307337Y-107186000D01*
X165412483Y-107028638D01*
X165451000Y-106835000D01*
X165451000Y-105560932D01*
X165473464Y-105450000D01*
X165473464Y-104250000D01*
X165446897Y-104108810D01*
X165363454Y-103979135D01*
X165236134Y-103892141D01*
X165085000Y-103861536D01*
X164805000Y-103861536D01*
X164690963Y-103882994D01*
X164585000Y-103861536D01*
X164305000Y-103861536D01*
X164190963Y-103882994D01*
X164085000Y-103861536D01*
X163805000Y-103861536D01*
X163690963Y-103882994D01*
X163585000Y-103861536D01*
X163305000Y-103861536D01*
X163190963Y-103882994D01*
X163085000Y-103861536D01*
X162805000Y-103861536D01*
X162690963Y-103882994D01*
X162585000Y-103861536D01*
X162305000Y-103861536D01*
X162190963Y-103882994D01*
X162085000Y-103861536D01*
X161805000Y-103861536D01*
X161690963Y-103882994D01*
X161585000Y-103861536D01*
X161305000Y-103861536D01*
X161163810Y-103888103D01*
X161034135Y-103971546D01*
X160947141Y-104098866D01*
X160916536Y-104250000D01*
X160916536Y-105209944D01*
X159585056Y-103878464D01*
X160545000Y-103878464D01*
X160686190Y-103851897D01*
X160815865Y-103768454D01*
X160902859Y-103641134D01*
X160933464Y-103490000D01*
X160933464Y-103210000D01*
X160912006Y-103095963D01*
X160933464Y-102990000D01*
X160933464Y-102710000D01*
X160912006Y-102595963D01*
X160933464Y-102490000D01*
X160933464Y-102210000D01*
X160912006Y-102095963D01*
X160933464Y-101990000D01*
X160933464Y-101710000D01*
X160912006Y-101595963D01*
X160933464Y-101490000D01*
X160933464Y-101319956D01*
X160975661Y-101277759D01*
X161053000Y-101091048D01*
X161053000Y-100989700D01*
X160926002Y-100862702D01*
X161053000Y-100862702D01*
X161053000Y-100856000D01*
X163175000Y-100856000D01*
X163368638Y-100817483D01*
X163532796Y-100707796D01*
X163764649Y-100475943D01*
X163895466Y-100476058D01*
G36*
X153689103Y-97867690D02*
X153772546Y-97997365D01*
X153799000Y-98015440D01*
X153799000Y-98552000D01*
X153837517Y-98745638D01*
X153947204Y-98909796D01*
X154455204Y-99417796D01*
X154619362Y-99527483D01*
X154813000Y-99566000D01*
X155619408Y-99566000D01*
X157990000Y-101936592D01*
X157990000Y-103505000D01*
X158028517Y-103698638D01*
X158138204Y-103862796D01*
X158671408Y-104396000D01*
X156036077Y-104396000D01*
X156099865Y-104354954D01*
X156186859Y-104227634D01*
X156217464Y-104076500D01*
X156217464Y-102933500D01*
X156190897Y-102792310D01*
X156107454Y-102662635D01*
X155980134Y-102575641D01*
X155829000Y-102545036D01*
X155321000Y-102545036D01*
X155179810Y-102571603D01*
X155050135Y-102655046D01*
X154963141Y-102782366D01*
X154940274Y-102895288D01*
X154920897Y-102792310D01*
X154837454Y-102662635D01*
X154710134Y-102575641D01*
X154559000Y-102545036D01*
X154051000Y-102545036D01*
X153909810Y-102571603D01*
X153780135Y-102655046D01*
X153693141Y-102782366D01*
X153670274Y-102895288D01*
X153650897Y-102792310D01*
X153567454Y-102662635D01*
X153541000Y-102644560D01*
X153541000Y-102108000D01*
X153502483Y-101914362D01*
X153392796Y-101750204D01*
X152118457Y-100475865D01*
X152427669Y-100476136D01*
X152714823Y-100357486D01*
X152934714Y-100137979D01*
X153053864Y-99851032D01*
X153054042Y-99647486D01*
X153385042Y-99330386D01*
X153388207Y-99325862D01*
X153392796Y-99322796D01*
X153444676Y-99245152D01*
X153498224Y-99168617D01*
X153499417Y-99163227D01*
X153502483Y-99158638D01*
X153520700Y-99067056D01*
X153540884Y-98975850D01*
X153539923Y-98970413D01*
X153541000Y-98965000D01*
X153541000Y-98017093D01*
X153559865Y-98004954D01*
X153646859Y-97877634D01*
X153669726Y-97764712D01*
X153689103Y-97867690D01*
X153689103Y-97867690D01*
G37*
X153689103Y-97867690D02*
X153772546Y-97997365D01*
X153799000Y-98015440D01*
X153799000Y-98552000D01*
X153837517Y-98745638D01*
X153947204Y-98909796D01*
X154455204Y-99417796D01*
X154619362Y-99527483D01*
X154813000Y-99566000D01*
X155619408Y-99566000D01*
X157990000Y-101936592D01*
X157990000Y-103505000D01*
X158028517Y-103698638D01*
X158138204Y-103862796D01*
X158671408Y-104396000D01*
X156036077Y-104396000D01*
X156099865Y-104354954D01*
X156186859Y-104227634D01*
X156217464Y-104076500D01*
X156217464Y-102933500D01*
X156190897Y-102792310D01*
X156107454Y-102662635D01*
X155980134Y-102575641D01*
X155829000Y-102545036D01*
X155321000Y-102545036D01*
X155179810Y-102571603D01*
X155050135Y-102655046D01*
X154963141Y-102782366D01*
X154940274Y-102895288D01*
X154920897Y-102792310D01*
X154837454Y-102662635D01*
X154710134Y-102575641D01*
X154559000Y-102545036D01*
X154051000Y-102545036D01*
X153909810Y-102571603D01*
X153780135Y-102655046D01*
X153693141Y-102782366D01*
X153670274Y-102895288D01*
X153650897Y-102792310D01*
X153567454Y-102662635D01*
X153541000Y-102644560D01*
X153541000Y-102108000D01*
X153502483Y-101914362D01*
X153392796Y-101750204D01*
X152118457Y-100475865D01*
X152427669Y-100476136D01*
X152714823Y-100357486D01*
X152934714Y-100137979D01*
X153053864Y-99851032D01*
X153054042Y-99647486D01*
X153385042Y-99330386D01*
X153388207Y-99325862D01*
X153392796Y-99322796D01*
X153444676Y-99245152D01*
X153498224Y-99168617D01*
X153499417Y-99163227D01*
X153502483Y-99158638D01*
X153520700Y-99067056D01*
X153540884Y-98975850D01*
X153539923Y-98970413D01*
X153541000Y-98965000D01*
X153541000Y-98017093D01*
X153559865Y-98004954D01*
X153646859Y-97877634D01*
X153669726Y-97764712D01*
X153689103Y-97867690D01*
G36*
X162763546Y-92085865D02*
X162890866Y-92172859D01*
X163042000Y-92203464D01*
X163144000Y-92203464D01*
X163144000Y-92461536D01*
X162950000Y-92461536D01*
X162808810Y-92488103D01*
X162679135Y-92571546D01*
X162592141Y-92698866D01*
X162561536Y-92850000D01*
X162561536Y-94050000D01*
X162588103Y-94191190D01*
X162625744Y-94249686D01*
X162592141Y-94298866D01*
X162561536Y-94450000D01*
X162561536Y-94544000D01*
X162509592Y-94544000D01*
X162107796Y-94142204D01*
X161943638Y-94032517D01*
X161750000Y-93994000D01*
X161592185Y-93994000D01*
X161573897Y-93896810D01*
X161490454Y-93767135D01*
X161363134Y-93680141D01*
X161212000Y-93649536D01*
X160012000Y-93649536D01*
X159870810Y-93676103D01*
X159741135Y-93759546D01*
X159654141Y-93886866D01*
X159623536Y-94038000D01*
X159623536Y-94938000D01*
X159650103Y-95079190D01*
X159733546Y-95208865D01*
X159860866Y-95295859D01*
X160012000Y-95326464D01*
X161212000Y-95326464D01*
X161353190Y-95299897D01*
X161482865Y-95216454D01*
X161569859Y-95089134D01*
X161578899Y-95044491D01*
X161942204Y-95407796D01*
X162106362Y-95517483D01*
X162300000Y-95556000D01*
X162561536Y-95556000D01*
X162561536Y-95650000D01*
X162588103Y-95791190D01*
X162671546Y-95920865D01*
X162798866Y-96007859D01*
X162950000Y-96038464D01*
X164350000Y-96038464D01*
X164491190Y-96011897D01*
X164620865Y-95928454D01*
X164679773Y-95842239D01*
X164719339Y-95937759D01*
X164862242Y-96080662D01*
X165048953Y-96158000D01*
X165710300Y-96158000D01*
X165837300Y-96031000D01*
X165837300Y-95062700D01*
X165817300Y-95062700D01*
X165817300Y-95037300D01*
X165837300Y-95037300D01*
X165837300Y-95017300D01*
X165862700Y-95017300D01*
X165862700Y-95037300D01*
X165882700Y-95037300D01*
X165882700Y-95062700D01*
X165862700Y-95062700D01*
X165862700Y-96031000D01*
X165989700Y-96158000D01*
X166626408Y-96158000D01*
X166087204Y-96697204D01*
X165977517Y-96861362D01*
X165939000Y-97055000D01*
X165939000Y-99321536D01*
X165845000Y-99321536D01*
X165703810Y-99348103D01*
X165574135Y-99431546D01*
X165487141Y-99558866D01*
X165456536Y-99710000D01*
X165456536Y-99844000D01*
X164694592Y-99844000D01*
X164610943Y-99760351D01*
X164611136Y-99540331D01*
X164527726Y-99338464D01*
X164585000Y-99338464D01*
X164699037Y-99317006D01*
X164805000Y-99338464D01*
X165085000Y-99338464D01*
X165226190Y-99311897D01*
X165355865Y-99228454D01*
X165442859Y-99101134D01*
X165473464Y-98950000D01*
X165473464Y-97750000D01*
X165446897Y-97608810D01*
X165363454Y-97479135D01*
X165236134Y-97392141D01*
X165085000Y-97361536D01*
X164805000Y-97361536D01*
X164690963Y-97382994D01*
X164585000Y-97361536D01*
X164305000Y-97361536D01*
X164190963Y-97382994D01*
X164085000Y-97361536D01*
X163805000Y-97361536D01*
X163690963Y-97382994D01*
X163585000Y-97361536D01*
X163305000Y-97361536D01*
X163190963Y-97382994D01*
X163085000Y-97361536D01*
X162805000Y-97361536D01*
X162690963Y-97382994D01*
X162585000Y-97361536D01*
X162305000Y-97361536D01*
X162190963Y-97382994D01*
X162085000Y-97361536D01*
X161805000Y-97361536D01*
X161690963Y-97382994D01*
X161585000Y-97361536D01*
X161305000Y-97361536D01*
X161163810Y-97388103D01*
X161034135Y-97471546D01*
X160947141Y-97598866D01*
X160916536Y-97750000D01*
X160916536Y-98950000D01*
X160943103Y-99091190D01*
X161026546Y-99220865D01*
X161153866Y-99307859D01*
X161305000Y-99338464D01*
X161585000Y-99338464D01*
X161699037Y-99317006D01*
X161805000Y-99338464D01*
X162085000Y-99338464D01*
X162199037Y-99317006D01*
X162305000Y-99338464D01*
X162585000Y-99338464D01*
X162699037Y-99317006D01*
X162805000Y-99338464D01*
X163085000Y-99338464D01*
X163136409Y-99328791D01*
X163049136Y-99538968D01*
X163048942Y-99760466D01*
X162965408Y-99844000D01*
X160933464Y-99844000D01*
X160933464Y-99710000D01*
X160906897Y-99568810D01*
X160823454Y-99439135D01*
X160696134Y-99352141D01*
X160545000Y-99321536D01*
X159345000Y-99321536D01*
X159203810Y-99348103D01*
X159074135Y-99431546D01*
X158987141Y-99558866D01*
X158956536Y-99710000D01*
X158956536Y-99844000D01*
X158725592Y-99844000D01*
X158494000Y-99612408D01*
X158494000Y-99195814D01*
X158504190Y-99193897D01*
X158633865Y-99110454D01*
X158720859Y-98983134D01*
X158751464Y-98832000D01*
X158751464Y-97632000D01*
X158724897Y-97490810D01*
X158644188Y-97365383D01*
X158650759Y-97362661D01*
X158793662Y-97219758D01*
X158871000Y-97033047D01*
X158871000Y-96471700D01*
X158744000Y-96344700D01*
X158000700Y-96344700D01*
X158000700Y-96364700D01*
X157975300Y-96364700D01*
X157975300Y-96344700D01*
X157232000Y-96344700D01*
X157105000Y-96471700D01*
X157105000Y-97033047D01*
X157182338Y-97219758D01*
X157325241Y-97362661D01*
X157333554Y-97366104D01*
X157255141Y-97480866D01*
X157224536Y-97632000D01*
X157224536Y-97834944D01*
X156970000Y-97580408D01*
X156970000Y-97536000D01*
X156931483Y-97342362D01*
X156821796Y-97178204D01*
X156440796Y-96797204D01*
X156276638Y-96687517D01*
X156217464Y-96675747D01*
X156217464Y-96583500D01*
X156190897Y-96442310D01*
X156111175Y-96318417D01*
X156397796Y-96031796D01*
X156507483Y-95867638D01*
X156546000Y-95674000D01*
X156546000Y-95326464D01*
X156640000Y-95326464D01*
X156781190Y-95299897D01*
X156910865Y-95216454D01*
X156997859Y-95089134D01*
X157017124Y-94994000D01*
X157434073Y-94994000D01*
X157450103Y-95079190D01*
X157533546Y-95208865D01*
X157555697Y-95224000D01*
X157511952Y-95224000D01*
X157325241Y-95301339D01*
X157182338Y-95444242D01*
X157105000Y-95630953D01*
X157105000Y-96192300D01*
X157232000Y-96319300D01*
X157975300Y-96319300D01*
X157975300Y-96299300D01*
X158000700Y-96299300D01*
X158000700Y-96319300D01*
X158744000Y-96319300D01*
X158871000Y-96192300D01*
X158871000Y-95630953D01*
X158793662Y-95444242D01*
X158675884Y-95326464D01*
X159012000Y-95326464D01*
X159153190Y-95299897D01*
X159282865Y-95216454D01*
X159369859Y-95089134D01*
X159400464Y-94938000D01*
X159400464Y-94038000D01*
X159373897Y-93896810D01*
X159290454Y-93767135D01*
X159163134Y-93680141D01*
X159056953Y-93658639D01*
X159459592Y-93256000D01*
X161250000Y-93256000D01*
X161443638Y-93217483D01*
X161607796Y-93107796D01*
X162709592Y-92006000D01*
X162712155Y-92006000D01*
X162763546Y-92085865D01*
X162763546Y-92085865D01*
G37*
X162763546Y-92085865D02*
X162890866Y-92172859D01*
X163042000Y-92203464D01*
X163144000Y-92203464D01*
X163144000Y-92461536D01*
X162950000Y-92461536D01*
X162808810Y-92488103D01*
X162679135Y-92571546D01*
X162592141Y-92698866D01*
X162561536Y-92850000D01*
X162561536Y-94050000D01*
X162588103Y-94191190D01*
X162625744Y-94249686D01*
X162592141Y-94298866D01*
X162561536Y-94450000D01*
X162561536Y-94544000D01*
X162509592Y-94544000D01*
X162107796Y-94142204D01*
X161943638Y-94032517D01*
X161750000Y-93994000D01*
X161592185Y-93994000D01*
X161573897Y-93896810D01*
X161490454Y-93767135D01*
X161363134Y-93680141D01*
X161212000Y-93649536D01*
X160012000Y-93649536D01*
X159870810Y-93676103D01*
X159741135Y-93759546D01*
X159654141Y-93886866D01*
X159623536Y-94038000D01*
X159623536Y-94938000D01*
X159650103Y-95079190D01*
X159733546Y-95208865D01*
X159860866Y-95295859D01*
X160012000Y-95326464D01*
X161212000Y-95326464D01*
X161353190Y-95299897D01*
X161482865Y-95216454D01*
X161569859Y-95089134D01*
X161578899Y-95044491D01*
X161942204Y-95407796D01*
X162106362Y-95517483D01*
X162300000Y-95556000D01*
X162561536Y-95556000D01*
X162561536Y-95650000D01*
X162588103Y-95791190D01*
X162671546Y-95920865D01*
X162798866Y-96007859D01*
X162950000Y-96038464D01*
X164350000Y-96038464D01*
X164491190Y-96011897D01*
X164620865Y-95928454D01*
X164679773Y-95842239D01*
X164719339Y-95937759D01*
X164862242Y-96080662D01*
X165048953Y-96158000D01*
X165710300Y-96158000D01*
X165837300Y-96031000D01*
X165837300Y-95062700D01*
X165817300Y-95062700D01*
X165817300Y-95037300D01*
X165837300Y-95037300D01*
X165837300Y-95017300D01*
X165862700Y-95017300D01*
X165862700Y-95037300D01*
X165882700Y-95037300D01*
X165882700Y-95062700D01*
X165862700Y-95062700D01*
X165862700Y-96031000D01*
X165989700Y-96158000D01*
X166626408Y-96158000D01*
X166087204Y-96697204D01*
X165977517Y-96861362D01*
X165939000Y-97055000D01*
X165939000Y-99321536D01*
X165845000Y-99321536D01*
X165703810Y-99348103D01*
X165574135Y-99431546D01*
X165487141Y-99558866D01*
X165456536Y-99710000D01*
X165456536Y-99844000D01*
X164694592Y-99844000D01*
X164610943Y-99760351D01*
X164611136Y-99540331D01*
X164527726Y-99338464D01*
X164585000Y-99338464D01*
X164699037Y-99317006D01*
X164805000Y-99338464D01*
X165085000Y-99338464D01*
X165226190Y-99311897D01*
X165355865Y-99228454D01*
X165442859Y-99101134D01*
X165473464Y-98950000D01*
X165473464Y-97750000D01*
X165446897Y-97608810D01*
X165363454Y-97479135D01*
X165236134Y-97392141D01*
X165085000Y-97361536D01*
X164805000Y-97361536D01*
X164690963Y-97382994D01*
X164585000Y-97361536D01*
X164305000Y-97361536D01*
X164190963Y-97382994D01*
X164085000Y-97361536D01*
X163805000Y-97361536D01*
X163690963Y-97382994D01*
X163585000Y-97361536D01*
X163305000Y-97361536D01*
X163190963Y-97382994D01*
X163085000Y-97361536D01*
X162805000Y-97361536D01*
X162690963Y-97382994D01*
X162585000Y-97361536D01*
X162305000Y-97361536D01*
X162190963Y-97382994D01*
X162085000Y-97361536D01*
X161805000Y-97361536D01*
X161690963Y-97382994D01*
X161585000Y-97361536D01*
X161305000Y-97361536D01*
X161163810Y-97388103D01*
X161034135Y-97471546D01*
X160947141Y-97598866D01*
X160916536Y-97750000D01*
X160916536Y-98950000D01*
X160943103Y-99091190D01*
X161026546Y-99220865D01*
X161153866Y-99307859D01*
X161305000Y-99338464D01*
X161585000Y-99338464D01*
X161699037Y-99317006D01*
X161805000Y-99338464D01*
X162085000Y-99338464D01*
X162199037Y-99317006D01*
X162305000Y-99338464D01*
X162585000Y-99338464D01*
X162699037Y-99317006D01*
X162805000Y-99338464D01*
X163085000Y-99338464D01*
X163136409Y-99328791D01*
X163049136Y-99538968D01*
X163048942Y-99760466D01*
X162965408Y-99844000D01*
X160933464Y-99844000D01*
X160933464Y-99710000D01*
X160906897Y-99568810D01*
X160823454Y-99439135D01*
X160696134Y-99352141D01*
X160545000Y-99321536D01*
X159345000Y-99321536D01*
X159203810Y-99348103D01*
X159074135Y-99431546D01*
X158987141Y-99558866D01*
X158956536Y-99710000D01*
X158956536Y-99844000D01*
X158725592Y-99844000D01*
X158494000Y-99612408D01*
X158494000Y-99195814D01*
X158504190Y-99193897D01*
X158633865Y-99110454D01*
X158720859Y-98983134D01*
X158751464Y-98832000D01*
X158751464Y-97632000D01*
X158724897Y-97490810D01*
X158644188Y-97365383D01*
X158650759Y-97362661D01*
X158793662Y-97219758D01*
X158871000Y-97033047D01*
X158871000Y-96471700D01*
X158744000Y-96344700D01*
X158000700Y-96344700D01*
X158000700Y-96364700D01*
X157975300Y-96364700D01*
X157975300Y-96344700D01*
X157232000Y-96344700D01*
X157105000Y-96471700D01*
X157105000Y-97033047D01*
X157182338Y-97219758D01*
X157325241Y-97362661D01*
X157333554Y-97366104D01*
X157255141Y-97480866D01*
X157224536Y-97632000D01*
X157224536Y-97834944D01*
X156970000Y-97580408D01*
X156970000Y-97536000D01*
X156931483Y-97342362D01*
X156821796Y-97178204D01*
X156440796Y-96797204D01*
X156276638Y-96687517D01*
X156217464Y-96675747D01*
X156217464Y-96583500D01*
X156190897Y-96442310D01*
X156111175Y-96318417D01*
X156397796Y-96031796D01*
X156507483Y-95867638D01*
X156546000Y-95674000D01*
X156546000Y-95326464D01*
X156640000Y-95326464D01*
X156781190Y-95299897D01*
X156910865Y-95216454D01*
X156997859Y-95089134D01*
X157017124Y-94994000D01*
X157434073Y-94994000D01*
X157450103Y-95079190D01*
X157533546Y-95208865D01*
X157555697Y-95224000D01*
X157511952Y-95224000D01*
X157325241Y-95301339D01*
X157182338Y-95444242D01*
X157105000Y-95630953D01*
X157105000Y-96192300D01*
X157232000Y-96319300D01*
X157975300Y-96319300D01*
X157975300Y-96299300D01*
X158000700Y-96299300D01*
X158000700Y-96319300D01*
X158744000Y-96319300D01*
X158871000Y-96192300D01*
X158871000Y-95630953D01*
X158793662Y-95444242D01*
X158675884Y-95326464D01*
X159012000Y-95326464D01*
X159153190Y-95299897D01*
X159282865Y-95216454D01*
X159369859Y-95089134D01*
X159400464Y-94938000D01*
X159400464Y-94038000D01*
X159373897Y-93896810D01*
X159290454Y-93767135D01*
X159163134Y-93680141D01*
X159056953Y-93658639D01*
X159459592Y-93256000D01*
X161250000Y-93256000D01*
X161443638Y-93217483D01*
X161607796Y-93107796D01*
X162709592Y-92006000D01*
X162712155Y-92006000D01*
X162763546Y-92085865D01*
G36*
X175491536Y-102750000D02*
X175518103Y-102891190D01*
X175601546Y-103020865D01*
X175728866Y-103107859D01*
X175880000Y-103138464D01*
X176050044Y-103138464D01*
X176092242Y-103180662D01*
X176278953Y-103258000D01*
X176390300Y-103258000D01*
X176517300Y-103131000D01*
X176517300Y-102931223D01*
X176530980Y-102911202D01*
X176542700Y-102929415D01*
X176542700Y-103131000D01*
X176669700Y-103258000D01*
X176781047Y-103258000D01*
X176967758Y-103180662D01*
X177009956Y-103138464D01*
X177180000Y-103138464D01*
X177294000Y-103117013D01*
X177294000Y-103888000D01*
X175977592Y-103888000D01*
X175010394Y-102920802D01*
X175066823Y-102897486D01*
X175223583Y-102741000D01*
X175491536Y-102741000D01*
X175491536Y-102750000D01*
X175491536Y-102750000D01*
G37*
X175491536Y-102750000D02*
X175518103Y-102891190D01*
X175601546Y-103020865D01*
X175728866Y-103107859D01*
X175880000Y-103138464D01*
X176050044Y-103138464D01*
X176092242Y-103180662D01*
X176278953Y-103258000D01*
X176390300Y-103258000D01*
X176517300Y-103131000D01*
X176517300Y-102931223D01*
X176530980Y-102911202D01*
X176542700Y-102929415D01*
X176542700Y-103131000D01*
X176669700Y-103258000D01*
X176781047Y-103258000D01*
X176967758Y-103180662D01*
X177009956Y-103138464D01*
X177180000Y-103138464D01*
X177294000Y-103117013D01*
X177294000Y-103888000D01*
X175977592Y-103888000D01*
X175010394Y-102920802D01*
X175066823Y-102897486D01*
X175223583Y-102741000D01*
X175491536Y-102741000D01*
X175491536Y-102750000D01*
G36*
X177294000Y-100084621D02*
X177180000Y-100061536D01*
X177009956Y-100061536D01*
X176967758Y-100019338D01*
X176781047Y-99942000D01*
X176669700Y-99942000D01*
X176542700Y-100069000D01*
X176542700Y-100268777D01*
X176529020Y-100288798D01*
X176517300Y-100270585D01*
X176517300Y-100069000D01*
X176390300Y-99942000D01*
X176278953Y-99942000D01*
X176092242Y-100019338D01*
X176050044Y-100061536D01*
X175880000Y-100061536D01*
X175738810Y-100088103D01*
X175609135Y-100171546D01*
X175522141Y-100298866D01*
X175491536Y-100450000D01*
X175491536Y-100459000D01*
X175223421Y-100459000D01*
X175067979Y-100303286D01*
X175010269Y-100279323D01*
X175977592Y-99312000D01*
X177294000Y-99312000D01*
X177294000Y-100084621D01*
X177294000Y-100084621D01*
G37*
X177294000Y-100084621D02*
X177180000Y-100061536D01*
X177009956Y-100061536D01*
X176967758Y-100019338D01*
X176781047Y-99942000D01*
X176669700Y-99942000D01*
X176542700Y-100069000D01*
X176542700Y-100268777D01*
X176529020Y-100288798D01*
X176517300Y-100270585D01*
X176517300Y-100069000D01*
X176390300Y-99942000D01*
X176278953Y-99942000D01*
X176092242Y-100019338D01*
X176050044Y-100061536D01*
X175880000Y-100061536D01*
X175738810Y-100088103D01*
X175609135Y-100171546D01*
X175522141Y-100298866D01*
X175491536Y-100450000D01*
X175491536Y-100459000D01*
X175223421Y-100459000D01*
X175067979Y-100303286D01*
X175010269Y-100279323D01*
X175977592Y-99312000D01*
X177294000Y-99312000D01*
X177294000Y-100084621D01*
M02*
