M48
;DRILL file {KiCad 4.0.5+dfsg1-4} date Fri Dec 28 13:07:49 2018
;FORMAT={-:-/ absolute / inch / decimal}
FMAT,2
INCH,TZ
T1C0.016
T2C0.036
T3C0.040
T4C0.063
T5C0.091
T6C0.126
%
G90
G05
M72
T1
X5.1575Y-4.6063
X5.6Y-4.09
X5.74Y-3.75
X5.825Y-4.15
X5.85Y-3.75
X5.91Y-4.23
X5.965Y-3.6
X5.995Y-3.925
X6.02Y-4.38
X6.02Y-4.58
X6.2Y-4.05
X6.2894Y-3.7992
X6.425Y-4.
X6.45Y-3.925
X6.5059Y-3.8091
X6.56Y-4.13
X6.5945Y-3.6024
X6.8Y-3.8
X6.8Y-3.88
X6.875Y-3.975
X6.875Y-4.025
X6.95Y-3.925
X6.95Y-4.075
X7.125Y-4.6
X7.275Y-4.625
X7.5Y-4.
T2
X7.0882Y-3.8622
X7.0882Y-3.9606
X7.0882Y-4.0394
X7.0882Y-4.1378
T3
X5.2Y-3.8
X5.2Y-3.9
X5.2Y-4.
X5.2Y-4.1
X5.2Y-4.2
X5.3Y-3.8
X5.3Y-3.9
X5.3Y-4.
X5.3Y-4.1
X5.3Y-4.2
T4
X5.2Y-3.4
T5
X7.1945Y-3.7441
X7.1945Y-4.2559
T6
X5.6Y-3.55
X5.6Y-4.45
X6.95Y-3.55
X6.95Y-4.45
T0
M30
