G04 #@! TF.FileFunction,Legend,Top*
%FSLAX46Y46*%
G04 Gerber Fmt 4.6, Leading zero omitted, Abs format (unit mm)*
G04 Created by KiCad (PCBNEW 4.0.5+dfsg1-4) date Wed Jul 18 12:49:48 2018*
%MOMM*%
%LPD*%
G01*
G04 APERTURE LIST*
%ADD10C,0.100000*%
%ADD11C,0.200000*%
%ADD12C,0.300000*%
%ADD13C,0.150000*%
G04 APERTURE END LIST*
D10*
D11*
X160049981Y-98298000D02*
G75*
G03X160049981Y-98298000I-283981J0D01*
G01*
D12*
X155738000Y-90690000D02*
X155595143Y-90618571D01*
X155380857Y-90618571D01*
X155166572Y-90690000D01*
X155023714Y-90832857D01*
X154952286Y-90975714D01*
X154880857Y-91261429D01*
X154880857Y-91475714D01*
X154952286Y-91761429D01*
X155023714Y-91904286D01*
X155166572Y-92047143D01*
X155380857Y-92118571D01*
X155523714Y-92118571D01*
X155738000Y-92047143D01*
X155809429Y-91975714D01*
X155809429Y-91475714D01*
X155523714Y-91475714D01*
X156452286Y-92118571D02*
X156452286Y-90618571D01*
X157023714Y-90618571D01*
X157166572Y-90690000D01*
X157238000Y-90761429D01*
X157309429Y-90904286D01*
X157309429Y-91118571D01*
X157238000Y-91261429D01*
X157166572Y-91332857D01*
X157023714Y-91404286D01*
X156452286Y-91404286D01*
X158666572Y-92118571D02*
X157952286Y-92118571D01*
X157952286Y-90618571D01*
X159023715Y-91118571D02*
X159380858Y-92118571D01*
X159738000Y-91118571D01*
X160166572Y-90618571D02*
X161095143Y-90618571D01*
X160595143Y-91190000D01*
X160809429Y-91190000D01*
X160952286Y-91261429D01*
X161023715Y-91332857D01*
X161095143Y-91475714D01*
X161095143Y-91832857D01*
X161023715Y-91975714D01*
X160952286Y-92047143D01*
X160809429Y-92118571D01*
X160380857Y-92118571D01*
X160238000Y-92047143D01*
X160166572Y-91975714D01*
X147324286Y-92118571D02*
X146824286Y-91404286D01*
X146467143Y-92118571D02*
X146467143Y-90618571D01*
X147038571Y-90618571D01*
X147181429Y-90690000D01*
X147252857Y-90761429D01*
X147324286Y-90904286D01*
X147324286Y-91118571D01*
X147252857Y-91261429D01*
X147181429Y-91332857D01*
X147038571Y-91404286D01*
X146467143Y-91404286D01*
X147967143Y-91332857D02*
X148467143Y-91332857D01*
X148681429Y-92118571D02*
X147967143Y-92118571D01*
X147967143Y-90618571D01*
X148681429Y-90618571D01*
X149110000Y-90618571D02*
X149610000Y-92118571D01*
X150110000Y-90618571D01*
X150610000Y-91975714D02*
X150681428Y-92047143D01*
X150610000Y-92118571D01*
X150538571Y-92047143D01*
X150610000Y-91975714D01*
X150610000Y-92118571D01*
X152967143Y-91332857D02*
X153181429Y-91404286D01*
X153252857Y-91475714D01*
X153324286Y-91618571D01*
X153324286Y-91832857D01*
X153252857Y-91975714D01*
X153181429Y-92047143D01*
X153038571Y-92118571D01*
X152467143Y-92118571D01*
X152467143Y-90618571D01*
X152967143Y-90618571D01*
X153110000Y-90690000D01*
X153181429Y-90761429D01*
X153252857Y-90904286D01*
X153252857Y-91047143D01*
X153181429Y-91190000D01*
X153110000Y-91261429D01*
X152967143Y-91332857D01*
X152467143Y-91332857D01*
X146380715Y-88078571D02*
X146380715Y-89292857D01*
X146452143Y-89435714D01*
X146523572Y-89507143D01*
X146666429Y-89578571D01*
X146952143Y-89578571D01*
X147095001Y-89507143D01*
X147166429Y-89435714D01*
X147237858Y-89292857D01*
X147237858Y-88078571D01*
X147880715Y-89507143D02*
X148095001Y-89578571D01*
X148452144Y-89578571D01*
X148595001Y-89507143D01*
X148666430Y-89435714D01*
X148737858Y-89292857D01*
X148737858Y-89150000D01*
X148666430Y-89007143D01*
X148595001Y-88935714D01*
X148452144Y-88864286D01*
X148166430Y-88792857D01*
X148023572Y-88721429D01*
X147952144Y-88650000D01*
X147880715Y-88507143D01*
X147880715Y-88364286D01*
X147952144Y-88221429D01*
X148023572Y-88150000D01*
X148166430Y-88078571D01*
X148523572Y-88078571D01*
X148737858Y-88150000D01*
X149880715Y-88792857D02*
X150095001Y-88864286D01*
X150166429Y-88935714D01*
X150237858Y-89078571D01*
X150237858Y-89292857D01*
X150166429Y-89435714D01*
X150095001Y-89507143D01*
X149952143Y-89578571D01*
X149380715Y-89578571D01*
X149380715Y-88078571D01*
X149880715Y-88078571D01*
X150023572Y-88150000D01*
X150095001Y-88221429D01*
X150166429Y-88364286D01*
X150166429Y-88507143D01*
X150095001Y-88650000D01*
X150023572Y-88721429D01*
X149880715Y-88792857D01*
X149380715Y-88792857D01*
X152023572Y-89578571D02*
X152023572Y-88078571D01*
X152380715Y-88078571D01*
X152595000Y-88150000D01*
X152737858Y-88292857D01*
X152809286Y-88435714D01*
X152880715Y-88721429D01*
X152880715Y-88935714D01*
X152809286Y-89221429D01*
X152737858Y-89364286D01*
X152595000Y-89507143D01*
X152380715Y-89578571D01*
X152023572Y-89578571D01*
X154380715Y-89578571D02*
X153880715Y-88864286D01*
X153523572Y-89578571D02*
X153523572Y-88078571D01*
X154095000Y-88078571D01*
X154237858Y-88150000D01*
X154309286Y-88221429D01*
X154380715Y-88364286D01*
X154380715Y-88578571D01*
X154309286Y-88721429D01*
X154237858Y-88792857D01*
X154095000Y-88864286D01*
X153523572Y-88864286D01*
X155023572Y-89578571D02*
X155023572Y-88078571D01*
X155523572Y-88078571D02*
X156023572Y-89578571D01*
X156523572Y-88078571D01*
X157023572Y-88792857D02*
X157523572Y-88792857D01*
X157737858Y-89578571D02*
X157023572Y-89578571D01*
X157023572Y-88078571D01*
X157737858Y-88078571D01*
X160380715Y-89578571D02*
X159880715Y-88864286D01*
X159523572Y-89578571D02*
X159523572Y-88078571D01*
X160095000Y-88078571D01*
X160237858Y-88150000D01*
X160309286Y-88221429D01*
X160380715Y-88364286D01*
X160380715Y-88578571D01*
X160309286Y-88721429D01*
X160237858Y-88792857D01*
X160095000Y-88864286D01*
X159523572Y-88864286D01*
X161023572Y-88792857D02*
X161523572Y-88792857D01*
X161737858Y-89578571D02*
X161023572Y-89578571D01*
X161023572Y-88078571D01*
X161737858Y-88078571D01*
X162309286Y-89150000D02*
X163023572Y-89150000D01*
X162166429Y-89578571D02*
X162666429Y-88078571D01*
X163166429Y-89578571D01*
X163666429Y-89578571D02*
X163666429Y-88078571D01*
X164023572Y-88078571D01*
X164237857Y-88150000D01*
X164380715Y-88292857D01*
X164452143Y-88435714D01*
X164523572Y-88721429D01*
X164523572Y-88935714D01*
X164452143Y-89221429D01*
X164380715Y-89364286D01*
X164237857Y-89507143D01*
X164023572Y-89578571D01*
X163666429Y-89578571D01*
X165166429Y-88792857D02*
X165666429Y-88792857D01*
X165880715Y-89578571D02*
X165166429Y-89578571D01*
X165166429Y-88078571D01*
X165880715Y-88078571D01*
X167380715Y-89578571D02*
X166880715Y-88864286D01*
X166523572Y-89578571D02*
X166523572Y-88078571D01*
X167095000Y-88078571D01*
X167237858Y-88150000D01*
X167309286Y-88221429D01*
X167380715Y-88364286D01*
X167380715Y-88578571D01*
X167309286Y-88721429D01*
X167237858Y-88792857D01*
X167095000Y-88864286D01*
X166523572Y-88864286D01*
X145885001Y-85895714D02*
X145742143Y-85824286D01*
X145456429Y-85824286D01*
X145313572Y-85895714D01*
X145170715Y-86038571D01*
X145099286Y-86181429D01*
X145099286Y-86467143D01*
X145170715Y-86610000D01*
X145313572Y-86752857D01*
X145456429Y-86824286D01*
X145742143Y-86824286D01*
X145885001Y-86752857D01*
X145599286Y-85324286D02*
X145242143Y-85395714D01*
X144885001Y-85610000D01*
X144670715Y-85967143D01*
X144599286Y-86324286D01*
X144670715Y-86681429D01*
X144885001Y-87038571D01*
X145242143Y-87252857D01*
X145599286Y-87324286D01*
X145956429Y-87252857D01*
X146313572Y-87038571D01*
X146527858Y-86681429D01*
X146599286Y-86324286D01*
X146527858Y-85967143D01*
X146313572Y-85610000D01*
X145956429Y-85395714D01*
X145599286Y-85324286D01*
X147170715Y-85681429D02*
X147242144Y-85610000D01*
X147385001Y-85538571D01*
X147742144Y-85538571D01*
X147885001Y-85610000D01*
X147956430Y-85681429D01*
X148027858Y-85824286D01*
X148027858Y-85967143D01*
X147956430Y-86181429D01*
X147099287Y-87038571D01*
X148027858Y-87038571D01*
X148956429Y-85538571D02*
X149099286Y-85538571D01*
X149242143Y-85610000D01*
X149313572Y-85681429D01*
X149385001Y-85824286D01*
X149456429Y-86110000D01*
X149456429Y-86467143D01*
X149385001Y-86752857D01*
X149313572Y-86895714D01*
X149242143Y-86967143D01*
X149099286Y-87038571D01*
X148956429Y-87038571D01*
X148813572Y-86967143D01*
X148742143Y-86895714D01*
X148670715Y-86752857D01*
X148599286Y-86467143D01*
X148599286Y-86110000D01*
X148670715Y-85824286D01*
X148742143Y-85681429D01*
X148813572Y-85610000D01*
X148956429Y-85538571D01*
X150885000Y-87038571D02*
X150027857Y-87038571D01*
X150456429Y-87038571D02*
X150456429Y-85538571D01*
X150313572Y-85752857D01*
X150170714Y-85895714D01*
X150027857Y-85967143D01*
X151742143Y-86181429D02*
X151599285Y-86110000D01*
X151527857Y-86038571D01*
X151456428Y-85895714D01*
X151456428Y-85824286D01*
X151527857Y-85681429D01*
X151599285Y-85610000D01*
X151742143Y-85538571D01*
X152027857Y-85538571D01*
X152170714Y-85610000D01*
X152242143Y-85681429D01*
X152313571Y-85824286D01*
X152313571Y-85895714D01*
X152242143Y-86038571D01*
X152170714Y-86110000D01*
X152027857Y-86181429D01*
X151742143Y-86181429D01*
X151599285Y-86252857D01*
X151527857Y-86324286D01*
X151456428Y-86467143D01*
X151456428Y-86752857D01*
X151527857Y-86895714D01*
X151599285Y-86967143D01*
X151742143Y-87038571D01*
X152027857Y-87038571D01*
X152170714Y-86967143D01*
X152242143Y-86895714D01*
X152313571Y-86752857D01*
X152313571Y-86467143D01*
X152242143Y-86324286D01*
X152170714Y-86252857D01*
X152027857Y-86181429D01*
X154027856Y-86610000D02*
X154742142Y-86610000D01*
X153884999Y-87038571D02*
X154384999Y-85538571D01*
X154884999Y-87038571D01*
X155599285Y-87038571D02*
X155456427Y-86967143D01*
X155384999Y-86824286D01*
X155384999Y-85538571D01*
X156742141Y-86967143D02*
X156599284Y-87038571D01*
X156313570Y-87038571D01*
X156170713Y-86967143D01*
X156099284Y-86824286D01*
X156099284Y-86252857D01*
X156170713Y-86110000D01*
X156313570Y-86038571D01*
X156599284Y-86038571D01*
X156742141Y-86110000D01*
X156813570Y-86252857D01*
X156813570Y-86395714D01*
X156099284Y-86538571D01*
X157456427Y-86038571D02*
X157456427Y-87538571D01*
X157456427Y-86110000D02*
X157599284Y-86038571D01*
X157884998Y-86038571D01*
X158027855Y-86110000D01*
X158099284Y-86181429D01*
X158170713Y-86324286D01*
X158170713Y-86752857D01*
X158099284Y-86895714D01*
X158027855Y-86967143D01*
X157884998Y-87038571D01*
X157599284Y-87038571D01*
X157456427Y-86967143D01*
X158813570Y-87038571D02*
X158813570Y-85538571D01*
X159456427Y-87038571D02*
X159456427Y-86252857D01*
X159384998Y-86110000D01*
X159242141Y-86038571D01*
X159027856Y-86038571D01*
X158884998Y-86110000D01*
X158813570Y-86181429D01*
X161599284Y-85538571D02*
X161884998Y-85538571D01*
X162027856Y-85610000D01*
X162170713Y-85752857D01*
X162242141Y-86038571D01*
X162242141Y-86538571D01*
X162170713Y-86824286D01*
X162027856Y-86967143D01*
X161884998Y-87038571D01*
X161599284Y-87038571D01*
X161456427Y-86967143D01*
X161313570Y-86824286D01*
X161242141Y-86538571D01*
X161242141Y-86038571D01*
X161313570Y-85752857D01*
X161456427Y-85610000D01*
X161599284Y-85538571D01*
X162884999Y-87038571D02*
X162884999Y-85538571D01*
X162884999Y-86110000D02*
X163027856Y-86038571D01*
X163313570Y-86038571D01*
X163456427Y-86110000D01*
X163527856Y-86181429D01*
X163599285Y-86324286D01*
X163599285Y-86752857D01*
X163527856Y-86895714D01*
X163456427Y-86967143D01*
X163313570Y-87038571D01*
X163027856Y-87038571D01*
X162884999Y-86967143D01*
X164242142Y-86038571D02*
X164242142Y-87324286D01*
X164170713Y-87467143D01*
X164027856Y-87538571D01*
X163956428Y-87538571D01*
X164242142Y-85538571D02*
X164170713Y-85610000D01*
X164242142Y-85681429D01*
X164313570Y-85610000D01*
X164242142Y-85538571D01*
X164242142Y-85681429D01*
X165527856Y-86967143D02*
X165384999Y-87038571D01*
X165099285Y-87038571D01*
X164956428Y-86967143D01*
X164884999Y-86824286D01*
X164884999Y-86252857D01*
X164956428Y-86110000D01*
X165099285Y-86038571D01*
X165384999Y-86038571D01*
X165527856Y-86110000D01*
X165599285Y-86252857D01*
X165599285Y-86395714D01*
X164884999Y-86538571D01*
X166884999Y-86967143D02*
X166742142Y-87038571D01*
X166456428Y-87038571D01*
X166313570Y-86967143D01*
X166242142Y-86895714D01*
X166170713Y-86752857D01*
X166170713Y-86324286D01*
X166242142Y-86181429D01*
X166313570Y-86110000D01*
X166456428Y-86038571D01*
X166742142Y-86038571D01*
X166884999Y-86110000D01*
X167313570Y-86038571D02*
X167884999Y-86038571D01*
X167527856Y-85538571D02*
X167527856Y-86824286D01*
X167599284Y-86967143D01*
X167742142Y-87038571D01*
X167884999Y-87038571D01*
X168313570Y-86967143D02*
X168456427Y-87038571D01*
X168742142Y-87038571D01*
X168884999Y-86967143D01*
X168956427Y-86824286D01*
X168956427Y-86752857D01*
X168884999Y-86610000D01*
X168742142Y-86538571D01*
X168527856Y-86538571D01*
X168384999Y-86467143D01*
X168313570Y-86324286D01*
X168313570Y-86252857D01*
X168384999Y-86110000D01*
X168527856Y-86038571D01*
X168742142Y-86038571D01*
X168884999Y-86110000D01*
X169670713Y-86967143D02*
X169670713Y-87038571D01*
X169599285Y-87181429D01*
X169527856Y-87252857D01*
X171456428Y-87038571D02*
X171456428Y-85538571D01*
X172170714Y-86038571D02*
X172170714Y-87038571D01*
X172170714Y-86181429D02*
X172242142Y-86110000D01*
X172385000Y-86038571D01*
X172599285Y-86038571D01*
X172742142Y-86110000D01*
X172813571Y-86252857D01*
X172813571Y-87038571D01*
X174170714Y-86967143D02*
X174027857Y-87038571D01*
X173742143Y-87038571D01*
X173599285Y-86967143D01*
X173527857Y-86895714D01*
X173456428Y-86752857D01*
X173456428Y-86324286D01*
X173527857Y-86181429D01*
X173599285Y-86110000D01*
X173742143Y-86038571D01*
X174027857Y-86038571D01*
X174170714Y-86110000D01*
D11*
X162092000Y-94580000D02*
G75*
G03X162092000Y-94580000I-100000J0D01*
G01*
D13*
X162592000Y-94480000D02*
X162592000Y-95580000D01*
X162592000Y-95580000D02*
X163792000Y-95580000D01*
X163792000Y-92380000D02*
X162592000Y-92380000D01*
X162592000Y-92380000D02*
X162592000Y-93380000D01*
X166592000Y-94580000D02*
X166592000Y-95580000D01*
X166592000Y-95580000D02*
X165392000Y-95580000D01*
X165392000Y-92380000D02*
X166592000Y-92380000D01*
X166592000Y-92380000D02*
X166592000Y-93380000D01*
X159635000Y-111125000D02*
X160435000Y-111125000D01*
X160035000Y-111525000D02*
X160035000Y-110725000D01*
X148534120Y-113324640D02*
X157535880Y-113324640D01*
X157535880Y-108925360D02*
X148534120Y-108925360D01*
X159438340Y-113324640D02*
X159438340Y-108925360D01*
X159635000Y-116205000D02*
X160435000Y-116205000D01*
X160035000Y-116605000D02*
X160035000Y-115805000D01*
X148534120Y-118404640D02*
X157535880Y-118404640D01*
X157535880Y-114005360D02*
X148534120Y-114005360D01*
X159438340Y-118404640D02*
X159438340Y-114005360D01*
X158588000Y-97059000D02*
X158588000Y-97759000D01*
X157388000Y-97759000D02*
X157388000Y-97059000D01*
X170530000Y-97120000D02*
X169830000Y-97120000D01*
X169830000Y-95920000D02*
X170530000Y-95920000D01*
X159924000Y-92872000D02*
X160624000Y-92872000D01*
X160624000Y-94072000D02*
X159924000Y-94072000D01*
X170530000Y-99152000D02*
X169830000Y-99152000D01*
X169830000Y-97952000D02*
X170530000Y-97952000D01*
X169830000Y-93888000D02*
X170530000Y-93888000D01*
X170530000Y-95088000D02*
X169830000Y-95088000D01*
X186960000Y-111955000D02*
X188960000Y-111955000D01*
X188960000Y-114105000D02*
X186960000Y-114105000D01*
X128800000Y-111760000D02*
X129350000Y-111200000D01*
X128800000Y-91440000D02*
X129350000Y-91980000D01*
X137900000Y-111760000D02*
X137350000Y-111200000D01*
X137900000Y-91440000D02*
X137350000Y-91980000D01*
X137350000Y-111200000D02*
X129350000Y-111200000D01*
X137900000Y-111760000D02*
X128800000Y-111760000D01*
X137350000Y-91980000D02*
X129350000Y-91980000D01*
X137900000Y-91440000D02*
X128800000Y-91440000D01*
X129350000Y-103850000D02*
X128800000Y-103850000D01*
X129350000Y-99350000D02*
X128800000Y-99350000D01*
X129350000Y-103850000D02*
X129350000Y-111200000D01*
X129350000Y-91980000D02*
X129350000Y-99350000D01*
X128800000Y-91440000D02*
X128800000Y-111760000D01*
X137350000Y-91980000D02*
X137350000Y-111200000D01*
X137900000Y-91440000D02*
X137900000Y-111760000D01*
X180240000Y-108100000D02*
X178840000Y-108100000D01*
X180240000Y-95100000D02*
X178840000Y-95100000D01*
X185240000Y-108100000D02*
X185240000Y-110600000D01*
X180240000Y-108100000D02*
X180240000Y-110600000D01*
X180240000Y-95100000D02*
X180240000Y-92600000D01*
X180240000Y-92600000D02*
X185240000Y-92600000D01*
X185240000Y-92600000D02*
X185240000Y-95100000D01*
X185240000Y-95100000D02*
X192840000Y-95100000D01*
X180240000Y-110600000D02*
X185240000Y-110600000D01*
X185240000Y-108100000D02*
X192840000Y-108100000D01*
X178840000Y-95100000D02*
X178840000Y-108100000D01*
X141470000Y-107355000D02*
X140470000Y-107355000D01*
X140470000Y-106005000D02*
X141470000Y-106005000D01*
X146550000Y-108879000D02*
X145550000Y-108879000D01*
X145550000Y-107529000D02*
X146550000Y-107529000D01*
X155440000Y-95163000D02*
X154440000Y-95163000D01*
X154440000Y-93813000D02*
X155440000Y-93813000D01*
X172458000Y-103545000D02*
X171458000Y-103545000D01*
X171458000Y-102195000D02*
X172458000Y-102195000D01*
X172458000Y-101005000D02*
X171458000Y-101005000D01*
X171458000Y-99655000D02*
X172458000Y-99655000D01*
X171958000Y-117094000D02*
X170180000Y-117094000D01*
X172085000Y-110236000D02*
X172085000Y-117094000D01*
X164084000Y-110236000D02*
X171958000Y-110236000D01*
X164084000Y-117094000D02*
X164084000Y-110236000D01*
X170180000Y-117094000D02*
X164084000Y-117094000D01*
X160909000Y-112268000D02*
X164084000Y-112268000D01*
X160909000Y-110490000D02*
X160909000Y-112268000D01*
X164084000Y-110490000D02*
X160909000Y-110490000D01*
X160909000Y-116840000D02*
X164084000Y-116840000D01*
X160909000Y-115062000D02*
X160909000Y-116840000D01*
X164084000Y-115062000D02*
X160909000Y-115062000D01*
X177730000Y-102350000D02*
X177480000Y-102350000D01*
X177730000Y-100850000D02*
X177480000Y-100850000D01*
X175330000Y-102350000D02*
X175580000Y-102350000D01*
X175330000Y-100850000D02*
X175580000Y-100850000D01*
X177730000Y-102350000D02*
X177730000Y-100850000D01*
X175330000Y-100850000D02*
X175330000Y-102350000D01*
X187610000Y-116875000D02*
X188310000Y-116875000D01*
X188310000Y-118075000D02*
X187610000Y-118075000D01*
X187610000Y-114970000D02*
X188310000Y-114970000D01*
X188310000Y-116170000D02*
X187610000Y-116170000D01*
X156718000Y-102616000D02*
X145542000Y-102616000D01*
X156718000Y-98044000D02*
X156718000Y-102616000D01*
X145542000Y-98044000D02*
X156718000Y-98044000D01*
X145542000Y-102616000D02*
X145542000Y-98044000D01*
X155956000Y-99568000D02*
X156718000Y-99568000D01*
X155956000Y-101092000D02*
X155956000Y-99568000D01*
X156718000Y-101092000D02*
X155956000Y-101092000D01*
X160570000Y-99400000D02*
X159345000Y-99400000D01*
X165820000Y-98975000D02*
X165310000Y-98975000D01*
X165820000Y-104225000D02*
X165310000Y-104225000D01*
X160570000Y-104225000D02*
X161080000Y-104225000D01*
X160570000Y-98975000D02*
X161080000Y-98975000D01*
X160570000Y-104225000D02*
X160570000Y-103715000D01*
X165820000Y-104225000D02*
X165820000Y-103715000D01*
X165820000Y-98975000D02*
X165820000Y-99485000D01*
X160570000Y-98975000D02*
X160570000Y-99400000D01*
X189628780Y-90319860D02*
X189989460Y-91790520D01*
X189989460Y-91790520D02*
X190268860Y-90728800D01*
X190268860Y-90728800D02*
X190578740Y-91800680D01*
X190578740Y-91800680D02*
X190919100Y-90350340D01*
X188208920Y-91010740D02*
X188998860Y-91000580D01*
X188998860Y-91000580D02*
X189009020Y-91010740D01*
X189009020Y-91010740D02*
X189009020Y-91000580D01*
X189049660Y-90289380D02*
X189049660Y-91831160D01*
X188160660Y-90279220D02*
X188160660Y-91848940D01*
X188160660Y-91848940D02*
X188170820Y-91838780D01*
X187609480Y-90380820D02*
X187258960Y-90299540D01*
X187258960Y-90299540D02*
X186938920Y-90289380D01*
X186938920Y-90289380D02*
X186700160Y-90490040D01*
X186700160Y-90490040D02*
X186669680Y-90759280D01*
X186669680Y-90759280D02*
X186910980Y-91000580D01*
X186910980Y-91000580D02*
X187299600Y-91130120D01*
X187299600Y-91130120D02*
X187479940Y-91290140D01*
X187479940Y-91290140D02*
X187520580Y-91589860D01*
X187520580Y-91589860D02*
X187289440Y-91810840D01*
X187289440Y-91810840D02*
X186969400Y-91838780D01*
X186969400Y-91838780D02*
X186618880Y-91729560D01*
X185580020Y-90279220D02*
X185331100Y-90299540D01*
X185331100Y-90299540D02*
X185089800Y-90540840D01*
X185089800Y-90540840D02*
X185000900Y-91031060D01*
X185000900Y-91031060D02*
X185028840Y-91379040D01*
X185028840Y-91379040D02*
X185229500Y-91699080D01*
X185229500Y-91699080D02*
X185480960Y-91821000D01*
X185480960Y-91821000D02*
X185790840Y-91749880D01*
X185790840Y-91749880D02*
X186009280Y-91569540D01*
X186009280Y-91569540D02*
X186080400Y-91109800D01*
X186080400Y-91109800D02*
X186029600Y-90700860D01*
X186029600Y-90700860D02*
X185920380Y-90418920D01*
X185920380Y-90418920D02*
X185559700Y-90289380D01*
X186179460Y-88559640D02*
X185920380Y-89120980D01*
X185920380Y-89120980D02*
X186458860Y-89639140D01*
X186458860Y-89639140D02*
X186979560Y-89369900D01*
X186979560Y-89369900D02*
X187258960Y-89529920D01*
X188699140Y-89509600D02*
X189029340Y-89319100D01*
X189029340Y-89319100D02*
X189468760Y-89649300D01*
X189468760Y-89649300D02*
X189941200Y-89159080D01*
X189941200Y-89159080D02*
X189659260Y-88679020D01*
X189659260Y-88679020D02*
X189849760Y-88209120D01*
X189849760Y-88209120D02*
X190459360Y-88021160D01*
X190459360Y-88021160D02*
X190459360Y-87340440D01*
X190459360Y-87340440D02*
X189900560Y-87200740D01*
X189900560Y-87200740D02*
X189699900Y-86629240D01*
X189699900Y-86629240D02*
X189969140Y-86159340D01*
X189969140Y-86159340D02*
X189499240Y-85648800D01*
X189499240Y-85648800D02*
X188981080Y-85910420D01*
X188981080Y-85910420D02*
X188511180Y-85709760D01*
X188511180Y-85709760D02*
X188341000Y-85168740D01*
X188341000Y-85168740D02*
X187650120Y-85150960D01*
X187650120Y-85150960D02*
X187439300Y-85699600D01*
X187439300Y-85699600D02*
X187020200Y-85869780D01*
X187020200Y-85869780D02*
X186469020Y-85600540D01*
X186469020Y-85600540D02*
X185950860Y-86128860D01*
X185950860Y-86128860D02*
X186199780Y-86669880D01*
X186199780Y-86669880D02*
X186029600Y-87149940D01*
X186029600Y-87149940D02*
X185480960Y-87249000D01*
X185480960Y-87249000D02*
X185470800Y-87950040D01*
X185470800Y-87950040D02*
X186029600Y-88150700D01*
X186029600Y-88150700D02*
X186169300Y-88549480D01*
X188310520Y-88529160D02*
X188610240Y-88379300D01*
X188610240Y-88379300D02*
X188810900Y-88181180D01*
X188810900Y-88181180D02*
X188960760Y-87779860D01*
X188960760Y-87779860D02*
X188960760Y-87381080D01*
X188960760Y-87381080D02*
X188810900Y-87030560D01*
X188810900Y-87030560D02*
X188358780Y-86680040D01*
X188358780Y-86680040D02*
X187909200Y-86629240D01*
X187909200Y-86629240D02*
X187510420Y-86730840D01*
X187510420Y-86730840D02*
X187109100Y-87078820D01*
X187109100Y-87078820D02*
X186959240Y-87530940D01*
X186959240Y-87530940D02*
X187010040Y-88028780D01*
X187010040Y-88028780D02*
X187258960Y-88331040D01*
X187258960Y-88331040D02*
X187609480Y-88529160D01*
X187609480Y-88529160D02*
X187258960Y-89529920D01*
X188310520Y-88529160D02*
X188709300Y-89529920D01*
X167544809Y-91797190D02*
X167544809Y-92273381D01*
X167211476Y-91273381D02*
X167544809Y-91797190D01*
X167878143Y-91273381D01*
X168735286Y-92273381D02*
X168163857Y-92273381D01*
X168449571Y-92273381D02*
X168449571Y-91273381D01*
X168354333Y-91416238D01*
X168259095Y-91511476D01*
X168163857Y-91559095D01*
X145629334Y-110847143D02*
X145581715Y-110894762D01*
X145438858Y-110942381D01*
X145343620Y-110942381D01*
X145200762Y-110894762D01*
X145105524Y-110799524D01*
X145057905Y-110704286D01*
X145010286Y-110513810D01*
X145010286Y-110370952D01*
X145057905Y-110180476D01*
X145105524Y-110085238D01*
X145200762Y-109990000D01*
X145343620Y-109942381D01*
X145438858Y-109942381D01*
X145581715Y-109990000D01*
X145629334Y-110037619D01*
X146010286Y-110037619D02*
X146057905Y-109990000D01*
X146153143Y-109942381D01*
X146391239Y-109942381D01*
X146486477Y-109990000D01*
X146534096Y-110037619D01*
X146581715Y-110132857D01*
X146581715Y-110228095D01*
X146534096Y-110370952D01*
X145962667Y-110942381D01*
X146581715Y-110942381D01*
X145629334Y-115927143D02*
X145581715Y-115974762D01*
X145438858Y-116022381D01*
X145343620Y-116022381D01*
X145200762Y-115974762D01*
X145105524Y-115879524D01*
X145057905Y-115784286D01*
X145010286Y-115593810D01*
X145010286Y-115450952D01*
X145057905Y-115260476D01*
X145105524Y-115165238D01*
X145200762Y-115070000D01*
X145343620Y-115022381D01*
X145438858Y-115022381D01*
X145581715Y-115070000D01*
X145629334Y-115117619D01*
X146581715Y-116022381D02*
X146010286Y-116022381D01*
X146296000Y-116022381D02*
X146296000Y-115022381D01*
X146200762Y-115165238D01*
X146105524Y-115260476D01*
X146010286Y-115308095D01*
X159599334Y-96877143D02*
X159551715Y-96924762D01*
X159408858Y-96972381D01*
X159313620Y-96972381D01*
X159170762Y-96924762D01*
X159075524Y-96829524D01*
X159027905Y-96734286D01*
X158980286Y-96543810D01*
X158980286Y-96400952D01*
X159027905Y-96210476D01*
X159075524Y-96115238D01*
X159170762Y-96020000D01*
X159313620Y-95972381D01*
X159408858Y-95972381D01*
X159551715Y-96020000D01*
X159599334Y-96067619D01*
X159932667Y-95972381D02*
X160551715Y-95972381D01*
X160218381Y-96353333D01*
X160361239Y-96353333D01*
X160456477Y-96400952D01*
X160504096Y-96448571D01*
X160551715Y-96543810D01*
X160551715Y-96781905D01*
X160504096Y-96877143D01*
X160456477Y-96924762D01*
X160361239Y-96972381D01*
X160075524Y-96972381D01*
X159980286Y-96924762D01*
X159932667Y-96877143D01*
X174077334Y-96877143D02*
X174029715Y-96924762D01*
X173886858Y-96972381D01*
X173791620Y-96972381D01*
X173648762Y-96924762D01*
X173553524Y-96829524D01*
X173505905Y-96734286D01*
X173458286Y-96543810D01*
X173458286Y-96400952D01*
X173505905Y-96210476D01*
X173553524Y-96115238D01*
X173648762Y-96020000D01*
X173791620Y-95972381D01*
X173886858Y-95972381D01*
X174029715Y-96020000D01*
X174077334Y-96067619D01*
X174934477Y-96305714D02*
X174934477Y-96972381D01*
X174696381Y-95924762D02*
X174458286Y-96639048D01*
X175077334Y-96639048D01*
X160107334Y-95353143D02*
X160059715Y-95400762D01*
X159916858Y-95448381D01*
X159821620Y-95448381D01*
X159678762Y-95400762D01*
X159583524Y-95305524D01*
X159535905Y-95210286D01*
X159488286Y-95019810D01*
X159488286Y-94876952D01*
X159535905Y-94686476D01*
X159583524Y-94591238D01*
X159678762Y-94496000D01*
X159821620Y-94448381D01*
X159916858Y-94448381D01*
X160059715Y-94496000D01*
X160107334Y-94543619D01*
X161012096Y-94448381D02*
X160535905Y-94448381D01*
X160488286Y-94924571D01*
X160535905Y-94876952D01*
X160631143Y-94829333D01*
X160869239Y-94829333D01*
X160964477Y-94876952D01*
X161012096Y-94924571D01*
X161059715Y-95019810D01*
X161059715Y-95257905D01*
X161012096Y-95353143D01*
X160964477Y-95400762D01*
X160869239Y-95448381D01*
X160631143Y-95448381D01*
X160535905Y-95400762D01*
X160488286Y-95353143D01*
X174077334Y-98909143D02*
X174029715Y-98956762D01*
X173886858Y-99004381D01*
X173791620Y-99004381D01*
X173648762Y-98956762D01*
X173553524Y-98861524D01*
X173505905Y-98766286D01*
X173458286Y-98575810D01*
X173458286Y-98432952D01*
X173505905Y-98242476D01*
X173553524Y-98147238D01*
X173648762Y-98052000D01*
X173791620Y-98004381D01*
X173886858Y-98004381D01*
X174029715Y-98052000D01*
X174077334Y-98099619D01*
X174934477Y-98004381D02*
X174744000Y-98004381D01*
X174648762Y-98052000D01*
X174601143Y-98099619D01*
X174505905Y-98242476D01*
X174458286Y-98432952D01*
X174458286Y-98813905D01*
X174505905Y-98909143D01*
X174553524Y-98956762D01*
X174648762Y-99004381D01*
X174839239Y-99004381D01*
X174934477Y-98956762D01*
X174982096Y-98909143D01*
X175029715Y-98813905D01*
X175029715Y-98575810D01*
X174982096Y-98480571D01*
X174934477Y-98432952D01*
X174839239Y-98385333D01*
X174648762Y-98385333D01*
X174553524Y-98432952D01*
X174505905Y-98480571D01*
X174458286Y-98575810D01*
X174077334Y-94845143D02*
X174029715Y-94892762D01*
X173886858Y-94940381D01*
X173791620Y-94940381D01*
X173648762Y-94892762D01*
X173553524Y-94797524D01*
X173505905Y-94702286D01*
X173458286Y-94511810D01*
X173458286Y-94368952D01*
X173505905Y-94178476D01*
X173553524Y-94083238D01*
X173648762Y-93988000D01*
X173791620Y-93940381D01*
X173886858Y-93940381D01*
X174029715Y-93988000D01*
X174077334Y-94035619D01*
X174410667Y-93940381D02*
X175077334Y-93940381D01*
X174648762Y-94940381D01*
X187626667Y-111053571D02*
X187293333Y-111053571D01*
X187293333Y-111577381D02*
X187293333Y-110577381D01*
X187769524Y-110577381D01*
X188674286Y-111577381D02*
X188102857Y-111577381D01*
X188388571Y-111577381D02*
X188388571Y-110577381D01*
X188293333Y-110720238D01*
X188198095Y-110815476D01*
X188102857Y-110863095D01*
X132611905Y-90495381D02*
X132611905Y-89495381D01*
X132992858Y-89495381D01*
X133088096Y-89543000D01*
X133135715Y-89590619D01*
X133183334Y-89685857D01*
X133183334Y-89828714D01*
X133135715Y-89923952D01*
X133088096Y-89971571D01*
X132992858Y-90019190D01*
X132611905Y-90019190D01*
X134135715Y-90495381D02*
X133564286Y-90495381D01*
X133850000Y-90495381D02*
X133850000Y-89495381D01*
X133754762Y-89638238D01*
X133659524Y-89733476D01*
X133564286Y-89781095D01*
X187221905Y-109672381D02*
X187221905Y-108672381D01*
X187602858Y-108672381D01*
X187698096Y-108720000D01*
X187745715Y-108767619D01*
X187793334Y-108862857D01*
X187793334Y-109005714D01*
X187745715Y-109100952D01*
X187698096Y-109148571D01*
X187602858Y-109196190D01*
X187221905Y-109196190D01*
X188174286Y-108767619D02*
X188221905Y-108720000D01*
X188317143Y-108672381D01*
X188555239Y-108672381D01*
X188650477Y-108720000D01*
X188698096Y-108767619D01*
X188745715Y-108862857D01*
X188745715Y-108958095D01*
X188698096Y-109100952D01*
X188126667Y-109672381D01*
X188745715Y-109672381D01*
X140803334Y-105354381D02*
X140470000Y-104878190D01*
X140231905Y-105354381D02*
X140231905Y-104354381D01*
X140612858Y-104354381D01*
X140708096Y-104402000D01*
X140755715Y-104449619D01*
X140803334Y-104544857D01*
X140803334Y-104687714D01*
X140755715Y-104782952D01*
X140708096Y-104830571D01*
X140612858Y-104878190D01*
X140231905Y-104878190D01*
X141755715Y-105354381D02*
X141184286Y-105354381D01*
X141470000Y-105354381D02*
X141470000Y-104354381D01*
X141374762Y-104497238D01*
X141279524Y-104592476D01*
X141184286Y-104640095D01*
X145883334Y-106878381D02*
X145550000Y-106402190D01*
X145311905Y-106878381D02*
X145311905Y-105878381D01*
X145692858Y-105878381D01*
X145788096Y-105926000D01*
X145835715Y-105973619D01*
X145883334Y-106068857D01*
X145883334Y-106211714D01*
X145835715Y-106306952D01*
X145788096Y-106354571D01*
X145692858Y-106402190D01*
X145311905Y-106402190D01*
X146264286Y-105973619D02*
X146311905Y-105926000D01*
X146407143Y-105878381D01*
X146645239Y-105878381D01*
X146740477Y-105926000D01*
X146788096Y-105973619D01*
X146835715Y-106068857D01*
X146835715Y-106164095D01*
X146788096Y-106306952D01*
X146216667Y-106878381D01*
X146835715Y-106878381D01*
X151217334Y-94940381D02*
X150884000Y-94464190D01*
X150645905Y-94940381D02*
X150645905Y-93940381D01*
X151026858Y-93940381D01*
X151122096Y-93988000D01*
X151169715Y-94035619D01*
X151217334Y-94130857D01*
X151217334Y-94273714D01*
X151169715Y-94368952D01*
X151122096Y-94416571D01*
X151026858Y-94464190D01*
X150645905Y-94464190D01*
X151550667Y-93940381D02*
X152169715Y-93940381D01*
X151836381Y-94321333D01*
X151979239Y-94321333D01*
X152074477Y-94368952D01*
X152122096Y-94416571D01*
X152169715Y-94511810D01*
X152169715Y-94749905D01*
X152122096Y-94845143D01*
X152074477Y-94892762D01*
X151979239Y-94940381D01*
X151693524Y-94940381D01*
X151598286Y-94892762D01*
X151550667Y-94845143D01*
X168362334Y-103449381D02*
X168029000Y-102973190D01*
X167790905Y-103449381D02*
X167790905Y-102449381D01*
X168171858Y-102449381D01*
X168267096Y-102497000D01*
X168314715Y-102544619D01*
X168362334Y-102639857D01*
X168362334Y-102782714D01*
X168314715Y-102877952D01*
X168267096Y-102925571D01*
X168171858Y-102973190D01*
X167790905Y-102973190D01*
X169219477Y-102782714D02*
X169219477Y-103449381D01*
X168981381Y-102401762D02*
X168743286Y-103116048D01*
X169362334Y-103116048D01*
X168616334Y-100782381D02*
X168283000Y-100306190D01*
X168044905Y-100782381D02*
X168044905Y-99782381D01*
X168425858Y-99782381D01*
X168521096Y-99830000D01*
X168568715Y-99877619D01*
X168616334Y-99972857D01*
X168616334Y-100115714D01*
X168568715Y-100210952D01*
X168521096Y-100258571D01*
X168425858Y-100306190D01*
X168044905Y-100306190D01*
X169521096Y-99782381D02*
X169044905Y-99782381D01*
X168997286Y-100258571D01*
X169044905Y-100210952D01*
X169140143Y-100163333D01*
X169378239Y-100163333D01*
X169473477Y-100210952D01*
X169521096Y-100258571D01*
X169568715Y-100353810D01*
X169568715Y-100591905D01*
X169521096Y-100687143D01*
X169473477Y-100734762D01*
X169378239Y-100782381D01*
X169140143Y-100782381D01*
X169044905Y-100734762D01*
X168997286Y-100687143D01*
X170180095Y-108418381D02*
X170180095Y-109227905D01*
X170227714Y-109323143D01*
X170275333Y-109370762D01*
X170370571Y-109418381D01*
X170561048Y-109418381D01*
X170656286Y-109370762D01*
X170703905Y-109323143D01*
X170751524Y-109227905D01*
X170751524Y-108418381D01*
X171751524Y-109418381D02*
X171180095Y-109418381D01*
X171465809Y-109418381D02*
X171465809Y-108418381D01*
X171370571Y-108561238D01*
X171275333Y-108656476D01*
X171180095Y-108704095D01*
X175882381Y-104336905D02*
X176415714Y-104336905D01*
X175882381Y-105136905D01*
X176415714Y-105136905D01*
X177139524Y-105136905D02*
X176682381Y-105136905D01*
X176910952Y-105136905D02*
X176910952Y-104336905D01*
X176834762Y-104451190D01*
X176758571Y-104527381D01*
X176682381Y-104565476D01*
X190968334Y-117832143D02*
X190920715Y-117879762D01*
X190777858Y-117927381D01*
X190682620Y-117927381D01*
X190539762Y-117879762D01*
X190444524Y-117784524D01*
X190396905Y-117689286D01*
X190349286Y-117498810D01*
X190349286Y-117355952D01*
X190396905Y-117165476D01*
X190444524Y-117070238D01*
X190539762Y-116975000D01*
X190682620Y-116927381D01*
X190777858Y-116927381D01*
X190920715Y-116975000D01*
X190968334Y-117022619D01*
X191539762Y-117355952D02*
X191444524Y-117308333D01*
X191396905Y-117260714D01*
X191349286Y-117165476D01*
X191349286Y-117117857D01*
X191396905Y-117022619D01*
X191444524Y-116975000D01*
X191539762Y-116927381D01*
X191730239Y-116927381D01*
X191825477Y-116975000D01*
X191873096Y-117022619D01*
X191920715Y-117117857D01*
X191920715Y-117165476D01*
X191873096Y-117260714D01*
X191825477Y-117308333D01*
X191730239Y-117355952D01*
X191539762Y-117355952D01*
X191444524Y-117403571D01*
X191396905Y-117451190D01*
X191349286Y-117546429D01*
X191349286Y-117736905D01*
X191396905Y-117832143D01*
X191444524Y-117879762D01*
X191539762Y-117927381D01*
X191730239Y-117927381D01*
X191825477Y-117879762D01*
X191873096Y-117832143D01*
X191920715Y-117736905D01*
X191920715Y-117546429D01*
X191873096Y-117451190D01*
X191825477Y-117403571D01*
X191730239Y-117355952D01*
X190968334Y-116022381D02*
X190492143Y-116022381D01*
X190492143Y-115022381D01*
X191825477Y-116022381D02*
X191254048Y-116022381D01*
X191539762Y-116022381D02*
X191539762Y-115022381D01*
X191444524Y-115165238D01*
X191349286Y-115260476D01*
X191254048Y-115308095D01*
X143383095Y-96480381D02*
X143383095Y-97289905D01*
X143430714Y-97385143D01*
X143478333Y-97432762D01*
X143573571Y-97480381D01*
X143764048Y-97480381D01*
X143859286Y-97432762D01*
X143906905Y-97385143D01*
X143954524Y-97289905D01*
X143954524Y-96480381D01*
X144383095Y-96575619D02*
X144430714Y-96528000D01*
X144525952Y-96480381D01*
X144764048Y-96480381D01*
X144859286Y-96528000D01*
X144906905Y-96575619D01*
X144954524Y-96670857D01*
X144954524Y-96766095D01*
X144906905Y-96908952D01*
X144335476Y-97480381D01*
X144954524Y-97480381D01*
X162433095Y-96202381D02*
X162433095Y-97011905D01*
X162480714Y-97107143D01*
X162528333Y-97154762D01*
X162623571Y-97202381D01*
X162814048Y-97202381D01*
X162909286Y-97154762D01*
X162956905Y-97107143D01*
X163004524Y-97011905D01*
X163004524Y-96202381D01*
X163385476Y-96202381D02*
X164004524Y-96202381D01*
X163671190Y-96583333D01*
X163814048Y-96583333D01*
X163909286Y-96630952D01*
X163956905Y-96678571D01*
X164004524Y-96773810D01*
X164004524Y-97011905D01*
X163956905Y-97107143D01*
X163909286Y-97154762D01*
X163814048Y-97202381D01*
X163528333Y-97202381D01*
X163433095Y-97154762D01*
X163385476Y-97107143D01*
M02*
