G04 #@! TF.FileFunction,Legend,Top*
%FSLAX46Y46*%
G04 Gerber Fmt 4.6, Leading zero omitted, Abs format (unit mm)*
G04 Created by KiCad (PCBNEW 4.0.5+dfsg1-4) date Thu Feb 15 14:09:15 2018*
%MOMM*%
%LPD*%
G01*
G04 APERTURE LIST*
%ADD10C,0.100000*%
%ADD11C,0.300000*%
%ADD12C,0.200000*%
%ADD13C,0.150000*%
G04 APERTURE END LIST*
D10*
D11*
X155738000Y-90690000D02*
X155595143Y-90618571D01*
X155380857Y-90618571D01*
X155166572Y-90690000D01*
X155023714Y-90832857D01*
X154952286Y-90975714D01*
X154880857Y-91261429D01*
X154880857Y-91475714D01*
X154952286Y-91761429D01*
X155023714Y-91904286D01*
X155166572Y-92047143D01*
X155380857Y-92118571D01*
X155523714Y-92118571D01*
X155738000Y-92047143D01*
X155809429Y-91975714D01*
X155809429Y-91475714D01*
X155523714Y-91475714D01*
X156452286Y-92118571D02*
X156452286Y-90618571D01*
X157023714Y-90618571D01*
X157166572Y-90690000D01*
X157238000Y-90761429D01*
X157309429Y-90904286D01*
X157309429Y-91118571D01*
X157238000Y-91261429D01*
X157166572Y-91332857D01*
X157023714Y-91404286D01*
X156452286Y-91404286D01*
X158666572Y-92118571D02*
X157952286Y-92118571D01*
X157952286Y-90618571D01*
X159023715Y-91118571D02*
X159380858Y-92118571D01*
X159738000Y-91118571D01*
X160166572Y-90618571D02*
X161095143Y-90618571D01*
X160595143Y-91190000D01*
X160809429Y-91190000D01*
X160952286Y-91261429D01*
X161023715Y-91332857D01*
X161095143Y-91475714D01*
X161095143Y-91832857D01*
X161023715Y-91975714D01*
X160952286Y-92047143D01*
X160809429Y-92118571D01*
X160380857Y-92118571D01*
X160238000Y-92047143D01*
X160166572Y-91975714D01*
X147431429Y-92118571D02*
X146931429Y-91404286D01*
X146574286Y-92118571D02*
X146574286Y-90618571D01*
X147145714Y-90618571D01*
X147288572Y-90690000D01*
X147360000Y-90761429D01*
X147431429Y-90904286D01*
X147431429Y-91118571D01*
X147360000Y-91261429D01*
X147288572Y-91332857D01*
X147145714Y-91404286D01*
X146574286Y-91404286D01*
X148074286Y-91332857D02*
X148574286Y-91332857D01*
X148788572Y-92118571D02*
X148074286Y-92118571D01*
X148074286Y-90618571D01*
X148788572Y-90618571D01*
X149217143Y-90618571D02*
X149717143Y-92118571D01*
X150217143Y-90618571D01*
X150717143Y-91975714D02*
X150788571Y-92047143D01*
X150717143Y-92118571D01*
X150645714Y-92047143D01*
X150717143Y-91975714D01*
X150717143Y-92118571D01*
X152502857Y-91690000D02*
X153217143Y-91690000D01*
X152360000Y-92118571D02*
X152860000Y-90618571D01*
X153360000Y-92118571D01*
X146380715Y-88078571D02*
X146380715Y-89292857D01*
X146452143Y-89435714D01*
X146523572Y-89507143D01*
X146666429Y-89578571D01*
X146952143Y-89578571D01*
X147095001Y-89507143D01*
X147166429Y-89435714D01*
X147237858Y-89292857D01*
X147237858Y-88078571D01*
X147880715Y-89507143D02*
X148095001Y-89578571D01*
X148452144Y-89578571D01*
X148595001Y-89507143D01*
X148666430Y-89435714D01*
X148737858Y-89292857D01*
X148737858Y-89150000D01*
X148666430Y-89007143D01*
X148595001Y-88935714D01*
X148452144Y-88864286D01*
X148166430Y-88792857D01*
X148023572Y-88721429D01*
X147952144Y-88650000D01*
X147880715Y-88507143D01*
X147880715Y-88364286D01*
X147952144Y-88221429D01*
X148023572Y-88150000D01*
X148166430Y-88078571D01*
X148523572Y-88078571D01*
X148737858Y-88150000D01*
X149880715Y-88792857D02*
X150095001Y-88864286D01*
X150166429Y-88935714D01*
X150237858Y-89078571D01*
X150237858Y-89292857D01*
X150166429Y-89435714D01*
X150095001Y-89507143D01*
X149952143Y-89578571D01*
X149380715Y-89578571D01*
X149380715Y-88078571D01*
X149880715Y-88078571D01*
X150023572Y-88150000D01*
X150095001Y-88221429D01*
X150166429Y-88364286D01*
X150166429Y-88507143D01*
X150095001Y-88650000D01*
X150023572Y-88721429D01*
X149880715Y-88792857D01*
X149380715Y-88792857D01*
X152023572Y-89578571D02*
X152023572Y-88078571D01*
X152380715Y-88078571D01*
X152595000Y-88150000D01*
X152737858Y-88292857D01*
X152809286Y-88435714D01*
X152880715Y-88721429D01*
X152880715Y-88935714D01*
X152809286Y-89221429D01*
X152737858Y-89364286D01*
X152595000Y-89507143D01*
X152380715Y-89578571D01*
X152023572Y-89578571D01*
X154380715Y-89578571D02*
X153880715Y-88864286D01*
X153523572Y-89578571D02*
X153523572Y-88078571D01*
X154095000Y-88078571D01*
X154237858Y-88150000D01*
X154309286Y-88221429D01*
X154380715Y-88364286D01*
X154380715Y-88578571D01*
X154309286Y-88721429D01*
X154237858Y-88792857D01*
X154095000Y-88864286D01*
X153523572Y-88864286D01*
X155023572Y-89578571D02*
X155023572Y-88078571D01*
X155523572Y-88078571D02*
X156023572Y-89578571D01*
X156523572Y-88078571D01*
X157023572Y-88792857D02*
X157523572Y-88792857D01*
X157737858Y-89578571D02*
X157023572Y-89578571D01*
X157023572Y-88078571D01*
X157737858Y-88078571D01*
X160380715Y-89578571D02*
X159880715Y-88864286D01*
X159523572Y-89578571D02*
X159523572Y-88078571D01*
X160095000Y-88078571D01*
X160237858Y-88150000D01*
X160309286Y-88221429D01*
X160380715Y-88364286D01*
X160380715Y-88578571D01*
X160309286Y-88721429D01*
X160237858Y-88792857D01*
X160095000Y-88864286D01*
X159523572Y-88864286D01*
X161023572Y-88792857D02*
X161523572Y-88792857D01*
X161737858Y-89578571D02*
X161023572Y-89578571D01*
X161023572Y-88078571D01*
X161737858Y-88078571D01*
X162309286Y-89150000D02*
X163023572Y-89150000D01*
X162166429Y-89578571D02*
X162666429Y-88078571D01*
X163166429Y-89578571D01*
X163666429Y-89578571D02*
X163666429Y-88078571D01*
X164023572Y-88078571D01*
X164237857Y-88150000D01*
X164380715Y-88292857D01*
X164452143Y-88435714D01*
X164523572Y-88721429D01*
X164523572Y-88935714D01*
X164452143Y-89221429D01*
X164380715Y-89364286D01*
X164237857Y-89507143D01*
X164023572Y-89578571D01*
X163666429Y-89578571D01*
X165166429Y-88792857D02*
X165666429Y-88792857D01*
X165880715Y-89578571D02*
X165166429Y-89578571D01*
X165166429Y-88078571D01*
X165880715Y-88078571D01*
X167380715Y-89578571D02*
X166880715Y-88864286D01*
X166523572Y-89578571D02*
X166523572Y-88078571D01*
X167095000Y-88078571D01*
X167237858Y-88150000D01*
X167309286Y-88221429D01*
X167380715Y-88364286D01*
X167380715Y-88578571D01*
X167309286Y-88721429D01*
X167237858Y-88792857D01*
X167095000Y-88864286D01*
X166523572Y-88864286D01*
X145885001Y-85895714D02*
X145742143Y-85824286D01*
X145456429Y-85824286D01*
X145313572Y-85895714D01*
X145170715Y-86038571D01*
X145099286Y-86181429D01*
X145099286Y-86467143D01*
X145170715Y-86610000D01*
X145313572Y-86752857D01*
X145456429Y-86824286D01*
X145742143Y-86824286D01*
X145885001Y-86752857D01*
X145599286Y-85324286D02*
X145242143Y-85395714D01*
X144885001Y-85610000D01*
X144670715Y-85967143D01*
X144599286Y-86324286D01*
X144670715Y-86681429D01*
X144885001Y-87038571D01*
X145242143Y-87252857D01*
X145599286Y-87324286D01*
X145956429Y-87252857D01*
X146313572Y-87038571D01*
X146527858Y-86681429D01*
X146599286Y-86324286D01*
X146527858Y-85967143D01*
X146313572Y-85610000D01*
X145956429Y-85395714D01*
X145599286Y-85324286D01*
X147170715Y-85681429D02*
X147242144Y-85610000D01*
X147385001Y-85538571D01*
X147742144Y-85538571D01*
X147885001Y-85610000D01*
X147956430Y-85681429D01*
X148027858Y-85824286D01*
X148027858Y-85967143D01*
X147956430Y-86181429D01*
X147099287Y-87038571D01*
X148027858Y-87038571D01*
X148956429Y-85538571D02*
X149099286Y-85538571D01*
X149242143Y-85610000D01*
X149313572Y-85681429D01*
X149385001Y-85824286D01*
X149456429Y-86110000D01*
X149456429Y-86467143D01*
X149385001Y-86752857D01*
X149313572Y-86895714D01*
X149242143Y-86967143D01*
X149099286Y-87038571D01*
X148956429Y-87038571D01*
X148813572Y-86967143D01*
X148742143Y-86895714D01*
X148670715Y-86752857D01*
X148599286Y-86467143D01*
X148599286Y-86110000D01*
X148670715Y-85824286D01*
X148742143Y-85681429D01*
X148813572Y-85610000D01*
X148956429Y-85538571D01*
X150885000Y-87038571D02*
X150027857Y-87038571D01*
X150456429Y-87038571D02*
X150456429Y-85538571D01*
X150313572Y-85752857D01*
X150170714Y-85895714D01*
X150027857Y-85967143D01*
X151742143Y-86181429D02*
X151599285Y-86110000D01*
X151527857Y-86038571D01*
X151456428Y-85895714D01*
X151456428Y-85824286D01*
X151527857Y-85681429D01*
X151599285Y-85610000D01*
X151742143Y-85538571D01*
X152027857Y-85538571D01*
X152170714Y-85610000D01*
X152242143Y-85681429D01*
X152313571Y-85824286D01*
X152313571Y-85895714D01*
X152242143Y-86038571D01*
X152170714Y-86110000D01*
X152027857Y-86181429D01*
X151742143Y-86181429D01*
X151599285Y-86252857D01*
X151527857Y-86324286D01*
X151456428Y-86467143D01*
X151456428Y-86752857D01*
X151527857Y-86895714D01*
X151599285Y-86967143D01*
X151742143Y-87038571D01*
X152027857Y-87038571D01*
X152170714Y-86967143D01*
X152242143Y-86895714D01*
X152313571Y-86752857D01*
X152313571Y-86467143D01*
X152242143Y-86324286D01*
X152170714Y-86252857D01*
X152027857Y-86181429D01*
X154027856Y-86610000D02*
X154742142Y-86610000D01*
X153884999Y-87038571D02*
X154384999Y-85538571D01*
X154884999Y-87038571D01*
X155599285Y-87038571D02*
X155456427Y-86967143D01*
X155384999Y-86824286D01*
X155384999Y-85538571D01*
X156742141Y-86967143D02*
X156599284Y-87038571D01*
X156313570Y-87038571D01*
X156170713Y-86967143D01*
X156099284Y-86824286D01*
X156099284Y-86252857D01*
X156170713Y-86110000D01*
X156313570Y-86038571D01*
X156599284Y-86038571D01*
X156742141Y-86110000D01*
X156813570Y-86252857D01*
X156813570Y-86395714D01*
X156099284Y-86538571D01*
X157456427Y-86038571D02*
X157456427Y-87538571D01*
X157456427Y-86110000D02*
X157599284Y-86038571D01*
X157884998Y-86038571D01*
X158027855Y-86110000D01*
X158099284Y-86181429D01*
X158170713Y-86324286D01*
X158170713Y-86752857D01*
X158099284Y-86895714D01*
X158027855Y-86967143D01*
X157884998Y-87038571D01*
X157599284Y-87038571D01*
X157456427Y-86967143D01*
X158813570Y-87038571D02*
X158813570Y-85538571D01*
X159456427Y-87038571D02*
X159456427Y-86252857D01*
X159384998Y-86110000D01*
X159242141Y-86038571D01*
X159027856Y-86038571D01*
X158884998Y-86110000D01*
X158813570Y-86181429D01*
X161599284Y-85538571D02*
X161884998Y-85538571D01*
X162027856Y-85610000D01*
X162170713Y-85752857D01*
X162242141Y-86038571D01*
X162242141Y-86538571D01*
X162170713Y-86824286D01*
X162027856Y-86967143D01*
X161884998Y-87038571D01*
X161599284Y-87038571D01*
X161456427Y-86967143D01*
X161313570Y-86824286D01*
X161242141Y-86538571D01*
X161242141Y-86038571D01*
X161313570Y-85752857D01*
X161456427Y-85610000D01*
X161599284Y-85538571D01*
X162884999Y-87038571D02*
X162884999Y-85538571D01*
X162884999Y-86110000D02*
X163027856Y-86038571D01*
X163313570Y-86038571D01*
X163456427Y-86110000D01*
X163527856Y-86181429D01*
X163599285Y-86324286D01*
X163599285Y-86752857D01*
X163527856Y-86895714D01*
X163456427Y-86967143D01*
X163313570Y-87038571D01*
X163027856Y-87038571D01*
X162884999Y-86967143D01*
X164242142Y-86038571D02*
X164242142Y-87324286D01*
X164170713Y-87467143D01*
X164027856Y-87538571D01*
X163956428Y-87538571D01*
X164242142Y-85538571D02*
X164170713Y-85610000D01*
X164242142Y-85681429D01*
X164313570Y-85610000D01*
X164242142Y-85538571D01*
X164242142Y-85681429D01*
X165527856Y-86967143D02*
X165384999Y-87038571D01*
X165099285Y-87038571D01*
X164956428Y-86967143D01*
X164884999Y-86824286D01*
X164884999Y-86252857D01*
X164956428Y-86110000D01*
X165099285Y-86038571D01*
X165384999Y-86038571D01*
X165527856Y-86110000D01*
X165599285Y-86252857D01*
X165599285Y-86395714D01*
X164884999Y-86538571D01*
X166884999Y-86967143D02*
X166742142Y-87038571D01*
X166456428Y-87038571D01*
X166313570Y-86967143D01*
X166242142Y-86895714D01*
X166170713Y-86752857D01*
X166170713Y-86324286D01*
X166242142Y-86181429D01*
X166313570Y-86110000D01*
X166456428Y-86038571D01*
X166742142Y-86038571D01*
X166884999Y-86110000D01*
X167313570Y-86038571D02*
X167884999Y-86038571D01*
X167527856Y-85538571D02*
X167527856Y-86824286D01*
X167599284Y-86967143D01*
X167742142Y-87038571D01*
X167884999Y-87038571D01*
X168313570Y-86967143D02*
X168456427Y-87038571D01*
X168742142Y-87038571D01*
X168884999Y-86967143D01*
X168956427Y-86824286D01*
X168956427Y-86752857D01*
X168884999Y-86610000D01*
X168742142Y-86538571D01*
X168527856Y-86538571D01*
X168384999Y-86467143D01*
X168313570Y-86324286D01*
X168313570Y-86252857D01*
X168384999Y-86110000D01*
X168527856Y-86038571D01*
X168742142Y-86038571D01*
X168884999Y-86110000D01*
X169670713Y-86967143D02*
X169670713Y-87038571D01*
X169599285Y-87181429D01*
X169527856Y-87252857D01*
X171456428Y-87038571D02*
X171456428Y-85538571D01*
X172170714Y-86038571D02*
X172170714Y-87038571D01*
X172170714Y-86181429D02*
X172242142Y-86110000D01*
X172385000Y-86038571D01*
X172599285Y-86038571D01*
X172742142Y-86110000D01*
X172813571Y-86252857D01*
X172813571Y-87038571D01*
X174170714Y-86967143D02*
X174027857Y-87038571D01*
X173742143Y-87038571D01*
X173599285Y-86967143D01*
X173527857Y-86895714D01*
X173456428Y-86752857D01*
X173456428Y-86324286D01*
X173527857Y-86181429D01*
X173599285Y-86110000D01*
X173742143Y-86038571D01*
X174027857Y-86038571D01*
X174170714Y-86110000D01*
D12*
X169172000Y-88586000D02*
G75*
G03X169172000Y-88586000I-100000J0D01*
G01*
D13*
X169172000Y-89186000D02*
X168072000Y-89186000D01*
X168072000Y-89186000D02*
X168072000Y-90386000D01*
X171272000Y-90386000D02*
X171272000Y-89186000D01*
X171272000Y-89186000D02*
X170272000Y-89186000D01*
X169072000Y-93186000D02*
X168072000Y-93186000D01*
X168072000Y-93186000D02*
X168072000Y-91986000D01*
X171272000Y-91986000D02*
X171272000Y-93186000D01*
X171272000Y-93186000D02*
X170272000Y-93186000D01*
X159635000Y-111760000D02*
X160435000Y-111760000D01*
X160035000Y-112160000D02*
X160035000Y-111360000D01*
X148534120Y-113959640D02*
X157535880Y-113959640D01*
X157535880Y-109560360D02*
X148534120Y-109560360D01*
X159438340Y-113959640D02*
X159438340Y-109560360D01*
X159635000Y-116840000D02*
X160435000Y-116840000D01*
X160035000Y-117240000D02*
X160035000Y-116440000D01*
X148534120Y-119039640D02*
X157535880Y-119039640D01*
X157535880Y-114640360D02*
X148534120Y-114640360D01*
X159438340Y-119039640D02*
X159438340Y-114640360D01*
X158588000Y-97059000D02*
X158588000Y-97759000D01*
X157388000Y-97759000D02*
X157388000Y-97059000D01*
X165770000Y-92425000D02*
X165770000Y-91725000D01*
X166970000Y-91725000D02*
X166970000Y-92425000D01*
X169830000Y-94015000D02*
X170530000Y-94015000D01*
X170530000Y-95215000D02*
X169830000Y-95215000D01*
X170530000Y-97120000D02*
X169830000Y-97120000D01*
X169830000Y-95920000D02*
X170530000Y-95920000D01*
X170530000Y-99025000D02*
X169830000Y-99025000D01*
X169830000Y-97825000D02*
X170530000Y-97825000D01*
X186960000Y-111955000D02*
X188960000Y-111955000D01*
X188960000Y-114105000D02*
X186960000Y-114105000D01*
X128800000Y-111760000D02*
X129350000Y-111200000D01*
X128800000Y-91440000D02*
X129350000Y-91980000D01*
X137900000Y-111760000D02*
X137350000Y-111200000D01*
X137900000Y-91440000D02*
X137350000Y-91980000D01*
X137350000Y-111200000D02*
X129350000Y-111200000D01*
X137900000Y-111760000D02*
X128800000Y-111760000D01*
X137350000Y-91980000D02*
X129350000Y-91980000D01*
X137900000Y-91440000D02*
X128800000Y-91440000D01*
X129350000Y-103850000D02*
X128800000Y-103850000D01*
X129350000Y-99350000D02*
X128800000Y-99350000D01*
X129350000Y-103850000D02*
X129350000Y-111200000D01*
X129350000Y-91980000D02*
X129350000Y-99350000D01*
X128800000Y-91440000D02*
X128800000Y-111760000D01*
X137350000Y-91980000D02*
X137350000Y-111200000D01*
X137900000Y-91440000D02*
X137900000Y-111760000D01*
X180240000Y-108100000D02*
X178840000Y-108100000D01*
X180240000Y-95100000D02*
X178840000Y-95100000D01*
X185240000Y-108100000D02*
X185240000Y-110600000D01*
X180240000Y-108100000D02*
X180240000Y-110600000D01*
X180240000Y-95100000D02*
X180240000Y-92600000D01*
X180240000Y-92600000D02*
X185240000Y-92600000D01*
X185240000Y-92600000D02*
X185240000Y-95100000D01*
X185240000Y-95100000D02*
X192840000Y-95100000D01*
X180240000Y-110600000D02*
X185240000Y-110600000D01*
X185240000Y-108100000D02*
X192840000Y-108100000D01*
X178840000Y-95100000D02*
X178840000Y-108100000D01*
X141470000Y-107355000D02*
X140470000Y-107355000D01*
X140470000Y-106005000D02*
X141470000Y-106005000D01*
X141470000Y-104815000D02*
X140470000Y-104815000D01*
X140470000Y-103465000D02*
X141470000Y-103465000D01*
X141470000Y-102275000D02*
X140470000Y-102275000D01*
X140470000Y-100925000D02*
X141470000Y-100925000D01*
X154932000Y-95544000D02*
X153932000Y-95544000D01*
X153932000Y-94194000D02*
X154932000Y-94194000D01*
X172585000Y-103545000D02*
X171585000Y-103545000D01*
X171585000Y-102195000D02*
X172585000Y-102195000D01*
X172585000Y-101005000D02*
X171585000Y-101005000D01*
X171585000Y-99655000D02*
X172585000Y-99655000D01*
X171958000Y-117729000D02*
X170180000Y-117729000D01*
X172085000Y-110871000D02*
X172085000Y-117729000D01*
X164084000Y-110871000D02*
X171958000Y-110871000D01*
X164084000Y-117729000D02*
X164084000Y-110871000D01*
X170180000Y-117729000D02*
X164084000Y-117729000D01*
X160909000Y-112903000D02*
X164084000Y-112903000D01*
X160909000Y-111125000D02*
X160909000Y-112903000D01*
X164084000Y-111125000D02*
X160909000Y-111125000D01*
X160909000Y-117475000D02*
X164084000Y-117475000D01*
X160909000Y-115697000D02*
X160909000Y-117475000D01*
X164084000Y-115697000D02*
X160909000Y-115697000D01*
X177730000Y-102350000D02*
X177480000Y-102350000D01*
X177730000Y-100850000D02*
X177480000Y-100850000D01*
X175330000Y-102350000D02*
X175580000Y-102350000D01*
X175330000Y-100850000D02*
X175580000Y-100850000D01*
X177730000Y-102350000D02*
X177730000Y-100850000D01*
X175330000Y-100850000D02*
X175330000Y-102350000D01*
X187610000Y-116875000D02*
X188310000Y-116875000D01*
X188310000Y-118075000D02*
X187610000Y-118075000D01*
X187610000Y-114970000D02*
X188310000Y-114970000D01*
X188310000Y-116170000D02*
X187610000Y-116170000D01*
X156718000Y-102616000D02*
X145542000Y-102616000D01*
X156718000Y-98044000D02*
X156718000Y-102616000D01*
X145542000Y-98044000D02*
X156718000Y-98044000D01*
X145542000Y-102616000D02*
X145542000Y-98044000D01*
X155956000Y-99568000D02*
X156718000Y-99568000D01*
X155956000Y-101092000D02*
X155956000Y-99568000D01*
X156718000Y-101092000D02*
X155956000Y-101092000D01*
X160570000Y-99400000D02*
X159345000Y-99400000D01*
X165820000Y-98975000D02*
X165310000Y-98975000D01*
X165820000Y-104225000D02*
X165310000Y-104225000D01*
X160570000Y-104225000D02*
X161080000Y-104225000D01*
X160570000Y-98975000D02*
X161080000Y-98975000D01*
X160570000Y-104225000D02*
X160570000Y-103715000D01*
X165820000Y-104225000D02*
X165820000Y-103715000D01*
X165820000Y-98975000D02*
X165820000Y-99485000D01*
X160570000Y-98975000D02*
X160570000Y-99400000D01*
X185183780Y-90319860D02*
X185544460Y-91790520D01*
X185544460Y-91790520D02*
X185823860Y-90728800D01*
X185823860Y-90728800D02*
X186133740Y-91800680D01*
X186133740Y-91800680D02*
X186474100Y-90350340D01*
X183763920Y-91010740D02*
X184553860Y-91000580D01*
X184553860Y-91000580D02*
X184564020Y-91010740D01*
X184564020Y-91010740D02*
X184564020Y-91000580D01*
X184604660Y-90289380D02*
X184604660Y-91831160D01*
X183715660Y-90279220D02*
X183715660Y-91848940D01*
X183715660Y-91848940D02*
X183725820Y-91838780D01*
X183164480Y-90380820D02*
X182813960Y-90299540D01*
X182813960Y-90299540D02*
X182493920Y-90289380D01*
X182493920Y-90289380D02*
X182255160Y-90490040D01*
X182255160Y-90490040D02*
X182224680Y-90759280D01*
X182224680Y-90759280D02*
X182465980Y-91000580D01*
X182465980Y-91000580D02*
X182854600Y-91130120D01*
X182854600Y-91130120D02*
X183034940Y-91290140D01*
X183034940Y-91290140D02*
X183075580Y-91589860D01*
X183075580Y-91589860D02*
X182844440Y-91810840D01*
X182844440Y-91810840D02*
X182524400Y-91838780D01*
X182524400Y-91838780D02*
X182173880Y-91729560D01*
X181135020Y-90279220D02*
X180886100Y-90299540D01*
X180886100Y-90299540D02*
X180644800Y-90540840D01*
X180644800Y-90540840D02*
X180555900Y-91031060D01*
X180555900Y-91031060D02*
X180583840Y-91379040D01*
X180583840Y-91379040D02*
X180784500Y-91699080D01*
X180784500Y-91699080D02*
X181035960Y-91821000D01*
X181035960Y-91821000D02*
X181345840Y-91749880D01*
X181345840Y-91749880D02*
X181564280Y-91569540D01*
X181564280Y-91569540D02*
X181635400Y-91109800D01*
X181635400Y-91109800D02*
X181584600Y-90700860D01*
X181584600Y-90700860D02*
X181475380Y-90418920D01*
X181475380Y-90418920D02*
X181114700Y-90289380D01*
X181734460Y-88559640D02*
X181475380Y-89120980D01*
X181475380Y-89120980D02*
X182013860Y-89639140D01*
X182013860Y-89639140D02*
X182534560Y-89369900D01*
X182534560Y-89369900D02*
X182813960Y-89529920D01*
X184254140Y-89509600D02*
X184584340Y-89319100D01*
X184584340Y-89319100D02*
X185023760Y-89649300D01*
X185023760Y-89649300D02*
X185496200Y-89159080D01*
X185496200Y-89159080D02*
X185214260Y-88679020D01*
X185214260Y-88679020D02*
X185404760Y-88209120D01*
X185404760Y-88209120D02*
X186014360Y-88021160D01*
X186014360Y-88021160D02*
X186014360Y-87340440D01*
X186014360Y-87340440D02*
X185455560Y-87200740D01*
X185455560Y-87200740D02*
X185254900Y-86629240D01*
X185254900Y-86629240D02*
X185524140Y-86159340D01*
X185524140Y-86159340D02*
X185054240Y-85648800D01*
X185054240Y-85648800D02*
X184536080Y-85910420D01*
X184536080Y-85910420D02*
X184066180Y-85709760D01*
X184066180Y-85709760D02*
X183896000Y-85168740D01*
X183896000Y-85168740D02*
X183205120Y-85150960D01*
X183205120Y-85150960D02*
X182994300Y-85699600D01*
X182994300Y-85699600D02*
X182575200Y-85869780D01*
X182575200Y-85869780D02*
X182024020Y-85600540D01*
X182024020Y-85600540D02*
X181505860Y-86128860D01*
X181505860Y-86128860D02*
X181754780Y-86669880D01*
X181754780Y-86669880D02*
X181584600Y-87149940D01*
X181584600Y-87149940D02*
X181035960Y-87249000D01*
X181035960Y-87249000D02*
X181025800Y-87950040D01*
X181025800Y-87950040D02*
X181584600Y-88150700D01*
X181584600Y-88150700D02*
X181724300Y-88549480D01*
X183865520Y-88529160D02*
X184165240Y-88379300D01*
X184165240Y-88379300D02*
X184365900Y-88181180D01*
X184365900Y-88181180D02*
X184515760Y-87779860D01*
X184515760Y-87779860D02*
X184515760Y-87381080D01*
X184515760Y-87381080D02*
X184365900Y-87030560D01*
X184365900Y-87030560D02*
X183913780Y-86680040D01*
X183913780Y-86680040D02*
X183464200Y-86629240D01*
X183464200Y-86629240D02*
X183065420Y-86730840D01*
X183065420Y-86730840D02*
X182664100Y-87078820D01*
X182664100Y-87078820D02*
X182514240Y-87530940D01*
X182514240Y-87530940D02*
X182565040Y-88028780D01*
X182565040Y-88028780D02*
X182813960Y-88331040D01*
X182813960Y-88331040D02*
X183164480Y-88529160D01*
X183164480Y-88529160D02*
X182813960Y-89529920D01*
X183865520Y-88529160D02*
X184264300Y-89529920D01*
X145883334Y-109577143D02*
X145835715Y-109624762D01*
X145692858Y-109672381D01*
X145597620Y-109672381D01*
X145454762Y-109624762D01*
X145359524Y-109529524D01*
X145311905Y-109434286D01*
X145264286Y-109243810D01*
X145264286Y-109100952D01*
X145311905Y-108910476D01*
X145359524Y-108815238D01*
X145454762Y-108720000D01*
X145597620Y-108672381D01*
X145692858Y-108672381D01*
X145835715Y-108720000D01*
X145883334Y-108767619D01*
X146264286Y-108767619D02*
X146311905Y-108720000D01*
X146407143Y-108672381D01*
X146645239Y-108672381D01*
X146740477Y-108720000D01*
X146788096Y-108767619D01*
X146835715Y-108862857D01*
X146835715Y-108958095D01*
X146788096Y-109100952D01*
X146216667Y-109672381D01*
X146835715Y-109672381D01*
X145375334Y-118594143D02*
X145327715Y-118641762D01*
X145184858Y-118689381D01*
X145089620Y-118689381D01*
X144946762Y-118641762D01*
X144851524Y-118546524D01*
X144803905Y-118451286D01*
X144756286Y-118260810D01*
X144756286Y-118117952D01*
X144803905Y-117927476D01*
X144851524Y-117832238D01*
X144946762Y-117737000D01*
X145089620Y-117689381D01*
X145184858Y-117689381D01*
X145327715Y-117737000D01*
X145375334Y-117784619D01*
X146327715Y-118689381D02*
X145756286Y-118689381D01*
X146042000Y-118689381D02*
X146042000Y-117689381D01*
X145946762Y-117832238D01*
X145851524Y-117927476D01*
X145756286Y-117975095D01*
X155916334Y-97766143D02*
X155868715Y-97813762D01*
X155725858Y-97861381D01*
X155630620Y-97861381D01*
X155487762Y-97813762D01*
X155392524Y-97718524D01*
X155344905Y-97623286D01*
X155297286Y-97432810D01*
X155297286Y-97289952D01*
X155344905Y-97099476D01*
X155392524Y-97004238D01*
X155487762Y-96909000D01*
X155630620Y-96861381D01*
X155725858Y-96861381D01*
X155868715Y-96909000D01*
X155916334Y-96956619D01*
X156249667Y-96861381D02*
X156868715Y-96861381D01*
X156535381Y-97242333D01*
X156678239Y-97242333D01*
X156773477Y-97289952D01*
X156821096Y-97337571D01*
X156868715Y-97432810D01*
X156868715Y-97670905D01*
X156821096Y-97766143D01*
X156773477Y-97813762D01*
X156678239Y-97861381D01*
X156392524Y-97861381D01*
X156297286Y-97813762D01*
X156249667Y-97766143D01*
X163663334Y-92432143D02*
X163615715Y-92479762D01*
X163472858Y-92527381D01*
X163377620Y-92527381D01*
X163234762Y-92479762D01*
X163139524Y-92384524D01*
X163091905Y-92289286D01*
X163044286Y-92098810D01*
X163044286Y-91955952D01*
X163091905Y-91765476D01*
X163139524Y-91670238D01*
X163234762Y-91575000D01*
X163377620Y-91527381D01*
X163472858Y-91527381D01*
X163615715Y-91575000D01*
X163663334Y-91622619D01*
X164520477Y-91860714D02*
X164520477Y-92527381D01*
X164282381Y-91479762D02*
X164044286Y-92194048D01*
X164663334Y-92194048D01*
X174458334Y-94972143D02*
X174410715Y-95019762D01*
X174267858Y-95067381D01*
X174172620Y-95067381D01*
X174029762Y-95019762D01*
X173934524Y-94924524D01*
X173886905Y-94829286D01*
X173839286Y-94638810D01*
X173839286Y-94495952D01*
X173886905Y-94305476D01*
X173934524Y-94210238D01*
X174029762Y-94115000D01*
X174172620Y-94067381D01*
X174267858Y-94067381D01*
X174410715Y-94115000D01*
X174458334Y-94162619D01*
X175363096Y-94067381D02*
X174886905Y-94067381D01*
X174839286Y-94543571D01*
X174886905Y-94495952D01*
X174982143Y-94448333D01*
X175220239Y-94448333D01*
X175315477Y-94495952D01*
X175363096Y-94543571D01*
X175410715Y-94638810D01*
X175410715Y-94876905D01*
X175363096Y-94972143D01*
X175315477Y-95019762D01*
X175220239Y-95067381D01*
X174982143Y-95067381D01*
X174886905Y-95019762D01*
X174839286Y-94972143D01*
X174458334Y-96877143D02*
X174410715Y-96924762D01*
X174267858Y-96972381D01*
X174172620Y-96972381D01*
X174029762Y-96924762D01*
X173934524Y-96829524D01*
X173886905Y-96734286D01*
X173839286Y-96543810D01*
X173839286Y-96400952D01*
X173886905Y-96210476D01*
X173934524Y-96115238D01*
X174029762Y-96020000D01*
X174172620Y-95972381D01*
X174267858Y-95972381D01*
X174410715Y-96020000D01*
X174458334Y-96067619D01*
X175315477Y-95972381D02*
X175125000Y-95972381D01*
X175029762Y-96020000D01*
X174982143Y-96067619D01*
X174886905Y-96210476D01*
X174839286Y-96400952D01*
X174839286Y-96781905D01*
X174886905Y-96877143D01*
X174934524Y-96924762D01*
X175029762Y-96972381D01*
X175220239Y-96972381D01*
X175315477Y-96924762D01*
X175363096Y-96877143D01*
X175410715Y-96781905D01*
X175410715Y-96543810D01*
X175363096Y-96448571D01*
X175315477Y-96400952D01*
X175220239Y-96353333D01*
X175029762Y-96353333D01*
X174934524Y-96400952D01*
X174886905Y-96448571D01*
X174839286Y-96543810D01*
X174458334Y-98782143D02*
X174410715Y-98829762D01*
X174267858Y-98877381D01*
X174172620Y-98877381D01*
X174029762Y-98829762D01*
X173934524Y-98734524D01*
X173886905Y-98639286D01*
X173839286Y-98448810D01*
X173839286Y-98305952D01*
X173886905Y-98115476D01*
X173934524Y-98020238D01*
X174029762Y-97925000D01*
X174172620Y-97877381D01*
X174267858Y-97877381D01*
X174410715Y-97925000D01*
X174458334Y-97972619D01*
X174791667Y-97877381D02*
X175458334Y-97877381D01*
X175029762Y-98877381D01*
X187626667Y-111053571D02*
X187293333Y-111053571D01*
X187293333Y-111577381D02*
X187293333Y-110577381D01*
X187769524Y-110577381D01*
X188674286Y-111577381D02*
X188102857Y-111577381D01*
X188388571Y-111577381D02*
X188388571Y-110577381D01*
X188293333Y-110720238D01*
X188198095Y-110815476D01*
X188102857Y-110863095D01*
X130706905Y-114117381D02*
X130706905Y-113117381D01*
X131087858Y-113117381D01*
X131183096Y-113165000D01*
X131230715Y-113212619D01*
X131278334Y-113307857D01*
X131278334Y-113450714D01*
X131230715Y-113545952D01*
X131183096Y-113593571D01*
X131087858Y-113641190D01*
X130706905Y-113641190D01*
X132230715Y-114117381D02*
X131659286Y-114117381D01*
X131945000Y-114117381D02*
X131945000Y-113117381D01*
X131849762Y-113260238D01*
X131754524Y-113355476D01*
X131659286Y-113403095D01*
X187221905Y-109672381D02*
X187221905Y-108672381D01*
X187602858Y-108672381D01*
X187698096Y-108720000D01*
X187745715Y-108767619D01*
X187793334Y-108862857D01*
X187793334Y-109005714D01*
X187745715Y-109100952D01*
X187698096Y-109148571D01*
X187602858Y-109196190D01*
X187221905Y-109196190D01*
X188174286Y-108767619D02*
X188221905Y-108720000D01*
X188317143Y-108672381D01*
X188555239Y-108672381D01*
X188650477Y-108720000D01*
X188698096Y-108767619D01*
X188745715Y-108862857D01*
X188745715Y-108958095D01*
X188698096Y-109100952D01*
X188126667Y-109672381D01*
X188745715Y-109672381D01*
X139533334Y-109037381D02*
X139200000Y-108561190D01*
X138961905Y-109037381D02*
X138961905Y-108037381D01*
X139342858Y-108037381D01*
X139438096Y-108085000D01*
X139485715Y-108132619D01*
X139533334Y-108227857D01*
X139533334Y-108370714D01*
X139485715Y-108465952D01*
X139438096Y-108513571D01*
X139342858Y-108561190D01*
X138961905Y-108561190D01*
X140485715Y-109037381D02*
X139914286Y-109037381D01*
X140200000Y-109037381D02*
X140200000Y-108037381D01*
X140104762Y-108180238D01*
X140009524Y-108275476D01*
X139914286Y-108323095D01*
X144105334Y-104719381D02*
X143772000Y-104243190D01*
X143533905Y-104719381D02*
X143533905Y-103719381D01*
X143914858Y-103719381D01*
X144010096Y-103767000D01*
X144057715Y-103814619D01*
X144105334Y-103909857D01*
X144105334Y-104052714D01*
X144057715Y-104147952D01*
X144010096Y-104195571D01*
X143914858Y-104243190D01*
X143533905Y-104243190D01*
X144486286Y-103814619D02*
X144533905Y-103767000D01*
X144629143Y-103719381D01*
X144867239Y-103719381D01*
X144962477Y-103767000D01*
X145010096Y-103814619D01*
X145057715Y-103909857D01*
X145057715Y-104005095D01*
X145010096Y-104147952D01*
X144438667Y-104719381D01*
X145057715Y-104719381D01*
X139533334Y-100147381D02*
X139200000Y-99671190D01*
X138961905Y-100147381D02*
X138961905Y-99147381D01*
X139342858Y-99147381D01*
X139438096Y-99195000D01*
X139485715Y-99242619D01*
X139533334Y-99337857D01*
X139533334Y-99480714D01*
X139485715Y-99575952D01*
X139438096Y-99623571D01*
X139342858Y-99671190D01*
X138961905Y-99671190D01*
X139866667Y-99147381D02*
X140485715Y-99147381D01*
X140152381Y-99528333D01*
X140295239Y-99528333D01*
X140390477Y-99575952D01*
X140438096Y-99623571D01*
X140485715Y-99718810D01*
X140485715Y-99956905D01*
X140438096Y-100052143D01*
X140390477Y-100099762D01*
X140295239Y-100147381D01*
X140009524Y-100147381D01*
X139914286Y-100099762D01*
X139866667Y-100052143D01*
X150836334Y-95448381D02*
X150503000Y-94972190D01*
X150264905Y-95448381D02*
X150264905Y-94448381D01*
X150645858Y-94448381D01*
X150741096Y-94496000D01*
X150788715Y-94543619D01*
X150836334Y-94638857D01*
X150836334Y-94781714D01*
X150788715Y-94876952D01*
X150741096Y-94924571D01*
X150645858Y-94972190D01*
X150264905Y-94972190D01*
X151693477Y-94781714D02*
X151693477Y-95448381D01*
X151455381Y-94400762D02*
X151217286Y-95115048D01*
X151836334Y-95115048D01*
X168743334Y-103322381D02*
X168410000Y-102846190D01*
X168171905Y-103322381D02*
X168171905Y-102322381D01*
X168552858Y-102322381D01*
X168648096Y-102370000D01*
X168695715Y-102417619D01*
X168743334Y-102512857D01*
X168743334Y-102655714D01*
X168695715Y-102750952D01*
X168648096Y-102798571D01*
X168552858Y-102846190D01*
X168171905Y-102846190D01*
X169648096Y-102322381D02*
X169171905Y-102322381D01*
X169124286Y-102798571D01*
X169171905Y-102750952D01*
X169267143Y-102703333D01*
X169505239Y-102703333D01*
X169600477Y-102750952D01*
X169648096Y-102798571D01*
X169695715Y-102893810D01*
X169695715Y-103131905D01*
X169648096Y-103227143D01*
X169600477Y-103274762D01*
X169505239Y-103322381D01*
X169267143Y-103322381D01*
X169171905Y-103274762D01*
X169124286Y-103227143D01*
X168743334Y-100782381D02*
X168410000Y-100306190D01*
X168171905Y-100782381D02*
X168171905Y-99782381D01*
X168552858Y-99782381D01*
X168648096Y-99830000D01*
X168695715Y-99877619D01*
X168743334Y-99972857D01*
X168743334Y-100115714D01*
X168695715Y-100210952D01*
X168648096Y-100258571D01*
X168552858Y-100306190D01*
X168171905Y-100306190D01*
X169600477Y-99782381D02*
X169410000Y-99782381D01*
X169314762Y-99830000D01*
X169267143Y-99877619D01*
X169171905Y-100020476D01*
X169124286Y-100210952D01*
X169124286Y-100591905D01*
X169171905Y-100687143D01*
X169219524Y-100734762D01*
X169314762Y-100782381D01*
X169505239Y-100782381D01*
X169600477Y-100734762D01*
X169648096Y-100687143D01*
X169695715Y-100591905D01*
X169695715Y-100353810D01*
X169648096Y-100258571D01*
X169600477Y-100210952D01*
X169505239Y-100163333D01*
X169314762Y-100163333D01*
X169219524Y-100210952D01*
X169171905Y-100258571D01*
X169124286Y-100353810D01*
X172426381Y-115061905D02*
X173235905Y-115061905D01*
X173331143Y-115014286D01*
X173378762Y-114966667D01*
X173426381Y-114871429D01*
X173426381Y-114680952D01*
X173378762Y-114585714D01*
X173331143Y-114538095D01*
X173235905Y-114490476D01*
X172426381Y-114490476D01*
X173426381Y-113490476D02*
X173426381Y-114061905D01*
X173426381Y-113776191D02*
X172426381Y-113776191D01*
X172569238Y-113871429D01*
X172664476Y-113966667D01*
X172712095Y-114061905D01*
X175882381Y-104336905D02*
X176415714Y-104336905D01*
X175882381Y-105136905D01*
X176415714Y-105136905D01*
X177139524Y-105136905D02*
X176682381Y-105136905D01*
X176910952Y-105136905D02*
X176910952Y-104336905D01*
X176834762Y-104451190D01*
X176758571Y-104527381D01*
X176682381Y-104565476D01*
X190968334Y-117832143D02*
X190920715Y-117879762D01*
X190777858Y-117927381D01*
X190682620Y-117927381D01*
X190539762Y-117879762D01*
X190444524Y-117784524D01*
X190396905Y-117689286D01*
X190349286Y-117498810D01*
X190349286Y-117355952D01*
X190396905Y-117165476D01*
X190444524Y-117070238D01*
X190539762Y-116975000D01*
X190682620Y-116927381D01*
X190777858Y-116927381D01*
X190920715Y-116975000D01*
X190968334Y-117022619D01*
X191539762Y-117355952D02*
X191444524Y-117308333D01*
X191396905Y-117260714D01*
X191349286Y-117165476D01*
X191349286Y-117117857D01*
X191396905Y-117022619D01*
X191444524Y-116975000D01*
X191539762Y-116927381D01*
X191730239Y-116927381D01*
X191825477Y-116975000D01*
X191873096Y-117022619D01*
X191920715Y-117117857D01*
X191920715Y-117165476D01*
X191873096Y-117260714D01*
X191825477Y-117308333D01*
X191730239Y-117355952D01*
X191539762Y-117355952D01*
X191444524Y-117403571D01*
X191396905Y-117451190D01*
X191349286Y-117546429D01*
X191349286Y-117736905D01*
X191396905Y-117832143D01*
X191444524Y-117879762D01*
X191539762Y-117927381D01*
X191730239Y-117927381D01*
X191825477Y-117879762D01*
X191873096Y-117832143D01*
X191920715Y-117736905D01*
X191920715Y-117546429D01*
X191873096Y-117451190D01*
X191825477Y-117403571D01*
X191730239Y-117355952D01*
X132588096Y-89730000D02*
X132492858Y-89682381D01*
X132350001Y-89682381D01*
X132207143Y-89730000D01*
X132111905Y-89825238D01*
X132064286Y-89920476D01*
X132016667Y-90110952D01*
X132016667Y-90253810D01*
X132064286Y-90444286D01*
X132111905Y-90539524D01*
X132207143Y-90634762D01*
X132350001Y-90682381D01*
X132445239Y-90682381D01*
X132588096Y-90634762D01*
X132635715Y-90587143D01*
X132635715Y-90253810D01*
X132445239Y-90253810D01*
X133064286Y-90682381D02*
X133064286Y-89682381D01*
X133635715Y-90682381D01*
X133635715Y-89682381D01*
X134111905Y-90682381D02*
X134111905Y-89682381D01*
X134350000Y-89682381D01*
X134492858Y-89730000D01*
X134588096Y-89825238D01*
X134635715Y-89920476D01*
X134683334Y-90110952D01*
X134683334Y-90253810D01*
X134635715Y-90444286D01*
X134588096Y-90539524D01*
X134492858Y-90634762D01*
X134350000Y-90682381D01*
X134111905Y-90682381D01*
X190968334Y-116022381D02*
X190492143Y-116022381D01*
X190492143Y-115022381D01*
X191825477Y-116022381D02*
X191254048Y-116022381D01*
X191539762Y-116022381D02*
X191539762Y-115022381D01*
X191444524Y-115165238D01*
X191349286Y-115260476D01*
X191254048Y-115308095D01*
X150241095Y-101052381D02*
X150241095Y-101861905D01*
X150288714Y-101957143D01*
X150336333Y-102004762D01*
X150431571Y-102052381D01*
X150622048Y-102052381D01*
X150717286Y-102004762D01*
X150764905Y-101957143D01*
X150812524Y-101861905D01*
X150812524Y-101052381D01*
X151241095Y-101147619D02*
X151288714Y-101100000D01*
X151383952Y-101052381D01*
X151622048Y-101052381D01*
X151717286Y-101100000D01*
X151764905Y-101147619D01*
X151812524Y-101242857D01*
X151812524Y-101338095D01*
X151764905Y-101480952D01*
X151193476Y-102052381D01*
X151812524Y-102052381D01*
X162433095Y-96202381D02*
X162433095Y-97011905D01*
X162480714Y-97107143D01*
X162528333Y-97154762D01*
X162623571Y-97202381D01*
X162814048Y-97202381D01*
X162909286Y-97154762D01*
X162956905Y-97107143D01*
X163004524Y-97011905D01*
X163004524Y-96202381D01*
X163385476Y-96202381D02*
X164004524Y-96202381D01*
X163671190Y-96583333D01*
X163814048Y-96583333D01*
X163909286Y-96630952D01*
X163956905Y-96678571D01*
X164004524Y-96773810D01*
X164004524Y-97011905D01*
X163956905Y-97107143D01*
X163909286Y-97154762D01*
X163814048Y-97202381D01*
X163528333Y-97202381D01*
X163433095Y-97154762D01*
X163385476Y-97107143D01*
M02*
