G04 #@! TF.FileFunction,Paste,Top*
%FSLAX46Y46*%
G04 Gerber Fmt 4.6, Leading zero omitted, Abs format (unit mm)*
G04 Created by KiCad (PCBNEW 4.0.5+dfsg1-4) date Fri Dec 28 13:07:42 2018*
%MOMM*%
%LPD*%
G01*
G04 APERTURE LIST*
%ADD10C,0.100000*%
%ADD11R,4.000500X2.700020*%
%ADD12R,1.400000X1.200000*%
%ADD13R,1.200000X0.750000*%
%ADD14R,2.000000X1.700000*%
%ADD15R,1.200000X0.900000*%
%ADD16R,0.300000X0.850000*%
%ADD17R,0.508000X1.143000*%
%ADD18R,1.200000X0.280000*%
%ADD19R,0.280000X1.200000*%
%ADD20R,0.750000X1.200000*%
%ADD21R,0.650000X1.060000*%
G04 APERTURE END LIST*
D10*
D11*
X149019260Y-116078000D03*
X156796740Y-116078000D03*
X149019260Y-110998000D03*
X156796740Y-110998000D03*
D12*
X163650000Y-95050000D03*
X165850000Y-95050000D03*
X165850000Y-93450000D03*
X163650000Y-93450000D03*
D13*
X169230000Y-96520000D03*
X171130000Y-96520000D03*
X169230000Y-98552000D03*
X171130000Y-98552000D03*
D14*
X185960000Y-113030000D03*
X189960000Y-113030000D03*
D15*
X161460000Y-116078000D03*
X163660000Y-116078000D03*
X142070000Y-106680000D03*
X139870000Y-106680000D03*
X147150000Y-108204000D03*
X144950000Y-108204000D03*
X158412000Y-94488000D03*
X160612000Y-94488000D03*
X156040000Y-94488000D03*
X153840000Y-94488000D03*
D16*
X176030000Y-100875000D03*
X176530000Y-100875000D03*
X177030000Y-100875000D03*
X177030000Y-102325000D03*
X176530000Y-102325000D03*
X176030000Y-102325000D03*
D13*
X188910000Y-117475000D03*
X187010000Y-117475000D03*
X188910000Y-115570000D03*
X187010000Y-115570000D03*
D17*
X155575000Y-103505000D03*
X153035000Y-103505000D03*
X151765000Y-103505000D03*
X150495000Y-103505000D03*
X149225000Y-103505000D03*
X147955000Y-103505000D03*
X146685000Y-103505000D03*
X146685000Y-97155000D03*
X147955000Y-97155000D03*
X149225000Y-97155000D03*
X150495000Y-97155000D03*
X151765000Y-97155000D03*
X153035000Y-97155000D03*
X154305000Y-97155000D03*
X155575000Y-97155000D03*
X154305000Y-103505000D03*
D18*
X159945000Y-99850000D03*
X159945000Y-100350000D03*
X159945000Y-100850000D03*
X159945000Y-101350000D03*
X159945000Y-101850000D03*
X159945000Y-102350000D03*
X159945000Y-102850000D03*
X159945000Y-103350000D03*
D19*
X161445000Y-104850000D03*
X161945000Y-104850000D03*
X162445000Y-104850000D03*
X162945000Y-104850000D03*
X163445000Y-104850000D03*
X163945000Y-104850000D03*
X164445000Y-104850000D03*
X164945000Y-104850000D03*
D18*
X166445000Y-103350000D03*
X166445000Y-102850000D03*
X166445000Y-102350000D03*
X166445000Y-101850000D03*
X166445000Y-101350000D03*
X166445000Y-100850000D03*
X166445000Y-100350000D03*
X166445000Y-99850000D03*
D19*
X164945000Y-98350000D03*
X164445000Y-98350000D03*
X163945000Y-98350000D03*
X163445000Y-98350000D03*
X162945000Y-98350000D03*
X162445000Y-98350000D03*
X161945000Y-98350000D03*
X161445000Y-98350000D03*
D20*
X157988000Y-98232000D03*
X157988000Y-96332000D03*
D15*
X173058000Y-102870000D03*
X170858000Y-102870000D03*
D13*
X168976000Y-116078000D03*
X170876000Y-116078000D03*
X163642000Y-91440000D03*
X165542000Y-91440000D03*
D15*
X173058000Y-100330000D03*
X170858000Y-100330000D03*
D21*
X165166000Y-113876000D03*
X166116000Y-113876000D03*
X167066000Y-113876000D03*
X167066000Y-111676000D03*
X165166000Y-111676000D03*
M02*
