G04 #@! TF.FileFunction,Copper,L2,Bot,Signal*
%FSLAX46Y46*%
G04 Gerber Fmt 4.6, Leading zero omitted, Abs format (unit mm)*
G04 Created by KiCad (PCBNEW 4.0.5+dfsg1-4) date Thu Feb 15 14:09:15 2018*
%MOMM*%
%LPD*%
G01*
G04 APERTURE LIST*
%ADD10C,0.100000*%
%ADD11R,1.727200X1.727200*%
%ADD12O,1.727200X1.727200*%
%ADD13C,1.524000*%
%ADD14C,3.500000*%
%ADD15C,6.000000*%
%ADD16C,3.000000*%
%ADD17C,0.800000*%
%ADD18C,0.250000*%
%ADD19C,0.500000*%
%ADD20C,0.254000*%
G04 APERTURE END LIST*
D10*
D11*
X132080000Y-96520000D03*
D12*
X134620000Y-96520000D03*
X132080000Y-99060000D03*
X134620000Y-99060000D03*
X132080000Y-101600000D03*
X134620000Y-101600000D03*
X132080000Y-104140000D03*
X134620000Y-104140000D03*
X132080000Y-106680000D03*
X134620000Y-106680000D03*
D13*
X180040000Y-100600000D03*
X180040000Y-102600000D03*
X180040000Y-98100000D03*
X180040000Y-105100000D03*
D14*
X182740000Y-108100000D03*
X182740000Y-95100000D03*
D15*
X142240000Y-90170000D03*
X142240000Y-113030000D03*
X176530000Y-113030000D03*
X176530000Y-90170000D03*
D16*
X133350000Y-87630000D03*
D17*
X129286000Y-117221000D03*
X190500000Y-101600000D03*
X151511000Y-91440000D03*
X162052000Y-91440000D03*
X140970000Y-99060000D03*
X163195000Y-101600000D03*
X157480000Y-102870000D03*
X162560000Y-114300000D03*
X172720000Y-98425000D03*
X172720000Y-96520000D03*
X172720000Y-94615000D03*
X184785000Y-117475000D03*
X166370000Y-94615000D03*
X176530000Y-99695000D03*
X176530000Y-103505000D03*
X180975000Y-116840000D03*
X135255000Y-116840000D03*
X153035000Y-116840000D03*
X160528000Y-94869000D03*
X174625000Y-102235000D03*
X168910000Y-109220000D03*
X153035000Y-111760000D03*
X163830000Y-99695000D03*
X174625000Y-100965000D03*
X149225000Y-108204000D03*
X146431000Y-105410000D03*
X144653000Y-101600000D03*
X148209000Y-108966000D03*
X147955000Y-105410000D03*
X150114000Y-107442000D03*
X146685000Y-101600000D03*
X153035000Y-101600000D03*
D18*
X142240000Y-113030000D02*
X133477000Y-113030000D01*
X133477000Y-113030000D02*
X129286000Y-117221000D01*
X182740000Y-95100000D02*
X182740000Y-100698000D01*
X183642000Y-101600000D02*
X190500000Y-101600000D01*
X182740000Y-100698000D02*
X183642000Y-101600000D01*
X142240000Y-90170000D02*
X150241000Y-90170000D01*
X150241000Y-90170000D02*
X151511000Y-91440000D01*
X176530000Y-90170000D02*
X163322000Y-90170000D01*
X163322000Y-90170000D02*
X162052000Y-91440000D01*
X134620000Y-96520000D02*
X138430000Y-96520000D01*
X138430000Y-96520000D02*
X140970000Y-99060000D01*
X163195000Y-101600000D02*
X161925000Y-102870000D01*
X161925000Y-102870000D02*
X157480000Y-102870000D01*
D19*
X180975000Y-116840000D02*
X153035000Y-116840000D01*
X135255000Y-116840000D02*
X153035000Y-116840000D01*
D18*
X163830000Y-95885000D02*
X163830000Y-95504000D01*
X163830000Y-99695000D02*
X163830000Y-95885000D01*
X163195000Y-94869000D02*
X160528000Y-94869000D01*
X163830000Y-95504000D02*
X163195000Y-94869000D01*
X168910000Y-102235000D02*
X168910000Y-100965000D01*
X167640000Y-99695000D02*
X163830000Y-99695000D01*
X168910000Y-100965000D02*
X167640000Y-99695000D01*
X168910000Y-109220000D02*
X168910000Y-102235000D01*
X168910000Y-102235000D02*
X174625000Y-102235000D01*
X166370000Y-111760000D02*
X168910000Y-109220000D01*
X153035000Y-111760000D02*
X166370000Y-111760000D01*
D19*
X174625000Y-100965000D02*
X175905000Y-100965000D01*
X175905000Y-100965000D02*
X180040000Y-105100000D01*
D18*
X149225000Y-108204000D02*
X146431000Y-105410000D01*
X144653000Y-105410000D02*
X144653000Y-101600000D01*
X148209000Y-108966000D02*
X144653000Y-105410000D01*
X147955000Y-105410000D02*
X150114000Y-107442000D01*
X133350000Y-100330000D02*
X132080000Y-101600000D01*
X145415000Y-100330000D02*
X133350000Y-100330000D01*
X146685000Y-101600000D02*
X145415000Y-100330000D01*
X133350000Y-105410000D02*
X132080000Y-106680000D01*
X142240000Y-105410000D02*
X133350000Y-105410000D01*
X146685000Y-109855000D02*
X142240000Y-105410000D01*
X149860000Y-109855000D02*
X146685000Y-109855000D01*
X153035000Y-106680000D02*
X149860000Y-109855000D01*
X153035000Y-101600000D02*
X153035000Y-106680000D01*
D20*
G36*
X192405000Y-118745000D02*
X127635000Y-118745000D01*
X127635000Y-116994669D01*
X134473864Y-116994669D01*
X134592514Y-117281823D01*
X134812021Y-117501714D01*
X135098968Y-117620864D01*
X135409669Y-117621136D01*
X135696823Y-117502486D01*
X135728364Y-117471000D01*
X152561361Y-117471000D01*
X152592021Y-117501714D01*
X152878968Y-117620864D01*
X153189669Y-117621136D01*
X153476823Y-117502486D01*
X153508364Y-117471000D01*
X180501361Y-117471000D01*
X180532021Y-117501714D01*
X180818968Y-117620864D01*
X181129669Y-117621136D01*
X181416823Y-117502486D01*
X181636714Y-117282979D01*
X181755864Y-116996032D01*
X181756136Y-116685331D01*
X181637486Y-116398177D01*
X181417979Y-116178286D01*
X181131032Y-116059136D01*
X180820331Y-116058864D01*
X180533177Y-116177514D01*
X180501636Y-116209000D01*
X178045012Y-116209000D01*
X178409650Y-116073005D01*
X178622059Y-115931078D01*
X178960328Y-115478289D01*
X176530000Y-113047961D01*
X174099672Y-115478289D01*
X174437941Y-115931078D01*
X175046474Y-116209000D01*
X153508639Y-116209000D01*
X153477979Y-116178286D01*
X153191032Y-116059136D01*
X152880331Y-116058864D01*
X152593177Y-116177514D01*
X152561636Y-116209000D01*
X143755012Y-116209000D01*
X144119650Y-116073005D01*
X144332059Y-115931078D01*
X144670328Y-115478289D01*
X142240000Y-113047961D01*
X139809672Y-115478289D01*
X140147941Y-115931078D01*
X140756474Y-116209000D01*
X135728639Y-116209000D01*
X135697979Y-116178286D01*
X135411032Y-116059136D01*
X135100331Y-116058864D01*
X134813177Y-116177514D01*
X134593286Y-116397021D01*
X134474136Y-116683968D01*
X134473864Y-116994669D01*
X127635000Y-116994669D01*
X127635000Y-113602063D01*
X138709319Y-113602063D01*
X139196995Y-114909650D01*
X139338922Y-115122059D01*
X139791711Y-115460328D01*
X142222039Y-113030000D01*
X142257961Y-113030000D01*
X144688289Y-115460328D01*
X145141078Y-115122059D01*
X145720843Y-113852616D01*
X145729796Y-113602063D01*
X172999319Y-113602063D01*
X173486995Y-114909650D01*
X173628922Y-115122059D01*
X174081711Y-115460328D01*
X176512039Y-113030000D01*
X176547961Y-113030000D01*
X178978289Y-115460328D01*
X179431078Y-115122059D01*
X180010843Y-113852616D01*
X180060681Y-112457937D01*
X179573005Y-111150350D01*
X179431078Y-110937941D01*
X178978289Y-110599672D01*
X176547961Y-113030000D01*
X176512039Y-113030000D01*
X174081711Y-110599672D01*
X173628922Y-110937941D01*
X173049157Y-112207384D01*
X172999319Y-113602063D01*
X145729796Y-113602063D01*
X145770681Y-112457937D01*
X145568065Y-111914669D01*
X152253864Y-111914669D01*
X152372514Y-112201823D01*
X152592021Y-112421714D01*
X152878968Y-112540864D01*
X153189669Y-112541136D01*
X153476823Y-112422486D01*
X153633583Y-112266000D01*
X166370000Y-112266000D01*
X166563638Y-112227483D01*
X166727796Y-112117796D01*
X168263881Y-110581711D01*
X174099672Y-110581711D01*
X176530000Y-113012039D01*
X178960328Y-110581711D01*
X178622059Y-110128922D01*
X177567025Y-109647079D01*
X181210882Y-109647079D01*
X181397074Y-109969985D01*
X182214910Y-110341556D01*
X183112687Y-110371871D01*
X183953725Y-110056314D01*
X184082926Y-109969985D01*
X184269118Y-109647079D01*
X182740000Y-108117961D01*
X181210882Y-109647079D01*
X177567025Y-109647079D01*
X177352616Y-109549157D01*
X175957937Y-109499319D01*
X174650350Y-109986995D01*
X174437941Y-110128922D01*
X174099672Y-110581711D01*
X168263881Y-110581711D01*
X168844649Y-110000943D01*
X169064669Y-110001136D01*
X169351823Y-109882486D01*
X169571714Y-109662979D01*
X169690864Y-109376032D01*
X169691136Y-109065331D01*
X169572486Y-108778177D01*
X169416000Y-108621417D01*
X169416000Y-108472687D01*
X180468129Y-108472687D01*
X180783686Y-109313725D01*
X180870015Y-109442926D01*
X181192921Y-109629118D01*
X182722039Y-108100000D01*
X182757961Y-108100000D01*
X184287079Y-109629118D01*
X184609985Y-109442926D01*
X184981556Y-108625090D01*
X185011871Y-107727313D01*
X184696314Y-106886275D01*
X184609985Y-106757074D01*
X184287079Y-106570882D01*
X182757961Y-108100000D01*
X182722039Y-108100000D01*
X181192921Y-106570882D01*
X180870015Y-106757074D01*
X180498444Y-107574910D01*
X180468129Y-108472687D01*
X169416000Y-108472687D01*
X169416000Y-106552921D01*
X181210882Y-106552921D01*
X182740000Y-108082039D01*
X184269118Y-106552921D01*
X184082926Y-106230015D01*
X183265090Y-105858444D01*
X182367313Y-105828129D01*
X181526275Y-106143686D01*
X181397074Y-106230015D01*
X181210882Y-106552921D01*
X169416000Y-106552921D01*
X169416000Y-102741000D01*
X174026579Y-102741000D01*
X174182021Y-102896714D01*
X174468968Y-103015864D01*
X174779669Y-103016136D01*
X175066823Y-102897486D01*
X175286714Y-102677979D01*
X175405864Y-102391032D01*
X175406136Y-102080331D01*
X175287486Y-101793177D01*
X175094502Y-101599855D01*
X175098364Y-101596000D01*
X175643632Y-101596000D01*
X178903677Y-104856045D01*
X178897199Y-104871646D01*
X178896802Y-105326359D01*
X179070446Y-105746612D01*
X179391697Y-106068423D01*
X179811646Y-106242801D01*
X180266359Y-106243198D01*
X180686612Y-106069554D01*
X181008423Y-105748303D01*
X181182801Y-105328354D01*
X181183198Y-104873641D01*
X181009554Y-104453388D01*
X180688303Y-104131577D01*
X180268354Y-103957199D01*
X179813641Y-103956802D01*
X179796325Y-103963957D01*
X179407249Y-103574881D01*
X179811646Y-103742801D01*
X180266359Y-103743198D01*
X180686612Y-103569554D01*
X181008423Y-103248303D01*
X181182801Y-102828354D01*
X181183198Y-102373641D01*
X181009554Y-101953388D01*
X180688303Y-101631577D01*
X180612591Y-101600139D01*
X180686612Y-101569554D01*
X181008423Y-101248303D01*
X181182801Y-100828354D01*
X181183198Y-100373641D01*
X181009554Y-99953388D01*
X180688303Y-99631577D01*
X180268354Y-99457199D01*
X179813641Y-99456802D01*
X179393388Y-99630446D01*
X179071577Y-99951697D01*
X178897199Y-100371646D01*
X178896802Y-100826359D01*
X179070446Y-101246612D01*
X179391697Y-101568423D01*
X179467409Y-101599861D01*
X179393388Y-101630446D01*
X179071577Y-101951697D01*
X178897199Y-102371646D01*
X178896802Y-102826359D01*
X179064437Y-103232069D01*
X176351184Y-100518816D01*
X176146473Y-100382032D01*
X175905000Y-100334000D01*
X175098639Y-100334000D01*
X175067979Y-100303286D01*
X174781032Y-100184136D01*
X174470331Y-100183864D01*
X174183177Y-100302514D01*
X173963286Y-100522021D01*
X173844136Y-100808968D01*
X173843864Y-101119669D01*
X173962514Y-101406823D01*
X174155498Y-101600145D01*
X174026417Y-101729000D01*
X169416000Y-101729000D01*
X169416000Y-100965000D01*
X169377483Y-100771362D01*
X169267796Y-100607204D01*
X167997796Y-99337204D01*
X167833638Y-99227517D01*
X167640000Y-99189000D01*
X164428421Y-99189000D01*
X164336000Y-99096417D01*
X164336000Y-98934748D01*
X179223212Y-98934748D01*
X179289199Y-99154996D01*
X179750080Y-99362008D01*
X180255098Y-99376891D01*
X180727370Y-99197379D01*
X180790801Y-99154996D01*
X180856788Y-98934748D01*
X180040000Y-98117961D01*
X179223212Y-98934748D01*
X164336000Y-98934748D01*
X164336000Y-98315098D01*
X178763109Y-98315098D01*
X178942621Y-98787370D01*
X178985004Y-98850801D01*
X179205252Y-98916788D01*
X180022039Y-98100000D01*
X180057961Y-98100000D01*
X180874748Y-98916788D01*
X181094996Y-98850801D01*
X181302008Y-98389920D01*
X181316891Y-97884902D01*
X181137379Y-97412630D01*
X181094996Y-97349199D01*
X180874748Y-97283212D01*
X180057961Y-98100000D01*
X180022039Y-98100000D01*
X179205252Y-97283212D01*
X178985004Y-97349199D01*
X178777992Y-97810080D01*
X178763109Y-98315098D01*
X164336000Y-98315098D01*
X164336000Y-97265252D01*
X179223212Y-97265252D01*
X180040000Y-98082039D01*
X180856788Y-97265252D01*
X180790801Y-97045004D01*
X180329920Y-96837992D01*
X179824902Y-96823109D01*
X179352630Y-97002621D01*
X179289199Y-97045004D01*
X179223212Y-97265252D01*
X164336000Y-97265252D01*
X164336000Y-96647079D01*
X181210882Y-96647079D01*
X181397074Y-96969985D01*
X182214910Y-97341556D01*
X183112687Y-97371871D01*
X183953725Y-97056314D01*
X184082926Y-96969985D01*
X184269118Y-96647079D01*
X182740000Y-95117961D01*
X181210882Y-96647079D01*
X164336000Y-96647079D01*
X164336000Y-95504000D01*
X164329772Y-95472687D01*
X180468129Y-95472687D01*
X180783686Y-96313725D01*
X180870015Y-96442926D01*
X181192921Y-96629118D01*
X182722039Y-95100000D01*
X182757961Y-95100000D01*
X184287079Y-96629118D01*
X184609985Y-96442926D01*
X184981556Y-95625090D01*
X185011871Y-94727313D01*
X184696314Y-93886275D01*
X184609985Y-93757074D01*
X184287079Y-93570882D01*
X182757961Y-95100000D01*
X182722039Y-95100000D01*
X181192921Y-93570882D01*
X180870015Y-93757074D01*
X180498444Y-94574910D01*
X180468129Y-95472687D01*
X164329772Y-95472687D01*
X164297483Y-95310362D01*
X164187796Y-95146204D01*
X163552796Y-94511204D01*
X163388638Y-94401517D01*
X163195000Y-94363000D01*
X161126421Y-94363000D01*
X160970979Y-94207286D01*
X160684032Y-94088136D01*
X160373331Y-94087864D01*
X160086177Y-94206514D01*
X159866286Y-94426021D01*
X159747136Y-94712968D01*
X159746864Y-95023669D01*
X159865514Y-95310823D01*
X160085021Y-95530714D01*
X160371968Y-95649864D01*
X160682669Y-95650136D01*
X160969823Y-95531486D01*
X161126583Y-95375000D01*
X162985408Y-95375000D01*
X163324000Y-95713592D01*
X163324000Y-99096579D01*
X163168286Y-99252021D01*
X163049136Y-99538968D01*
X163048864Y-99849669D01*
X163167514Y-100136823D01*
X163387021Y-100356714D01*
X163673968Y-100475864D01*
X163984669Y-100476136D01*
X164271823Y-100357486D01*
X164428583Y-100201000D01*
X167430408Y-100201000D01*
X168404000Y-101174592D01*
X168404000Y-108621579D01*
X168248286Y-108777021D01*
X168129136Y-109063968D01*
X168128942Y-109285466D01*
X166160408Y-111254000D01*
X153633421Y-111254000D01*
X153477979Y-111098286D01*
X153191032Y-110979136D01*
X152880331Y-110978864D01*
X152593177Y-111097514D01*
X152373286Y-111317021D01*
X152254136Y-111603968D01*
X152253864Y-111914669D01*
X145568065Y-111914669D01*
X145283005Y-111150350D01*
X145141078Y-110937941D01*
X144688289Y-110599672D01*
X142257961Y-113030000D01*
X142222039Y-113030000D01*
X139791711Y-110599672D01*
X139338922Y-110937941D01*
X138759157Y-112207384D01*
X138709319Y-113602063D01*
X127635000Y-113602063D01*
X127635000Y-110581711D01*
X139809672Y-110581711D01*
X142240000Y-113012039D01*
X144670328Y-110581711D01*
X144332059Y-110128922D01*
X143062616Y-109549157D01*
X141667937Y-109499319D01*
X140360350Y-109986995D01*
X140147941Y-110128922D01*
X139809672Y-110581711D01*
X127635000Y-110581711D01*
X127635000Y-104115617D01*
X130835400Y-104115617D01*
X130835400Y-104164383D01*
X130930140Y-104640671D01*
X131199935Y-105044448D01*
X131603712Y-105314243D01*
X132080000Y-105408983D01*
X132556288Y-105314243D01*
X132960065Y-105044448D01*
X133229860Y-104640671D01*
X133324600Y-104164383D01*
X133324600Y-104115617D01*
X133229860Y-103639329D01*
X132960065Y-103235552D01*
X132556288Y-102965757D01*
X132080000Y-102871017D01*
X131603712Y-102965757D01*
X131199935Y-103235552D01*
X130930140Y-103639329D01*
X130835400Y-104115617D01*
X127635000Y-104115617D01*
X127635000Y-99035617D01*
X130835400Y-99035617D01*
X130835400Y-99084383D01*
X130930140Y-99560671D01*
X131199935Y-99964448D01*
X131603712Y-100234243D01*
X132080000Y-100328983D01*
X132556288Y-100234243D01*
X132960065Y-99964448D01*
X133229860Y-99560671D01*
X133324600Y-99084383D01*
X133324600Y-99035617D01*
X133229860Y-98559329D01*
X132960065Y-98155552D01*
X132556288Y-97885757D01*
X132080000Y-97791017D01*
X131603712Y-97885757D01*
X131199935Y-98155552D01*
X130930140Y-98559329D01*
X130835400Y-99035617D01*
X127635000Y-99035617D01*
X127635000Y-95656400D01*
X130827936Y-95656400D01*
X130827936Y-97383600D01*
X130854503Y-97524790D01*
X130937946Y-97654465D01*
X131065266Y-97741459D01*
X131216400Y-97772064D01*
X132943600Y-97772064D01*
X133084790Y-97745497D01*
X133214465Y-97662054D01*
X133301459Y-97534734D01*
X133332064Y-97383600D01*
X133332064Y-96917686D01*
X133457204Y-97247457D01*
X133824102Y-97637065D01*
X134305446Y-97853586D01*
X134143712Y-97885757D01*
X133739935Y-98155552D01*
X133470140Y-98559329D01*
X133375400Y-99035617D01*
X133375400Y-99084383D01*
X133470140Y-99560671D01*
X133646091Y-99824000D01*
X133350000Y-99824000D01*
X133156362Y-99862517D01*
X132992204Y-99972204D01*
X132541577Y-100422831D01*
X132080000Y-100331017D01*
X131603712Y-100425757D01*
X131199935Y-100695552D01*
X130930140Y-101099329D01*
X130835400Y-101575617D01*
X130835400Y-101624383D01*
X130930140Y-102100671D01*
X131199935Y-102504448D01*
X131603712Y-102774243D01*
X132080000Y-102868983D01*
X132556288Y-102774243D01*
X132960065Y-102504448D01*
X133229860Y-102100671D01*
X133324600Y-101624383D01*
X133324600Y-101575617D01*
X133240877Y-101154715D01*
X133559592Y-100836000D01*
X133646091Y-100836000D01*
X133470140Y-101099329D01*
X133375400Y-101575617D01*
X133375400Y-101624383D01*
X133470140Y-102100671D01*
X133739935Y-102504448D01*
X134143712Y-102774243D01*
X134620000Y-102868983D01*
X135096288Y-102774243D01*
X135500065Y-102504448D01*
X135769860Y-102100671D01*
X135864600Y-101624383D01*
X135864600Y-101575617D01*
X135769860Y-101099329D01*
X135593909Y-100836000D01*
X144456859Y-100836000D01*
X144211177Y-100937514D01*
X143991286Y-101157021D01*
X143872136Y-101443968D01*
X143871864Y-101754669D01*
X143990514Y-102041823D01*
X144147000Y-102198583D01*
X144147000Y-105410000D01*
X144185517Y-105603638D01*
X144295204Y-105767796D01*
X147428057Y-108900649D01*
X147427864Y-109120669D01*
X147522209Y-109349000D01*
X146894592Y-109349000D01*
X142597796Y-105052204D01*
X142433638Y-104942517D01*
X142240000Y-104904000D01*
X135593909Y-104904000D01*
X135769860Y-104640671D01*
X135864600Y-104164383D01*
X135864600Y-104115617D01*
X135769860Y-103639329D01*
X135500065Y-103235552D01*
X135096288Y-102965757D01*
X134620000Y-102871017D01*
X134143712Y-102965757D01*
X133739935Y-103235552D01*
X133470140Y-103639329D01*
X133375400Y-104115617D01*
X133375400Y-104164383D01*
X133470140Y-104640671D01*
X133646091Y-104904000D01*
X133350000Y-104904000D01*
X133156362Y-104942517D01*
X132992204Y-105052204D01*
X132541577Y-105502831D01*
X132080000Y-105411017D01*
X131603712Y-105505757D01*
X131199935Y-105775552D01*
X130930140Y-106179329D01*
X130835400Y-106655617D01*
X130835400Y-106704383D01*
X130930140Y-107180671D01*
X131199935Y-107584448D01*
X131603712Y-107854243D01*
X132080000Y-107948983D01*
X132556288Y-107854243D01*
X132960065Y-107584448D01*
X133229860Y-107180671D01*
X133324600Y-106704383D01*
X133324600Y-106655617D01*
X133240877Y-106234715D01*
X133559592Y-105916000D01*
X133646091Y-105916000D01*
X133470140Y-106179329D01*
X133375400Y-106655617D01*
X133375400Y-106704383D01*
X133470140Y-107180671D01*
X133739935Y-107584448D01*
X134143712Y-107854243D01*
X134620000Y-107948983D01*
X135096288Y-107854243D01*
X135500065Y-107584448D01*
X135769860Y-107180671D01*
X135864600Y-106704383D01*
X135864600Y-106655617D01*
X135769860Y-106179329D01*
X135593909Y-105916000D01*
X142030408Y-105916000D01*
X146327204Y-110212796D01*
X146491362Y-110322483D01*
X146685000Y-110361000D01*
X149860000Y-110361000D01*
X150053638Y-110322483D01*
X150217796Y-110212796D01*
X153392796Y-107037796D01*
X153502483Y-106873638D01*
X153541000Y-106680000D01*
X153541000Y-102198421D01*
X153696714Y-102042979D01*
X153815864Y-101756032D01*
X153816136Y-101445331D01*
X153697486Y-101158177D01*
X153477979Y-100938286D01*
X153191032Y-100819136D01*
X152880331Y-100818864D01*
X152593177Y-100937514D01*
X152373286Y-101157021D01*
X152254136Y-101443968D01*
X152253864Y-101754669D01*
X152372514Y-102041823D01*
X152529000Y-102198583D01*
X152529000Y-106470408D01*
X149650408Y-109349000D01*
X148895619Y-109349000D01*
X148989864Y-109122032D01*
X148990013Y-108952079D01*
X149068968Y-108984864D01*
X149379669Y-108985136D01*
X149666823Y-108866486D01*
X149886714Y-108646979D01*
X150005864Y-108360032D01*
X150005984Y-108222906D01*
X150268669Y-108223136D01*
X150555823Y-108104486D01*
X150775714Y-107884979D01*
X150894864Y-107598032D01*
X150895136Y-107287331D01*
X150776486Y-107000177D01*
X150556979Y-106780286D01*
X150270032Y-106661136D01*
X150022395Y-106660919D01*
X148735965Y-105450162D01*
X148736136Y-105255331D01*
X148617486Y-104968177D01*
X148397979Y-104748286D01*
X148111032Y-104629136D01*
X147800331Y-104628864D01*
X147513177Y-104747514D01*
X147293286Y-104967021D01*
X147192901Y-105208778D01*
X147093486Y-104968177D01*
X146873979Y-104748286D01*
X146587032Y-104629136D01*
X146276331Y-104628864D01*
X145989177Y-104747514D01*
X145769286Y-104967021D01*
X145650136Y-105253968D01*
X145649864Y-105564669D01*
X145739010Y-105780418D01*
X145159000Y-105200408D01*
X145159000Y-102198421D01*
X145314714Y-102042979D01*
X145433864Y-101756032D01*
X145434136Y-101445331D01*
X145315486Y-101158177D01*
X145095979Y-100938286D01*
X144849645Y-100836000D01*
X145205408Y-100836000D01*
X145904057Y-101534649D01*
X145903864Y-101754669D01*
X146022514Y-102041823D01*
X146242021Y-102261714D01*
X146528968Y-102380864D01*
X146839669Y-102381136D01*
X147126823Y-102262486D01*
X147346714Y-102042979D01*
X147465864Y-101756032D01*
X147466136Y-101445331D01*
X147347486Y-101158177D01*
X147127979Y-100938286D01*
X146841032Y-100819136D01*
X146619534Y-100818942D01*
X145772796Y-99972204D01*
X145608638Y-99862517D01*
X145415000Y-99824000D01*
X135593909Y-99824000D01*
X135769860Y-99560671D01*
X135864600Y-99084383D01*
X135864600Y-99035617D01*
X135769860Y-98559329D01*
X135500065Y-98155552D01*
X135096288Y-97885757D01*
X134934554Y-97853586D01*
X135415898Y-97637065D01*
X135782796Y-97247457D01*
X135972669Y-96747100D01*
X135864542Y-96532700D01*
X134632700Y-96532700D01*
X134632700Y-96552700D01*
X134607300Y-96552700D01*
X134607300Y-96532700D01*
X134587300Y-96532700D01*
X134587300Y-96507300D01*
X134607300Y-96507300D01*
X134607300Y-95275465D01*
X134632700Y-95275465D01*
X134632700Y-96507300D01*
X135864542Y-96507300D01*
X135972669Y-96292900D01*
X135782796Y-95792543D01*
X135415898Y-95402935D01*
X134927832Y-95183390D01*
X134847100Y-95167332D01*
X134632700Y-95275465D01*
X134607300Y-95275465D01*
X134392900Y-95167332D01*
X134312168Y-95183390D01*
X133824102Y-95402935D01*
X133457204Y-95792543D01*
X133332064Y-96122314D01*
X133332064Y-95656400D01*
X133305497Y-95515210D01*
X133222054Y-95385535D01*
X133094734Y-95298541D01*
X132943600Y-95267936D01*
X131216400Y-95267936D01*
X131075210Y-95294503D01*
X130945535Y-95377946D01*
X130858541Y-95505266D01*
X130827936Y-95656400D01*
X127635000Y-95656400D01*
X127635000Y-92618289D01*
X139809672Y-92618289D01*
X140147941Y-93071078D01*
X141417384Y-93650843D01*
X142812063Y-93700681D01*
X144119650Y-93213005D01*
X144332059Y-93071078D01*
X144670328Y-92618289D01*
X174099672Y-92618289D01*
X174437941Y-93071078D01*
X175707384Y-93650843D01*
X177102063Y-93700681D01*
X177498246Y-93552921D01*
X181210882Y-93552921D01*
X182740000Y-95082039D01*
X184269118Y-93552921D01*
X184082926Y-93230015D01*
X183265090Y-92858444D01*
X182367313Y-92828129D01*
X181526275Y-93143686D01*
X181397074Y-93230015D01*
X181210882Y-93552921D01*
X177498246Y-93552921D01*
X178409650Y-93213005D01*
X178622059Y-93071078D01*
X178960328Y-92618289D01*
X176530000Y-90187961D01*
X174099672Y-92618289D01*
X144670328Y-92618289D01*
X142240000Y-90187961D01*
X139809672Y-92618289D01*
X127635000Y-92618289D01*
X127635000Y-90742063D01*
X138709319Y-90742063D01*
X139196995Y-92049650D01*
X139338922Y-92262059D01*
X139791711Y-92600328D01*
X142222039Y-90170000D01*
X142257961Y-90170000D01*
X144688289Y-92600328D01*
X145141078Y-92262059D01*
X145720843Y-90992616D01*
X145729796Y-90742063D01*
X172999319Y-90742063D01*
X173486995Y-92049650D01*
X173628922Y-92262059D01*
X174081711Y-92600328D01*
X176512039Y-90170000D01*
X176547961Y-90170000D01*
X178978289Y-92600328D01*
X179431078Y-92262059D01*
X180010843Y-90992616D01*
X180060681Y-89597937D01*
X179573005Y-88290350D01*
X179431078Y-88077941D01*
X178978289Y-87739672D01*
X176547961Y-90170000D01*
X176512039Y-90170000D01*
X174081711Y-87739672D01*
X173628922Y-88077941D01*
X173049157Y-89347384D01*
X172999319Y-90742063D01*
X145729796Y-90742063D01*
X145770681Y-89597937D01*
X145283005Y-88290350D01*
X145141078Y-88077941D01*
X144688289Y-87739672D01*
X142257961Y-90170000D01*
X142222039Y-90170000D01*
X139791711Y-87739672D01*
X139338922Y-88077941D01*
X138759157Y-89347384D01*
X138709319Y-90742063D01*
X127635000Y-90742063D01*
X127635000Y-88996835D01*
X132001125Y-88996835D01*
X132156902Y-89293766D01*
X132884416Y-89623698D01*
X133682812Y-89650109D01*
X134430540Y-89368976D01*
X134543098Y-89293766D01*
X134698875Y-88996835D01*
X133350000Y-87647961D01*
X132001125Y-88996835D01*
X127635000Y-88996835D01*
X127635000Y-87962812D01*
X131329891Y-87962812D01*
X131611024Y-88710540D01*
X131686234Y-88823098D01*
X131983165Y-88978875D01*
X133332039Y-87630000D01*
X133367961Y-87630000D01*
X134716835Y-88978875D01*
X135013766Y-88823098D01*
X135343698Y-88095584D01*
X135356065Y-87721711D01*
X139809672Y-87721711D01*
X142240000Y-90152039D01*
X144670328Y-87721711D01*
X174099672Y-87721711D01*
X176530000Y-90152039D01*
X178960328Y-87721711D01*
X178622059Y-87268922D01*
X177352616Y-86689157D01*
X175957937Y-86639319D01*
X174650350Y-87126995D01*
X174437941Y-87268922D01*
X174099672Y-87721711D01*
X144670328Y-87721711D01*
X144332059Y-87268922D01*
X143062616Y-86689157D01*
X141667937Y-86639319D01*
X140360350Y-87126995D01*
X140147941Y-87268922D01*
X139809672Y-87721711D01*
X135356065Y-87721711D01*
X135370109Y-87297188D01*
X135088976Y-86549460D01*
X135013766Y-86436902D01*
X134716835Y-86281125D01*
X133367961Y-87630000D01*
X133332039Y-87630000D01*
X131983165Y-86281125D01*
X131686234Y-86436902D01*
X131356302Y-87164416D01*
X131329891Y-87962812D01*
X127635000Y-87962812D01*
X127635000Y-86263165D01*
X132001125Y-86263165D01*
X133350000Y-87612039D01*
X134698875Y-86263165D01*
X134543098Y-85966234D01*
X133815584Y-85636302D01*
X133017188Y-85609891D01*
X132269460Y-85891024D01*
X132156902Y-85966234D01*
X132001125Y-86263165D01*
X127635000Y-86263165D01*
X127635000Y-84455000D01*
X192405000Y-84455000D01*
X192405000Y-118745000D01*
X192405000Y-118745000D01*
G37*
X192405000Y-118745000D02*
X127635000Y-118745000D01*
X127635000Y-116994669D01*
X134473864Y-116994669D01*
X134592514Y-117281823D01*
X134812021Y-117501714D01*
X135098968Y-117620864D01*
X135409669Y-117621136D01*
X135696823Y-117502486D01*
X135728364Y-117471000D01*
X152561361Y-117471000D01*
X152592021Y-117501714D01*
X152878968Y-117620864D01*
X153189669Y-117621136D01*
X153476823Y-117502486D01*
X153508364Y-117471000D01*
X180501361Y-117471000D01*
X180532021Y-117501714D01*
X180818968Y-117620864D01*
X181129669Y-117621136D01*
X181416823Y-117502486D01*
X181636714Y-117282979D01*
X181755864Y-116996032D01*
X181756136Y-116685331D01*
X181637486Y-116398177D01*
X181417979Y-116178286D01*
X181131032Y-116059136D01*
X180820331Y-116058864D01*
X180533177Y-116177514D01*
X180501636Y-116209000D01*
X178045012Y-116209000D01*
X178409650Y-116073005D01*
X178622059Y-115931078D01*
X178960328Y-115478289D01*
X176530000Y-113047961D01*
X174099672Y-115478289D01*
X174437941Y-115931078D01*
X175046474Y-116209000D01*
X153508639Y-116209000D01*
X153477979Y-116178286D01*
X153191032Y-116059136D01*
X152880331Y-116058864D01*
X152593177Y-116177514D01*
X152561636Y-116209000D01*
X143755012Y-116209000D01*
X144119650Y-116073005D01*
X144332059Y-115931078D01*
X144670328Y-115478289D01*
X142240000Y-113047961D01*
X139809672Y-115478289D01*
X140147941Y-115931078D01*
X140756474Y-116209000D01*
X135728639Y-116209000D01*
X135697979Y-116178286D01*
X135411032Y-116059136D01*
X135100331Y-116058864D01*
X134813177Y-116177514D01*
X134593286Y-116397021D01*
X134474136Y-116683968D01*
X134473864Y-116994669D01*
X127635000Y-116994669D01*
X127635000Y-113602063D01*
X138709319Y-113602063D01*
X139196995Y-114909650D01*
X139338922Y-115122059D01*
X139791711Y-115460328D01*
X142222039Y-113030000D01*
X142257961Y-113030000D01*
X144688289Y-115460328D01*
X145141078Y-115122059D01*
X145720843Y-113852616D01*
X145729796Y-113602063D01*
X172999319Y-113602063D01*
X173486995Y-114909650D01*
X173628922Y-115122059D01*
X174081711Y-115460328D01*
X176512039Y-113030000D01*
X176547961Y-113030000D01*
X178978289Y-115460328D01*
X179431078Y-115122059D01*
X180010843Y-113852616D01*
X180060681Y-112457937D01*
X179573005Y-111150350D01*
X179431078Y-110937941D01*
X178978289Y-110599672D01*
X176547961Y-113030000D01*
X176512039Y-113030000D01*
X174081711Y-110599672D01*
X173628922Y-110937941D01*
X173049157Y-112207384D01*
X172999319Y-113602063D01*
X145729796Y-113602063D01*
X145770681Y-112457937D01*
X145568065Y-111914669D01*
X152253864Y-111914669D01*
X152372514Y-112201823D01*
X152592021Y-112421714D01*
X152878968Y-112540864D01*
X153189669Y-112541136D01*
X153476823Y-112422486D01*
X153633583Y-112266000D01*
X166370000Y-112266000D01*
X166563638Y-112227483D01*
X166727796Y-112117796D01*
X168263881Y-110581711D01*
X174099672Y-110581711D01*
X176530000Y-113012039D01*
X178960328Y-110581711D01*
X178622059Y-110128922D01*
X177567025Y-109647079D01*
X181210882Y-109647079D01*
X181397074Y-109969985D01*
X182214910Y-110341556D01*
X183112687Y-110371871D01*
X183953725Y-110056314D01*
X184082926Y-109969985D01*
X184269118Y-109647079D01*
X182740000Y-108117961D01*
X181210882Y-109647079D01*
X177567025Y-109647079D01*
X177352616Y-109549157D01*
X175957937Y-109499319D01*
X174650350Y-109986995D01*
X174437941Y-110128922D01*
X174099672Y-110581711D01*
X168263881Y-110581711D01*
X168844649Y-110000943D01*
X169064669Y-110001136D01*
X169351823Y-109882486D01*
X169571714Y-109662979D01*
X169690864Y-109376032D01*
X169691136Y-109065331D01*
X169572486Y-108778177D01*
X169416000Y-108621417D01*
X169416000Y-108472687D01*
X180468129Y-108472687D01*
X180783686Y-109313725D01*
X180870015Y-109442926D01*
X181192921Y-109629118D01*
X182722039Y-108100000D01*
X182757961Y-108100000D01*
X184287079Y-109629118D01*
X184609985Y-109442926D01*
X184981556Y-108625090D01*
X185011871Y-107727313D01*
X184696314Y-106886275D01*
X184609985Y-106757074D01*
X184287079Y-106570882D01*
X182757961Y-108100000D01*
X182722039Y-108100000D01*
X181192921Y-106570882D01*
X180870015Y-106757074D01*
X180498444Y-107574910D01*
X180468129Y-108472687D01*
X169416000Y-108472687D01*
X169416000Y-106552921D01*
X181210882Y-106552921D01*
X182740000Y-108082039D01*
X184269118Y-106552921D01*
X184082926Y-106230015D01*
X183265090Y-105858444D01*
X182367313Y-105828129D01*
X181526275Y-106143686D01*
X181397074Y-106230015D01*
X181210882Y-106552921D01*
X169416000Y-106552921D01*
X169416000Y-102741000D01*
X174026579Y-102741000D01*
X174182021Y-102896714D01*
X174468968Y-103015864D01*
X174779669Y-103016136D01*
X175066823Y-102897486D01*
X175286714Y-102677979D01*
X175405864Y-102391032D01*
X175406136Y-102080331D01*
X175287486Y-101793177D01*
X175094502Y-101599855D01*
X175098364Y-101596000D01*
X175643632Y-101596000D01*
X178903677Y-104856045D01*
X178897199Y-104871646D01*
X178896802Y-105326359D01*
X179070446Y-105746612D01*
X179391697Y-106068423D01*
X179811646Y-106242801D01*
X180266359Y-106243198D01*
X180686612Y-106069554D01*
X181008423Y-105748303D01*
X181182801Y-105328354D01*
X181183198Y-104873641D01*
X181009554Y-104453388D01*
X180688303Y-104131577D01*
X180268354Y-103957199D01*
X179813641Y-103956802D01*
X179796325Y-103963957D01*
X179407249Y-103574881D01*
X179811646Y-103742801D01*
X180266359Y-103743198D01*
X180686612Y-103569554D01*
X181008423Y-103248303D01*
X181182801Y-102828354D01*
X181183198Y-102373641D01*
X181009554Y-101953388D01*
X180688303Y-101631577D01*
X180612591Y-101600139D01*
X180686612Y-101569554D01*
X181008423Y-101248303D01*
X181182801Y-100828354D01*
X181183198Y-100373641D01*
X181009554Y-99953388D01*
X180688303Y-99631577D01*
X180268354Y-99457199D01*
X179813641Y-99456802D01*
X179393388Y-99630446D01*
X179071577Y-99951697D01*
X178897199Y-100371646D01*
X178896802Y-100826359D01*
X179070446Y-101246612D01*
X179391697Y-101568423D01*
X179467409Y-101599861D01*
X179393388Y-101630446D01*
X179071577Y-101951697D01*
X178897199Y-102371646D01*
X178896802Y-102826359D01*
X179064437Y-103232069D01*
X176351184Y-100518816D01*
X176146473Y-100382032D01*
X175905000Y-100334000D01*
X175098639Y-100334000D01*
X175067979Y-100303286D01*
X174781032Y-100184136D01*
X174470331Y-100183864D01*
X174183177Y-100302514D01*
X173963286Y-100522021D01*
X173844136Y-100808968D01*
X173843864Y-101119669D01*
X173962514Y-101406823D01*
X174155498Y-101600145D01*
X174026417Y-101729000D01*
X169416000Y-101729000D01*
X169416000Y-100965000D01*
X169377483Y-100771362D01*
X169267796Y-100607204D01*
X167997796Y-99337204D01*
X167833638Y-99227517D01*
X167640000Y-99189000D01*
X164428421Y-99189000D01*
X164336000Y-99096417D01*
X164336000Y-98934748D01*
X179223212Y-98934748D01*
X179289199Y-99154996D01*
X179750080Y-99362008D01*
X180255098Y-99376891D01*
X180727370Y-99197379D01*
X180790801Y-99154996D01*
X180856788Y-98934748D01*
X180040000Y-98117961D01*
X179223212Y-98934748D01*
X164336000Y-98934748D01*
X164336000Y-98315098D01*
X178763109Y-98315098D01*
X178942621Y-98787370D01*
X178985004Y-98850801D01*
X179205252Y-98916788D01*
X180022039Y-98100000D01*
X180057961Y-98100000D01*
X180874748Y-98916788D01*
X181094996Y-98850801D01*
X181302008Y-98389920D01*
X181316891Y-97884902D01*
X181137379Y-97412630D01*
X181094996Y-97349199D01*
X180874748Y-97283212D01*
X180057961Y-98100000D01*
X180022039Y-98100000D01*
X179205252Y-97283212D01*
X178985004Y-97349199D01*
X178777992Y-97810080D01*
X178763109Y-98315098D01*
X164336000Y-98315098D01*
X164336000Y-97265252D01*
X179223212Y-97265252D01*
X180040000Y-98082039D01*
X180856788Y-97265252D01*
X180790801Y-97045004D01*
X180329920Y-96837992D01*
X179824902Y-96823109D01*
X179352630Y-97002621D01*
X179289199Y-97045004D01*
X179223212Y-97265252D01*
X164336000Y-97265252D01*
X164336000Y-96647079D01*
X181210882Y-96647079D01*
X181397074Y-96969985D01*
X182214910Y-97341556D01*
X183112687Y-97371871D01*
X183953725Y-97056314D01*
X184082926Y-96969985D01*
X184269118Y-96647079D01*
X182740000Y-95117961D01*
X181210882Y-96647079D01*
X164336000Y-96647079D01*
X164336000Y-95504000D01*
X164329772Y-95472687D01*
X180468129Y-95472687D01*
X180783686Y-96313725D01*
X180870015Y-96442926D01*
X181192921Y-96629118D01*
X182722039Y-95100000D01*
X182757961Y-95100000D01*
X184287079Y-96629118D01*
X184609985Y-96442926D01*
X184981556Y-95625090D01*
X185011871Y-94727313D01*
X184696314Y-93886275D01*
X184609985Y-93757074D01*
X184287079Y-93570882D01*
X182757961Y-95100000D01*
X182722039Y-95100000D01*
X181192921Y-93570882D01*
X180870015Y-93757074D01*
X180498444Y-94574910D01*
X180468129Y-95472687D01*
X164329772Y-95472687D01*
X164297483Y-95310362D01*
X164187796Y-95146204D01*
X163552796Y-94511204D01*
X163388638Y-94401517D01*
X163195000Y-94363000D01*
X161126421Y-94363000D01*
X160970979Y-94207286D01*
X160684032Y-94088136D01*
X160373331Y-94087864D01*
X160086177Y-94206514D01*
X159866286Y-94426021D01*
X159747136Y-94712968D01*
X159746864Y-95023669D01*
X159865514Y-95310823D01*
X160085021Y-95530714D01*
X160371968Y-95649864D01*
X160682669Y-95650136D01*
X160969823Y-95531486D01*
X161126583Y-95375000D01*
X162985408Y-95375000D01*
X163324000Y-95713592D01*
X163324000Y-99096579D01*
X163168286Y-99252021D01*
X163049136Y-99538968D01*
X163048864Y-99849669D01*
X163167514Y-100136823D01*
X163387021Y-100356714D01*
X163673968Y-100475864D01*
X163984669Y-100476136D01*
X164271823Y-100357486D01*
X164428583Y-100201000D01*
X167430408Y-100201000D01*
X168404000Y-101174592D01*
X168404000Y-108621579D01*
X168248286Y-108777021D01*
X168129136Y-109063968D01*
X168128942Y-109285466D01*
X166160408Y-111254000D01*
X153633421Y-111254000D01*
X153477979Y-111098286D01*
X153191032Y-110979136D01*
X152880331Y-110978864D01*
X152593177Y-111097514D01*
X152373286Y-111317021D01*
X152254136Y-111603968D01*
X152253864Y-111914669D01*
X145568065Y-111914669D01*
X145283005Y-111150350D01*
X145141078Y-110937941D01*
X144688289Y-110599672D01*
X142257961Y-113030000D01*
X142222039Y-113030000D01*
X139791711Y-110599672D01*
X139338922Y-110937941D01*
X138759157Y-112207384D01*
X138709319Y-113602063D01*
X127635000Y-113602063D01*
X127635000Y-110581711D01*
X139809672Y-110581711D01*
X142240000Y-113012039D01*
X144670328Y-110581711D01*
X144332059Y-110128922D01*
X143062616Y-109549157D01*
X141667937Y-109499319D01*
X140360350Y-109986995D01*
X140147941Y-110128922D01*
X139809672Y-110581711D01*
X127635000Y-110581711D01*
X127635000Y-104115617D01*
X130835400Y-104115617D01*
X130835400Y-104164383D01*
X130930140Y-104640671D01*
X131199935Y-105044448D01*
X131603712Y-105314243D01*
X132080000Y-105408983D01*
X132556288Y-105314243D01*
X132960065Y-105044448D01*
X133229860Y-104640671D01*
X133324600Y-104164383D01*
X133324600Y-104115617D01*
X133229860Y-103639329D01*
X132960065Y-103235552D01*
X132556288Y-102965757D01*
X132080000Y-102871017D01*
X131603712Y-102965757D01*
X131199935Y-103235552D01*
X130930140Y-103639329D01*
X130835400Y-104115617D01*
X127635000Y-104115617D01*
X127635000Y-99035617D01*
X130835400Y-99035617D01*
X130835400Y-99084383D01*
X130930140Y-99560671D01*
X131199935Y-99964448D01*
X131603712Y-100234243D01*
X132080000Y-100328983D01*
X132556288Y-100234243D01*
X132960065Y-99964448D01*
X133229860Y-99560671D01*
X133324600Y-99084383D01*
X133324600Y-99035617D01*
X133229860Y-98559329D01*
X132960065Y-98155552D01*
X132556288Y-97885757D01*
X132080000Y-97791017D01*
X131603712Y-97885757D01*
X131199935Y-98155552D01*
X130930140Y-98559329D01*
X130835400Y-99035617D01*
X127635000Y-99035617D01*
X127635000Y-95656400D01*
X130827936Y-95656400D01*
X130827936Y-97383600D01*
X130854503Y-97524790D01*
X130937946Y-97654465D01*
X131065266Y-97741459D01*
X131216400Y-97772064D01*
X132943600Y-97772064D01*
X133084790Y-97745497D01*
X133214465Y-97662054D01*
X133301459Y-97534734D01*
X133332064Y-97383600D01*
X133332064Y-96917686D01*
X133457204Y-97247457D01*
X133824102Y-97637065D01*
X134305446Y-97853586D01*
X134143712Y-97885757D01*
X133739935Y-98155552D01*
X133470140Y-98559329D01*
X133375400Y-99035617D01*
X133375400Y-99084383D01*
X133470140Y-99560671D01*
X133646091Y-99824000D01*
X133350000Y-99824000D01*
X133156362Y-99862517D01*
X132992204Y-99972204D01*
X132541577Y-100422831D01*
X132080000Y-100331017D01*
X131603712Y-100425757D01*
X131199935Y-100695552D01*
X130930140Y-101099329D01*
X130835400Y-101575617D01*
X130835400Y-101624383D01*
X130930140Y-102100671D01*
X131199935Y-102504448D01*
X131603712Y-102774243D01*
X132080000Y-102868983D01*
X132556288Y-102774243D01*
X132960065Y-102504448D01*
X133229860Y-102100671D01*
X133324600Y-101624383D01*
X133324600Y-101575617D01*
X133240877Y-101154715D01*
X133559592Y-100836000D01*
X133646091Y-100836000D01*
X133470140Y-101099329D01*
X133375400Y-101575617D01*
X133375400Y-101624383D01*
X133470140Y-102100671D01*
X133739935Y-102504448D01*
X134143712Y-102774243D01*
X134620000Y-102868983D01*
X135096288Y-102774243D01*
X135500065Y-102504448D01*
X135769860Y-102100671D01*
X135864600Y-101624383D01*
X135864600Y-101575617D01*
X135769860Y-101099329D01*
X135593909Y-100836000D01*
X144456859Y-100836000D01*
X144211177Y-100937514D01*
X143991286Y-101157021D01*
X143872136Y-101443968D01*
X143871864Y-101754669D01*
X143990514Y-102041823D01*
X144147000Y-102198583D01*
X144147000Y-105410000D01*
X144185517Y-105603638D01*
X144295204Y-105767796D01*
X147428057Y-108900649D01*
X147427864Y-109120669D01*
X147522209Y-109349000D01*
X146894592Y-109349000D01*
X142597796Y-105052204D01*
X142433638Y-104942517D01*
X142240000Y-104904000D01*
X135593909Y-104904000D01*
X135769860Y-104640671D01*
X135864600Y-104164383D01*
X135864600Y-104115617D01*
X135769860Y-103639329D01*
X135500065Y-103235552D01*
X135096288Y-102965757D01*
X134620000Y-102871017D01*
X134143712Y-102965757D01*
X133739935Y-103235552D01*
X133470140Y-103639329D01*
X133375400Y-104115617D01*
X133375400Y-104164383D01*
X133470140Y-104640671D01*
X133646091Y-104904000D01*
X133350000Y-104904000D01*
X133156362Y-104942517D01*
X132992204Y-105052204D01*
X132541577Y-105502831D01*
X132080000Y-105411017D01*
X131603712Y-105505757D01*
X131199935Y-105775552D01*
X130930140Y-106179329D01*
X130835400Y-106655617D01*
X130835400Y-106704383D01*
X130930140Y-107180671D01*
X131199935Y-107584448D01*
X131603712Y-107854243D01*
X132080000Y-107948983D01*
X132556288Y-107854243D01*
X132960065Y-107584448D01*
X133229860Y-107180671D01*
X133324600Y-106704383D01*
X133324600Y-106655617D01*
X133240877Y-106234715D01*
X133559592Y-105916000D01*
X133646091Y-105916000D01*
X133470140Y-106179329D01*
X133375400Y-106655617D01*
X133375400Y-106704383D01*
X133470140Y-107180671D01*
X133739935Y-107584448D01*
X134143712Y-107854243D01*
X134620000Y-107948983D01*
X135096288Y-107854243D01*
X135500065Y-107584448D01*
X135769860Y-107180671D01*
X135864600Y-106704383D01*
X135864600Y-106655617D01*
X135769860Y-106179329D01*
X135593909Y-105916000D01*
X142030408Y-105916000D01*
X146327204Y-110212796D01*
X146491362Y-110322483D01*
X146685000Y-110361000D01*
X149860000Y-110361000D01*
X150053638Y-110322483D01*
X150217796Y-110212796D01*
X153392796Y-107037796D01*
X153502483Y-106873638D01*
X153541000Y-106680000D01*
X153541000Y-102198421D01*
X153696714Y-102042979D01*
X153815864Y-101756032D01*
X153816136Y-101445331D01*
X153697486Y-101158177D01*
X153477979Y-100938286D01*
X153191032Y-100819136D01*
X152880331Y-100818864D01*
X152593177Y-100937514D01*
X152373286Y-101157021D01*
X152254136Y-101443968D01*
X152253864Y-101754669D01*
X152372514Y-102041823D01*
X152529000Y-102198583D01*
X152529000Y-106470408D01*
X149650408Y-109349000D01*
X148895619Y-109349000D01*
X148989864Y-109122032D01*
X148990013Y-108952079D01*
X149068968Y-108984864D01*
X149379669Y-108985136D01*
X149666823Y-108866486D01*
X149886714Y-108646979D01*
X150005864Y-108360032D01*
X150005984Y-108222906D01*
X150268669Y-108223136D01*
X150555823Y-108104486D01*
X150775714Y-107884979D01*
X150894864Y-107598032D01*
X150895136Y-107287331D01*
X150776486Y-107000177D01*
X150556979Y-106780286D01*
X150270032Y-106661136D01*
X150022395Y-106660919D01*
X148735965Y-105450162D01*
X148736136Y-105255331D01*
X148617486Y-104968177D01*
X148397979Y-104748286D01*
X148111032Y-104629136D01*
X147800331Y-104628864D01*
X147513177Y-104747514D01*
X147293286Y-104967021D01*
X147192901Y-105208778D01*
X147093486Y-104968177D01*
X146873979Y-104748286D01*
X146587032Y-104629136D01*
X146276331Y-104628864D01*
X145989177Y-104747514D01*
X145769286Y-104967021D01*
X145650136Y-105253968D01*
X145649864Y-105564669D01*
X145739010Y-105780418D01*
X145159000Y-105200408D01*
X145159000Y-102198421D01*
X145314714Y-102042979D01*
X145433864Y-101756032D01*
X145434136Y-101445331D01*
X145315486Y-101158177D01*
X145095979Y-100938286D01*
X144849645Y-100836000D01*
X145205408Y-100836000D01*
X145904057Y-101534649D01*
X145903864Y-101754669D01*
X146022514Y-102041823D01*
X146242021Y-102261714D01*
X146528968Y-102380864D01*
X146839669Y-102381136D01*
X147126823Y-102262486D01*
X147346714Y-102042979D01*
X147465864Y-101756032D01*
X147466136Y-101445331D01*
X147347486Y-101158177D01*
X147127979Y-100938286D01*
X146841032Y-100819136D01*
X146619534Y-100818942D01*
X145772796Y-99972204D01*
X145608638Y-99862517D01*
X145415000Y-99824000D01*
X135593909Y-99824000D01*
X135769860Y-99560671D01*
X135864600Y-99084383D01*
X135864600Y-99035617D01*
X135769860Y-98559329D01*
X135500065Y-98155552D01*
X135096288Y-97885757D01*
X134934554Y-97853586D01*
X135415898Y-97637065D01*
X135782796Y-97247457D01*
X135972669Y-96747100D01*
X135864542Y-96532700D01*
X134632700Y-96532700D01*
X134632700Y-96552700D01*
X134607300Y-96552700D01*
X134607300Y-96532700D01*
X134587300Y-96532700D01*
X134587300Y-96507300D01*
X134607300Y-96507300D01*
X134607300Y-95275465D01*
X134632700Y-95275465D01*
X134632700Y-96507300D01*
X135864542Y-96507300D01*
X135972669Y-96292900D01*
X135782796Y-95792543D01*
X135415898Y-95402935D01*
X134927832Y-95183390D01*
X134847100Y-95167332D01*
X134632700Y-95275465D01*
X134607300Y-95275465D01*
X134392900Y-95167332D01*
X134312168Y-95183390D01*
X133824102Y-95402935D01*
X133457204Y-95792543D01*
X133332064Y-96122314D01*
X133332064Y-95656400D01*
X133305497Y-95515210D01*
X133222054Y-95385535D01*
X133094734Y-95298541D01*
X132943600Y-95267936D01*
X131216400Y-95267936D01*
X131075210Y-95294503D01*
X130945535Y-95377946D01*
X130858541Y-95505266D01*
X130827936Y-95656400D01*
X127635000Y-95656400D01*
X127635000Y-92618289D01*
X139809672Y-92618289D01*
X140147941Y-93071078D01*
X141417384Y-93650843D01*
X142812063Y-93700681D01*
X144119650Y-93213005D01*
X144332059Y-93071078D01*
X144670328Y-92618289D01*
X174099672Y-92618289D01*
X174437941Y-93071078D01*
X175707384Y-93650843D01*
X177102063Y-93700681D01*
X177498246Y-93552921D01*
X181210882Y-93552921D01*
X182740000Y-95082039D01*
X184269118Y-93552921D01*
X184082926Y-93230015D01*
X183265090Y-92858444D01*
X182367313Y-92828129D01*
X181526275Y-93143686D01*
X181397074Y-93230015D01*
X181210882Y-93552921D01*
X177498246Y-93552921D01*
X178409650Y-93213005D01*
X178622059Y-93071078D01*
X178960328Y-92618289D01*
X176530000Y-90187961D01*
X174099672Y-92618289D01*
X144670328Y-92618289D01*
X142240000Y-90187961D01*
X139809672Y-92618289D01*
X127635000Y-92618289D01*
X127635000Y-90742063D01*
X138709319Y-90742063D01*
X139196995Y-92049650D01*
X139338922Y-92262059D01*
X139791711Y-92600328D01*
X142222039Y-90170000D01*
X142257961Y-90170000D01*
X144688289Y-92600328D01*
X145141078Y-92262059D01*
X145720843Y-90992616D01*
X145729796Y-90742063D01*
X172999319Y-90742063D01*
X173486995Y-92049650D01*
X173628922Y-92262059D01*
X174081711Y-92600328D01*
X176512039Y-90170000D01*
X176547961Y-90170000D01*
X178978289Y-92600328D01*
X179431078Y-92262059D01*
X180010843Y-90992616D01*
X180060681Y-89597937D01*
X179573005Y-88290350D01*
X179431078Y-88077941D01*
X178978289Y-87739672D01*
X176547961Y-90170000D01*
X176512039Y-90170000D01*
X174081711Y-87739672D01*
X173628922Y-88077941D01*
X173049157Y-89347384D01*
X172999319Y-90742063D01*
X145729796Y-90742063D01*
X145770681Y-89597937D01*
X145283005Y-88290350D01*
X145141078Y-88077941D01*
X144688289Y-87739672D01*
X142257961Y-90170000D01*
X142222039Y-90170000D01*
X139791711Y-87739672D01*
X139338922Y-88077941D01*
X138759157Y-89347384D01*
X138709319Y-90742063D01*
X127635000Y-90742063D01*
X127635000Y-88996835D01*
X132001125Y-88996835D01*
X132156902Y-89293766D01*
X132884416Y-89623698D01*
X133682812Y-89650109D01*
X134430540Y-89368976D01*
X134543098Y-89293766D01*
X134698875Y-88996835D01*
X133350000Y-87647961D01*
X132001125Y-88996835D01*
X127635000Y-88996835D01*
X127635000Y-87962812D01*
X131329891Y-87962812D01*
X131611024Y-88710540D01*
X131686234Y-88823098D01*
X131983165Y-88978875D01*
X133332039Y-87630000D01*
X133367961Y-87630000D01*
X134716835Y-88978875D01*
X135013766Y-88823098D01*
X135343698Y-88095584D01*
X135356065Y-87721711D01*
X139809672Y-87721711D01*
X142240000Y-90152039D01*
X144670328Y-87721711D01*
X174099672Y-87721711D01*
X176530000Y-90152039D01*
X178960328Y-87721711D01*
X178622059Y-87268922D01*
X177352616Y-86689157D01*
X175957937Y-86639319D01*
X174650350Y-87126995D01*
X174437941Y-87268922D01*
X174099672Y-87721711D01*
X144670328Y-87721711D01*
X144332059Y-87268922D01*
X143062616Y-86689157D01*
X141667937Y-86639319D01*
X140360350Y-87126995D01*
X140147941Y-87268922D01*
X139809672Y-87721711D01*
X135356065Y-87721711D01*
X135370109Y-87297188D01*
X135088976Y-86549460D01*
X135013766Y-86436902D01*
X134716835Y-86281125D01*
X133367961Y-87630000D01*
X133332039Y-87630000D01*
X131983165Y-86281125D01*
X131686234Y-86436902D01*
X131356302Y-87164416D01*
X131329891Y-87962812D01*
X127635000Y-87962812D01*
X127635000Y-86263165D01*
X132001125Y-86263165D01*
X133350000Y-87612039D01*
X134698875Y-86263165D01*
X134543098Y-85966234D01*
X133815584Y-85636302D01*
X133017188Y-85609891D01*
X132269460Y-85891024D01*
X132156902Y-85966234D01*
X132001125Y-86263165D01*
X127635000Y-86263165D01*
X127635000Y-84455000D01*
X192405000Y-84455000D01*
X192405000Y-118745000D01*
M02*
