G04 #@! TF.FileFunction,Soldermask,Top*
%FSLAX46Y46*%
G04 Gerber Fmt 4.6, Leading zero omitted, Abs format (unit mm)*
G04 Created by KiCad (PCBNEW 4.0.5+dfsg1-4) date Fri Dec 28 13:07:42 2018*
%MOMM*%
%LPD*%
G01*
G04 APERTURE LIST*
%ADD10C,0.100000*%
%ADD11R,4.400500X3.100020*%
%ADD12R,1.800000X1.600000*%
%ADD13R,1.600000X1.150000*%
%ADD14R,2.400000X2.100000*%
%ADD15R,2.127200X2.127200*%
%ADD16O,2.127200X2.127200*%
%ADD17C,1.924000*%
%ADD18C,3.900000*%
%ADD19R,1.600000X1.300000*%
%ADD20R,0.400000X0.950000*%
%ADD21C,6.400000*%
%ADD22R,0.908000X1.543000*%
%ADD23R,1.600000X0.680000*%
%ADD24R,0.680000X1.600000*%
%ADD25C,3.400000*%
%ADD26R,1.150000X1.600000*%
%ADD27R,1.050000X1.460000*%
%ADD28C,2.540000*%
G04 APERTURE END LIST*
D10*
D11*
X149019260Y-116078000D03*
X156796740Y-116078000D03*
X149019260Y-110998000D03*
X156796740Y-110998000D03*
D12*
X163650000Y-95050000D03*
X165850000Y-95050000D03*
X165850000Y-93450000D03*
X163650000Y-93450000D03*
D13*
X169230000Y-96520000D03*
X171130000Y-96520000D03*
X169230000Y-98552000D03*
X171130000Y-98552000D03*
D14*
X185960000Y-113030000D03*
X189960000Y-113030000D03*
D15*
X134620000Y-106680000D03*
D16*
X132080000Y-106680000D03*
X134620000Y-104140000D03*
X132080000Y-104140000D03*
X134620000Y-101600000D03*
X132080000Y-101600000D03*
X134620000Y-99060000D03*
X132080000Y-99060000D03*
X134620000Y-96520000D03*
X132080000Y-96520000D03*
D17*
X180040000Y-100600000D03*
X180040000Y-102600000D03*
X180040000Y-98100000D03*
X180040000Y-105100000D03*
D18*
X182740000Y-108100000D03*
X182740000Y-95100000D03*
D19*
X161460000Y-116078000D03*
X163660000Y-116078000D03*
X142070000Y-106680000D03*
X139870000Y-106680000D03*
X147150000Y-108204000D03*
X144950000Y-108204000D03*
X158412000Y-94488000D03*
X160612000Y-94488000D03*
X156040000Y-94488000D03*
X153840000Y-94488000D03*
D20*
X176030000Y-100875000D03*
X176530000Y-100875000D03*
X177030000Y-100875000D03*
X177030000Y-102325000D03*
X176530000Y-102325000D03*
X176030000Y-102325000D03*
D21*
X142240000Y-90170000D03*
X142240000Y-113030000D03*
X176530000Y-113030000D03*
X176530000Y-90170000D03*
D13*
X188910000Y-117475000D03*
X187010000Y-117475000D03*
X188910000Y-115570000D03*
X187010000Y-115570000D03*
D22*
X155575000Y-103505000D03*
X153035000Y-103505000D03*
X151765000Y-103505000D03*
X150495000Y-103505000D03*
X149225000Y-103505000D03*
X147955000Y-103505000D03*
X146685000Y-103505000D03*
X146685000Y-97155000D03*
X147955000Y-97155000D03*
X149225000Y-97155000D03*
X150495000Y-97155000D03*
X151765000Y-97155000D03*
X153035000Y-97155000D03*
X154305000Y-97155000D03*
X155575000Y-97155000D03*
X154305000Y-103505000D03*
D23*
X159945000Y-99850000D03*
X159945000Y-100350000D03*
X159945000Y-100850000D03*
X159945000Y-101350000D03*
X159945000Y-101850000D03*
X159945000Y-102350000D03*
X159945000Y-102850000D03*
X159945000Y-103350000D03*
D24*
X161445000Y-104850000D03*
X161945000Y-104850000D03*
X162445000Y-104850000D03*
X162945000Y-104850000D03*
X163445000Y-104850000D03*
X163945000Y-104850000D03*
X164445000Y-104850000D03*
X164945000Y-104850000D03*
D23*
X166445000Y-103350000D03*
X166445000Y-102850000D03*
X166445000Y-102350000D03*
X166445000Y-101850000D03*
X166445000Y-101350000D03*
X166445000Y-100850000D03*
X166445000Y-100350000D03*
X166445000Y-99850000D03*
D24*
X164945000Y-98350000D03*
X164445000Y-98350000D03*
X163945000Y-98350000D03*
X163445000Y-98350000D03*
X162945000Y-98350000D03*
X162445000Y-98350000D03*
X161945000Y-98350000D03*
X161445000Y-98350000D03*
D25*
X132080000Y-86360000D03*
D26*
X157988000Y-98232000D03*
X157988000Y-96332000D03*
D19*
X173058000Y-102870000D03*
X170858000Y-102870000D03*
D13*
X168976000Y-116078000D03*
X170876000Y-116078000D03*
X163642000Y-91440000D03*
X165542000Y-91440000D03*
D19*
X173058000Y-100330000D03*
X170858000Y-100330000D03*
D27*
X165166000Y-113876000D03*
X166116000Y-113876000D03*
X167066000Y-113876000D03*
X167066000Y-111676000D03*
X165166000Y-111676000D03*
D28*
X137160000Y-88900000D03*
X182880000Y-88900000D03*
X170180000Y-109220000D03*
M02*
